<?xml version="1.0" encoding="utf-8"?>
<!-- Generator: Adobe Illustrator 23.1.0, SVG Export Plug-In . SVG Version: 6.00 Build 0)  -->
<svg version="1.1" id="Capa_1" xmlns="http://www.w3.org/2000/svg" xmlns:xlink="http://www.w3.org/1999/xlink" x="0px" y="0px"
	 viewBox="0 0 55 55" style="enable-background:new 0 0 55 55;" xml:space="preserve">
<style type="text/css">
	.st0{fill:#383838;}
</style>
<g>
	<path class="st0" d="M33.1,50c-0.5,0-1.3-0.3-2.2-0.6c-0.7-0.2-1.4-0.4-2.1-0.7c-0.9-0.3-1.8-0.2-2.7,0c-1.2,0.4-2.4,0.8-3.7,1.1
		c-2.2,0.4-4-0.3-5.3-2.1c-0.7-1-1.4-2-2-3.1c-0.5-0.7-1.1-1.3-1.9-1.6c-1-0.4-1.9-0.8-2.9-1.2c-1.9-0.8-3.1-2.1-3.4-4.2
		c-0.2-0.9,0-1.7,0.1-2.6c0.1-0.9,0.2-1.7,0.3-2.6c0.1-0.7-0.1-1.4-0.4-2c-0.5-1-1-2-1.5-3c-1.2-2.4-0.7-5,1.3-6.8
		c0.8-0.7,1.5-1.4,2.3-2.1c0.6-0.6,1-1.3,1.2-2.1c0.2-1.1,0.5-2.1,0.7-3.2c0.6-2.5,2.6-4.1,5.1-4.2C17.2,9,18.4,9,19.6,8.9
		c0.7,0,1.3-0.3,1.8-0.7c0.9-0.7,1.8-1.3,2.6-2c2.2-1.6,4.6-1.6,6.8,0c0.8,0.6,1.7,1.3,2.5,1.9c0.7,0.5,1.5,0.8,2.4,0.9
		C36.9,9,38,9.1,39.1,9.1c2.5,0.1,4.4,1.8,5,4.2c0.3,1.1,0.5,2.1,0.7,3.2c0.2,0.9,0.6,1.6,1.2,2.2c0.8,0.7,1.5,1.4,2.2,2.1
		c2,1.8,2.5,4.3,1.3,6.8c-0.4,0.8-0.8,1.7-1.3,2.5c-0.6,1.1-0.7,2.3-0.5,3.5c0.2,1.1,0.4,2.2,0.3,3.4c0,2.2-1,3.7-2.9,4.7
		c-1.1,0.6-2.2,1-3.3,1.5c-0.9,0.4-1.6,0.9-2.1,1.7c-0.6,0.9-1.2,1.9-1.8,2.8C37,49.2,35.5,50,33.1,50z M33.5,48.5
		c1.4,0,2.5-0.6,3.2-1.8c0.7-1,1.3-2,1.9-3c0.6-0.9,1.4-1.6,2.4-2c1.1-0.4,2.1-0.9,3.2-1.4c1.7-0.7,2.4-2.2,2.3-3.7
		c0-1.1-0.2-2.2-0.4-3.4c-0.2-1.3,0-2.5,0.6-3.7c0.5-1,1-2,1.5-3c0.8-1.6,0.5-3.2-0.8-4.4c-0.8-0.8-1.5-1.5-2.3-2.2
		c-1-0.9-1.6-1.9-1.9-3.2c-0.3-1.1-0.5-2.3-0.8-3.4c-0.4-1.5-1.6-2.5-3.1-2.7c-1-0.1-2-0.2-3-0.2c-1.6,0-3-0.4-4.3-1.5
		c-0.7-0.6-1.5-1.2-2.3-1.7c-1.5-1.1-3.2-1.1-4.7,0.1c-0.9,0.7-1.8,1.4-2.8,2.1c-0.7,0.5-1.4,0.8-2.2,1c-1.3,0.2-2.5,0.2-3.8,0.3
		c-2.1,0.1-3.5,1.2-4,3.2c-0.2,1-0.5,2-0.7,2.9c-0.3,1.3-1,2.4-2,3.3c-0.7,0.7-1.5,1.3-2.2,2c-1.4,1.3-1.6,2.9-0.8,4.6
		c0.5,1,1,2,1.5,3.1c0.4,0.8,0.6,1.7,0.6,2.6c-0.1,1.3-0.3,2.6-0.4,3.9c-0.2,1.8,0.6,3.3,2.3,4.1c1,0.4,2,0.9,3.1,1.3
		c1.1,0.4,1.9,1.1,2.5,2.1c0.6,0.9,1.2,1.8,1.8,2.7c1.1,1.7,2.7,2.3,4.7,1.7c1.1-0.3,2.1-0.7,3.2-1c0.7-0.2,1.4-0.3,2.1-0.2
		c1,0.1,2,0.5,3,0.8C31.9,48.1,32.7,48.4,33.5,48.5z"/>
	<path class="st0" d="M12.4,27.5c0-8.3,6.8-15.1,15.1-15.1c8.3,0,15.1,6.8,15.1,15.1c0,8.3-6.8,15.1-15.1,15
		C19.2,42.5,12.4,35.8,12.4,27.5z M14,27.5C14,35,20,41,27.5,41C35,41,41,35,41,27.5C41,20,35,14,27.5,14C20,14,14,20,14,27.5z"/>
	<path class="st0" d="M18.5,27.1c0-1.1,0.5-2,1.5-2.5c1-0.5,2-0.4,2.9,0.3c0.9,0.7,1.6,1.5,2.3,2.3c0.5,0.5,0.4,0.5,0.9,0
		c1.9-1.9,3.7-3.8,5.6-5.7c1.4-1.4,3.7-0.9,4.5,0.9c0.5,1.1,0.2,2.3-0.7,3.2c-2.3,2.3-4.6,4.6-6.8,6.9c-0.4,0.4-0.7,0.7-1.1,1.1
		c-1.1,1.1-2.8,1.1-3.9,0.1c-1.6-1.5-3.1-3.1-4.6-4.6C18.7,28.5,18.4,27.8,18.5,27.1z M21.2,25.9c-0.1,0-0.3,0-0.4,0.1
		c-0.9,0.3-1,1.4-0.4,2.1c1.4,1.4,2.8,2.8,4.2,4.2c0.7,0.7,1.4,0.7,2.1,0c2.5-2.6,5.1-5.1,7.6-7.7c0.7-0.7,0.8-1.4,0.2-2
		c-0.6-0.5-1.3-0.4-2,0.3c-2,2.1-4.1,4.1-6.1,6.2c-0.6,0.6-1,0.6-1.6,0c-0.9-0.9-1.8-1.8-2.7-2.7C22,26.1,21.7,25.9,21.2,25.9z"/>
</g>
</svg>
