<?xml version="1.0" encoding="utf-8"?>
<!-- Generator: Adobe Illustrator 23.1.0, SVG Export Plug-In . SVG Version: 6.00 Build 0)  -->
<svg version="1.1" id="Capa_1" xmlns="http://www.w3.org/2000/svg" xmlns:xlink="http://www.w3.org/1999/xlink" x="0px" y="0px"
	 viewBox="0 0 20 20" style="enable-background:new 0 0 20 20;" xml:space="preserve">
<style type="text/css">
	.st0{fill:#C6C6C6;}
</style>
<g>
	<path class="st0" d="M7.7,3.6C5,4.2,2.4,7.1,2.6,11.4c1-0.6,2-0.9,3-0.9c1.8,0,2.9,1.6,2.9,3.1c0,2.1-1.4,3.8-3.2,3.8
		C2.2,17.4,1,14.9,1,12c0-5.6,3.6-8.6,6.7-9.5V3.6z"/>
	<path class="st0" d="M18.1,3.7C15.5,4.2,13,7.1,13,11.4c1.1-0.5,2-0.9,3-0.9c1.8,0,3,1.6,3,3.2c0,2-1.4,3.8-3.3,3.8
		c-3.1,0-4.2-2.5-4.2-5.5c0-5.6,3.6-8.5,6.7-9.5V3.7z"/>
</g>
</svg>
