<?xml version="1.0" encoding="utf-8"?>
<!-- Generator: Adobe Illustrator 23.1.0, SVG Export Plug-In . SVG Version: 6.00 Build 0)  -->
<svg version="1.1" id="Capa_1" xmlns="http://www.w3.org/2000/svg" xmlns:xlink="http://www.w3.org/1999/xlink" x="0px" y="0px"
	 viewBox="0 0 55 55" style="enable-background:new 0 0 55 55;" xml:space="preserve">
<style type="text/css">
	.st0{fill:#383838;}
</style>
<g>
	<path class="st0" d="M33.2,44.4c-0.1,0.9-0.5,1.6-1.4,1.9c-0.2,0.1-0.3,0.2-0.3,0.4c-0.8,1.6-2.1,2.6-4,2.6c-1.9,0-3.2-0.9-4-2.6
		c-0.1-0.2-0.2-0.3-0.4-0.4c-1.2-0.6-1.6-1.8-1-3.1c0.1-0.2,0.2-0.3,0.1-0.5c-0.3-0.4-0.4-0.9-0.4-1.4c-0.2,0-0.3,0.2-0.4,0.3
		c-1.3,1.3-2.5,2.5-3.8,3.8c-0.2,0.2-0.4,0.3-0.6,0.4c-2.9,1.1-5.7,2.2-8.6,3.3c-0.8,0.3-1.6,0.2-2.2-0.4c-0.6-0.6-0.7-1.4-0.4-2.2
		C7,43.7,8.1,40.8,9.1,38c0.1-0.3,0.2-0.5,0.4-0.6c1.9-1.9,3.7-3.7,5.6-5.6c0.3-0.3,0.3-0.5,0.2-0.8c-0.6-1.6-0.7-3.2-0.5-4.9
		c0.1-0.6,0.1-0.6-0.6-0.6c-1.5,0-3,0-4.4,0c-2.1,0-3.7-1.4-4.2-3.4c-0.4-1.9,0.6-3.9,2.5-4.7c0.3-0.1,0.4-0.3,0.4-0.7
		c-0.6-3.8,2-7.4,5.7-8c2.9-0.5,5.7,0.7,7.2,3.2c0.2,0.3,0.3,0.3,0.7,0.3c2.4-0.4,4.4,0.4,5.8,2.4c0.1,0.2,0.3,0.3,0.5,0.3
		c0.9,0.1,1.8,0.2,2.7,0.5c0.3,0.1,0.4-0.1,0.6-0.2c2.6-2.6,5.2-5.2,7.8-7.8c1.5-1.5,3.4-2,5.5-1.5c4.2,1,5.7,6.3,2.7,9.4
		c-2.6,2.6-5.2,5.2-7.8,7.8c-0.3,0.3-0.4,0.5-0.2,1c0.2,0.7,0.4,1.5,0.4,2.2c0,0.3,0.2,0.5,0.5,0.5c0.9,0,0.9,0,0.9,1
		c0,0.3,0,0.5,0.1,0.8c0.3,1,1.4,1.3,2.2,0.7c0.3-0.3,0.6-0.5,0.8-0.8c0.2-0.2,0.3-0.2,0.5,0c0.8,0.9,1.7,1.7,2.5,2.5
		c0.2,0.2,0.2,0.3,0,0.5c-0.2,0.2-0.5,0.5-0.7,0.7c-0.4,0.4-0.5,0.9-0.4,1.5c0.2,0.6,0.7,0.8,1.3,0.9c0.4,0,0.7,0,1.1,0
		c0.3,0,0.4,0.1,0.4,0.4c0,1.2,0,2.4,0,3.6c0,0.3-0.1,0.4-0.4,0.4c-0.4,0-0.7,0-1.1,0c-0.6,0-1,0.3-1.2,0.8
		c-0.2,0.6-0.1,1.1,0.3,1.5c0.3,0.2,0.5,0.5,0.7,0.7c0.2,0.2,0.2,0.3,0,0.4c-0.9,0.9-1.7,1.7-2.6,2.6c-0.2,0.2-0.3,0.1-0.4,0
		c-0.2-0.3-0.5-0.5-0.7-0.7c-0.4-0.4-0.9-0.6-1.5-0.4c-0.6,0.2-0.8,0.7-0.9,1.3c0,0.4,0,0.7,0,1.1c0,0.3-0.1,0.4-0.4,0.4
		c-1.2,0-2.4,0-3.6,0c-0.3,0-0.4-0.1-0.4-0.4c0-0.4,0-0.7,0-1.1c0-0.6-0.3-1-0.8-1.2c-0.6-0.2-1.1-0.1-1.5,0.3
		c-0.2,0.2-0.5,0.5-0.7,0.7c-0.2,0.2-0.3,0.2-0.5,0c-0.1-0.2-0.3-0.4-0.4-0.5C33.2,44.4,33.2,44.4,33.2,44.4z M19.4,24
		c3,0,6.1,0,9.1,0c0.3,0,0.6,0,0.9-0.1c0.9-0.2,1.6-1.1,1.6-2.1c-0.1-1.1-0.8-1.9-1.9-2c-0.9-0.1-1.9,0.6-2.1,1.5
		c-0.1,0.6-0.4,0.7-0.9,0.6c-0.1,0-0.1,0-0.2,0c-0.5,0-0.6-0.1-0.5-0.6c0.2-0.9,0.6-1.7,1.4-2.2c0.5-0.3,0.7-0.8,0.7-1.3
		c0-0.2,0-0.4-0.1-0.6c-0.2-2.1-1.9-3.6-4-3.7c-1.9-0.1-3.6,1.2-4.1,3.1c-0.1,0.3,0,0.5,0.3,0.6c0.8,0.3,1.3,1,1.6,1.8
		c0.2,0.7,0.2,0.8-0.6,0.8c-0.1,0-0.1,0-0.2,0c-0.4,0.1-0.6-0.1-0.7-0.5c-0.1-0.5-0.7-0.9-1.3-0.9c-0.5,0-1.1,0.4-1.3,0.9
		c-0.1,0.4-0.3,0.5-0.7,0.5c-0.1,0-0.3,0-0.4,0c-0.5,0-0.6-0.1-0.5-0.6c0.2-1,0.8-1.7,1.7-2c0.3-0.1,0.4-0.2,0.5-0.5
		c0.3-1.5,1.1-2.7,2.4-3.6c0.2-0.2,0.2-0.3,0.1-0.5c-1.2-1.8-3.6-2.9-5.7-2.4c-3,0.6-4.9,3.4-4.4,6.4c0,0.3,0.1,0.4,0.5,0.5
		c1.9,0.3,3.2,1.6,3.6,3.3c0.2,0.9,0.2,0.9-0.7,0.9c0,0-0.1,0-0.1,0c-0.4,0.1-0.5-0.1-0.6-0.5c-0.2-1.3-1.1-2.1-2.5-2.3
		c-1-0.1-2.2,0.5-2.7,1.5c-0.5,1.1-0.3,2.4,0.6,3.2c0.6,0.6,1.4,0.8,2.2,0.8C13.3,24,16.3,24,19.4,24z M28.4,32.5
		c-1.2,0-2.3,0-3.5,0c0,0-0.1,0-0.1,0c-0.5,0-0.8,0.3-0.8,0.7c0,0.4,0.3,0.7,0.8,0.7c0.4,0,0.8,0,1.2,0c1.3,0,2.2,0.9,2.2,2.2
		c0,1,0,2,0,3c0,0.3,0.1,0.5,0.4,0.5c0.8,0,1.6,0,2.4,0c0.3,0,0.4-0.1,0.5-0.4c0.3-0.6,0.7-1.2,1.1-1.8c1-1.4,2.4-2.5,3.6-3.8
		c2-2.1,2.8-4.5,2.4-7.4c-0.5-3.8-2.5-6.6-5.8-8.5c-1.1-0.6-2.3-1-3.5-1.2c-0.3-0.1-0.5,0-0.4,0.4c0.1,0.3,0.1,0.7,0,1
		c0,0.3,0.1,0.4,0.4,0.5c1.9,0.2,3.2,1.9,3.1,3.9c-0.1,1.7-1.7,3.2-3.5,3.2c-1,0-2,0-3,0c-0.4,0-0.6,0.1-0.6,0.5c0,0.4,0,0.8,0,1.2
		c0,0.8,0.2,1,1,1c1.7,0,3.5,0,5.2,0c1.2,0,2.2,0.9,2.2,2.1c0,1.2-0.9,2.1-2.2,2.2C30.6,32.5,29.5,32.5,28.4,32.5z M28.1,31
		C28.1,31,28.1,31,28.1,31c1.2,0,2.3,0,3.5,0c0.5,0,0.8-0.3,0.8-0.7c0-0.4-0.3-0.6-0.8-0.7c-0.1,0-0.3,0-0.4,0c-1.7,0-3.4,0-5.1,0
		c-1.2,0-2.1-0.9-2.1-2.1c0-0.6,0-1.2,0-1.8c0-0.3-0.1-0.4-0.4-0.4c-2.3,0-4.5,0-6.8,0c-0.2,0-0.3,0.1-0.4,0.3
		c-0.3,1.7-0.2,3.4,0.5,5c0.7,1.6,1.8,2.8,3,3.9c1.4,1.3,2.7,2.7,3.5,4.5c0.1,0.2,0.2,0.2,0.4,0.2c0.8,0,1.7,0,2.5,0
		c0.3,0,0.4-0.1,0.4-0.4c0-1,0-2,0-3c0-0.5-0.3-0.8-0.8-0.8c-0.4,0-0.8,0-1.2,0c-1.3,0-2.2-0.9-2.2-2.1c0-1.2,0.9-2.1,2.2-2.1
		C25.8,31,27,31,28.1,31z M40.1,28.9c-0.1,0.9-0.4,1.8-0.7,2.6c-0.1,0.3,0,0.3,0.2,0.3c2.7,0.1,4.8,2.4,4.8,5.1
		c-0.1,2.9-2.9,5.3-5.8,4.7c-2.1-0.4-3.4-1.7-4-3.7c0-0.1,0-0.3-0.1-0.3c-0.1,0-0.2,0.1-0.3,0.2c-0.5,0.6-1,1.3-1.4,2.1
		c-0.1,0.3-0.2,0.5,0,0.7c0.2,0.3,0.3,0.7,0.2,1c-0.1,0.5,0.1,0.8,0.5,1.1c0.3,0.2,0.4,0.3,0.7,0.1c1.6-1.2,4.1-0.2,4.4,1.8
		c0.1,0.4,0.2,0.6,0.6,0.5c0.1,0,0.2,0,0.3,0c0.3,0,0.4-0.1,0.5-0.4c0.3-2.1,2.7-3.1,4.4-1.9c0.3,0.2,0.5,0.2,0.7-0.1
		c0.1-0.1,0.2-0.2,0.2-0.2c0.3-0.2,0.2-0.4,0-0.6c-1.2-1.6-0.3-3.9,1.6-4.4c0.6-0.2,0.6-0.2,0.6-0.8c0,0,0-0.1,0-0.1
		c0-0.3-0.1-0.4-0.4-0.5c-2-0.3-3.1-2.7-1.9-4.3c0.3-0.4,0.2-0.6-0.1-0.9c-0.1-0.1-0.1-0.1-0.2-0.2c-0.2-0.3-0.4-0.2-0.6,0
		c-1.4,1-3.3,0.6-4.2-0.9C40.3,29.4,40.3,29.2,40.1,28.9z M47.8,11.3c0,0,0-0.2,0-0.3c-0.3-2.6-2.7-4.3-5.2-3.7
		c-1,0.2-1.7,0.9-2.4,1.6c-0.3,0.3-0.3,0.4,0,0.7c1.7,1.6,3.3,3.3,5,5c0.7,0.7,0.7,0.7,1.4,0C47.3,13.6,47.8,12.6,47.8,11.3z
		 M18.5,35.4c0-0.2-0.1-0.2-0.2-0.3c-0.7-0.7-1.3-1.3-1.8-2.1c-0.2-0.3-0.3-0.2-0.5,0c-1.6,1.6-3.2,3.2-4.8,4.8
		c-0.2,0.2-0.2,0.3,0,0.5c0.7,0.6,1.3,1.3,2,2c0.2,0.2,0.3,0.2,0.5,0c1.5-1.5,3.1-3.1,4.6-4.6C18.4,35.6,18.4,35.5,18.5,35.4z
		 M15.5,44.7c0-0.1-0.1-0.1-0.2-0.2c-1.6-1.6-3.3-3.3-4.9-4.9c-0.2-0.2-0.3-0.2-0.4,0.1c-0.5,1.3-1,2.7-1.5,4
		c-0.1,0.2,0,0.3,0.1,0.4c0.7,0.7,1.5,1.5,2.2,2.2c0.1,0.1,0.2,0.2,0.4,0.1c1.3-0.5,2.7-1,4-1.6C15.4,44.9,15.5,44.8,15.5,44.7z
		 M16.9,43.9c0.2,0,0.2-0.1,0.3-0.2c1.4-1.4,2.9-2.9,4.3-4.3c0.2-0.2,0.2-0.4,0.1-0.6c-0.5-0.8-1.1-1.5-1.8-2.2
		c-0.2-0.2-0.3-0.2-0.5,0c-1.5,1.5-3.1,3.1-4.6,4.6c-0.2,0.2-0.2,0.3,0,0.5c0.7,0.6,1.3,1.3,2,2C16.8,43.8,16.9,43.9,16.9,43.9z
		 M39.5,40.1c0.2,0,0.5-0.1,0.8-0.1c1.7-0.4,2.7-1.9,2.6-3.6c-0.1-1.9-1.6-3.2-3.4-3.3c-0.4,0-1,0-1.3,0.4c-0.6,0.7-1.2,1.4-1.8,2
		c-0.1,0.1-0.2,0.3-0.3,0.5C35.7,38.2,37.3,40.1,39.5,40.1z M39,14.9c-0.1-0.1-0.1-0.2-0.2-0.2c-0.7-0.7-1.3-1.3-2-2
		c-0.2-0.2-0.3-0.2-0.5,0c-1.1,1.1-2.1,2.1-3.2,3.2C33,16,33,16.1,33.3,16.2c0.9,0.4,1.6,1,2.4,1.6c0.2,0.2,0.4,0.2,0.6,0
		c0.9-0.9,1.8-1.8,2.7-2.7C38.9,15,39,15,39,14.9z M40.1,16c0,0-0.1,0.1-0.2,0.1C39,17,38.1,18,37.2,18.9c-0.2,0.2-0.1,0.3,0,0.5
		c0.6,0.7,1.2,1.6,1.6,2.4c0.1,0.2,0.2,0.2,0.4,0.1c1.1-1.1,2.2-2.2,3.3-3.3c0.2-0.2,0.2-0.3,0-0.4c-0.7-0.7-1.4-1.4-2-2
		C40.3,16.1,40.2,16,40.1,16z M38.7,10.3c-0.1,0.1-0.2,0.1-0.2,0.2c-0.2,0.2-0.3,0.4-0.5,0.5c-0.3,0.2-0.3,0.4,0,0.7
		c1.6,1.6,3.3,3.3,4.9,4.9c0.8,0.8,0.8,0.8,1.6,0c0.2-0.2,0.2-0.3,0-0.5c-1.8-1.8-3.6-3.6-5.5-5.5C38.9,10.5,38.8,10.4,38.7,10.3z
		 M27.5,40.9c-1.1,0-2.1,0-3.2,0c-0.6,0-1,0.2-1,0.7c0,0.4,0.3,0.7,1,0.7c0,0,0,0,0,0c2.1,0,4.2,0,6.3,0c0.2,0,0.4,0,0.6-0.1
		c0.3-0.1,0.4-0.3,0.4-0.6c0-0.3-0.1-0.5-0.4-0.6c-0.2-0.1-0.4-0.1-0.6-0.1C29.6,40.9,28.6,40.9,27.5,40.9z M27.5,45
		c1.1,0,2.1,0,3.2,0c0.6,0,1-0.2,1-0.7c0-0.4-0.4-0.7-1-0.7c-2.1,0-4.2,0-6.3,0c-0.2,0-0.4,0-0.6,0.1c-0.3,0.1-0.4,0.3-0.4,0.6
		c0,0.3,0.1,0.5,0.4,0.6c0.2,0.1,0.4,0.1,0.6,0.1C25.4,45,26.4,45,27.5,45z M27.7,47.8c0.6,0,1.5-0.4,2-1c0.1-0.1,0.1-0.1,0.1-0.2
		c0-0.1-0.1-0.1-0.2-0.1c-1.4,0-2.7,0-4.1,0c-0.1,0-0.2,0-0.2,0.1c0,0.1,0,0.2,0.1,0.2C25.9,47.5,26.6,47.8,27.7,47.8z M7.7,47.8
		c0.5-0.2,1-0.4,1.6-0.6c0.2-0.1,0.1-0.2,0-0.3c-0.4-0.4-0.8-0.8-1.2-1.2c-0.1-0.1-0.2-0.2-0.3,0c-0.2,0.5-0.4,1-0.6,1.5
		C7.1,47.6,7.3,47.8,7.7,47.8z"/>
	<path class="st0" d="M39.4,34.5c1.2,0,2.1,0.9,2.1,2.1c0,1.2-0.9,2.1-2.1,2.1c-1.2,0-2.1-0.9-2.1-2.1
		C37.3,35.4,38.2,34.5,39.4,34.5z M40.1,36.7c0-0.3-0.3-0.7-0.6-0.7c-0.3,0-0.7,0.3-0.7,0.6c0,0.3,0.3,0.7,0.6,0.7
		C39.8,37.3,40.1,37,40.1,36.7z"/>
</g>
</svg>
