<svg width="60" height="68" viewBox="0 0 60 68" fill="none" xmlns="http://www.w3.org/2000/svg">
<g clip-path="url(#clip0_10_554)">
<path d="M60.125 41.4052C59.5625 43.0508 58.4375 43.7232 56.9375 43.6347C56.375 43.5993 56.1094 43.847 55.8906 44.431C54.0469 49.2616 52.1719 54.0745 50.3281 58.9051C50.1406 59.4182 49.875 59.5952 49.4063 59.5952C47.8594 59.5775 46.3281 59.5775 44.7813 59.5952C44.3125 59.5952 44.125 59.4182 44.1406 58.8697C44.1719 57.2241 44 57.4541 45.375 57.4364C46.3438 57.4187 47.3281 57.4187 48.2969 57.4364C48.6875 57.4541 48.8906 57.2772 49.0469 56.8879C50.6719 52.6766 52.2969 48.4653 53.9219 44.254C54.0938 43.7939 53.9844 43.6701 53.5781 43.6701C48.5938 43.6701 43.625 43.6701 38.6406 43.6701C38.2344 43.6701 38.0938 43.8647 38.0938 44.3071C38.1094 48.483 38.1094 52.6589 38.0938 56.8525C38.0938 57.3303 38.2656 57.4541 38.6563 57.4541C39.7344 57.4364 40.7969 57.4718 41.875 57.4364C42.2969 57.4364 42.4688 57.5957 42.4531 58.0911C42.4219 59.7367 42.6563 59.5952 41.1563 59.5952C31.1563 59.5952 21.1563 59.5952 11.1719 59.6129C10.4063 59.6129 10.0469 59.3298 9.75 58.5512C7.96875 53.8444 6.125 49.1554 4.32813 44.4486C4.10938 43.8647 3.84375 43.6347 3.28125 43.6701C1.78125 43.7586 0.671875 43.0862 0.09375 41.4406C0.09375 40.8743 0.09375 40.2904 0.09375 39.7065C0.484375 38.751 1.03125 37.9724 1.96875 37.6539C2.25 37.5478 2.29688 37.247 2.39063 36.9815C3.3125 34.3097 4.25 31.6378 5.14063 28.9482C5.34375 28.3466 5.5625 28.2404 6.07813 28.4882C7.34375 29.1075 7.1875 28.8421 6.73438 30.1868C5.98438 32.4164 5.20313 34.6459 4.4375 36.8577C4.20313 37.5301 4.21875 37.5478 4.85938 37.5478C21.6563 37.5478 38.4531 37.5478 55.25 37.5478C55.9219 37.5478 55.9375 37.5301 55.6875 36.8223C54.0469 32.0271 52.3906 27.2142 50.75 22.4189C50.5938 21.9589 50.3594 21.7819 49.9219 21.7819C47.0469 21.7996 44.1875 21.7996 41.3125 21.7819C40.7656 21.7819 40.6094 22.0297 40.5313 22.5782C39.7344 28.3997 35.3125 32.7172 30.1406 32.7349C24.8438 32.7526 20.4219 28.5059 19.5938 22.5605C19.5156 22.012 19.3281 21.7819 18.7969 21.7819C15.9531 21.7996 13.0938 21.7996 10.25 21.7819C9.75 21.7819 9.51563 21.9943 9.35938 22.5074C8.92188 23.8699 8.42188 25.2324 7.96875 26.5949C7.82813 27.0018 7.67188 27.0903 7.3125 26.931C5.79688 26.2233 5.95313 26.6125 6.51563 24.9493C7.01563 23.4452 7.5625 21.9412 8.04688 20.4372C8.23438 19.8532 8.5 19.6232 9.0625 19.6409C12.2969 19.6763 15.5469 19.6409 18.7813 19.6763C19.3281 19.6763 19.5156 19.464 19.5938 18.88C20.3594 13.5717 24.0469 9.51962 28.7031 8.82953C34.2813 7.99789 39.5938 12.4569 40.5156 18.7385C40.6563 19.6763 40.6563 19.6763 41.5 19.6763C44.7031 19.6763 47.9063 19.694 51.1094 19.6586C51.625 19.6586 51.8594 19.8532 52.0469 20.3841C53.8906 25.8163 55.7656 31.2308 57.6094 36.6454C57.8125 37.2116 58.0156 37.6893 58.5938 37.9194C59.3438 38.2025 59.7031 38.9987 60.0469 39.7419C60.125 40.255 60.125 40.839 60.125 41.4052ZM14.1094 43.6524C11.6563 43.6524 9.1875 43.6524 6.73438 43.6524C6.25 43.6524 6.10938 43.7586 6.32813 44.3248C7.9375 48.4476 9.53125 52.5704 11.1094 56.711C11.3125 57.2241 11.5469 57.4364 12.0625 57.4364C15.1875 57.401 18.3125 57.401 21.4219 57.4364C21.9688 57.4364 22.125 57.2595 22.125 56.6402C22.1094 52.5881 22.1094 48.5538 22.125 44.5017C22.125 43.8293 21.9531 43.617 21.3594 43.6347C18.9531 43.6701 16.5313 43.6524 14.1094 43.6524ZM30.0938 30.523C34.3438 30.6646 38.8125 26.8072 38.8281 20.7026C38.8438 14.9342 34.7969 10.829 30.125 10.7936C25.3438 10.7582 21.3438 15.1996 21.375 20.6495C21.4219 26.7718 25.875 30.6469 30.0938 30.523ZM30.125 41.4937C39.0313 41.4937 47.9375 41.4937 56.8438 41.4937C57.0938 41.4937 57.3594 41.5113 57.6094 41.4583C58.0313 41.3521 58.3281 41.0336 58.2969 40.5205C58.2656 40.025 58 39.7065 57.5313 39.6888C57.3438 39.6711 57.1406 39.6711 56.9531 39.6711C39.0781 39.6711 21.2188 39.6711 3.34375 39.6711C3.125 39.6711 2.90625 39.6711 2.70313 39.6888C2.26563 39.7419 2.03125 40.0604 2 40.5205C1.96875 40.9628 2.20313 41.2636 2.5625 41.4229C2.82813 41.529 3.10938 41.4937 3.375 41.4937C12.2656 41.4937 21.1875 41.4937 30.125 41.4937ZM24.0469 50.5002C24.0469 52.4466 24.0469 54.393 24.0469 56.3394C24.0469 57.4364 24.0469 57.401 24.9844 57.4364C25.5156 57.4541 25.6563 57.2418 25.6406 56.6756C25.6094 55.0123 25.625 53.3667 25.625 51.7034C25.625 50.4117 25.625 50.4117 26.7813 50.4294C27.5156 50.4294 27.5469 50.4648 27.5469 51.2964C27.5469 53.1367 27.5625 54.9592 27.5469 56.7994C27.5469 57.2949 27.7031 57.4895 28.125 57.4364C28.2813 57.4187 28.4375 57.4187 28.5938 57.4364C28.9844 57.4718 29.1563 57.3126 29.1563 56.8348C29.1406 52.6589 29.1406 48.483 29.1563 44.2894C29.1563 43.5108 28.7031 43.6878 28.3125 43.6701C27.9063 43.6524 27.5313 43.6347 27.5469 44.3248C27.5781 45.2803 27.5625 46.2181 27.5469 47.1736C27.5313 48.7661 27.7188 48.5892 26.25 48.6246C25.7969 48.6246 25.625 48.4476 25.625 47.9345C25.6406 46.7666 25.5938 45.5811 25.6406 44.4133C25.6719 43.6701 25.3125 43.6524 24.8281 43.6524C24.3594 43.6524 24 43.6524 24.0156 44.3956C24.0781 46.4304 24.0469 48.4653 24.0469 50.5002ZM32.6719 50.571C32.6719 48.5361 32.6406 46.5012 32.6875 44.4663C32.7031 43.7409 32.4063 43.6347 31.875 43.6347C31.3438 43.6347 31.0625 43.7232 31.0625 44.4663C31.0938 48.5361 31.0938 52.6058 31.0625 56.6756C31.0625 57.401 31.3438 57.4541 31.8438 57.4364C32.3281 57.4187 32.7031 57.4718 32.6875 56.6756C32.6406 54.6407 32.6719 52.6058 32.6719 50.571ZM34.5938 50.571C34.5938 52.4997 34.5938 54.4107 34.5938 56.3394C34.5938 57.4364 34.5938 57.401 35.5313 57.4364C36.0625 57.4541 36.2031 57.2418 36.1875 56.6756C36.1719 52.5881 36.1563 48.5007 36.1875 44.4133C36.1875 43.6701 35.8594 43.6524 35.375 43.6524C34.9063 43.6524 34.5469 43.6524 34.5625 44.3956C34.625 46.4481 34.5938 48.5007 34.5938 50.571Z" fill="#6D6D6D"/>
<path d="M12.5312 29.5498C13.5 29.5498 13.5 29.5498 13.5 30.6115C13.5 31.7085 13.5 31.7085 12.5312 31.7085C11.5781 31.7085 11.5781 31.7085 11.5781 30.5938C11.5781 29.5498 11.5781 29.5498 12.5312 29.5498Z" fill="#6D6D6D"/>
<path d="M10.8281 34.6281C10.8281 35.6897 10.8281 35.6897 9.90625 35.6897C8.98438 35.6897 8.98438 35.6897 8.98438 34.6104C8.98438 33.531 8.98437 33.531 9.9375 33.531C10.8281 33.531 10.8281 33.531 10.8281 34.6281Z" fill="#6D6D6D"/>
<path d="M14.2656 34.4512C14.3281 34.2035 14.0781 33.7081 14.4844 33.6019C14.9688 33.4603 15.5 33.425 15.9688 33.655C16.1875 33.7611 16.0938 34.1327 16.0938 34.3981C16.1094 35.6722 15.6875 36.026 14.5625 35.6722C14.3594 35.6191 14.2656 35.4952 14.2656 35.2652C14.2656 35.0175 14.2656 34.7697 14.2656 34.4512Z" fill="#6D6D6D"/>
<path d="M30.0937 24.7193C29.4687 24.7193 28.8437 24.7193 28.2187 24.7193C25.9219 24.6839 24 22.596 23.8906 19.9949C23.8594 19.0748 23.8906 18.137 23.875 17.2168C23.8594 16.7568 24.0312 16.5798 24.4219 16.5798C25.3906 16.5975 26.375 16.5268 27.3437 16.7037C28.3281 16.8806 29.1562 17.3938 29.8281 18.2077C30.0312 18.4555 30.1562 18.5085 30.375 18.2254C31.2656 17.1461 32.3906 16.6683 33.6719 16.6152C34.3906 16.5798 35.1094 16.5975 35.8437 16.5975C36.125 16.5975 36.3594 16.6683 36.3437 17.0753C36.3125 18.2608 36.4531 19.464 36.25 20.6496C35.8125 23.1091 34.0625 24.737 31.8437 24.737C31.2656 24.737 30.6875 24.7193 30.0937 24.7193ZM29.1562 21.7466C29.1406 19.8887 27.9219 18.6324 26.2656 18.7386C25.9062 18.7563 25.8125 18.9332 25.7812 19.3048C25.6875 21.1627 26.6094 22.4013 28.2812 22.6137C29.0937 22.7198 29.1719 22.6491 29.1562 21.7466ZM31.0781 21.7466C31.0781 22.5783 31.0937 22.6137 31.5469 22.6314C33.3281 22.7375 34.625 21.2335 34.4531 19.234C34.4219 18.9155 34.3281 18.774 34.0312 18.7386C32.3906 18.5616 31.0937 19.871 31.0781 21.7466Z" fill="#6D6D6D"/>
</g>
<defs>
<clipPath id="clip0_10_554">
<rect width="60" height="67.947" fill="white"/>
</clipPath>
</defs>
</svg>
