<?xml version="1.0" encoding="utf-8"?>
<!-- Generator: Adobe Illustrator 27.9.0, SVG Export Plug-In . SVG Version: 6.00 Build 0)  -->
<svg version="1.1" id="Capa_1" xmlns="http://www.w3.org/2000/svg" xmlns:xlink="http://www.w3.org/1999/xlink" x="0px" y="0px"
	 viewBox="0 0 166 166" style="enable-background:new 0 0 166 166;" xml:space="preserve">
<style type="text/css">
	.st0{fill:#383838;}
</style>
<g>
	<path class="st0" d="M78.8,95.3c15,0,30,0,45,0c2.1,0,2.1,0,2.1-2.1c0-6.1,0-12.3,0-18.4c0-1.5,0.4-2,1.9-1.9
		c3.8,0.1,3.3-0.4,3.3,3.4c0,6.5,0,13,0,19.5c0,1.1,0.2,2,0.7,3c2.9,6.5,5.8,13.1,8.7,19.6c1.3,3,0.3,4.6-2.9,4.6
		c-2.2,0-4.5,0.1-6.7,0c-1.6-0.1-2.1,0.4-2.1,2c0.1,4.7,0,9.5,0,14.2c0,5.1-1.3,9.8-5.3,13.2c-2,1.7-2.6,3.5-2.4,5.9
		c0.1,2.2,0,2.2-2.2,2.2c-3.4,0-3,0.4-3-3c0-1.4,0-2.8,0-4.2c0-1.3,0.5-2.2,1.6-2.8c4.2-2.6,6-6.4,6-11.2c-0.1-5.7,0-11.4,0-17.1
		c0-0.5,0-0.9,0-1.4c-0.1-0.6-0.4-1.1-1.1-1.1c-0.7,0-1,0.5-1,1.2c0,1.8-0.1,3.6,0,5.5c0.1,1.5-0.4,2-2,2c-4-0.1-3.4,0.5-3.5-3.5
		c0-2.4,0-4.9,0-7.3c0-0.4,0-0.7,0-1.1c0-0.8-0.1-1.6-1-1.6c-1,0-1,0.8-1,1.6c0,3.3,0,6.5,0,9.8c0,2.1,0,2.2-2.2,2.1
		c-3.6,0-3.2,0.4-3.2-3.1c0-4.4,0-8.7,0-13.1c0-0.5,0-0.9-0.1-1.4c-0.1-0.6-0.5-0.9-1.1-0.9c-0.5,0-0.8,0.4-0.9,0.9
		c0,0.5-0.1,0.9-0.1,1.4c0,4.8,0,9.6,0,14.3c0,1.4-0.4,2-1.9,1.9c-4.1-0.1-3.5,0.5-3.5-3.6c0-2.8,0-5.5,0-8.3c0-0.8-0.1-1.7-1.1-1.7
		c-1.1,0-1,1-1,1.8c0,5.8,0,11.5,0,17.3c0,0.7,0,1.5-0.1,2.2c-0.4,2.1-2.5,3-4.3,1.7c-1.5-1.1-2.9-2.4-4.3-3.6
		c-0.7-0.6-1.5-1-2.4-0.4c-0.9,0.7-1,1.6-0.5,2.5c2.3,4.1,4.6,8.1,7,12.1c0.9,1.5,2.5,2,4.1,2.2c2,0.3,2.7,1.1,2.7,3.1
		c0,1.9,0,3.7,0,5.6c0,1-0.3,1.5-1.4,1.5c-4.6-0.1-3.7,0.5-3.8-3.6c0-1.1-0.3-1.7-1.4-2.2c-2.2-0.9-4-2.4-5.2-4.5
		c-2.2-3.8-4.4-7.7-6.6-11.5c-1.8-3.1-1.4-6.4,0.8-8.8c2.3-2.3,5.7-2.8,8.7-1.2c0.9,0.5,1.2,0.4,1.1-0.6c0-1.2,0-2.5,0-3.7
		c0-0.9-0.3-1.3-1.2-1.3c-9.1,0-18.2,0-27.3,0c-0.8,0-1.2,0.3-1.2,1.2c0,1.4,0,2.7,0,4.1c0,0.9,0.3,1,1,0.5c1.7-1.1,3.6-1.3,5.5-0.8
		c4.4,1.1,6.7,6.2,4.5,10.2c-2.3,4.2-4.7,8.3-7.1,12.4c-1.2,2-2.9,3.5-5.2,4.3c-0.9,0.3-1.3,0.8-1.2,1.7c0,0.1,0,0.2,0,0.3
		c0,4-0.1,4-4.1,3.6c-0.8-0.1-1.1-0.4-1.1-1.2c0-2.2,0-4.4,0-6.5c0-1.4,0.8-2.3,2.2-2.4c2.9-0.2,4.6-1.8,5.8-4.3
		c1.6-3.1,3.5-6.1,5.3-9.2c0.3-0.5,0.6-1,0.7-1.5c0.2-0.8,0-1.5-0.8-2c-0.7-0.4-1.4-0.3-2,0.3c-1.3,1.1-2.6,2.2-3.9,3.4
		c-1,0.9-2.1,1.4-3.4,0.8c-1.3-0.6-1.6-1.8-1.7-3.1c0-4.6,0-9.2,0-13.9c0-1.5,0-3,0-4.5c0-0.8,0.1-1.8-1-1.8c-1.1,0-1.1,1-1.1,1.9
		c0,3.2-0.1,6.4,0,9.7c0,1.6-0.4,2.1-2,2c-3.6-0.2-3.4,0.6-3.4-3.5c0-4.1,0-8.2,0-12.3c0-0.4,0-0.8,0-1.2c0-0.7,0-1.5-0.9-1.5
		c-1,0-1.1,0.7-1.1,1.5c0,2.6,0,5.2,0,7.8c0,2.5,0,5.1,0,7.6c0,1.2-0.4,1.6-1.6,1.6c-4.2-0.1-3.7,0.6-3.8-3.7c0-2.8,0-5.5,0-8.3
		c0-0.7,0-1.6-1-1.6c-1,0-1,0.9-1,1.6c0,3.4,0,6.9,0,10.3c0,1.2-0.3,1.7-1.6,1.6c-4.2-0.1-3.8,0.6-3.8-3.7c0-1.2,0-2.5,0-3.7
		c0-0.6-0.3-1.2-1-1.2c-0.7,0-1,0.5-1.1,1.1c0,0.4,0,0.8,0,1.2c0,6,0,11.9,0,17.9c0,4.5,1.8,8,5.7,10.4c1.3,0.8,1.9,1.8,1.8,3.3
		c-0.1,1.9,0,3.7,0,5.6c0,0.9-0.3,1.3-1.3,1.3c-4.8-0.1-3.9,0.5-3.9-3.6c0-1.6-0.4-2.7-1.8-3.8c-4.3-3.5-6-8.3-6-13.8
		c0-4.8,0-9.6,0-14.3c0-1.4-0.5-1.9-1.9-1.8c-2.4,0.1-4.8,0-7.2,0c-2.8,0-3.9-1.7-2.8-4.3c2.9-6.6,5.8-13.1,8.7-19.6
		c0.5-1.2,0.8-2.3,0.8-3.6c0-21.2,0-42.4,0-63.6c0-3.2,0.6-3.8,3.8-3.8c23.8,0,47.6,0,71.4,0c2.3,0,2.3,0,2.3,2.3
		c0,3.2,0.3,2.9-2.9,2.9c-22.4,0-44.8,0-67.2,0c-2.2,0-2.2,0-2.2,2.2c0,19.3,0,38.5,0,57.8c0,2.1,0,2.1,2,2.1
		C48.6,95.3,63.7,95.3,78.8,95.3z M78.8,100.5c-15.5,0-31,0-46.4,0c-1.3,0-1.9,0.4-2.4,1.6c-1.6,3.8-3.4,7.6-5,11.4
		c-0.6,1.3-2,3-1.4,3.9c0.7,1.1,2.8,0.2,4.2,0.4c0.9,0.1,1.5-0.2,2.1-1c1.3-1.8,3-2.8,5.3-2.7c0.8,0,1.2-0.3,1.5-1
		c1.1-2.5,3.1-4,5.9-4c0.8,0,1.2-0.2,1.5-1c1.1-2.5,3-4,5.9-4c2.9,0,4.8,1.5,5.9,4c0.3,0.7,0.7,0.9,1.4,1c4.3,0.3,6.5,2.6,6.5,6.9
		c0,1.4,0.4,1.9,1.8,1.9c8.6-0.1,17.1,0,25.7,0c2.2,0,2.2,0,2.2-2.2c0.1-3.8,2.5-6.4,6.3-6.5c0.8,0,1.3-0.2,1.7-1
		c1.1-2.6,3.1-4,5.9-4c2.8,0,4.7,1.5,5.8,3.9c0.4,0.8,0.8,1.1,1.6,1.1c2.7,0,4.6,1.4,5.8,3.8c0.4,0.9,0.9,1.3,1.9,1.2
		c1.8-0.1,3.4,0.5,4.4,2c1.1,1.7,2.5,1.9,4.2,1.8c0.6-0.1,1.1,0,1.7,0c1.1,0.1,1.5-0.1,1-1.4c-2.1-4.7-4.2-9.4-6.3-14.1
		c-0.6-1.3-1.3-1.8-2.8-1.8C109.5,100.5,94.1,100.5,78.8,100.5z"/>
	<path class="st0" d="M118.6,53.7c0.6-2.9-0.6-4.8-2.9-6.8c-5.9-4.9-7.7-13.4-4.9-20.8c2.7-7.1,9.8-11.9,17.3-12.2
		c10.2-0.4,20.1,8.1,19.6,19.9c-0.3,6-2.9,11-7.8,14.6c-0.9,0.7-1.3,1.3-1.3,2.4c0,2.5,0.3,5.1-0.2,7.6c-1,5.3-5.4,8.7-10.5,8.4
		c-5.1-0.3-9.1-4.5-9.3-9.8C118.5,55.9,118.6,54.8,118.6,53.7z M128.6,48.6C128.6,48.6,128.6,48.6,128.6,48.6c1.1,0,2.3,0,3.4,0
		c0.5,0,1.1,0,1.2-0.7c0.1-1.7,1.4-2.4,2.6-3.2c5.9-3.6,8.2-11.2,5.3-17.4c-2.9-6.3-10-9.6-16.5-7.4c-5.4,1.8-8.8,5.6-9.6,11.2
		c-0.8,6,1.5,10.6,6.7,13.8c0.8,0.5,1.8,0.8,1.9,1.7c0.2,2.3,1.7,2.1,3.2,2C127.4,48.6,128,48.6,128.6,48.6z M128.7,54
		c-1.1,0-2.3,0-3.4,0c-0.5,0-0.9,0-1.2,0.5c-1.2,2.6,0.9,6.5,3.8,6.8c4,0.4,5.9-2.6,5.3-6.7c-0.1-0.6-0.6-0.7-1.1-0.7
		C131,54,129.8,54,128.7,54z"/>
	<path class="st0" d="M66,54.6c0.2,0.1,0.4,0.2,0.5,0.3c0.1,0.1,0.3,0.3,0.4,0.5c2.6,4.4,2.7,3.1-1.2,5.5c-1.3,0.8-2.6,1.6-3.9,2.3
		c-1.6,1-1.6,1-0.1,1.9c2,1.2,4,2.4,6,3.6c0.9,0.5,1.1,1,0.5,2c-2,3.4-1.9,3.4-5.3,1.4c-2.9-1.8-5.9-3.5-8.8-5.3
		c-2.5-1.5-2.5-3.7-0.1-5.2c3.6-2.2,7.2-4.3,10.8-6.5C65.3,54.9,65.7,54.8,66,54.6z"/>
	<path class="st0" d="M105,64.3c0,1-0.5,1.8-1.4,2.3c-3.8,2.3-7.6,4.8-11.5,6.8c-2.1,1.1-1.8-1.6-2.7-2.4c-0.6-0.6-1.1-1.4,0.1-2.1
		c2.2-1.3,4.4-2.6,6.5-3.9c0.9-0.5,0.9-0.9,0-1.5c-2.2-1.3-4.3-2.6-6.4-3.8c-0.9-0.5-1-1-0.5-2c2-3.4,1.9-3.4,5.3-1.4
		c2.9,1.8,5.9,3.5,8.8,5.3C104.2,62.2,105.1,63,105,64.3z"/>
	<path class="st0" d="M80.6,53.4c1.2,0.5,2.5,1,3.8,1.5c0.5,0.3,0.3,0.8,0.1,1.2c-2.2,6-4.5,12-6.7,17.9c-0.3,0.9-0.7,1.1-1.6,0.8
		c-3.9-1.3-3.9-1.3-2.5-5c1.9-5.1,3.8-10.1,5.7-15.2C79.6,54.2,79.7,53.5,80.6,53.4z"/>
	<path class="st0" d="M114.8,15.8c-0.2,0.7-0.8,1.1-1.3,1.6c-0.3,0.4-0.8,0.7-1.1,1.1c-0.7,0.8-1.4,1-2.1,0
		c-0.1-0.2-0.3-0.3-0.4-0.4c-2.9-2.9-2.9-3.2,0.3-5.7c0.4-0.3,0.8-0.6,1.2-0.1c1,1,2,2,3.1,3.1C114.6,15.4,114.7,15.6,114.8,15.8z"
		/>
	<path class="st0" d="M149.7,15.5c-0.2,0.2-0.3,0.5-0.5,0.6c-0.2,0.3-0.5,0.5-0.8,0.8c-3,3-3,3-5.7-0.3c-0.5-0.6-0.5-1.1,0.1-1.6
		c0.9-0.8,1.7-1.7,2.5-2.5c0.4-0.4,0.8-0.7,1.3-0.2c0.9,0.9,1.8,1.8,2.6,2.7C149.5,15.1,149.6,15.3,149.7,15.5z"/>
	<path class="st0" d="M131.2,8.4c0,2.9,0,2.9-2.7,2.9c-2.5,0-2.5,0-2.5-2.7c0-3.5-0.4-3.1,3.1-3.1c2.1,0,2.1,0,2.1,2.1
		C131.2,7.9,131.2,8.2,131.2,8.4z"/>
</g>
</svg>
