<svg width="75" height="75" viewBox="0 0 75 75" fill="none" xmlns="http://www.w3.org/2000/svg">
<path d="M33.2227 2.73438C36.1328 2.73438 39.0234 2.73438 41.9336 2.73438C42.168 3.86719 42.4219 5 42.6562 6.13281C42.7344 6.54297 42.9297 6.81641 43.3594 6.95312C44.4141 7.28516 45.4492 7.69531 46.4258 8.24219C46.7969 8.4375 47.0898 8.41797 47.4414 8.18359C48.2617 7.61719 49.1211 7.10938 49.9414 6.54297C50.3125 6.28906 50.5664 6.30859 50.8789 6.64062C52.5977 8.37891 54.3359 10.1172 56.0742 11.8359C56.3672 12.1289 56.4453 12.4219 56.2695 12.8125C56.0156 13.3594 55.8008 13.9453 55.5469 14.4922C55.332 14.9414 55.4492 15.0977 55.9375 15.0977C59.4922 15.1367 62.7344 18.0859 63.3789 21.7773C63.5742 22.9102 63.4961 24.043 63.4961 25.1758C63.5156 27.6562 62.5195 29.707 60.6641 31.3281C60.4688 31.5039 60.1758 31.6406 60.2734 31.9727C60.3516 32.3047 60.6836 32.2852 60.9375 32.3633C62.1484 32.6758 63.418 32.8125 64.5508 33.3203C65.8984 33.9258 66.9531 33.6133 68.0664 32.8906C69.1211 32.207 70.2539 31.7188 71.582 31.875C72.4609 31.9727 72.5 31.9336 72.5 32.8125C72.5 37.7148 72.4805 42.6172 72.5195 47.5195C72.5195 48.2617 72.2852 48.6328 71.6211 48.9648C65.4688 52.0117 59.3164 55.0977 53.1641 58.1641C52.5977 58.4375 52.3047 58.7891 52.207 59.4141C51.9922 60.918 51.0938 61.875 49.6484 62.2656C49.1406 62.4023 48.9062 62.6367 48.7695 63.1445C48.457 64.4336 47.6172 65.3125 46.3281 65.625C45.7422 65.7617 45.5273 66.0547 45.3711 66.582C45 67.9102 44.1016 68.7695 42.7344 69.043C42.3047 69.1406 42.1484 69.3359 42.0508 69.7266C41.7773 70.8789 41.1328 71.7578 40.0195 72.207C38.4766 72.8125 37.0703 72.5391 35.8789 71.4062C35.4688 71.0156 35.0977 70.8789 34.5117 71.1133C32.5195 71.9141 30.3711 70.8203 29.8047 68.7305C29.668 68.2617 29.4922 68.0078 29.0039 67.8711C27.6172 67.5 26.7187 66.6016 26.4062 65.1953C26.3086 64.8047 26.1328 64.6289 25.7617 64.5312C24.2969 64.1602 23.3398 63.2422 23.0273 61.7383C22.9492 61.4062 22.8125 61.25 22.4609 61.1719C20.8789 60.8203 19.9414 59.8047 19.6289 58.2422C19.5703 57.9492 19.4336 57.7539 19.1797 57.5977C18.3789 57.1289 17.5781 56.6406 16.7969 56.1523C16.5234 55.9766 16.2891 55.918 16.1914 56.3281C16.0938 56.6797 15.8594 56.7773 15.5273 56.7969C14.668 56.8164 13.8281 56.7969 12.9883 56.5039C9.58984 55.3516 6.19141 54.2383 2.79297 53.1055C2.79297 45.293 2.79297 37.5 2.79297 29.6875C3.37891 29.668 3.96484 29.668 4.55078 29.6289C5.68359 29.5898 6.79688 29.6094 7.77344 30.3516C8.51562 30.8984 9.43359 31.2305 10.1562 31.7969C11.4258 32.7734 12.7344 32.9883 14.1992 32.3633C14.2578 32.3438 14.3359 32.3437 14.3945 32.3047C14.6289 32.2266 14.9219 32.2266 14.9805 31.9141C15.0195 31.6211 14.7852 31.4844 14.5898 31.3281C13.6523 30.5469 12.9102 29.6094 12.4219 28.4766C11.3672 26.0352 11.4648 23.4766 11.9922 20.9961C12.7148 17.6172 15.7031 15.2539 19.1602 15.0781C19.7852 15.0391 19.8438 14.8242 19.6094 14.3164C19.3945 13.8477 19.2187 13.3398 18.9844 12.8906C18.7695 12.4414 18.8281 12.1094 19.1797 11.7578C20.8984 10.0781 22.5977 8.37891 24.2773 6.66016C24.6484 6.28906 24.9219 6.30859 25.332 6.58203C26.1328 7.12891 26.9727 7.63672 27.7734 8.18359C28.125 8.41797 28.418 8.41797 28.7891 8.22266C29.7461 7.69531 30.7617 7.28516 31.7969 6.97266C32.2461 6.83594 32.4609 6.58203 32.5586 6.13281C32.7148 4.98047 32.9688 3.84766 33.2227 2.73438ZM70.0781 40.7812C70.0781 38.9844 70.0781 37.1875 70.0781 35.4102C70.0781 34.5117 70.0781 34.4922 69.2969 34.9023C62.9688 38.2227 56.6406 41.543 50.3516 44.9023C49.1016 45.5664 47.9297 45.6445 46.6211 45.2539C44.6484 44.668 42.6562 44.1211 40.6641 43.5547C39.2969 43.1641 37.9688 43.2227 36.6992 43.8477C34.7266 44.8242 32.7539 45.8008 30.8008 46.7969C29.8633 47.2656 29.5508 48.2617 30 49.082C30.4297 49.8438 31.3281 50.0195 32.2461 49.4727C33.4375 48.7695 34.6289 48.0469 35.8008 47.3438C36.2695 47.0703 36.7383 46.7969 37.2852 46.6602C39.082 46.2109 40.5859 46.7383 41.9141 47.9492C44.8047 50.5664 47.7148 53.1641 50.6055 55.8008C51.0938 56.25 51.4648 56.2891 52.0312 55.9961C57.7539 53.1055 63.4961 50.2344 69.2578 47.3828C69.8828 47.0703 70.0977 46.6992 70.0781 46.0156C70.0391 44.2773 70.0781 42.5195 70.0781 40.7812ZM34.6875 41.9922C32.832 41.3086 30.957 40.8398 28.9844 41.0938C26.1133 41.4648 23.3008 42.2852 20.4688 42.8711C20.0977 42.9492 19.8828 43.1445 19.7852 43.5156C18.9062 46.6602 17.9883 49.7852 17.0898 52.9297C16.9727 53.3008 17.0312 53.5547 17.4023 53.7695C18.2031 54.2187 18.9648 54.6875 19.7266 55.1758C20.1172 55.4102 20.3711 55.3516 20.6641 55.0391C21.2695 54.3945 21.8945 53.7695 22.5391 53.1641C24.5898 51.2695 27.6562 52.1094 28.457 54.7656C28.5937 55.2539 28.8086 55.5078 29.3164 55.6445C30.6445 55.9961 31.5039 56.875 31.8555 58.2227C31.9531 58.6523 32.1484 58.8672 32.5781 58.9844C34.0234 59.3555 34.9414 60.2734 35.2539 61.7578C35.332 62.0898 35.4883 62.2461 35.8203 62.3242C36.7969 62.5391 37.5195 63.0859 38.125 63.8867C38.9648 64.9414 40.0391 65.7422 41.1523 66.4844C41.9141 66.9922 42.793 66.6602 42.9883 65.8984C43.1445 65.293 42.7734 64.9023 42.3633 64.5703C40.8789 63.3398 39.3945 62.1094 37.9297 60.8594C36.6602 59.8047 36.6797 59.8047 37.7539 58.5156C38.1055 58.0664 38.3594 58.0664 38.7891 58.418C40.5273 59.9023 42.3047 61.3477 44.0625 62.8125C44.3164 63.0273 44.5898 63.2422 44.9414 63.3008C45.4883 63.3984 45.9375 63.2617 46.2305 62.7734C46.5039 62.3047 46.4062 61.8555 46.0547 61.4648C45.8789 61.2891 45.7031 61.1133 45.5078 60.957C44.1211 59.7852 42.7148 58.6328 41.3281 57.4805C40.0391 56.4062 40.0391 56.4062 41.1523 55.0977C41.5039 54.6875 41.7578 54.668 42.1484 55.0195C43.3008 56.0156 44.4727 56.9727 45.6445 57.9492C46.3281 58.5156 46.9922 59.1016 47.6953 59.6289C48.3398 60.1172 49.1016 60.0586 49.5312 59.5312C49.9219 59.043 49.8047 58.3789 49.2383 57.832C49.1797 57.7734 49.1016 57.7148 49.043 57.6367C46.1328 55.0195 43.2227 52.3828 40.293 49.7656C39.1016 48.6914 38.3008 48.6328 36.9141 49.4531C35.6641 50.1953 34.4336 50.957 33.1641 51.6797C31.9531 52.3828 30.7031 52.4414 29.4531 51.8164C28.0078 51.0937 27.3242 49.8438 27.3242 48.2812C27.3047 46.6992 28.0273 45.4883 29.4531 44.7461C30.957 43.9648 32.5 43.2227 34.0039 42.4609C34.2773 42.3633 34.5508 42.3242 34.6875 41.9922ZM43.1055 24.4531C43.125 23.6328 43.1055 22.9102 42.9883 22.1875C42.5586 19.5312 40.2344 17.4805 37.6172 17.4805C34.8047 17.4805 32.5781 19.375 32.1289 22.1484C31.9727 23.1641 32.0312 24.1797 32.0312 25.1953C32.0312 26.8945 32.5977 28.4961 34.0234 29.375C35.3516 30.1953 35.5469 31.2305 35.4102 32.5586C35.3906 32.7344 35.3906 32.9297 35.4102 33.1055C35.4883 33.7891 35.2148 34.1016 34.5117 34.2578C32.6367 34.6875 30.7617 35.1562 28.9062 35.6641C27.6172 36.0156 26.7773 36.8555 26.4648 38.1641C26.2891 38.8672 26.4453 39.043 27.1484 38.9258C29.1797 38.5547 31.2305 38.4766 33.2031 39.082C36.6797 40.1562 40.2148 41.0352 43.75 41.9727C45.0391 42.3242 46.3281 42.7148 47.6172 43.0664C48.4375 43.2812 48.6719 43.1055 48.6914 42.2852C48.6914 41.25 48.6914 40.1953 48.6914 39.1602C48.6719 37.1875 47.8125 36.0742 45.918 35.5859C44.1016 35.1172 42.2656 34.668 40.4492 34.2188C39.9219 34.1016 39.6875 33.8477 39.707 33.2812C39.7461 32.4805 39.7266 31.6992 39.707 30.8984C39.707 30.5469 39.8438 30.3125 40.1367 30.1172C42.3438 28.8086 43.2812 26.8555 43.1055 24.4531ZM62.9492 35.4102C62.793 35.2148 62.5586 35.2148 62.3438 35.1562C61.0547 34.8242 59.7461 34.4922 58.457 34.1992C57.9297 34.082 57.6953 33.8281 57.7148 33.2617C57.7539 32.5586 57.7539 31.8555 57.7148 31.1523C57.6758 30.5859 57.9102 30.2344 58.3984 29.9414C59.8438 29.0625 60.8203 27.7734 61.0156 26.0742C61.2109 24.5312 61.2695 22.9492 60.8203 21.4258C60.1953 19.2969 58.2422 17.6367 56.1719 17.4609C53.7109 17.2461 51.582 18.418 50.5859 20.625C49.7852 22.3633 49.9609 24.2188 50.1367 26.0352C50.2734 27.3828 50.8398 28.6523 51.9727 29.3164C53.3594 30.1367 53.5742 31.2109 53.418 32.5977C53.3984 32.8125 53.3984 33.0469 53.418 33.2812C53.4766 33.8086 53.2422 34.082 52.7344 34.1797C51.9531 34.3555 51.1914 34.5508 50.4297 34.7461C49.707 34.9219 49.707 34.9805 50.0977 35.5664C50.7227 36.4844 51.1133 37.4805 51.1133 38.6133C51.1133 39.3164 51.1328 40.0195 51.1328 40.7227C51.1328 41.7383 51.1328 41.7383 52.0117 41.2891C55.5078 39.4531 58.9844 37.6172 62.4805 35.7812C62.6367 35.6836 62.8516 35.6445 62.9492 35.4102ZM15.2344 34.5703C15.2344 34.6289 15.2148 34.6875 15.2148 34.7461C16.5625 35.5273 17.8711 36.3867 19.2578 37.0898C20.332 37.6367 21.0352 38.2812 20.7422 39.5898C20.7422 39.6289 20.7422 39.6875 20.7422 39.7266C20.7422 40.1367 20.9375 40.3125 21.3477 40.2148C22.0117 40.0586 22.6758 39.8828 23.3398 39.7656C23.8867 39.6875 24.0625 39.3945 24.043 38.8867C24.0039 37.6172 24.3945 36.4648 25.1562 35.4688C25.4492 35.0781 25.3125 34.9219 24.9023 34.8242C24.043 34.6094 23.1836 34.3945 22.3242 34.1797C21.9141 34.082 21.7187 33.8672 21.7187 33.418C21.7383 32.6758 21.7578 31.9141 21.7187 31.1719C21.6797 30.6055 21.8945 30.2539 22.3828 29.9609C23.9062 29.043 24.8242 27.6758 25.0391 25.8984C25.1953 24.6289 25.1758 23.3594 24.9609 22.1094C24.5508 19.6289 22.3438 17.5977 19.9414 17.4805C17.207 17.3438 14.9219 18.9648 14.2188 21.543C13.9258 22.6172 14.0625 23.7109 14.0234 24.7852C13.9453 27.0898 14.9023 28.8672 16.875 30.0586C17.2266 30.2734 17.4023 30.5273 17.4023 30.9375C17.3828 31.7578 17.3828 32.5781 17.4023 33.3789C17.4219 33.8477 17.207 34.082 16.7578 34.1797C16.2695 34.2969 15.7617 34.4336 15.2344 34.5703ZM29.6289 24.1016C29.6289 23.6914 29.6289 23.2812 29.6289 22.8711C29.668 19.4336 31.9336 16.3672 35.2148 15.3711C38.4961 14.3555 41.9727 15.5859 43.9844 18.418C45.2734 20.2539 45.5273 22.3242 45.5469 24.4922C45.5664 27.3047 44.668 29.6484 42.4805 31.4453C42.3242 31.582 42.1289 31.6992 42.207 31.9531C42.2656 32.1875 42.5 32.207 42.6953 32.2656C43.8672 32.5586 45.0195 32.8711 46.1914 33.1445C46.4062 33.2031 46.6602 33.2227 46.8555 33.1641C48.0859 32.8711 49.3164 32.5781 50.5469 32.2461C51.0742 32.1094 51.1133 31.8555 50.7031 31.5039C50.2344 31.0938 49.7461 30.6836 49.3555 30.1562C47.0703 27.0117 47.2656 23.5938 48.2031 20.0781C48.3203 19.6484 48.3594 19.3359 48.1055 18.9453C45.625 15.0781 42.1094 12.9883 37.5195 13.0078C32.9492 13.0273 29.4531 15.1367 27.0312 19.0039C26.8555 19.2969 26.6797 19.5703 26.8555 19.9414C27.5195 21.4258 27.5586 23.0078 27.5781 24.6094C27.5977 27.3633 26.6797 29.668 24.5312 31.4453C24.375 31.582 24.1797 31.6992 24.2188 31.9336C24.2578 32.207 24.5312 32.2266 24.7461 32.2852C25.8789 32.5781 27.0312 32.8711 28.1836 33.1445C28.4375 33.2031 28.7305 33.2031 28.9844 33.1445C30.1758 32.8711 31.3672 32.5586 32.5391 32.2461C33.1055 32.0898 33.1445 31.8555 32.6953 31.4648C32.2852 31.1133 31.875 30.7422 31.5234 30.332C30.0195 28.5156 29.4727 26.4062 29.6289 24.1016ZM53.5352 12.9492C53.5156 12.6367 53.3594 12.5 53.2227 12.3633C52.3242 11.4648 51.4258 10.5664 50.5273 9.66797C50.2344 9.375 49.9805 9.33594 49.6484 9.57031C48.9453 10.0586 48.2031 10.5078 47.4805 10.9961C47.1484 11.2305 46.8555 11.25 46.4844 11.0352C44.8633 10.0391 43.1445 9.29688 41.2891 8.88672C40.8789 8.78906 40.6836 8.57422 40.6055 8.16406C40.4688 7.36328 40.2539 6.5625 40.0977 5.76172C40 5.27344 39.7656 5.07812 39.2578 5.07812C38.1055 5.09766 36.9531 5.09766 35.7812 5.07812C35.3125 5.07812 35.0781 5.25391 35 5.72266C34.8438 6.52344 34.6484 7.32422 34.4922 8.125C34.4141 8.57422 34.1992 8.78906 33.7695 8.88672C31.9336 9.31641 30.2344 10.0195 28.6328 11.0156C28.2422 11.25 27.9492 11.2305 27.5781 10.9766C26.875 10.4883 26.1328 10.0391 25.4102 9.55078C25.0781 9.33594 24.8438 9.35547 24.5898 9.64844C24.1211 10.1367 23.6133 10.6055 23.1445 11.0938C22.6172 11.6602 21.7773 12.0703 21.6211 12.793C21.4453 13.5352 22.1289 14.2578 22.3828 15C22.5195 15.3516 22.6367 15.7227 23.0469 15.8984C23.6719 16.1914 24.2188 16.582 24.7266 17.0508C25.0195 17.3438 25.2148 17.2852 25.4297 16.9531C25.8984 16.2305 26.4648 15.5859 27.0703 14.9609C31.6211 10.1172 39.5898 9.12109 45.1953 12.6953C46.8945 13.7891 48.3594 15.1172 49.5312 16.7578C49.668 16.9727 49.8437 17.3438 50.1562 17.0898C51.1328 16.2305 52.6563 15.8984 52.9688 14.3164C53.0859 13.8281 53.3789 13.3594 53.5352 12.9492ZM5.07812 41.6797C5.07812 44.6484 5.09766 47.6172 5.07812 50.5859C5.07812 51.1328 5.25391 51.4062 5.78125 51.5625C6.91406 51.8945 8.02734 52.2852 9.14062 52.6758C9.58984 52.832 9.80469 52.7539 9.92188 52.2852C11.1523 47.2852 12.4023 42.3047 13.6523 37.3242C13.7695 36.875 13.6523 36.6016 13.2617 36.3867C10.8984 35.0195 8.55469 33.6523 6.21094 32.2852C5.39062 31.8164 5.09766 31.9922 5.09766 32.9102C5.07812 35.8398 5.07812 38.7695 5.07812 41.6797ZM18.3203 39.8633C18.3594 39.4531 18.2031 39.2773 17.9687 39.1406C17.5781 38.9062 17.1875 38.6719 16.7969 38.457C15.957 37.9688 15.957 37.9688 15.7227 38.9258C14.6094 43.418 13.4766 47.8906 12.3633 52.3828C11.9922 53.8672 11.8945 53.5938 13.3203 54.082C14.1797 54.375 14.1797 54.375 14.4336 53.4961C15.6836 49.1016 16.9531 44.6875 18.2031 40.293C18.2617 40.0977 18.3008 39.9219 18.3203 39.8633ZM29.9609 65.5664C30.0195 65.5469 30.1953 65.5469 30.3125 65.4492C31.2695 64.7461 32.1094 63.9258 32.793 62.9688C33.1055 62.5391 32.9883 61.9922 32.5781 61.6016C32.168 61.2109 31.6406 61.1523 31.2109 61.4844C30.332 62.1484 29.5117 62.9297 28.8867 63.8477C28.3594 64.5898 28.9648 65.5859 29.9609 65.5664ZM26.2305 55.6055C26.2109 55.2734 26.0156 54.9023 25.5859 54.6875C25.0977 54.4531 24.6289 54.5508 24.2578 54.8828C23.6133 55.4883 22.9883 56.1133 22.3828 56.7383C21.8555 57.3047 21.8359 57.9883 22.2656 58.4375C22.7148 58.9063 23.457 58.9062 24.0234 58.3789C24.6289 57.8125 25.2148 57.207 25.8008 56.6016C26.0547 56.3672 26.2305 56.0938 26.2305 55.6055ZM35.1562 64.707C34.9414 64.707 34.7461 64.7266 34.5703 64.8633C33.7109 65.5664 32.8906 66.3281 32.2266 67.2266C31.8555 67.7148 32.0117 68.2422 32.4219 68.6328C32.8516 69.043 33.3789 69.1016 33.8477 68.7305C34.6875 68.0664 35.4297 67.3047 36.0938 66.4844C36.3867 66.1328 36.3672 65.6641 36.1523 65.2539C35.957 64.8438 35.6055 64.6875 35.1562 64.707ZM29.6094 59.043C29.5312 58.5937 29.3359 58.2422 28.8867 58.0273C28.418 57.8125 27.9883 57.9297 27.6367 58.2422C26.9922 58.8477 26.3672 59.4727 25.7617 60.0977C25.2148 60.6641 25.2148 61.4063 25.6836 61.8555C26.1523 62.3047 26.8359 62.2852 27.3828 61.7578C27.9883 61.1914 28.5742 60.5859 29.1602 59.9805C29.4336 59.7461 29.5703 59.4141 29.6094 59.043ZM38.5352 70.0586C39.2773 70.0586 39.7656 69.5703 39.707 68.8867C39.668 68.418 39.3164 68.1445 39.0039 67.8516C38.6523 67.5195 38.3594 67.4023 38.0469 67.9297C37.8516 68.2617 37.5391 68.4961 37.2852 68.7891C37.1484 68.9453 36.9727 69.1016 37.168 69.2969C37.5391 69.6875 37.9297 70.0977 38.5352 70.0586Z" fill="white"/>
</svg>
