<?xml version="1.0" encoding="utf-8"?>
<!-- Generator: Adobe Illustrator 27.9.0, SVG Export Plug-In . SVG Version: 6.00 Build 0)  -->
<svg version="1.1" id="Capa_1" xmlns="http://www.w3.org/2000/svg" xmlns:xlink="http://www.w3.org/1999/xlink" x="0px" y="0px"
	 viewBox="0 0 166 166" style="enable-background:new 0 0 166 166;" xml:space="preserve">
<style type="text/css">
	.st0{fill:#383838;}
</style>
<g>
	<path class="st0" d="M80.1,118.7h8.1V109c0-5.3,0.5-11.5,0.5-13.4L71.4,119C73,119,77.6,118.7,80.1,118.7z"/>
	<path class="st0" d="M28.7,48.5c0-3.1-2.4-5.1-6.2-5.1h-5.1V54h4.2C26.1,54,28.7,52.3,28.7,48.5z"/>
	<path class="st0" d="M26.5,32.8c0-2.8-1.9-5-5.9-5h-3.2v10h3.2C24.4,37.8,26.5,35.7,26.5,32.8z"/>
	<path class="st0" d="M135.9,73.5c-10.8,0-19.5,8.7-19.5,19.5s8.7,19.5,19.5,19.5c10.7,0,19.4-8.7,19.5-19.5
		C155.4,82.2,146.7,73.5,135.9,73.5z M149.4,96.3h-15.1V81.2h3.2v11.9h11.9V96.3z"/>
	<path class="st0" d="M159.3-0.1H6.7C3-0.1,0.1,2.8,0.1,6.4v153.2c0,3.6,2.9,6.6,6.6,6.6h152.7c3.6,0,6.6-2.9,6.6-6.6V6.4
		C165.9,2.8,163-0.1,159.3-0.1z M109,32.7h7l6.4,8.7l6.4-8.7h7.1L126,46.1l10.1,13.5H129l-6.5-9l-6.6,9h-7.1l9.9-13.5L109,32.7z
		 M101.5,20.1c2.4,0,4.2,1.9,4.2,4.2c0,2.2-1.9,4-4.3,4c-2.5,0-4.1-1.6-4.1-4C97.3,21.9,99.1,20.1,101.5,20.1z M104.9,32.7v27h-6.8
		v-27H104.9z M77,32.7h5.8l0.7,3.1c2.4-2.5,4.6-3.7,7.4-3.7c1.2,0,2.7,0.4,3.8,1.1l-2.4,5.7C91,38.1,89.9,38,89.2,38
		c-1.8,0-3.3,0.7-5.5,2.7h0.1v19.1H77V32.7z M45,20.1c2.3,0,4.3,1.8,4.3,4.2c0,2.2-1.9,4-4.3,4c-2.4,0-4.2-1.6-4.2-4
		C40.8,21.9,42.7,20.1,45,20.1z M48.4,32.7v27h-6.8v-27H48.4z M10.4,22.1h11c8,0,11.7,4.6,11.7,9.5c0,3.3-1.6,6.2-4.5,7.8v0.1
		c4.4,1.1,7.1,4.6,7.1,9c0,5.9-4.4,11.1-13.2,11.2H10.4V22.1z M56.1,145.6H8.6c2.8-34.3,33.9-35.3,33.6-49.6c0-6.4-5.1-8.7-10.7-8.7
		c-6.9,0-12.5,2.3-17.6,4.6l-3.3-9.7c5.6-2.8,13.5-5.6,22.9-5.6c14.8,0,21.9,7.7,21.9,18.1c0,19.4-26.5,23.2-30.8,40.5h31.5V145.6z
		 M52.6,38v-5.4h4.9v-6.2l6.8-2v8.2h8.2L70.8,38h-6.5v13.3c0,2.5,0.9,3.4,2.7,3.4c1.6,0,3.1-0.6,4.2-1.3l2.1,4.6
		c-1.9,1.4-5.2,2.1-7.9,2.1c-4.9,0.1-7.8-2.5-7.9-7.1V38H52.6z M110.5,129.1h-10.2v16.8H88.1v-16.8H57.6v-8.4l33.9-44h8.9v42.2h10.1
		V129.1z M135.9,116.9c-13,0-23.8-10.8-23.8-23.8s10.8-23.8,23.8-23.8s23.8,10.7,23.8,23.8C159.7,106.1,148.9,116.9,135.9,116.9z"/>
</g>
</svg>
