<svg width="60" height="60" viewBox="0 0 60 60" fill="none" xmlns="http://www.w3.org/2000/svg">
<path d="M29.1562 14.6564C29.1562 14.547 29.1406 14.4376 29.1562 14.3282C29.2656 13.4689 29.0937 12.9064 28.1875 12.4532C26.7344 11.7345 26.2031 9.82823 26.8125 8.29698C27.4375 6.73448 29.0469 5.82823 30.7031 6.12511C32.3125 6.40636 33.5156 7.85948 33.5312 9.50011C33.5312 11.0314 32.8125 12.1251 31.4219 12.7501C31.0781 12.9064 30.9375 13.0939 30.9531 13.4689C30.9844 14.297 30.9687 15.1095 30.9531 15.9376C30.9531 16.2501 31.0625 16.3907 31.3906 16.3907C34.4531 16.4376 37.4062 17.0782 40.25 18.1876C40.5312 18.297 40.7031 18.2189 40.9062 18.0314C41.6094 17.3126 42.3125 16.6095 43.0312 15.9064C43.2656 15.6876 43.2812 15.5001 43.1562 15.2032C42.3594 13.2814 43.3594 11.1407 45.2969 10.5314C47.2656 9.92198 49.3125 11.0782 49.75 13.1095C50.0312 14.4532 49.6562 15.6407 48.5937 16.5314C47.5625 17.3907 46.375 17.5782 45.125 17.0939C44.7187 16.9376 44.4844 16.9845 44.2031 17.297C43.7656 17.7814 43.2969 18.2501 42.7969 18.7032C42.4375 19.0157 42.4531 19.172 42.8906 19.4064C45.5 20.7189 47.7812 22.4845 49.8281 24.5626C51.0469 25.797 52.0156 27.1564 52.2969 28.9064C52.6562 31.1407 52.1406 33.1407 50.6562 34.8439C48.4687 37.3751 45.875 39.3907 42.9062 40.922C42.375 41.2032 42.375 41.2032 42.8125 41.6407C43.2969 42.1251 43.7812 42.5939 44.25 43.0782C44.4844 43.3439 44.6875 43.3907 45.0312 43.2501C46.9375 42.4688 49.0937 43.5001 49.6719 45.4376C50.2656 47.4063 49.0781 49.4532 47.0469 49.8595C45.7187 50.1251 44.5625 49.7501 43.6719 48.7032C42.8125 47.672 42.6094 46.4845 43.0937 45.2345C43.2656 44.797 43.1719 44.5626 42.875 44.2814C42.2031 43.6407 41.5469 42.9845 40.9062 42.3126C40.7031 42.0938 40.5156 42.0314 40.2031 42.1407C37.375 43.2501 34.4375 43.8751 31.3906 43.922C31.0312 43.922 30.9219 44.0626 30.9375 44.4064C30.9531 45.2032 30.9687 46.0157 30.9375 46.8126C30.9219 47.2188 31.0781 47.4063 31.4375 47.5626C33.3281 48.422 34.0781 50.5626 33.125 52.3751C32.3594 53.8282 30.6719 54.547 29.0625 54.0939C27.4844 53.6407 26.4375 52.0938 26.5781 50.4532C26.625 49.9688 26.9375 49.6563 27.4062 49.6251C27.9062 49.5938 28.2812 49.8751 28.375 50.3595C28.4062 50.5313 28.3906 50.7189 28.4062 50.8907C28.5312 51.7814 29.25 52.4376 30.0625 52.4063C30.9531 52.3751 31.6875 51.6251 31.7031 50.7345C31.7187 49.9064 31.0625 49.2032 30.1562 49.0939C30.0312 49.0782 29.9062 49.0938 29.7812 49.0782C29.2344 49.0313 28.7969 48.5626 28.9531 48.047C29.2812 46.9845 29.0937 45.922 29.125 44.8595C29.1562 43.7814 29.2344 43.9532 28.1875 43.9064C25.4062 43.7814 22.7031 43.2189 20.1094 42.2032C19.6406 42.0157 19.3437 42.0626 19 42.4376C18.4062 43.0939 17.75 43.7189 17.1094 44.3282C16.8594 44.5626 16.7969 44.7657 16.9375 45.1095C17.7187 47.0001 16.7187 49.1251 14.7969 49.7345C12.8594 50.3595 10.7969 49.2188 10.3437 47.2345C10.0312 45.8751 10.4062 44.672 11.4844 43.7657C12.5156 42.9064 13.7031 42.7032 14.9531 43.1876C15.3906 43.3595 15.625 43.2814 15.9219 42.9689C16.375 42.4845 16.8281 42.0157 17.3281 41.5626C17.6719 41.2501 17.625 41.1095 17.2187 40.9064C14.5312 39.547 12.1719 37.7345 10.0937 35.5626C8.96874 34.3907 8.07812 33.1095 7.79687 31.4689C7.42187 29.3126 7.89062 27.3595 9.26562 25.6407C10.0156 24.7032 10.8594 23.8595 11.75 23.047C12.2812 22.5626 12.8437 22.547 13.2187 22.9532C13.5937 23.3595 13.5156 23.922 13.0156 24.4064C12.1719 25.2032 11.3125 26.0001 10.6094 26.922C9.10937 28.8907 9.14062 31.6407 10.7812 33.5001C14.625 37.8907 19.4375 40.6407 25.1719 41.672C30.0625 42.547 34.875 42.2032 39.5469 40.3907C43.3437 38.922 46.6094 36.6564 49.2812 33.5626C51 31.5782 51.0156 28.7189 49.2812 26.7345C45.4219 22.3282 40.5937 19.5782 34.8125 18.5939C28.0937 17.4532 21.7812 18.6095 15.9531 22.2189C15.5469 22.4689 15.1406 22.6095 14.7031 22.3126C14.3594 22.0939 14.2812 21.7501 14.3437 21.3751C14.3906 21.047 14.625 20.8595 14.8906 20.6876C15.6719 20.1876 16.4844 19.7189 17.3125 19.3126C17.625 19.1564 17.6719 19.0314 17.4062 18.7814C16.875 18.2814 16.3594 17.7657 15.8594 17.2189C15.6094 16.9532 15.3906 16.9064 15.0312 17.047C13.125 17.8282 11 16.7814 10.4062 14.8126C9.82812 12.9689 11 10.922 12.9687 10.4845C14.3125 10.172 15.5 10.547 16.4062 11.6095C17.2812 12.6251 17.4844 13.8126 17.0156 15.0626C16.8437 15.5157 16.9062 15.7657 17.25 16.0626C17.9219 16.6876 18.5625 17.3282 19.1875 17.9845C19.4219 18.2345 19.6406 18.3126 19.9844 18.172C22.8125 17.0939 25.7344 16.4845 28.75 16.3907C29.0781 16.3751 29.1875 16.2501 29.1719 15.9376C29.1406 15.5157 29.1562 15.0939 29.1562 14.6564ZM30.0625 11.2345C30.9375 11.2501 31.7187 10.4376 31.7187 9.54698C31.7187 8.71886 30.9219 7.93761 30.1094 7.92198C29.2187 7.90636 28.4062 8.68761 28.4062 9.56261C28.3906 10.4532 29.1562 11.2189 30.0625 11.2345ZM48.0156 13.8282C48.0156 12.9845 47.1875 12.172 46.3437 12.2032C45.4531 12.2189 44.6875 12.9689 44.6875 13.8439C44.6875 14.7345 45.4531 15.5157 46.3594 15.5314C47.2187 15.547 48.0156 14.7345 48.0156 13.8282ZM15.4219 46.4063C15.4062 45.5626 14.5625 44.7501 13.7344 44.797C12.8281 44.8439 12.0781 45.5938 12.0937 46.4532C12.1094 47.3595 12.8906 48.1251 13.7812 48.1251C14.6562 48.1095 15.4375 47.297 15.4219 46.4063ZM13.7969 12.2032C12.9062 12.1876 12.0937 12.9689 12.0937 13.8439C12.0937 14.7345 12.8594 15.5157 13.7656 15.5314C14.6094 15.547 15.3906 14.7814 15.4219 13.8907C15.4531 13.047 14.6562 12.2189 13.7969 12.2032ZM48.0156 46.4532C48.0312 45.6095 47.2187 44.797 46.375 44.797C45.5 44.797 44.7187 45.5626 44.6875 46.4063C44.6562 47.297 45.4219 48.0782 46.3281 48.1251C47.1875 48.1563 48 47.3595 48.0156 46.4532Z" fill="#6D6D6D"/>
<path d="M41.2187 30.1719C41.2968 31.4219 41.0625 32.625 40.6562 33.7969C40.4375 34.4531 39.8906 34.7031 39.3593 34.4531C38.9375 34.25 38.75 33.8125 38.8906 33.3281C39.1093 32.5625 39.2968 31.7813 39.375 30.9688C39.8125 26.2656 36.5937 21.9688 32.0156 20.9844C26.75 19.8594 21.5937 23.3594 20.7812 28.7031C19.9218 34.3125 24.0312 39.0469 29.1875 39.4688C31.2343 39.6406 33.125 39.2188 34.875 38.1719C35.2031 37.9688 35.5468 37.8125 35.9375 37.9844C36.25 38.125 36.4531 38.375 36.4843 38.7188C36.5156 39.1094 36.3437 39.4063 36.0156 39.6094C34.4687 40.5781 32.7968 41.1719 30.9843 41.3125C26.125 41.6875 21.8125 39.1094 19.7968 34.6875C16.75 28.0156 21.125 20.0625 28.3906 19.0625C34.7656 18.1875 40.4531 22.5625 41.1875 28.9219C41.25 29.3438 41.2187 29.7656 41.2187 30.1719Z" fill="#6D6D6D"/>
<path d="M36.0937 29.297C36.0937 30.6252 36.0937 31.9377 36.0937 33.2658C36.0937 34.2345 35.5937 34.9533 34.75 35.2345C33.8281 35.547 33 35.3283 32.4219 34.5002C31.4062 33.047 29.9844 32.6877 28.3437 32.7502C27.9531 32.7658 28.0469 32.9377 28.1406 33.1564C28.4687 33.9845 28.7969 34.8127 29.125 35.6408C29.2812 36.047 29.3125 36.4533 28.9687 36.7814C28.4844 37.2502 27.75 37.0627 27.4531 36.3752C27.0156 35.3439 26.5937 34.297 26.2031 33.2345C26.0781 32.8908 25.8906 32.6877 25.5156 32.5627C23.8594 32.0002 22.9062 30.3752 23.1875 28.6877C23.4687 27.0002 24.9062 25.8283 26.6719 25.8127C27.6406 25.797 28.5937 25.8595 29.5625 25.7658C30.7656 25.6564 31.6719 25.0783 32.375 24.1252C33.2187 23.0002 34.7187 22.922 35.6094 23.9377C35.9375 24.3127 36.0937 24.7658 36.0937 25.2658C36.0937 26.6252 36.0937 27.9689 36.0937 29.297ZM34.2969 29.297C34.2969 28.0939 34.2969 26.9064 34.2969 25.7033C34.2969 25.5002 34.375 25.2345 34.1094 25.1408C33.875 25.0627 33.7969 25.3283 33.6719 25.4689C32.6406 26.7658 31.2969 27.5002 29.6406 27.6095C29.3125 27.6252 29.2187 27.7658 29.2187 28.0783C29.2344 28.9064 29.2344 29.7189 29.2187 30.547C29.2187 30.8752 29.3437 30.9689 29.6562 31.0002C31.3281 31.1095 32.6562 31.8595 33.6875 33.1564C33.7969 33.297 33.875 33.5627 34.125 33.4689C34.3594 33.3908 34.2969 33.1408 34.2969 32.9533C34.3125 31.7189 34.2969 30.5002 34.2969 29.297ZM27.4375 29.3283C27.4375 28.9064 27.4375 28.4689 27.4375 28.047C27.4375 27.8595 27.4375 27.7033 27.1875 27.6408C26.3281 27.422 25.2969 27.9845 25.0312 28.8283C24.6719 30.0158 25.6094 31.047 26.9844 31.0002C27.2969 30.9845 27.4375 30.8908 27.4219 30.5627C27.4375 30.1408 27.4375 29.7345 27.4375 29.3283Z" fill="#6D6D6D"/>
<path d="M37.1719 36.5626C37.2031 36.047 37.75 35.5157 38.2344 35.5313C38.7344 35.547 39.1094 35.9845 39.0937 36.5001C39.0625 37.0313 38.5469 37.5313 38.0469 37.5157C37.5469 37.5157 37.1406 37.0626 37.1719 36.5626Z" fill="#6D6D6D"/>
</svg>
