<svg width="75" height="75" viewBox="0 0 75 75" fill="none" xmlns="http://www.w3.org/2000/svg">
<path d="M22.2461 72.4023C19.8828 71.4258 19.1211 70.2539 19.1211 67.6758C19.1211 60.8984 19.1211 54.1211 19.1211 47.3438C19.1211 47.0117 19.1211 46.6602 19.1797 46.3281C19.3555 45.332 20.0391 44.7266 21.0547 44.707C22.3047 44.6875 23.5352 44.6875 24.7852 44.707C26.4258 44.707 27.207 45.7422 26.7773 47.3438C26.1914 49.5508 27.3633 51.6016 29.5117 52.0898C31.8945 52.6367 34.2383 50.3711 33.7891 47.9492C33.75 47.7148 33.6914 47.4609 33.6133 47.2266C33.2227 45.7813 34.0234 44.707 35.5469 44.707C38.2031 44.6875 40.8789 44.707 43.5352 44.707C44.6289 44.707 44.6289 44.707 44.6289 43.6523C44.6289 42.2656 44.6094 40.8984 44.6289 39.5117C44.6289 39.0039 44.4922 38.8672 43.9648 38.9062C41.0156 39.1211 38.125 36.7188 37.8125 33.8477C37.4609 30.7031 39.5703 27.8711 42.6367 27.3438C43.0664 27.2656 43.4961 27.1484 43.9062 27.2656C44.5508 27.4219 44.6289 27.1094 44.6289 26.582C44.6094 25 44.6289 23.418 44.6289 21.8359C44.6289 21.5039 44.6484 21.1523 44.6875 20.8203C44.8242 19.7656 45.4687 19.1016 46.5234 19.1016C53.8672 19.082 61.2109 19.0625 68.5352 19.1211C70.6836 19.1406 72.2852 20.9961 72.3047 23.1445C72.3047 34.8633 72.3047 46.582 72.3047 58.3203C72.3047 58.457 72.3047 58.5938 72.2852 58.7305C72.2266 59.3164 71.8164 59.6875 71.2695 59.707C70.6836 59.7266 70.2148 59.3359 70.1953 58.7305C70.1562 57.9883 70.1758 57.2461 70.1758 56.5039C70.1758 53.5742 70.1562 50.625 70.1953 47.6953C70.1953 47.1094 70.0195 46.8945 69.4336 46.9141C67.6953 46.9531 65.957 46.9336 64.2188 46.9141C63.9648 46.9141 63.7109 46.9141 63.4766 46.875C62.5 46.7383 62.1094 45.9375 62.6172 45.0977C63.4961 43.6328 63.6914 42.0898 63.0664 40.4883C62.1094 38.0078 59.1016 36.8555 56.4844 37.9297C54.043 38.9258 52.9297 41.8359 54.0234 44.3359C54.1406 44.5898 54.2773 44.8242 54.3945 45.0586C54.9219 46.0352 54.5117 46.8164 53.3984 46.9141C53.1836 46.9336 52.9492 46.9336 52.7148 46.9336C51.0156 46.9336 49.3359 46.9531 47.6367 46.9141C47.0117 46.8945 46.8359 47.1289 46.8359 47.7344C46.8555 51.6797 46.8555 55.6445 46.8359 59.5898C46.8359 60.7422 46.1133 61.1719 45.0781 60.7227C45 60.6836 44.9219 60.6445 44.8242 60.6055C42.9883 59.8242 40.957 61.1719 40.9961 63.1836C41.0352 65.0195 42.9492 66.2891 44.7266 65.6445C44.9219 65.5664 45.0977 65.4688 45.293 65.3906C46.1328 65.0977 46.8164 65.5469 46.8359 66.4258C46.8555 67.4805 46.8555 68.5547 46.8359 69.6094C46.8164 70.1172 46.9531 70.332 47.5195 70.332C54.3359 70.3125 61.1523 70.332 67.9883 70.3125C69.4336 70.3125 70.1953 69.5312 70.2148 68.0859C70.2344 66.3281 70.2148 64.5703 70.2344 62.793C70.2344 62.0703 70.6641 61.6406 71.2891 61.6602C71.9141 61.6602 72.3242 62.1094 72.3438 62.8125C72.3438 62.9297 72.3438 63.0469 72.3438 63.1445C72.3438 64.8438 72.3438 66.5234 72.3438 68.2227C72.3438 70.1758 71.4844 71.4648 69.6875 72.2266C69.5703 72.2852 69.4336 72.3438 69.3164 72.4023C53.6133 72.4023 37.9297 72.4023 22.2461 72.4023ZM57.9102 21.3281C54.5312 21.3281 51.1328 21.3281 47.7539 21.3281C46.8359 21.3281 46.8359 21.3281 46.8359 22.2656C46.8359 24.2969 46.8359 26.3281 46.8359 28.3594C46.8359 29.8047 46.2891 30.1758 44.9219 29.707C43.3008 29.1406 41.6211 29.6289 40.625 30.9766C39.707 32.2266 39.707 33.9648 40.6445 35.2148C41.6602 36.5625 43.3008 37.0508 44.9414 36.4648C46.25 35.9961 46.8359 36.3867 46.8359 37.7734C46.8359 39.8437 46.8555 41.9336 46.8359 44.0039C46.8359 44.5312 46.9922 44.7266 47.5391 44.707C48.7109 44.668 49.8828 44.668 51.0547 44.707C51.6797 44.7266 51.7578 44.5117 51.6211 43.9648C51.2305 42.4023 51.3672 40.8594 52.0117 39.3945C53.125 36.875 55.2148 35.6641 57.8711 35.4102C60.7812 35.1367 64.3359 36.543 65.3516 40.332C65.6836 41.582 65.7031 42.832 65.3906 44.082C65.2734 44.5312 65.3711 44.707 65.8594 44.6875C67.1094 44.668 68.3398 44.668 69.5898 44.6875C70.1172 44.707 70.2344 44.4727 70.2344 44.0039C70.2148 37.1875 70.2344 30.3516 70.2148 23.5352C70.2148 21.9922 69.5117 21.3086 67.9688 21.3086C64.5898 21.3281 61.25 21.3281 57.9102 21.3281ZM21.3281 58.0078C21.3281 61.2305 21.3281 64.4727 21.3281 67.6953C21.3281 69.7266 21.9141 70.332 23.9258 70.332C30.2734 70.332 36.6211 70.3516 42.9688 70.332C44.8242 70.332 44.5898 70.7617 44.6094 68.5352C44.6094 68.1445 44.4531 67.9492 44.043 67.9883C43.5156 68.0273 43.0078 68.0078 42.5 67.8516C40.1172 67.1875 38.457 64.8047 38.8281 62.5391C39.2383 59.9023 41.4258 58.0469 44.0234 58.1836C44.4727 58.2031 44.6289 58.1055 44.6289 57.6563C44.6094 54.3164 44.6094 50.9766 44.6289 47.6367C44.6289 47.1094 44.4141 46.9141 43.9062 46.9336C43.3008 46.9531 42.6953 46.9336 42.0703 46.9336C40.2148 46.9336 38.3594 46.9336 36.5234 46.9336C36.0352 46.9336 35.8203 47.0508 35.9375 47.5977C36.0352 48.0469 35.9961 48.5352 35.9766 49.0234C35.7812 52.832 31.5625 55.4492 28.0664 53.9453C25.5078 52.832 24.1016 50.293 24.5117 47.5391C24.5703 47.0898 24.4727 46.9141 24.0039 46.9531C23.3984 46.9727 22.7734 46.9922 22.168 46.9531C21.5039 46.8945 21.3281 47.168 21.3281 47.8125C21.3477 51.1719 21.3477 54.5898 21.3281 58.0078Z" fill="white"/>
<path d="M2.87109 14.668C2.89063 14.6484 2.91016 14.6484 2.92969 14.6289C3.32031 14.2578 3.73047 13.9648 4.31641 14.2188C4.88281 14.4727 4.96094 14.9609 4.96094 15.5078C4.96094 19.5312 4.96094 23.5547 4.96094 27.5781C4.96094 28.4766 4.96094 28.4766 5.85938 28.4961C7.07031 28.4961 8.30078 28.4766 9.51172 28.4961C10.9961 28.5156 11.4062 29.2578 10.7031 30.5664C9.86328 32.0898 10.2539 34.082 11.6016 35.1758C12.9102 36.25 14.7852 36.25 16.1133 35.1953C17.4609 34.1211 17.8711 32.1289 17.0508 30.6055C16.9727 30.4492 16.8555 30.293 16.7773 30.1367C16.4648 29.4727 16.7969 28.7891 17.5 28.6133C17.832 28.5352 18.1641 28.5156 18.5156 28.5156C21.4648 28.5156 24.4336 28.5156 27.3828 28.5156C28.3008 28.5156 28.3008 28.5156 28.3008 27.5586C28.3008 26.2891 28.3008 25.0195 28.3008 23.7695C28.3008 22.7344 28.3008 22.7344 27.2852 22.7344C24.5117 22.7344 22.1289 20.8203 21.5234 18.1055C20.7422 14.668 23.4766 11.1914 26.9922 11.1133C28.3008 11.0938 28.3008 11.0938 28.3008 9.76563C28.3008 8.4375 28.2812 7.10938 28.3008 5.76172C28.3008 5.27344 28.1641 5.07812 27.6367 5.07812C20.8008 5.09766 13.9453 5.07812 7.10938 5.09766C5.70313 5.09766 4.96094 5.87891 4.94141 7.30469C4.92188 8.45703 4.92188 9.60938 4.94141 10.7617C4.94141 11.3281 4.90234 11.8555 4.29688 12.1289C3.67188 12.4219 3.26172 12.0508 2.85156 11.6797C2.85156 9.78516 2.85156 7.89062 2.85156 5.99609C3.26172 5 3.76953 4.08203 4.74609 3.51562C5.39062 3.14453 6.05469 2.94922 6.81641 2.94922C14.0234 2.94922 21.2305 2.94922 28.418 2.94922C29.6484 2.94922 30.3711 3.53516 30.4297 4.74609C30.5469 7.05078 30.5469 9.35547 30.4297 11.6406C30.3711 12.9102 29.3945 13.5547 28.1055 13.3594C25.9961 13.0273 24.2773 14.0039 23.7109 15.8398C22.9492 18.3594 25.1562 20.957 27.7344 20.4492C29.6484 20.0781 30.5078 21.1719 30.4883 22.793C30.4492 24.5898 30.4883 26.4062 30.4688 28.2031C30.4492 30.0391 29.8047 30.6641 27.9688 30.6641C25.3711 30.6641 22.7734 30.6836 20.1758 30.6445C19.6094 30.6445 19.4531 30.7422 19.5312 31.3477C20.0586 35 17.2656 38.1641 13.5742 38.1055C10.8789 38.0664 8.41797 35.7812 8.06641 33.0273C7.98828 32.4219 7.98828 31.8164 8.10547 31.2109C8.20312 30.7812 8.06641 30.6445 7.63672 30.6445C6.75781 30.6641 5.87891 30.625 5 30.6641C3.98438 30.7031 3.24219 30.332 2.8125 29.3945C2.87109 24.5117 2.87109 19.5898 2.87109 14.668Z" fill="white"/>
<path d="M54.082 10.7031C56.1133 10.7031 58.1445 10.6836 60.1758 10.7227C60.7813 10.7227 61.1328 10.586 61.4453 10C62.3242 8.37893 64.2188 7.75393 65.9375 8.39846C67.5977 9.02346 68.5547 10.8203 68.2031 12.6172C67.8711 14.2774 66.2305 15.5664 64.4922 15.4883C63.086 15.4297 62.0117 14.7461 61.3672 13.4766C61.1524 13.0469 60.8789 12.9102 60.4102 12.9102C56.4649 12.9297 52.5 12.9297 48.5547 12.9102C48.086 12.9102 47.7539 13.0469 47.4219 13.3789C45.8008 15.0196 44.1797 16.6406 42.5391 18.2617C42.1875 18.6133 42.0313 18.9649 42.0508 19.4531C42.0703 20.5274 42.0703 21.6211 42.0508 22.6953C42.0313 23.5547 41.6211 24.043 40.957 24.043C40.2735 24.043 39.8438 23.5547 39.8438 22.7149C39.8242 21.3477 39.8438 19.961 39.8438 18.5938C39.8438 18.086 40.0195 17.6758 40.3711 17.3242C42.4024 15.293 44.4336 13.2813 46.4453 11.25C46.8555 10.8399 47.3438 10.6836 47.9102 10.7031C49.9805 10.7227 52.0313 10.7031 54.082 10.7031ZM64.5899 10.3516C63.7891 10.3711 63.125 11.0352 63.1445 11.8164C63.1445 12.6563 63.8086 13.2813 64.6875 13.2617C65.4883 13.2422 66.1524 12.5977 66.1328 11.7969C66.0938 10.9766 65.4297 10.3516 64.5899 10.3516Z" fill="white"/>
<path d="M35.2344 17.5391C35.2344 15.2735 35.2344 13.0274 35.2344 10.7617C35.2344 10.332 35.0976 10.0781 34.6875 9.88283C33.0273 9.04298 32.2851 7.26564 32.8125 5.54689C33.3594 3.78908 34.9609 2.77345 36.8554 2.96876C38.4961 3.14454 39.9023 4.60939 40 6.3672C40.0781 7.89064 39.4336 9.10158 38.0664 9.82423C37.5976 10.0781 37.4414 10.3711 37.4414 10.8789C37.4609 15.2344 37.4609 19.5899 37.4414 23.9453C37.4414 24.2383 37.4414 24.5313 37.3828 24.8242C37.2461 25.3906 36.875 25.7227 36.2695 25.7031C35.6836 25.6836 35.3515 25.3125 35.2539 24.7852C35.1758 24.3945 35.2148 23.9844 35.2148 23.5742C35.2344 21.5625 35.2344 19.5508 35.2344 17.5391ZM37.8125 6.64064C37.832 5.80079 37.1679 5.1172 36.3281 5.1172C35.5078 5.1172 34.9023 5.7422 34.8828 6.58204C34.8633 7.42189 35.5273 8.10548 36.3476 8.10548C37.1484 8.10548 37.7929 7.44142 37.8125 6.64064Z" fill="white"/>
<path d="M29.0039 44.6875C29.5117 43.1055 28.5937 41.7969 27.1875 40.6445C26.7773 40.3125 26.4844 40.1563 25.9375 40.332C23.9453 40.9375 21.8945 39.7852 21.3476 37.832C20.8008 35.8789 21.9336 33.8281 23.8867 33.3203C25.2148 32.9688 26.4453 33.2422 27.4609 34.2188C28.4961 35.2344 28.7695 36.4844 28.3984 37.832C28.2422 38.4375 28.3398 38.7891 28.7695 39.1797C29.4141 39.7656 30.0195 40.4297 30.6445 41.0352C31.0156 41.4063 31.2109 41.836 31.2109 42.3633C31.2109 43.9649 31.2109 45.5664 31.2109 47.168C31.2109 47.1875 31.2109 47.207 31.2109 47.2266C31.1719 48.0078 30.7422 48.5352 30.1172 48.5352C29.4922 48.5352 29.0234 48.0274 29.0039 47.2461C28.9844 46.5039 29.0039 45.7617 29.0039 44.6875ZM26.3867 36.8164C26.3867 36.0742 25.6836 35.3516 24.9219 35.3125C24.1601 35.293 23.3789 36.0352 23.3789 36.8164C23.3789 37.5977 24.1406 38.3399 24.9023 38.3203C25.6836 38.3008 26.3867 37.5781 26.3867 36.8164Z" fill="white"/>
</svg>
