<svg width="65" height="65" viewBox="0 0 65 65" fill="none" xmlns="http://www.w3.org/2000/svg">
<path d="M12.069 59.8881C11.3073 59.5157 10.9349 58.8724 10.7318 58.0769C10.4779 57.0443 10.1563 56.0118 9.90235 54.9792C9.80079 54.5899 9.61459 54.4037 9.25912 54.2683C8.17579 53.862 7.09246 53.4219 6.02605 52.9987C4.40105 52.3555 4.13022 50.6967 5.41668 49.5456C8.2435 47.0235 11.0534 44.4844 13.8802 41.9623C14.1511 41.7253 14.2526 41.4545 14.3203 41.1159C15.0313 37.155 15.7422 33.211 16.4531 29.25C16.5039 28.9623 16.5547 28.6745 16.6055 28.4037C16.7578 27.6081 17.0456 27.3711 17.8412 27.3204C20.8034 27.1849 23.7149 26.8464 26.5247 25.8308C28.3867 25.1706 30.1133 24.2566 31.6706 23.0717C32.3646 22.5469 32.6693 22.5469 33.3633 23.0717C36.1224 25.1875 39.2878 26.3047 42.6732 26.8802C44.1966 27.1342 45.737 27.2188 47.2604 27.3034C47.9544 27.3373 48.293 27.6081 48.4284 28.2852C48.9024 30.875 49.3932 33.4818 49.8503 36.0886C50.155 37.7982 50.5274 39.4909 50.7474 41.2175C50.7813 41.5052 50.9167 41.7084 51.1367 41.9115C53.9636 44.4506 56.7904 47.0065 59.6341 49.5456C59.9557 49.8334 60.1927 50.155 60.3789 50.5443C60.3789 50.9506 60.3789 51.3399 60.3789 51.7461C60.0742 52.4401 59.5326 52.8464 58.8386 53.1003C57.8399 53.4558 56.8581 53.8959 55.8425 54.2513C55.4531 54.4037 55.2331 54.6068 55.1315 55.03C54.8607 56.1133 54.5221 57.1966 54.2513 58.28C54.0482 59.0586 53.6419 59.6172 52.8802 59.905C52.474 59.905 52.0846 59.905 51.6784 59.905C51.1706 59.6341 50.7305 59.2279 50.3073 58.8386C48.75 57.4336 47.1927 56.0118 45.6185 54.6068C45.4323 54.4375 45.263 54.2175 44.9583 54.4206C43.4518 55.5039 41.7083 56.0795 40.0326 56.8243C37.6797 57.8568 35.3099 58.8724 32.957 59.8881C32.6693 59.8881 32.3815 59.8881 32.0938 59.8881C29.9271 58.9571 27.7604 58.0261 25.6107 57.0782C23.7995 56.2826 21.9206 55.6563 20.2617 54.5391C19.8893 54.2852 19.6693 54.3529 19.3815 54.6237C18.5013 55.4362 17.6211 56.2487 16.724 57.0274C15.6068 57.9753 14.625 59.0925 13.3724 59.8711C12.9492 59.8881 12.5091 59.8881 12.069 59.8881ZM16.1315 43.2149C16.1146 43.4519 16.1823 43.8581 16.2331 44.2813C16.8255 48.8008 19.1953 52.0508 23.3255 53.9297C26.1862 55.2331 29.0977 56.4011 31.9753 57.6537C32.3815 57.823 32.7201 57.823 33.1094 57.6537C36.0039 56.4011 38.9154 55.1823 41.8099 53.9128C46.7018 51.78 49.6471 46.5157 48.8008 41.3021C48.1576 37.4089 47.3789 33.5326 46.668 29.6563C46.6172 29.3685 46.4987 29.25 46.2109 29.25C45.3477 29.25 44.4844 29.1485 43.6211 29.03C39.8125 28.556 36.207 27.4727 33.0247 25.2552C32.6693 25.0013 32.3984 25.0013 32.0599 25.2722C31.6706 25.5599 31.2474 25.8138 30.8242 26.0677C27.2018 28.1498 23.2578 29.03 19.1445 29.2331C18.6537 29.25 18.4675 29.3855 18.3828 29.8763C17.875 32.7539 17.3333 35.6146 16.8086 38.4753C16.5208 39.9818 16.1484 41.4714 16.1315 43.2149ZM58.3307 50.9844C58.2461 50.9336 58.1445 50.8659 58.0599 50.7813C57.332 50.1211 56.6042 49.4779 55.8763 48.8177C54.3359 47.4297 52.7956 46.0586 51.2552 44.6706C51.1537 44.586 51.0521 44.4167 50.8997 44.4675C50.7643 44.5183 50.7813 44.6706 50.7643 44.806C50.3919 47.8021 49.1563 50.392 47.1081 52.5925C46.8711 52.8464 46.8372 53.0157 47.125 53.2526C48.75 54.6914 50.375 56.1472 51.9831 57.6029C52.2708 57.8568 52.3555 57.7722 52.4401 57.4506C52.7279 56.3841 53.0495 55.3177 53.3034 54.2513C53.5234 53.3373 54.0482 52.7618 54.9284 52.4401C55.9609 52.0847 56.9596 51.6615 57.9753 51.2552C58.0768 51.2214 58.2292 51.2214 58.3307 50.9844ZM18.1966 52.9818C18.1966 52.8295 18.112 52.7618 18.0443 52.6771C17.9089 52.5248 17.7734 52.3894 17.638 52.237C15.8268 50.1042 14.6927 47.6498 14.3203 44.8568C14.3034 44.7214 14.3203 44.5352 14.168 44.4675C14.0156 44.3998 13.9141 44.569 13.8125 44.6537C13.4909 44.9245 13.2031 45.2123 12.8815 45.5C10.9349 47.2435 9.00522 49.0039 7.0586 50.7305C6.68621 51.0521 6.78777 51.1537 7.17709 51.306C8.14194 51.6615 9.08985 52.0847 10.0716 52.4232C11.0195 52.7448 11.5781 53.3373 11.7982 54.319C12.0352 55.3516 12.3737 56.3842 12.6445 57.4167C12.7461 57.823 12.8477 57.8399 13.1524 57.569C14.7435 56.1133 16.3685 54.6914 17.9596 53.2526C18.0612 53.1511 18.1289 53.0495 18.1966 52.9818Z" fill="#FF6309"/>
<path d="M36.5456 22.1575C36.207 22.1914 35.8685 22.056 35.5469 21.9036C34.6836 21.4974 33.8034 21.0911 32.9401 20.668C32.6524 20.5325 32.3984 20.5325 32.1107 20.668C31.2643 21.0911 30.4011 21.4805 29.5547 21.8867C28.793 22.2591 28.0143 22.3437 27.3034 21.8021C26.5925 21.2604 26.4401 20.5325 26.5755 19.6693C26.7279 18.6198 26.7956 17.5534 26.9141 16.487C26.9479 16.25 26.8294 16.1146 26.694 15.9622C26 15.1497 25.2891 14.3372 24.5951 13.5247C23.4102 12.1367 23.9518 10.5117 25.7292 10.1224C26.6263 9.91927 27.5234 9.69922 28.4375 9.52995C28.8945 9.44531 29.1654 9.20833 29.3685 8.80208C29.7917 7.95573 30.2656 7.14323 30.7227 6.3138C31.112 5.58594 31.6706 5.12891 32.5169 5.12891C33.3633 5.12891 33.9388 5.58594 34.3112 6.3138C34.7682 7.16016 35.2422 7.98958 35.6823 8.85286C35.8685 9.22526 36.1055 9.42838 36.5287 9.51302C37.4766 9.68229 38.4076 9.91927 39.3386 10.1393C41.082 10.5456 41.6068 12.1706 40.4219 13.5417C39.7279 14.3372 39.0508 15.1328 38.3568 15.9284C38.1537 16.1484 38.1029 16.3516 38.1367 16.6562C38.2891 17.8073 38.4076 18.9583 38.4922 20.1094C38.6276 21.2604 37.7474 22.1575 36.5456 22.1575ZM28.5899 19.7539C28.5052 20.1432 28.7083 20.0755 28.9453 19.957C29.724 19.5846 30.5365 19.2461 31.2982 18.8398C32.1445 18.3828 32.9401 18.3997 33.7865 18.8398C34.5482 19.2461 35.3607 19.5846 36.1393 19.974C36.4102 20.1094 36.5456 20.0924 36.5117 19.737C36.4102 18.9414 36.3594 18.1458 36.224 17.3672C36.0208 16.1992 36.1901 15.2005 37.0873 14.3372C37.6458 13.7956 38.1198 13.1693 38.6276 12.5768C39.0508 12.0859 39.0508 12.0859 38.3906 11.9336C37.5443 11.7474 36.6979 11.5443 35.8346 11.375C35.0391 11.2227 34.4805 10.8164 34.125 10.1055C33.7018 9.27604 33.2448 8.48047 32.8047 7.66797C32.737 7.54948 32.7031 7.34635 32.5508 7.32943C32.3477 7.3125 32.3307 7.54948 32.263 7.6849C31.806 8.4974 31.3659 9.29297 30.9258 10.1224C30.5703 10.8164 30.0287 11.2227 29.25 11.375C28.3021 11.5612 27.3711 11.7982 26.4401 11.9844C26.1016 12.0521 26.0508 12.1367 26.2878 12.4245C26.9818 13.2031 27.6419 13.9987 28.319 14.7604C28.793 15.3021 28.9792 15.8776 28.8945 16.6055C28.7591 17.6719 28.6914 18.7214 28.5899 19.7539Z" fill="#FF6309"/>
<path d="M7.36328 18.0611C7.36328 17.2317 7.7526 16.6393 8.48046 16.2838C9.24218 15.9114 10.0208 15.539 10.7825 15.1835C11.0703 15.0481 11.2227 14.8619 11.3073 14.5403C11.5104 13.7278 11.7474 12.9322 11.9844 12.1367C12.2044 11.375 12.6615 10.8502 13.4401 10.6809C14.2187 10.5286 14.8958 10.7656 15.4375 11.3919C15.9622 12.0013 16.5208 12.5598 17.0286 13.1861C17.2995 13.5247 17.6211 13.6093 18.0273 13.5924C18.7213 13.5416 19.3984 13.5247 20.0924 13.5247C21.9713 13.5247 22.8516 14.9466 22.0052 16.6223C21.6497 17.3164 21.2943 18.0104 20.9219 18.6875C20.7357 19.026 20.7018 19.3476 20.8372 19.72C21.125 20.5156 21.3958 21.3281 21.6497 22.1406C22.1575 23.7317 20.9557 25.052 19.3307 24.7135C18.5352 24.5442 17.7396 24.3919 16.944 24.1888C16.6562 24.121 16.4531 24.1888 16.25 24.358C15.6237 24.8658 14.9974 25.3398 14.3711 25.8476C13.7448 26.3554 13.0508 26.5078 12.2891 26.2031C11.5104 25.8815 11.1719 25.2213 11.0872 24.4088C10.9857 23.5286 10.8672 22.6484 10.7656 21.7682C10.7318 21.5143 10.5794 21.3958 10.4102 21.2604C9.68229 20.7356 8.9375 20.194 8.20963 19.6523C7.66796 19.246 7.34635 18.7382 7.36328 18.0611ZM9.41145 18.0442C10.224 18.6367 10.9349 19.1614 11.6458 19.6692C12.2383 20.0924 12.6276 20.6171 12.6953 21.3619C12.763 22.1236 12.8815 22.8684 12.9831 23.6302C13 23.7994 12.9492 24.0533 13.1354 24.121C13.3216 24.1888 13.4401 23.9856 13.5924 23.8671C14.1172 23.4609 14.6419 23.0377 15.1667 22.6315C15.7422 22.1744 16.3516 21.9882 17.0963 22.1744C17.8073 22.3606 18.5521 22.4791 19.2799 22.6484C19.6185 22.733 19.72 22.6653 19.5846 22.3098C19.3138 21.5312 19.0599 20.7187 18.7891 19.9401C18.5521 19.2968 18.6367 18.7044 18.9414 18.1119C19.3307 17.3841 19.7031 16.6223 20.1094 15.8945C20.2617 15.6236 20.2448 15.5052 19.9062 15.5221C19.4492 15.539 18.9922 15.4713 18.5521 15.539C17.1302 15.776 16.0469 15.3528 15.2005 14.151C14.845 13.6432 14.3711 13.22 13.9141 12.6953C13.6602 13.6263 13.4062 14.4388 13.2031 15.2682C13 16.0468 12.5599 16.5716 11.8151 16.9101C11.0195 17.2656 10.2578 17.638 9.41145 18.0442Z" fill="#FF6309"/>
<path d="M45.6185 13.5417C45.8216 13.5417 46.0247 13.4909 46.2109 13.5417C47.3451 13.8464 48.1068 13.3555 48.7331 12.4583C49.0208 12.069 49.3763 11.7135 49.6979 11.3581C50.832 10.1224 52.5925 10.5117 53.0833 12.1029C53.3372 12.8984 53.5573 13.694 53.7604 14.5065C53.8451 14.862 54.0313 15.0651 54.3529 15.2175C55.0807 15.5391 55.8086 15.8776 56.5195 16.25C58.0091 16.9948 58.1615 18.6706 56.8242 19.6862C56.1133 20.2279 55.4023 20.7526 54.6745 21.2604C54.4544 21.4128 54.3359 21.599 54.319 21.8867C54.2344 22.7839 54.1159 23.681 53.9805 24.5781C53.7604 26.2031 52.1016 26.8802 50.7982 25.8984C50.155 25.4245 49.5286 24.9167 48.9193 24.4089C48.6654 24.2057 48.4284 24.1042 48.0898 24.2057C47.3112 24.4089 46.5326 24.5443 45.7539 24.7135C44.1797 25.0521 42.9609 23.7656 43.418 22.2253C43.6719 21.3789 43.9596 20.5326 44.2813 19.7031C44.4167 19.3477 44.3828 19.0599 44.1966 18.7214C43.8073 18.0104 43.418 17.2826 43.0456 16.5547C42.2669 15.0482 43.0287 13.6771 44.7214 13.5247C45.043 13.5078 45.3307 13.5247 45.6185 13.5417C45.6185 13.5247 45.6185 13.5247 45.6185 13.5417ZM51.1706 12.6953C50.4766 13.474 49.8672 14.151 49.2578 14.8451C48.8854 15.2682 48.4284 15.5391 47.8529 15.556C46.9896 15.556 46.1094 15.556 45.2461 15.5221C44.8737 15.5052 44.7891 15.6068 44.9753 15.9453C45.3646 16.6563 45.7201 17.3841 46.1263 18.112C46.4818 18.7383 46.5156 19.3646 46.2786 20.0417C46.0247 20.7526 45.7878 21.4805 45.5508 22.2083C45.3646 22.75 45.3815 22.7669 45.957 22.6484C46.651 22.513 47.3451 22.3776 48.0221 22.1914C48.7331 22.0052 49.3424 22.2083 49.901 22.6315C50.4935 23.0885 51.069 23.5456 51.6445 24.0026C51.9154 24.2227 52.0508 24.1888 52.0846 23.8333C52.1185 23.4779 52.2031 23.1224 52.2031 22.75C52.2201 21.1589 52.7448 19.8724 54.2344 19.0768C54.7253 18.8229 55.1484 18.4167 55.6563 18.0443C54.793 17.6211 54.0143 17.2318 53.2188 16.8763C52.5078 16.5547 52.0677 16.0299 51.8815 15.2682C51.6784 14.4557 51.4414 13.6432 51.1706 12.6953Z" fill="#FF6309"/>
<path d="M17.8581 43.0625C17.9427 41.099 18.3998 39.3216 18.7214 37.5274C19.043 35.6146 19.4154 33.7188 19.7709 31.8229C19.9063 31.1459 20.194 30.8581 20.8542 30.8073C24.8321 30.5026 28.5222 29.3177 31.9753 27.3542C32.3985 27.1172 32.7878 27.168 33.211 27.405C35.9193 28.9284 38.7969 29.9948 41.8607 30.5026C42.5716 30.6211 43.2995 30.7058 44.0104 30.7735C44.8737 30.8412 45.1784 31.0612 45.3477 31.9076C45.957 35.1576 46.6511 38.4076 47.125 41.6745C47.7513 46.0078 45.4662 50.375 41.1836 52.2709C38.5261 53.4388 35.8516 54.556 33.194 55.7071C32.7709 55.8933 32.3646 55.8933 31.9414 55.7071C29.25 54.5391 26.5078 53.4727 23.8503 52.2201C20.2787 50.5443 18.3151 47.6667 17.9427 43.7227C17.8919 43.4857 17.8581 43.2149 17.8581 43.0625ZM19.8216 43.1133C19.8555 43.3334 19.8893 43.6211 19.9232 43.9089C20.2956 46.9388 21.8867 49.1394 24.6289 50.4258C27.0495 51.5599 29.5547 52.5417 32.0091 53.6081C32.3985 53.7774 32.7201 53.7604 33.0925 53.5912C35.4623 52.5586 37.849 51.543 40.2357 50.5274C42.25 49.6472 43.7057 48.1745 44.569 46.1602C45.28 44.4844 45.3138 42.7578 44.9753 40.9974C44.4844 38.4922 44.0443 35.987 43.5703 33.4818C43.5195 33.194 43.6211 32.7878 43.0794 32.7201C39.5078 32.3308 36.1393 31.2813 32.974 29.6055C32.6524 29.4362 32.3985 29.4362 32.0768 29.6055C28.9961 31.2474 25.7123 32.28 22.2422 32.7032C21.7005 32.7709 21.5482 32.9909 21.4805 33.4479C21.1758 35.2253 20.8203 37.0026 20.5156 38.7969C20.2617 40.1849 19.9063 41.5899 19.8216 43.1133Z" fill="#FF6309"/>
<path d="M33.3802 41.2682C33.3802 39.8294 33.3802 38.4075 33.3802 36.9687C33.3802 36.0377 33.7357 35.6823 34.6497 35.6823C35.4961 35.6823 36.3594 35.6823 37.2057 35.6823C39.1354 35.6992 40.7774 37.1718 40.9297 39.0338C41.1159 41.082 39.7787 42.8086 37.8151 43.164C37.1719 43.2825 36.5117 43.2487 35.8685 43.2487C35.513 43.2487 35.3776 43.3841 35.3945 43.7395C35.4115 44.4336 35.4115 45.1106 35.3945 45.8046C35.3776 46.4817 34.9714 46.9388 34.4128 46.9557C33.8373 46.9726 33.3971 46.4817 33.3802 45.7877C33.3802 44.2812 33.3802 42.7747 33.3802 41.2682ZM35.3945 39.4739C35.3945 39.9309 35.3945 40.3711 35.3945 40.8281C35.3945 41.082 35.4792 41.2343 35.7669 41.2343C36.2917 41.2343 36.8164 41.2682 37.3412 41.2174C38.306 41.1328 38.9492 40.3541 38.9323 39.3554C38.9154 38.4244 38.2044 37.7135 37.2227 37.6796C36.7487 37.6627 36.2748 37.6796 35.8177 37.6796C35.513 37.6796 35.3945 37.8151 35.3945 38.1028C35.4115 38.5768 35.3945 39.0169 35.3945 39.4739Z" fill="#FF6309"/>
<path d="M27.8958 39.3723C28.5391 38.3059 29.1146 37.3242 29.707 36.3593C29.8932 36.0546 30.0794 35.7669 30.4688 35.7161C30.875 35.6484 31.2305 35.733 31.4844 36.0885C31.7552 36.4778 31.7383 36.8671 31.5013 37.2565C30.8581 38.3229 30.2487 39.4231 29.5547 40.4726C29.1485 41.082 29.1146 41.539 29.5378 42.1653C30.2318 43.164 30.8073 44.2304 31.4336 45.2799C31.8229 45.9401 31.7214 46.5156 31.1797 46.8372C30.655 47.1419 30.1302 46.9726 29.724 46.3294C29.1823 45.4492 28.6576 44.569 28.1328 43.6718C27.9466 43.3333 27.8281 43.3502 27.6419 43.6887C27.1172 44.6197 26.5586 45.5338 26 46.4309C25.78 46.8033 25.4414 47.0234 25.0013 46.9557C24.5951 46.9049 24.3073 46.6679 24.1719 46.2617C24.0365 45.8893 24.2057 45.5507 24.3919 45.2291C25.086 44.0611 25.78 42.8932 26.4909 41.7421C26.6771 41.4374 26.6771 41.2005 26.4909 40.8958C25.7969 39.7786 25.1367 38.6614 24.4766 37.5442C24.3919 37.4088 24.3073 37.2565 24.2396 37.121C24.0026 36.6132 24.155 36.0885 24.5781 35.8346C25.0352 35.5637 25.6107 35.6484 25.9154 36.1223C26.3893 36.8502 26.8294 37.6119 27.2695 38.3398C27.4727 38.6445 27.6589 38.9492 27.8958 39.3723Z" fill="#FF6309"/>
</svg>
