<svg width="41" height="60" viewBox="0 0 41 60" fill="none" xmlns="http://www.w3.org/2000/svg">
<path d="M2.0803 59.1714C0.572837 58.5223 0 57.3215 0 55.6015C0.0301493 40.8025 0.0150744 25.9874 0.0150744 11.1884C0.0150744 9.54953 0.753733 8.39742 2.06523 7.97552C2.74359 7.74834 3.4521 7.86193 4.14553 7.86193C5.50225 7.8457 5.50225 7.86193 5.50225 6.40151C5.48718 5.0709 5.4721 3.7403 6.13539 2.53951C7.00972 0.9655 8.27599 0.0243403 9.97942 0.0243403C16.8082 -0.00811345 23.6371 -0.00811345 30.481 0.0243403C32.9683 0.0405672 34.8828 2.26365 34.9581 5.08713C34.9732 5.83357 34.9732 6.59623 34.9581 7.34267C34.9431 7.73211 35.0787 7.89438 35.4556 7.87816C36.134 7.86193 36.8123 7.86193 37.4907 7.87816C39.2243 7.89438 40.4302 9.17631 40.4302 11.0424C40.4453 15.5048 40.4302 19.9672 40.4302 24.4458C40.4302 34.8473 40.4152 45.2325 40.4453 55.6339C40.4453 57.354 39.8725 58.571 38.365 59.2038C26.2751 59.1714 14.1853 59.1714 2.0803 59.1714ZM1.98986 33.5004C1.98986 40.9323 1.98986 48.3643 1.98986 55.7962C1.98986 56.8509 2.27627 57.1592 3.2712 57.1755C8.41166 57.1755 13.537 57.1755 18.6775 57.1917C19.1297 57.1917 19.2503 57.0132 19.2503 56.5588C19.2353 45.9302 19.2353 35.3016 19.2503 24.673C19.2503 24.2835 19.1297 24.0401 18.8584 23.7967C17.366 22.5148 15.7379 21.4601 13.929 20.7948C12.4517 20.2431 10.9291 19.9672 9.34629 20.1457C8.56241 20.243 7.7936 20.4215 7.03987 20.6649C6.06001 20.9895 5.51732 20.5514 5.50225 19.4317C5.50225 19.2532 5.50225 19.0909 5.50225 18.9124C5.50225 16.2026 5.50225 13.4764 5.50225 10.7665C5.50225 9.98765 5.50225 9.97143 4.74852 9.97143C4.10031 9.97143 3.46717 9.9552 2.81896 9.98765C2.30642 10.0039 2.03508 10.3122 2.00493 10.8639C1.98985 11.0911 1.98986 11.3183 1.98986 11.5617C1.98986 18.8638 1.98986 26.1821 1.98986 33.5004ZM38.4555 33.5491C38.4555 26.2308 38.4555 18.9124 38.4555 11.5941C38.4555 11.3669 38.4555 11.1235 38.4555 10.8964C38.4253 10.2797 38.154 9.98765 37.5811 9.97143C36.9178 9.9552 36.2546 9.98765 35.5913 9.9552C35.1089 9.92275 34.928 10.1012 34.9431 10.6367C34.9732 12.5353 34.9581 14.45 34.9581 16.3486C34.9581 17.4196 34.9732 18.5068 34.9431 19.5777C34.928 20.4702 34.3702 20.9084 33.5713 20.6812C33.3753 20.6325 33.1944 20.5514 33.0135 20.4865C31.5663 20.0159 30.1041 19.9185 28.6117 20.1781C26.0038 20.6325 23.7577 21.9469 21.6924 23.6669C21.3457 23.959 21.21 24.2673 21.21 24.7379C21.2251 35.2854 21.2251 45.8329 21.21 56.3803C21.21 56.9645 21.3457 57.143 21.9035 57.1268C26.9686 57.1106 32.0337 57.1106 37.0837 57.1106C38.2143 57.1106 38.4705 56.8347 38.4705 55.6177C38.4555 48.2994 38.4555 40.9323 38.4555 33.5491ZM22.8984 20.1295C22.9889 20.1295 23.0341 20.1457 23.0492 20.1295C25.9736 18.2796 29.1092 17.5981 32.4708 18.2309C32.8628 18.2958 32.9683 18.1173 32.9683 17.7279C32.9532 13.444 32.9683 9.14385 32.9532 4.85995C32.9532 3.82143 32.4708 3.02632 31.6568 2.4746C31.0086 2.03647 30.9031 2.08516 30.5865 2.79914C28.3554 7.79702 26.1395 12.7949 23.9235 17.7766C23.5768 18.5555 23.2451 19.3343 22.8984 20.1295ZM17.4866 20.1781C17.5469 19.9185 17.3962 19.7725 17.3208 19.6102C16.7027 18.2147 16.0847 16.8354 15.4666 15.4399C13.5672 11.156 11.6527 6.87209 9.7533 2.58819C9.58748 2.19874 9.39151 2.13384 9.0448 2.31233C8.00464 2.88027 7.46196 3.77275 7.46196 5.02222C7.46196 9.25744 7.46196 13.4927 7.44688 17.7279C7.44688 18.2309 7.59763 18.3283 8.00464 18.2309C9.94928 17.7603 11.8638 17.9713 13.7782 18.5068C15.0897 18.88 16.3108 19.4479 17.4866 20.1781ZM20.2754 2.03648C17.5921 2.03648 14.9088 2.0527 12.2255 2.02025C11.7733 2.02025 11.713 2.11761 11.909 2.55574C12.6326 4.14597 13.3411 5.73621 14.0345 7.34267C14.1853 7.71589 14.3963 7.8457 14.7732 7.8457C18.4062 7.82948 22.0241 7.82948 25.6571 7.8457C26.0339 7.8457 26.245 7.71589 26.3957 7.34267C27.0892 5.73621 27.7977 4.14597 28.5213 2.55574C28.7172 2.11761 28.6569 2.02025 28.2047 2.02025C25.5666 2.0527 22.9286 2.03648 20.2754 2.03648ZM20.2453 9.97143C18.7378 9.97143 17.2454 9.98765 15.7379 9.97143C15.3159 9.97143 15.2556 10.085 15.4365 10.4907C16.9439 13.8659 18.4514 17.2573 19.9438 20.6325C20.0041 20.7785 20.0342 21.0219 20.2 21.0382C20.4111 21.0382 20.4262 20.7785 20.5015 20.6163C21.9939 17.2573 23.4863 13.8821 24.9938 10.5231C25.1898 10.1012 25.1445 9.9552 24.6772 9.97143C23.1999 9.98765 21.7226 9.97143 20.2453 9.97143Z" fill="#6D6D6D"/>
<path d="M10.5975 55.2768C8.6679 55.2768 6.73834 55.2768 4.80878 55.2768C3.96459 55.2768 3.4822 54.5791 3.7837 53.8489C3.91937 53.5243 4.13042 53.3134 4.46206 53.2647C4.76355 53.216 5.06505 53.1836 5.36654 53.1836C8.86387 53.1836 12.3612 53.1836 15.8736 53.1836C16.16 53.1836 16.4464 53.1998 16.7178 53.2647C17.2152 53.3621 17.5469 53.8327 17.5167 54.3357C17.4866 54.8225 17.1399 55.2119 16.6575 55.2931C16.4766 55.3255 16.2957 55.3093 16.1299 55.3093C14.2757 55.2768 12.4366 55.2768 10.5975 55.2768Z" fill="#6D6D6D"/>
<path d="M15.5873 36.9732C15.5873 35.9996 15.934 35.4803 16.5672 35.4641C17.2003 35.4641 17.5621 35.9996 17.5621 36.957C17.5621 37.0868 17.5621 37.2328 17.5621 37.3626C17.5018 38.0928 17.0797 38.5472 16.537 38.5147C15.9943 38.4823 15.6325 38.0117 15.6024 37.3139C15.5722 37.2004 15.5873 37.0868 15.5873 36.9732Z" fill="#6D6D6D"/>
<path d="M15.5871 27.1396C15.5871 26.9611 15.572 26.7988 15.5871 26.6203C15.6625 26.0362 15.9941 25.6792 16.4765 25.6467C17.0041 25.6143 17.3659 25.9226 17.5016 26.523C17.592 26.9286 17.577 27.3181 17.5016 27.7238C17.3961 28.3242 16.9891 28.6974 16.5217 28.6649C16.0092 28.6487 15.6323 28.2106 15.5871 27.5939C15.572 27.4479 15.5871 27.2856 15.5871 27.1396Z" fill="#6D6D6D"/>
<path d="M17.5621 31.9911C17.5621 32.559 17.5319 32.9971 17.1852 33.3217C16.8988 33.5975 16.5671 33.6462 16.2355 33.5164C15.4516 33.1756 15.5722 32.4292 15.5873 31.7477C15.6024 31.0986 15.8737 30.7091 16.3561 30.5955C16.7933 30.482 17.2606 30.7416 17.4415 31.2122C17.5319 31.488 17.5771 31.7963 17.5621 31.9911Z" fill="#6D6D6D"/>
<path d="M15.5873 41.9546C15.5873 41.6463 15.5722 41.338 15.6928 41.0459C15.8586 40.6402 16.1451 40.413 16.5672 40.413C16.9892 40.413 17.3058 40.624 17.4415 41.0459C17.6375 41.6138 17.6224 42.2142 17.4415 42.7984C17.3058 43.2203 16.9742 43.4474 16.5672 43.4474C16.1601 43.4474 15.8586 43.2203 15.6928 42.8146C15.5722 42.5387 15.5873 42.2467 15.5873 41.9546Z" fill="#6D6D6D"/>
<path d="M15.5871 46.8392C15.5871 45.8656 15.9188 45.3463 16.5519 45.3301C17.2001 45.3139 17.5619 45.8818 17.5619 46.8717C17.5619 47.9102 17.1398 48.4619 16.4162 48.3645C15.8434 48.2672 15.5871 47.7966 15.5871 46.8392Z" fill="#6D6D6D"/>
<path d="M36.7821 33.7114C36.7821 35.9021 36.7972 38.0927 36.7821 40.2996C36.767 42.7498 35.3801 44.6808 33.2546 45.265C32.923 45.3624 32.5913 45.4273 32.2446 45.4273C30.4357 45.4273 28.6267 45.5733 26.8328 45.3461C24.8882 45.1027 23.1847 43.1879 22.9737 41.0622C22.8531 39.8128 22.8983 38.5633 22.8983 37.3138C22.8832 33.9711 22.8983 30.6121 22.8983 27.2694C22.8983 25.9225 23.2149 25.5655 24.4359 25.5655C28.0237 25.5655 31.6266 25.5655 35.2143 25.5655C36.4655 25.5655 36.767 25.9063 36.7821 27.2369C36.7821 29.3951 36.7821 31.5533 36.7821 33.7114ZM29.8025 43.3178C30.6467 43.3178 31.4758 43.334 32.32 43.3015C33.6315 43.2529 34.747 42.0683 34.7772 40.6566C34.8224 39.1312 34.7922 37.6221 34.7922 36.0968C34.7922 35.7236 34.6415 35.5938 34.3098 35.5938C31.3251 35.5938 28.3403 35.5938 25.3555 35.5938C24.9937 35.5938 24.843 35.7398 24.858 36.1455C24.8731 37.6059 24.843 39.0663 24.8731 40.5267C24.9033 42.0845 26.0489 43.2691 27.4961 43.3178C28.2649 43.334 29.0337 43.3178 29.8025 43.3178ZM29.8628 27.675C28.4006 27.675 26.9233 27.6913 25.461 27.675C25.0389 27.675 24.843 27.7724 24.858 28.2754C24.8882 29.817 24.8731 31.3585 24.858 32.9001C24.858 33.3382 24.9786 33.5167 25.4007 33.5005C28.3554 33.4843 31.2949 33.4843 34.2495 33.5005C34.6716 33.5005 34.8073 33.3382 34.8073 32.9001C34.7922 31.3585 34.7922 29.817 34.8073 28.2754C34.8224 27.7724 34.6264 27.6588 34.2043 27.675C32.7572 27.6913 31.31 27.675 29.8628 27.675Z" fill="#6D6D6D"/>
<path d="M29.8025 55.2765C27.9031 55.2765 26.0188 55.2765 24.1194 55.2765C23.637 55.2765 23.23 55.1629 23.0038 54.6437C22.7626 54.0757 23.0641 53.3942 23.6521 53.2482C23.9234 53.1832 24.2249 53.167 24.4962 53.167C28.0388 53.167 31.5663 53.167 35.1088 53.167C35.3802 53.167 35.6515 53.1833 35.9078 53.2319C36.4203 53.3293 36.7519 53.7674 36.7369 54.2705C36.7218 54.7897 36.3148 55.2441 35.7872 55.2603C35.0787 55.2927 34.3551 55.2765 33.6466 55.2765C32.3803 55.2765 31.0839 55.2765 29.8025 55.2765Z" fill="#6D6D6D"/>
<path d="M31.2499 29.5735C31.5514 29.5735 31.8529 29.5573 32.1544 29.5735C32.682 29.6059 33.0739 30.0441 33.0739 30.5795C33.089 31.0988 32.697 31.5856 32.1845 31.6018C31.5212 31.6343 30.8579 31.6343 30.2097 31.6018C29.7123 31.5856 29.3505 31.115 29.3354 30.612C29.3203 30.0927 29.7123 29.6222 30.2399 29.5897C30.5715 29.541 30.9182 29.5735 31.2499 29.5735Z" fill="#6D6D6D"/>
</svg>
