<svg width="60" height="60" viewBox="0 0 60 60" fill="none" xmlns="http://www.w3.org/2000/svg">
<path d="M57.7812 50.7655C57.5 51.7655 57.0469 52.6874 56.2813 53.3905C55 54.5624 53.4844 54.9686 51.8281 54.5624C48.875 53.828 45.9219 53.203 42.9063 52.7968C40.8281 52.5155 38.7344 52.328 36.6406 52.1718C33.9531 51.9843 31.25 51.9374 28.5625 51.9843C21.8594 52.0936 15.2344 52.8124 8.73438 54.5311C5.87501 55.2811 3.17188 53.5936 2.59375 50.7186C2.375 49.6249 2.54688 48.578 3.0625 47.578C3.8125 46.1249 4.5625 44.6718 5.32813 43.2343C5.57813 42.7811 5.70313 42.328 5.68751 41.7968C5.67188 38.8124 5.67188 35.828 5.68751 32.8436C5.70313 29.6249 6.21876 26.4999 7.60938 23.578C10.8906 16.6093 16.3438 12.4374 23.9375 11.0468C24.3438 10.9687 24.8125 11.0624 25.1406 10.8124C25.4844 10.5312 25.2656 10.0312 25.3125 9.64053C25.6875 7.03116 27.9688 5.28116 30.7188 5.45303C33.0625 5.60928 35.0313 7.74991 35.0469 10.2343C35.0469 10.7499 35.25 10.9062 35.7188 10.9687C40.1875 11.5312 44.0938 13.328 47.4375 16.328C50.9531 19.4999 53.1875 23.4218 54.1719 28.0468C54.5156 29.6405 54.625 31.2499 54.6406 32.8593C54.6719 35.8124 54.6563 38.7499 54.6406 41.703C54.6406 42.2811 54.7656 42.7811 55.0313 43.2968C55.7969 44.7186 56.5313 46.1718 57.2656 47.5936C57.4844 48.0311 57.6094 48.4999 57.7656 48.953C57.7813 49.5468 57.7812 50.1561 57.7812 50.7655ZM39.4219 34.0468C39.375 32.8124 39.4531 31.2499 39.3281 29.6874C39.0938 26.7968 38.5313 23.9999 37.4531 21.3124C36.5938 19.1718 35.4531 17.203 33.7031 15.6562C31.4219 13.6405 28.9688 13.6405 26.6719 15.6249C25.6563 16.4999 24.8281 17.5468 24.1563 18.703C22.0313 22.3905 21.1406 26.4218 20.9375 30.6093C20.8125 33.1718 20.9063 35.7499 20.8906 38.3124C20.8906 38.7811 21.0625 38.9061 21.5 38.8749C22.7656 38.7811 24.0469 38.6874 25.3125 38.6249C27.25 38.5311 29.1875 38.453 31.125 38.4999C33.6875 38.5468 36.2656 38.6249 38.8125 38.8905C39.25 38.9374 39.4219 38.7811 39.4219 38.328C39.4063 36.9999 39.4219 35.6874 39.4219 34.0468ZM29.3594 41.828C26.8281 41.8124 23.4844 42.0155 20.1406 42.3593C16.3438 42.7499 12.5938 43.3749 8.89063 44.2186C8.64063 44.2811 8.46876 44.3905 8.34376 44.6093C7.56251 46.1093 6.76563 47.5936 6.01563 49.1093C5.54688 50.0624 6.07813 51.1093 7.07813 51.3436C7.40625 51.4218 7.71876 51.3436 8.03126 51.2655C14.9844 49.4061 22.0781 48.7186 29.25 48.6093C32.8281 48.5624 36.3906 48.7499 39.9531 49.0936C44.1094 49.4999 48.2188 50.1561 52.25 51.2499C53 51.453 53.6406 51.3905 54.1563 50.7655C54.6719 50.1249 54.5469 49.4843 54.1875 48.8124C53.5156 47.5468 52.8281 46.2811 52.2031 44.9843C51.9531 44.4843 51.6406 44.2343 51.0938 44.1093C44.2031 42.6093 37.2344 41.828 29.3594 41.828ZM22.9375 14.6405C22.6875 14.6874 22.5938 14.703 22.5156 14.7187C20.9531 15.1405 19.4375 15.7343 18.0625 16.5937C12.5156 20.0468 9.4375 25.0155 9.07813 31.5624C8.92188 34.4061 9.0625 37.2811 9.03125 40.1249C9.03125 40.6249 9.17188 40.7499 9.67188 40.6405C11.9375 40.1405 14.2188 39.7499 16.5156 39.4374C17.7813 39.2655 17.5156 39.2499 17.5313 38.2655C17.5781 34.7811 17.3906 31.2968 17.8281 27.828C18.2344 24.6562 19.0156 21.5937 20.3906 18.6874C21.0625 17.2968 21.875 15.9843 22.9375 14.6405ZM37.4063 14.6249C37.5938 14.8905 37.6875 15.0312 37.7813 15.1562C38.8281 16.4999 39.6406 17.9687 40.3125 19.5312C42 23.4374 42.6875 27.5311 42.7812 31.7499C42.8438 34.0468 42.8125 36.3436 42.7812 38.6405C42.7812 39.1405 42.9375 39.3436 43.4219 39.4061C45.8281 39.6874 48.2031 40.1405 50.5781 40.6249C51.2344 40.7655 51.2656 40.7499 51.2656 40.0936C51.2656 37.3749 51.2656 34.6718 51.2656 31.953C51.2656 30.7968 51.125 29.6561 50.8594 28.5311C49.625 23.078 46.5312 19.0312 41.6875 16.2812C40.4063 15.5468 39.0156 15.0312 37.4063 14.6249ZM30.1719 10.7343C30.5625 10.7343 30.9688 10.7343 31.3594 10.7343C31.6719 10.7343 31.75 10.578 31.75 10.2968C31.7344 9.45303 30.9844 8.71866 30.1406 8.73428C29.3125 8.74991 28.5938 9.48428 28.5938 10.2968C28.5938 10.5937 28.6875 10.7343 29 10.7343C29.375 10.7187 29.7656 10.7343 30.1719 10.7343Z" fill="#6D6D6D"/>
<path d="M28.0313 25.0625C28.2188 25.0937 28.3125 25.2031 28.4063 25.3125C28.8906 25.7969 29.375 26.2656 29.8594 26.7656C30.0781 27 30.25 27.0156 30.4844 26.7656C30.9688 26.2656 31.4844 25.7813 31.9688 25.2656C32.1875 25.0313 32.3594 25.0156 32.5938 25.2656C33.1719 25.8594 33.75 26.4531 34.3438 27.0156C34.5938 27.25 34.5469 27.4219 34.3125 27.6406C33.8438 28.0937 33.4219 28.5781 32.9375 29C32.5625 29.3281 32.6094 29.5469 32.9531 29.8594C33.4219 30.2813 33.8438 30.75 34.2969 31.1875C34.5313 31.4219 34.5938 31.5937 34.3281 31.8437C33.7344 32.4062 33.1406 33 32.5781 33.5937C32.3594 33.8125 32.2031 33.7969 32 33.5937C31.5 33.0781 30.9844 32.5781 30.4844 32.0625C30.2813 31.8437 30.125 31.8437 29.9063 32.0625C29.4063 32.5781 28.8906 33.0781 28.3906 33.5937C28.1875 33.8125 28.0313 33.8281 27.8125 33.6094C27.2188 33 26.625 32.4062 26.0156 31.8125C25.7969 31.5938 25.8281 31.4375 26.0313 31.2344C26.5156 30.7656 26.9844 30.25 27.4844 29.7969C27.7969 29.5156 27.7656 29.3281 27.4688 29.0625C26.9688 28.5938 26.5 28.0938 26.0156 27.625C25.8281 27.4531 25.7656 27.2969 25.9844 27.0781C26.5938 26.4688 27.2031 25.8594 27.8125 25.25C27.875 25.1563 27.9688 25.1094 28.0313 25.0625Z" fill="#6D6D6D"/>
</svg>
