<svg width="76" height="75" viewBox="0 0 76 75" fill="none" xmlns="http://www.w3.org/2000/svg">
<path d="M63.8183 37.1093C64.0331 37.3242 64.3456 37.3242 64.6191 37.4023C66.1425 37.7929 66.455 38.6523 65.537 39.9023C63.5644 42.5976 61.3378 45.0976 58.8964 47.3828C55.0097 51.0351 50.7128 54.0429 45.9277 56.4062C41.0449 58.8086 35.9081 60.4297 30.5175 61.25C30.0097 61.3281 29.7753 61.1719 29.7167 60.6836C29.5019 58.6523 29.1113 58.9453 31.1621 58.5937C31.455 58.5547 31.7285 58.4765 32.0214 58.4375C32.4902 58.3789 32.666 58.0859 32.7246 57.6562C33.3105 53.5547 33.8964 49.4726 34.5019 45.3711C34.7753 43.5156 35.0488 41.6601 35.3222 39.8047C35.4589 38.8476 35.2441 37.9101 35.166 36.9726C35.1074 36.289 35.1855 35.5664 34.8925 34.7851C34.5214 35.2539 34.2089 35.6445 33.8964 36.0547C32.6074 37.7539 31.2597 39.4336 30.0292 41.1914C29.2675 42.2851 28.291 42.832 26.9824 42.8711C26.3964 42.8906 25.8105 42.9687 25.2441 43.0078C24.1894 43.0664 23.3105 42.7734 22.7441 41.8359C22.1581 40.8594 22.2949 39.9218 22.9394 39.0429C26.0058 34.8633 29.0722 30.664 32.1386 26.4844C32.7636 25.6445 33.5644 25 34.541 24.6289C35.1269 24.414 35.205 24.2383 34.8339 23.6718C32.5683 20.3711 34.2285 15.8203 38.0761 14.7265C40.2831 14.1015 42.2363 14.5898 43.8574 16.1914C45.4589 17.7539 45.9863 19.6875 45.4589 21.875C45.4199 22.0703 45.2636 22.2656 45.3808 22.5976C46.2792 21.8945 47.1581 21.2109 48.0371 20.5273C49.9316 19.0429 51.8261 17.5586 53.7402 16.0547C55.2441 14.8828 56.6503 15.0976 57.7245 16.6601C58.0566 17.1484 58.3886 17.6172 58.7011 18.1054C59.6386 19.5312 59.4433 20.7617 58.0956 21.7968C55.2246 24.0039 52.3144 26.1914 49.4433 28.3984C47.1972 30.1367 47.6855 29.2187 47.9785 32.0312C48.0761 32.9101 48.2324 33.7695 48.291 34.6289C48.33 35.1758 48.5644 35.4687 49.0136 35.6836C50.2831 36.3086 51.5136 37.0117 52.7831 37.6172C53.6816 38.0469 54.2285 38.6914 54.5019 39.6679C55.0488 41.582 55.6542 43.4961 56.2011 45.4101C56.3574 45.957 56.4941 46.1133 56.9824 45.6445C58.8183 43.8672 60.5956 42.0312 62.1972 40.0195C62.5488 39.5703 62.5488 39.375 61.9628 39.2578C61.2792 39.1211 60.5956 38.9258 59.9121 38.7304C59.3652 38.5937 58.9941 38.2617 58.916 37.6953C58.8183 37.0898 59.0917 36.6601 59.6191 36.3672C63.0566 34.4531 66.5136 32.5195 69.9706 30.625C70.83 30.1562 71.6503 30.5273 71.8847 31.5039C72.666 34.9218 73.4472 38.3398 74.1699 41.7578C74.4238 42.9492 73.6035 43.6328 72.4316 43.3008C71.8456 43.125 71.2597 42.9492 70.6933 42.7148C70.166 42.5 69.873 42.6367 69.5605 43.1054C67.4511 46.2695 65.1464 49.2968 62.6269 52.1289C56.416 59.1406 49.248 64.8242 40.4785 68.3398C36.2792 70.0195 31.9433 71.0156 27.4511 71.4258C27.2363 71.4453 27.0214 71.4453 26.7871 71.4453C26.6699 71.4453 26.4941 71.4648 26.4355 71.4062C25.8886 70.8203 26.1816 70.0781 26.0839 69.414C26.0058 68.9453 26.5136 68.9453 26.8261 68.9258C28.7988 68.8281 30.7519 68.5156 32.666 68.1054C39.8925 66.5429 46.2988 63.2422 52.0996 58.6914C58.2128 53.8867 63.1933 48.0664 67.5292 41.6406C67.7441 41.3086 67.9589 40.9961 68.1738 40.664C68.8183 39.7265 69.1894 39.6094 70.2831 39.9414C70.5566 40.0195 70.8496 40.2929 71.0839 40.0586C71.3183 39.8242 71.0839 39.5117 71.0253 39.2187C70.6738 37.5781 70.2831 35.9375 69.9511 34.2969C69.8339 33.7304 69.6777 33.5547 69.1113 33.8867C67.4902 34.8242 65.83 35.7226 64.2089 36.6406C64.0722 36.8164 63.8574 36.8554 63.8183 37.1093ZM35.3417 57.1093C35.2831 57.539 35.4394 57.6367 35.7519 57.539C36.0253 57.4609 36.3183 57.3437 36.5917 57.3047C38.0761 57.1679 38.5644 56.3086 38.7792 54.8828C39.5214 50 40.4199 45.1367 41.2597 40.2734C41.4941 38.9258 42.2363 38.5547 43.4667 39.1601C45.2246 40.0195 46.9628 40.8789 48.7011 41.7383C49.3847 42.0703 49.8535 42.5976 50.1074 43.3398C50.6152 44.8047 51.162 46.2695 51.6699 47.7539C52.3144 49.6093 52.3144 49.5898 53.8769 48.3789C54.2871 48.0664 54.3261 47.7734 54.1894 47.3242C53.5058 45.1367 52.8613 42.9492 52.2167 40.7422C52.08 40.2734 51.8456 39.9804 51.416 39.7656C49.9511 39.0234 48.5253 38.2422 47.0605 37.5195C46.3769 37.1875 46.0253 36.6797 45.9277 35.9375C45.6738 33.8867 45.4394 31.8359 45.1269 29.7851C45.0097 28.9453 45.2831 28.3984 45.9277 27.9101C49.1699 25.4687 52.4121 22.9883 55.6347 20.5273C56.748 19.6875 56.7089 19.707 55.9863 18.5351C55.5956 17.8906 55.3222 17.9297 54.7753 18.3593C51.8847 20.664 48.955 22.9297 46.0449 25.2148C45.5956 25.5664 45.166 25.8594 44.541 25.8984C42.2558 26.0742 39.9902 26.3086 37.705 26.4648C36.1425 26.582 34.7753 26.914 33.7988 28.3203C31.7285 31.25 29.58 34.1015 27.4706 36.9922C26.7675 37.9492 26.0644 38.9258 25.3613 39.8828C25.2636 40.0195 24.9316 40.2148 25.3222 40.3906C25.83 40.6054 27.6269 40.0781 27.9785 39.6289C30.2441 36.6601 32.4902 33.6914 34.7363 30.7226C35.1464 30.1953 35.6152 29.8633 36.2988 30.0781C36.9433 30.2929 37.1386 30.8008 37.1972 31.4453C37.3144 32.9297 37.4706 34.3945 37.5878 35.8789C37.6855 37.1093 37.9589 38.3789 37.8027 39.5898C37.2558 43.9844 36.5527 48.3593 35.9081 52.7343C35.7519 54.2578 35.5371 55.7226 35.3417 57.1093ZM41.2206 55.3515C41.2011 55.8203 41.5527 55.6054 41.8261 55.4883C44.58 54.3554 47.1972 52.9687 49.7167 51.3867C50.1464 51.1133 50.166 50.8398 50.0097 50.4101C49.3066 48.4765 48.6035 46.5234 47.9199 44.5703C47.7831 44.1797 47.5488 43.9062 47.1777 43.7304C46.1816 43.2617 45.205 42.7929 44.2285 42.2851C43.6621 41.9726 43.4667 42.1484 43.3886 42.7148C43.1347 44.3359 42.8417 45.9765 42.5488 47.5976C42.1191 50.1367 41.6699 52.6758 41.2206 55.3515ZM39.6972 23.8086C41.6503 23.8281 43.1347 22.3633 43.1542 20.4297C43.1542 18.4961 41.6699 16.9922 39.7558 16.9922C37.8613 16.9922 36.3574 18.457 36.3378 20.332C36.3183 22.3047 37.7636 23.789 39.6972 23.8086Z" fill="white"/>
<path d="M25.6738 54.375C25.6738 54.7461 25.5175 55.0391 25.2636 55.293C25.0292 55.5469 24.7949 55.7812 24.541 56.0156C24.2675 56.2695 24.1308 56.5234 24.3066 56.9141C24.4628 57.3047 24.7167 57.4219 25.1074 57.4023C25.498 57.3828 25.8886 57.3828 26.2792 57.4023C26.9824 57.4414 27.4316 57.8711 27.4316 58.5547C27.4511 60.1367 27.4511 61.7188 27.4316 63.3008C27.412 64.043 26.9628 64.4531 26.2206 64.4922C25.8495 64.5117 25.498 64.5117 25.1269 64.4922C24.7558 64.4727 24.4824 64.5508 24.3066 64.9414C24.1503 65.332 24.2675 65.5664 24.5214 65.8594C26.123 67.5977 26.1035 67.6758 24.4238 69.375C23.7011 70.0977 22.9785 70.8398 22.2558 71.543C21.455 72.3242 20.8495 72.3047 20.0488 71.5234C19.8144 71.3086 19.5995 71.0742 19.3652 70.8594C19.1308 70.6055 18.8769 70.6055 18.5644 70.7422C18.2714 70.8789 18.0761 71.0352 18.0956 71.3867C18.1152 71.7969 18.1152 72.207 18.0956 72.6367C18.0566 73.3789 17.6464 73.8477 16.9238 73.8672C15.3417 73.8867 13.7597 73.8867 12.1777 73.8672C11.455 73.8477 11.0253 73.3984 10.9863 72.6562C10.9667 72.2656 10.9667 71.875 10.9863 71.4844C11.0058 71.1133 10.8691 70.8984 10.5175 70.7617C10.166 70.625 9.91205 70.6641 9.65814 70.9375C9.61908 70.9766 9.58002 71.0156 9.56049 71.0352C7.97845 72.5391 7.84174 72.5391 6.27924 70.9766C5.47845 70.1953 4.65814 69.4141 3.89642 68.6133C3.1933 67.8516 3.21283 67.2656 3.93549 66.5039C4.11127 66.3086 4.30658 66.1133 4.50189 65.9375C4.79486 65.6641 4.93158 65.3906 4.7558 64.9805C4.58002 64.5898 4.30658 64.5117 3.93549 64.5312C3.54486 64.5508 3.15424 64.5508 2.76361 64.5117C2.08002 64.4531 1.66986 64.0625 1.65033 63.3984C1.61127 61.7969 1.61127 60.1758 1.65033 58.5742C1.66986 57.8711 2.11908 57.4609 2.8222 57.4219C3.23236 57.4023 3.64252 57.4023 4.0722 57.4219C4.40424 57.4414 4.61908 57.3047 4.7558 56.9922C4.89252 56.6602 4.91205 56.3867 4.63861 56.1328C4.36517 55.8594 4.0722 55.5859 3.8183 55.293C3.27142 54.668 3.23236 54.0625 3.79877 53.4766C4.89252 52.3242 6.02533 51.2305 7.15814 50.1367C7.64642 49.668 8.23236 49.7266 8.7597 50.1367C9.09174 50.3906 9.36517 50.7031 9.65814 50.9961C9.93158 51.2891 10.205 51.3477 10.5761 51.1719C10.9277 51.0156 11.0253 50.7617 11.0058 50.4297C11.0058 50.293 11.0058 50.1367 11.0058 50C11.0058 48.3203 11.2597 48.0859 12.9589 48.0859C14.2089 48.0859 15.4394 48.0859 16.6894 48.0859C17.705 48.0859 18.1152 48.4961 18.1347 49.4922C18.1347 49.8242 18.1542 50.1758 18.1347 50.5078C18.1152 50.8398 18.2519 51.0547 18.5644 51.1914C18.8964 51.3281 19.1699 51.3281 19.4238 51.0547C19.6386 50.8203 19.873 50.6055 20.0878 50.3906C20.8495 49.668 21.4941 49.6484 22.2558 50.3906C23.3105 51.4063 24.3066 52.4609 25.3417 53.5156C25.537 53.7109 25.6933 54.0234 25.6738 54.375ZM7.68549 56.3086C7.68549 56.3281 7.68549 56.4063 7.66595 56.4648C7.41205 57.0508 7.13861 57.6172 6.92377 58.2031C6.33783 59.7852 6.35736 59.7852 4.71674 59.8437C4.50189 59.8437 4.20892 59.7852 4.1308 60.0195C3.97455 60.6055 3.95502 61.25 4.11127 61.8164C4.24799 62.3047 4.79486 62.0508 5.14642 62.0703C6.14252 62.1094 6.43549 62.3047 6.74799 63.2227C6.8847 63.6133 7.02142 64.0039 7.1972 64.375C7.91986 65.918 7.93939 65.9375 6.76752 67.168C6.45502 67.4805 6.41596 67.7148 6.76752 67.9883C6.92377 68.1055 7.04095 68.2617 7.17767 68.3984C7.97845 69.1797 7.78314 69.1992 8.62299 68.3789C9.34564 67.6758 9.7558 67.6172 10.6542 68.0469C11.0253 68.2227 11.3964 68.3984 11.787 68.5547C13.3495 69.1211 13.3495 69.1211 13.4081 70.7812C13.4081 70.9961 13.3495 71.2891 13.6035 71.3672C14.1894 71.5234 14.8339 71.543 15.4003 71.3672C15.8691 71.2305 15.6347 70.6836 15.6347 70.332C15.6738 69.3359 15.8691 69.043 16.787 68.7305C17.1777 68.5938 17.5683 68.457 17.9394 68.2813C19.4824 67.5586 19.4824 67.5391 20.7128 68.7109C21.0253 69.0234 21.2597 69.0625 21.5331 68.7109C21.6503 68.5547 21.8066 68.4375 21.9433 68.3008C22.7245 67.5 22.7441 67.6953 21.9238 66.8555C21.2206 66.1328 21.162 65.7227 21.5917 64.8438C21.7675 64.4727 21.9628 64.1016 22.0995 63.7109C22.666 62.1484 22.666 62.1484 24.3066 62.0898C24.5214 62.0898 24.8144 62.1484 24.8925 61.9141C25.0488 61.3281 25.0683 60.6836 24.912 60.1172C24.7753 59.6289 24.2285 59.8828 23.8769 59.8828C22.8613 59.8438 22.5683 59.6484 22.2363 58.6719C22.1191 58.3008 21.9824 57.9297 21.8261 57.5781C21.1035 56.0156 21.0839 56.0156 22.2558 54.7852C22.5488 54.4727 22.6464 54.2578 22.2753 53.9648C22.1191 53.8477 22.0019 53.6914 21.8652 53.5547C21.0449 52.7344 21.2402 52.7734 20.4199 53.5547C19.6777 54.2773 19.287 54.3359 18.33 53.8672C17.9394 53.6719 17.5488 53.4766 17.1191 53.3398C15.6933 52.832 15.6542 52.7734 15.6152 51.25C15.6152 51.0156 15.7128 50.6641 15.4394 50.5859C14.8535 50.4102 14.2089 50.4102 13.6425 50.5664C13.1542 50.7031 13.4081 51.25 13.3886 51.6016C13.3495 52.5977 13.1542 52.9102 12.2363 53.2031C11.6308 53.3984 11.0449 53.6328 10.498 53.9453C9.85345 54.2969 9.28705 54.1992 8.7597 53.7109C7.84174 52.8711 7.84174 52.8711 6.96283 53.75C6.90424 53.8086 6.86517 53.8672 6.80658 53.9063C6.39642 54.2188 6.41595 54.4922 6.80658 54.8437C7.2558 55.1953 7.72455 55.5859 7.68549 56.3086Z" fill="white"/>
<path d="M60.4003 16.4258C60.6152 15.0977 60.7909 13.7891 61.0448 12.5C61.1425 12.0312 61.0058 11.6992 60.6933 11.3867C59.8925 10.5664 59.0917 9.74609 58.2909 8.94531C57.8613 8.51562 57.6269 8.02734 57.8222 7.44141C58.037 6.83594 58.5448 6.64062 59.1308 6.5625C60.1855 6.40625 61.2402 6.25 62.3144 6.09375C62.8027 6.03516 63.0956 5.80078 63.2909 5.35156C63.7402 4.29687 64.248 3.28125 64.7363 2.24609C64.9902 1.69922 65.3222 1.28906 65.9863 1.28906C66.6503 1.28906 67.0019 1.67969 67.2558 2.22656C67.7441 3.28125 68.2519 4.33594 68.7206 5.41016C68.9159 5.83984 69.2089 6.05469 69.6581 6.11328C70.7128 6.25 71.7675 6.42578 72.8417 6.58203C73.4277 6.66016 73.955 6.83594 74.1698 7.44141C74.4042 8.06641 74.1113 8.57422 73.6816 9.00391C72.9003 9.80469 72.1191 10.6055 71.3378 11.4063C71.0058 11.7383 70.8886 12.0703 70.9863 12.5781C71.2206 13.7695 71.3769 14.9805 71.5917 16.1719C71.6698 16.6992 71.5722 17.1484 71.162 17.4805C70.7128 17.832 70.205 17.8516 69.7167 17.5781C68.662 17.0117 67.6074 16.4453 66.5917 15.8594C66.2011 15.6445 65.9081 15.625 65.5175 15.8594C64.4824 16.4648 63.4472 17.0508 62.373 17.5781C61.3378 18.0469 60.3613 17.4414 60.4003 16.4258ZM61.5917 8.73047C62.0409 9.19922 62.3339 9.58984 62.705 9.88281C63.5644 10.5859 63.8769 11.4258 63.5839 12.5391C63.4667 12.9883 63.1347 13.6523 63.4863 13.9062C63.8378 14.1602 64.3456 13.6133 64.7363 13.3594C65.5956 12.793 66.3964 12.7734 67.2363 13.3789C67.3534 13.457 67.4902 13.5352 67.6269 13.5742C67.9394 13.6719 68.2323 14.1406 68.5058 13.9062C68.7597 13.7109 68.5449 13.2617 68.4472 12.9492C68.037 11.582 68.3691 10.4883 69.5214 9.60938C69.7949 9.39453 70.1269 9.16016 70.2245 8.71094C69.5214 8.59375 68.8769 8.47656 68.2324 8.39844C67.5488 8.32031 67.1191 7.96875 66.8652 7.34375C66.6699 6.875 66.4355 6.40625 66.2206 5.95703C66.0644 5.625 65.8886 5.64453 65.7323 5.95703C65.5175 6.42578 65.2831 6.875 65.0878 7.34375C64.8339 7.96875 64.3847 8.30078 63.7206 8.37891C63.0761 8.47656 62.4316 8.59375 61.5917 8.73047Z" fill="white"/>
<path d="M5.10736 4.74611C5.10736 4.16017 5.12689 3.57423 5.10736 2.98829C5.10736 2.59767 5.26361 2.44142 5.67377 2.42189C7.54877 2.28517 7.54877 2.26564 7.54877 4.16017C7.54877 4.35548 7.54877 4.55079 7.54877 4.74611C7.50971 4.78517 7.47064 4.84376 7.43158 4.88283C6.68939 4.88283 5.9472 4.88283 5.22455 4.88283C5.18549 4.84376 5.14642 4.8047 5.10736 4.74611Z" fill="white"/>
<path d="M5.08782 7.20703C4.59954 7.20703 4.11126 7.16797 3.64251 7.20703C2.91985 7.28516 2.74407 6.97266 2.7636 6.28906C2.82219 4.51172 2.56829 4.78516 4.3261 4.74609C4.59954 4.74609 4.85344 4.72656 5.12688 4.72656C5.16594 4.76562 5.20501 4.82422 5.24407 4.86328C5.24407 5.60547 5.24407 6.34766 5.24407 7.07031C5.18548 7.14844 5.14641 7.16797 5.08782 7.20703Z" fill="white"/>
<path d="M7.54877 4.74609C8.15424 4.74609 8.7597 4.76563 9.36517 4.76563C9.73627 4.76563 9.91205 4.92188 9.89252 5.29297C9.89252 5.3125 9.89252 5.33203 9.89252 5.37109C9.87299 7.63672 10.1464 7.16797 8.15424 7.20703C7.95892 7.20703 7.76361 7.20703 7.5683 7.20703C7.52924 7.16797 7.47064 7.12891 7.43158 7.08984C7.43158 6.34766 7.43158 5.60547 7.43158 4.88281C7.49017 4.84375 7.52924 4.80469 7.54877 4.74609Z" fill="white"/>
<path d="M14.4628 8.26173C14.4628 7.67579 14.4824 7.08986 14.4628 6.50392C14.4628 6.11329 14.6191 5.95704 15.0292 5.93751C16.9042 5.80079 16.9042 5.78126 16.9042 7.67579C16.9042 7.87111 16.9042 8.06642 16.9042 8.26173C16.8652 8.30079 16.8261 8.35939 16.787 8.39845C16.0449 8.39845 15.3027 8.39845 14.58 8.39845C14.541 8.35939 14.5019 8.30079 14.4628 8.26173Z" fill="white"/>
<path d="M7.5683 7.20703C7.5683 7.79297 7.52924 8.35937 7.54877 8.94531C7.5683 9.375 7.37299 9.55078 6.9433 9.55078C4.6972 9.53125 5.16595 9.78516 5.10736 7.87109C5.10736 7.65625 5.08783 7.44141 5.08783 7.22656C5.12689 7.1875 5.18549 7.14844 5.22455 7.10938C5.96674 7.10938 6.70892 7.10938 7.43158 7.10938C7.49017 7.14844 7.52924 7.1875 7.5683 7.20703Z" fill="white"/>
<path d="M14.4433 10.7227C13.955 10.7227 13.4667 10.6836 12.998 10.7227C12.2753 10.8008 12.0995 10.4883 12.1191 9.80469C12.1777 8.02734 11.9238 8.30078 13.6816 8.26172C13.955 8.26172 14.2089 8.24219 14.4824 8.24219C14.5214 8.28125 14.5605 8.33984 14.5995 8.37891C14.5995 9.12109 14.5995 9.86328 14.5995 10.5859C14.5409 10.6445 14.5019 10.6836 14.4433 10.7227Z" fill="white"/>
<path d="M16.9238 8.26172C17.5292 8.26172 18.1347 8.28125 18.7402 8.28125C19.1113 8.28125 19.287 8.4375 19.2675 8.80859C19.2675 8.82812 19.2675 8.84766 19.2675 8.88672C19.248 11.1523 19.5214 10.6836 17.5292 10.7227C17.3339 10.7227 17.1386 10.7227 16.9433 10.7227C16.9042 10.6836 16.8456 10.6445 16.8066 10.6055C16.8066 9.86328 16.8066 9.12109 16.8066 8.39844C16.8456 8.35938 16.8847 8.30078 16.9238 8.26172Z" fill="white"/>
<path d="M16.9238 10.7227C16.9238 11.3086 16.8847 11.875 16.9042 12.4609C16.9238 12.8906 16.7285 13.0664 16.2988 13.0664C14.0527 13.0469 14.5214 13.3008 14.4628 11.3867C14.4628 11.1719 14.4433 10.957 14.4433 10.7422C14.4824 10.7031 14.541 10.6641 14.58 10.625C15.3222 10.625 16.0644 10.625 16.787 10.625C16.8456 10.6445 16.8847 10.6836 16.9238 10.7227Z" fill="white"/>
<path d="M68.2714 67.9102C68.2714 67.3242 68.291 66.7383 68.2714 66.1524C68.2714 65.7617 68.4277 65.6055 68.8378 65.586C70.7128 65.4492 70.7128 65.4297 70.7128 67.3242C70.7128 67.5195 70.7128 67.7149 70.7128 67.9102C70.6738 67.9492 70.6347 68.0078 70.5956 68.0469C69.8535 68.0469 69.1113 68.0469 68.3886 68.0469C68.3495 68.0078 68.3105 67.9492 68.2714 67.9102Z" fill="white"/>
<path d="M68.2519 70.3711C67.7636 70.3711 67.2753 70.332 66.8066 70.3711C66.0839 70.4492 65.9081 70.1367 65.9277 69.4531C65.9863 67.6758 65.7324 67.9492 67.4902 67.9102C67.7636 67.9102 68.0175 67.8906 68.2909 67.8906C68.33 67.9297 68.3691 67.9883 68.4081 68.0273C68.4081 68.7695 68.4081 69.5117 68.4081 70.2344C68.3495 70.293 68.2909 70.332 68.2519 70.3711Z" fill="white"/>
<path d="M70.7128 67.9102C71.3183 67.9102 71.9238 67.9297 72.5292 67.9297C72.9003 67.9297 73.0761 68.0859 73.0566 68.457C73.0566 68.4766 73.0566 68.4961 73.0566 68.5352C73.037 70.8008 73.3105 70.332 71.3183 70.3711C71.123 70.3711 70.9277 70.3711 70.7324 70.3711C70.6933 70.332 70.6347 70.293 70.5956 70.2539C70.5956 69.5117 70.5956 68.7695 70.5956 68.0469C70.6347 68.0078 70.6738 67.9492 70.7128 67.9102Z" fill="white"/>
<path d="M70.7324 70.3711C70.7324 70.957 70.6933 71.5234 70.7128 72.1094C70.7324 72.5391 70.537 72.7148 70.1074 72.7148C67.8613 72.6953 68.33 72.9492 68.2714 71.0352C68.2714 70.8203 68.2519 70.6055 68.2519 70.3906C68.291 70.3516 68.3495 70.3125 68.3886 70.2734C69.1308 70.2734 69.873 70.2734 70.5956 70.2734C70.6542 70.293 70.6933 70.332 70.7324 70.3711Z" fill="white"/>
<path d="M14.4628 66.8555C11.1816 66.8555 8.60344 64.2383 8.62297 60.918C8.62297 57.5976 11.2402 55.0391 14.5995 55.0586C17.8613 55.0781 20.4198 57.6953 20.4003 61.0156C20.4003 64.2969 17.7831 66.875 14.4628 66.8555ZM17.9589 60.9375C17.9198 59.0625 16.2988 57.4805 14.4628 57.5195C12.6073 57.5781 11.0644 59.1211 11.0644 60.957C11.0644 62.8125 12.6855 64.4141 14.5214 64.3945C16.3964 64.3945 17.998 62.7734 17.9589 60.9375Z" fill="white"/>
</svg>
