<svg width="60" height="60" viewBox="0 0 60 60" fill="none" xmlns="http://www.w3.org/2000/svg">
<path d="M27.9687 4.98431C34.5156 4.98431 41.0625 4.98431 47.5937 4.98431C48 4.98431 48.3281 4.95306 48.25 4.42181C48.25 4.40618 48.25 4.37493 48.25 4.37493C48.5937 3.82806 49.125 4.21868 49.5625 4.12493C49.7968 4.07806 50.0625 4.14056 50.0312 4.46868C49.9843 4.95306 50.2656 4.98431 50.6406 4.96868C51.0937 4.95306 51.5468 4.98431 51.9843 4.95306C52.4687 4.92181 52.6718 5.06243 52.6406 5.57806C52.6093 6.34368 52.6406 7.12493 52.625 7.89056C52.6093 8.24993 52.7187 8.46868 53.1093 8.39056C54.3593 8.15618 55.1562 8.78118 55.9843 9.62493C56.6874 10.3281 56.9843 11.0156 56.9687 12.0156C56.9062 15.0624 56.9375 18.1249 56.9531 21.1874C56.9531 21.5937 56.8437 21.9062 56.5468 22.1874C56.0625 22.6406 55.5781 23.1093 55.1406 23.5937C54.8437 23.9218 54.5156 24.0312 54.0937 24.0156C53.5 23.9843 52.9062 24.0312 52.3125 23.9999C51.875 23.9687 51.7187 24.1562 51.7656 24.5624C51.7656 24.6093 51.7656 24.6718 51.7656 24.7187C51.7656 33.0468 51.7656 41.3593 51.75 49.6875C51.75 50.1406 51.8281 50.5 52.2031 50.7656C52.5468 51.0312 52.6562 51.375 52.625 51.8125C52.5937 52.4218 52.625 53.0312 52.6093 53.6406C52.5937 53.9687 52.7031 54.1562 53.0625 54.125C53.3593 54.0937 53.4843 54.25 53.4687 54.5468C53.4531 56.25 53.6562 55.9062 52.1718 55.9218C49.4062 55.9375 46.6406 55.9218 43.8593 55.9218C43.0156 55.9218 43.0156 55.9218 43.0156 55.0625C43.0156 54.9375 43.0312 54.8125 43.0156 54.6875C42.9843 54.3281 43.0625 54.0781 43.5 54.125C43.8281 54.1562 43.8906 53.9531 43.875 53.6875C43.875 53.0781 43.8906 52.4687 43.8593 51.8593C43.8437 51.4062 43.9375 51.0468 44.2968 50.7656C44.6406 50.5 44.75 50.1562 44.7343 49.7343C44.7031 49.1093 44.7031 48.4687 44.7343 47.8437C44.75 47.4531 44.6406 47.25 44.2187 47.3125C44.125 47.3281 44.0468 47.3125 43.9531 47.3125C34.7187 47.3125 25.4687 47.3125 16.2344 47.3125C15.4687 47.3125 15.4687 47.3125 15.4687 48.0781C15.4687 48.4843 15.5 48.9062 15.4687 49.3125C15.4062 49.9843 15.5156 50.5625 16.0937 50.9687C16.2969 51.1093 16.3281 51.3437 16.3281 51.5937C16.3281 52.2812 16.3437 52.9531 16.3281 53.6406C16.3281 53.9687 16.4062 54.1718 16.7812 54.1406C17.0781 54.1093 17.2031 54.2656 17.2031 54.5468C17.1875 56.25 17.3906 55.9218 15.9219 55.9218C13.0781 55.9375 10.2344 55.9218 7.40623 55.9375C6.89061 55.9375 6.67186 55.7968 6.71873 55.2656C6.73436 55.0625 6.73436 54.875 6.71873 54.6718C6.70311 54.3125 6.81248 54.0781 7.23436 54.125C7.59373 54.1718 7.64061 53.9531 7.64061 53.6562C7.62498 53.0468 7.67186 52.4375 7.62498 51.8281C7.59373 51.375 7.71873 51.0156 8.0781 50.75C8.40623 50.5 8.49998 50.1718 8.49998 49.7656C8.48436 41.4062 8.48436 33.0468 8.49998 24.6874C8.49998 24.1249 8.3281 23.9218 7.79686 24.0156C6.17186 24.2968 4.93748 23.7343 3.93748 22.4374C3.56248 21.9374 3.29686 21.5156 3.31248 20.8749C3.34373 17.6562 3.32811 14.4374 3.31248 11.2187C3.31248 10.8124 3.40623 10.4843 3.73436 10.2187C3.93748 10.0468 4.14061 9.85931 4.31248 9.64056C5.03123 8.68743 5.92186 8.14056 7.17186 8.39056C7.56248 8.46868 7.67186 8.24993 7.65623 7.89056C7.64061 7.14056 7.68748 6.37493 7.64061 5.62493C7.60936 5.06243 7.81248 4.93743 8.34373 4.93743C14.9062 4.99993 21.4375 4.98431 27.9687 4.98431ZM30.1875 17.1406C25.5625 17.1406 20.9531 17.1406 16.3281 17.1406C15.5312 17.1406 15.5312 17.1406 15.5312 17.9218C15.5312 25.4374 15.5312 32.9374 15.5312 40.4531C15.5312 41.2187 15.5312 41.2343 16.2812 41.2343C25.5312 41.2343 34.7812 41.2343 44.0468 41.2343C44.7968 41.2343 44.7968 41.2343 44.7968 40.5156C44.7968 32.9687 44.7968 25.4218 44.7968 17.8749C44.7968 17.1562 44.7968 17.1562 44.0937 17.1562C39.4531 17.1406 34.8281 17.1406 30.1875 17.1406ZM30.1718 15.3437C31.9375 15.3437 33.6875 15.3437 35.4531 15.3437C41.7968 15.3437 48.1406 15.3437 54.4843 15.3593C54.9843 15.3593 55.1875 15.2343 55.1562 14.7031C55.1093 13.7812 55.1406 12.8749 55.1406 11.9531C55.1406 11.2343 54.1562 10.2499 53.4375 10.2499C37.9062 10.2499 22.375 10.2499 6.84373 10.2499C6.12498 10.2499 5.15623 11.2343 5.15623 11.9687C5.15623 12.8281 5.15623 13.6874 5.15623 14.5624C5.15623 15.3593 5.15623 15.3593 5.93748 15.3593C14.0312 15.3437 22.0937 15.3437 30.1718 15.3437ZM30.1406 45.5468C34.8906 45.5468 39.625 45.5468 44.375 45.5468C44.9375 45.5468 45.4843 45.5312 46.0468 45.5468C46.4062 45.5625 46.5312 45.4218 46.5156 45.0625C46.5 44.6562 46.5156 44.2343 46.5156 43.8281C46.5156 43.0312 46.5156 43.0312 45.7343 43.0312C35.3593 43.0312 24.9843 43.0312 14.6094 43.0312C14.4844 43.0312 14.3594 43.0468 14.2344 43.0312C13.9062 43 13.7812 43.1562 13.7969 43.4843C13.8125 43.9375 13.7969 44.3906 13.7969 44.8281C13.7969 45.5468 13.7969 45.5468 14.5 45.5468C19.7187 45.5468 24.9375 45.5468 30.1406 45.5468ZM10.3437 36.9531C10.3437 39.3906 10.3437 41.8437 10.3437 44.2812C10.3437 45.9531 10.3594 47.625 10.3281 49.2968C10.3281 49.75 10.4687 49.9062 10.9219 49.875C11.4062 49.8437 11.8906 49.875 12.375 49.875C13.7187 49.875 13.7187 49.875 13.7187 48.5468C13.7187 47.375 13.7187 47.3593 12.5781 47.3593C12.1406 47.3593 11.9844 47.2187 11.9844 46.7656C12 45.3125 11.9844 43.8593 11.9844 42.4062C11.9844 41.25 11.9844 41.25 13.1562 41.2343C13.1875 41.2343 13.2344 41.2343 13.2656 41.2343C13.5937 41.2656 13.7344 41.125 13.7187 40.7968C13.7031 40.4531 13.7187 40.1093 13.7187 39.7656C13.7187 34.7343 13.7187 29.7031 13.7344 24.6718C13.7344 24.1718 13.5937 23.9999 13.0937 24.0312C12.3906 24.0781 11.6875 24.0781 11 24.0312C10.4687 23.9999 10.3437 24.2031 10.3437 24.7031C10.3594 28.7968 10.3437 32.8749 10.3437 36.9531ZM49.9687 36.9687C49.9687 32.8749 49.9531 28.7812 49.9843 24.6874C49.9843 24.1874 49.8437 24.0156 49.3437 24.0468C48.7343 24.0781 48.125 24.0468 47.5156 24.0624C46.5156 24.0624 46.6093 23.9687 46.6093 24.9531C46.6093 29.9999 46.6093 35.0468 46.6093 40.0937C46.6093 41.2343 46.6093 41.25 47.7343 41.2343C48.2187 41.2343 48.3437 41.4062 48.3437 41.8593C48.3281 43.25 48.3281 44.625 48.3281 46.0156C48.3281 47.2968 48.3281 47.3125 47.0625 47.3593C46.7031 47.375 46.5937 47.5 46.5937 47.8437C46.6093 48.3437 46.6093 48.8437 46.5937 49.3593C46.5781 49.75 46.7031 49.9062 47.1093 49.8906C47.8437 49.8593 48.5781 49.8593 49.3125 49.8906C49.8437 49.9218 49.9843 49.7343 49.9687 49.2187C49.9687 45.125 49.9687 41.0468 49.9687 36.9687ZM30.1093 8.43743C35.3281 8.43743 40.5312 8.43743 45.75 8.43743C47.2656 8.43743 48.7656 8.43743 50.2812 8.43743C50.4531 8.43743 50.7031 8.49993 50.7656 8.31243C50.9062 7.87493 50.8906 7.40618 50.7812 6.98431C50.6875 6.62493 50.2812 6.79681 50.0312 6.79681C36.7812 6.78118 23.5312 6.79681 10.2812 6.79681C10.1562 6.79681 10.0312 6.79681 9.90623 6.79681C9.60935 6.78118 9.46873 6.90618 9.48435 7.20306C9.49998 7.35931 9.48435 7.53118 9.48435 7.68743C9.48435 8.43743 9.48435 8.43743 10.25 8.43743C16.875 8.43743 23.4843 8.43743 30.1093 8.43743ZM9.4531 17.1406C8.23436 17.1406 7.01561 17.1562 5.79686 17.1249C5.34373 17.1093 5.14061 17.2343 5.17186 17.7187C5.20311 18.4062 5.24998 19.0937 5.17186 19.7656C5.06248 20.7031 5.37498 21.3906 6.10936 21.9531C6.32811 22.1249 6.53123 22.2343 6.82811 22.2343C8.96873 22.2187 11.0937 22.2187 13.2344 22.2343C13.6406 22.2343 13.75 22.0781 13.75 21.6874C13.7344 20.3437 13.7344 18.9999 13.75 17.6562C13.7656 17.2031 13.5781 17.1093 13.1719 17.1093C11.9219 17.1562 10.6875 17.1406 9.4531 17.1406ZM50.875 17.1406C49.6562 17.1406 48.4375 17.1562 47.2187 17.1249C46.7656 17.1093 46.5781 17.2343 46.5937 17.7187C46.625 19.0312 46.625 20.3437 46.5937 21.6562C46.5937 22.0937 46.7187 22.2499 47.1718 22.2499C49.0781 22.2343 50.9843 22.2031 52.875 22.2656C53.6406 22.2812 54.2031 22.0937 54.7031 21.4999C55 21.1562 55.1875 20.8281 55.1562 20.3593C55.125 19.4999 55.125 18.6406 55.1562 17.7812C55.1718 17.2968 55.0468 17.1093 54.5312 17.1249C53.3125 17.1718 52.0937 17.1406 50.875 17.1406ZM11.9687 54.1718C12.6719 54.1718 13.375 54.1718 14.0781 54.1718C14.3594 54.1718 14.5312 54.0781 14.5156 53.7656C14.5156 53.25 14.5156 52.7187 14.5156 52.2031C14.5 51.8437 14.3125 51.6562 13.9375 51.6562C12.6875 51.6562 11.4219 51.6562 10.1719 51.6562C9.73435 51.6562 9.5156 51.8906 9.49998 52.3281C9.49998 52.7968 9.5156 53.2656 9.49998 53.7343C9.48435 54.0625 9.60935 54.1875 9.93748 54.1875C10.6094 54.1718 11.2969 54.1718 11.9687 54.1718ZM48.3437 54.1718C49.0312 54.1718 49.7031 54.1562 50.3906 54.1718C50.7031 54.1718 50.8593 54.0625 50.8437 53.7343C50.8281 53.2656 50.8437 52.7968 50.8437 52.3281C50.8281 51.875 50.5937 51.6406 50.125 51.6406C48.9062 51.6406 47.6875 51.6562 46.4687 51.6406C46.0156 51.6406 45.8125 51.8593 45.8125 52.2968C45.8125 52.75 45.8281 53.2031 45.8125 53.6406C45.7968 54.0468 45.9843 54.1718 46.3593 54.1562C47 54.1562 47.6718 54.1718 48.3437 54.1718Z" fill="#6D6D6D"/>
<path d="M30.125 29.2344C26.0469 29.2344 21.9687 29.2344 17.8906 29.2344C17.1875 29.2344 17.1875 29.2344 17.1875 28.5156C17.1875 28.4219 17.1875 28.3438 17.1875 28.25C17.1875 27.4531 17.1875 27.4375 17.9687 27.4531C18.3594 27.4531 18.5469 27.2656 18.7187 26.9688C20.25 24.4531 21.7969 21.9375 23.3281 19.4219C23.6875 18.8281 23.7031 18.8281 24.0781 19.4219C24.9844 20.9062 25.9062 22.3906 26.7969 23.8906C27.0469 24.3125 27.1875 24.2812 27.4375 23.8906C28.2344 22.6562 29.0781 21.4375 29.875 20.2031C30.125 19.8125 30.2656 19.8437 30.5 20.2187C31.8437 22.3906 33.2187 24.5312 34.5312 26.7187C34.8594 27.2656 35.2344 27.4531 35.8594 27.4531C38.0469 27.4062 40.25 27.4531 42.4375 27.4219C42.9531 27.4219 43.1719 27.5312 43.1562 28.1094C43.1094 29.4062 43.2812 29.2344 42.0312 29.2344C38.0625 29.2344 34.0937 29.2344 30.125 29.2344ZM23.7031 27.4219C24.6094 27.4219 25.5 27.4219 26.4062 27.4219C26.6875 27.4219 26.7812 27.3438 26.6094 27.0781C25.7187 25.625 24.8281 24.1719 23.9375 22.7031C23.7656 22.4062 23.625 22.4062 23.4531 22.7031C22.5937 24.1406 21.7187 25.5625 20.8437 26.9844C20.6562 27.2812 20.6562 27.4219 21.0781 27.4219C21.9375 27.4219 22.8125 27.4219 23.7031 27.4219ZM30.8281 27.4219C31.3437 27.4219 31.875 27.4219 32.3906 27.4219C32.6719 27.4219 32.8125 27.3906 32.6094 27.0625C31.8594 25.875 31.1094 24.6875 30.375 23.5C30.1719 23.1719 30.0469 23.2031 29.8594 23.5C29.5 24.0781 29.1562 24.6875 28.7187 25.2031C28.1875 25.8281 28.2031 26.3594 28.6875 26.9844C28.9062 27.2656 29.1094 27.4375 29.4687 27.4062C29.9219 27.4062 30.375 27.4219 30.8281 27.4219Z" fill="#6D6D6D"/>
<path d="M23.3125 34.3281C25.1094 34.3281 26.9062 34.3437 28.7031 34.3125C29.2031 34.3125 29.3594 34.4531 29.3437 34.9531C29.2969 36.3125 29.5 36.1094 28.1562 36.125C24.7187 36.1406 21.2969 36.1094 17.8594 36.1406C17.3125 36.1406 17.1406 35.9844 17.1562 35.4375C17.2031 34.1562 17.0312 34.3281 18.2969 34.3281C19.9687 34.3281 21.6406 34.3281 23.3125 34.3281Z" fill="#6D6D6D"/>
<path d="M39.1719 32.6719C38.0625 32.6719 36.9531 32.6563 35.8281 32.6719C35.4375 32.6719 35.2969 32.5313 35.2969 32.1406C35.3281 30.625 35.125 30.875 36.5313 30.875C38.5313 30.8594 40.5156 30.8906 42.5156 30.8594C43.0156 30.8594 43.1719 31 43.1563 31.5C43.1094 32.8594 43.2969 32.6563 41.9688 32.6719C41.0313 32.6875 40.0938 32.6875 39.1719 32.6719Z" fill="#6D6D6D"/>
<path d="M25.375 39.5781C24.2812 39.5781 23.1875 39.5625 22.0937 39.5781C21.6719 39.5938 21.4844 39.4688 21.4844 39C21.5156 37.5469 21.3281 37.7812 22.7031 37.7656C24.6719 37.75 26.6563 37.7813 28.625 37.75C29.1406 37.75 29.3594 37.8594 29.3438 38.4375C29.2969 39.7344 29.4844 39.5469 28.2188 39.5625C27.2813 39.5937 26.3281 39.5781 25.375 39.5781Z" fill="#6D6D6D"/>
<path d="M39.2812 37.7812C40.3906 37.7812 41.4999 37.7968 42.6249 37.7812C43.0156 37.7812 43.1718 37.9218 43.1562 38.3124C43.125 39.8281 43.3281 39.5781 41.9218 39.5781C39.9218 39.5937 37.9375 39.5624 35.9375 39.5937C35.4375 39.5937 35.2812 39.4374 35.2968 38.9531C35.3437 37.5937 35.1406 37.7968 36.4843 37.7812C37.4062 37.7812 38.3437 37.7812 39.2812 37.7812Z" fill="#6D6D6D"/>
<path d="M40.1406 20.5312C40.9844 20.5312 41.8281 20.5469 42.6719 20.5312C43.0156 20.5312 43.1563 20.6562 43.1563 21C43.1406 22.625 43.3281 22.3125 41.875 22.3281C40.4531 22.3437 39.0469 22.3125 37.625 22.3438C37.1875 22.3438 37.0156 22.2188 37.0312 21.7656C37.0625 20.3125 36.8594 20.5625 38.2656 20.5469C38.875 20.5156 39.5 20.5312 40.1406 20.5312Z" fill="#6D6D6D"/>
<path d="M40.0625 36.125C39.2187 36.125 38.375 36.1094 37.5312 36.125C37.1718 36.125 37.0156 36 37.0312 35.625C37.0625 34.0469 36.8593 34.3437 38.2812 34.3281C39.7187 34.3125 41.1562 34.3281 42.5937 34.3125C43 34.3125 43.1718 34.4375 43.1562 34.8594C43.125 36.3437 43.3125 36.0937 41.9531 36.1094C41.3125 36.1406 40.6875 36.125 40.0625 36.125Z" fill="#6D6D6D"/>
<path d="M19.75 32.6719C19.0469 32.6719 18.3437 32.6563 17.6562 32.6719C17.3125 32.6719 17.1719 32.5469 17.1719 32.2031C17.1875 30.5938 17 30.8906 18.4062 30.875C19.5781 30.8594 20.7343 30.8906 21.9062 30.8594C22.2968 30.8594 22.4531 30.9844 22.4375 31.3906C22.4062 32.9062 22.6093 32.6406 21.2031 32.6719C20.7187 32.6875 20.2344 32.6875 19.75 32.6719Z" fill="#6D6D6D"/>
<path d="M41.375 25.7813C40.9844 25.7813 40.5938 25.7813 40.1875 25.7813C40.0782 25.7813 39.9375 25.8125 39.875 25.7657C39.3438 25.3907 39.7188 24.8594 39.625 24.3907C39.5625 24.0938 39.7657 23.9844 40.0469 23.9844C40.9375 23.9844 41.8438 23.9375 42.7344 24C43.5157 24.0625 43.0469 24.7188 43.125 25.1094C43.1875 25.3907 43.25 25.7969 42.7188 25.7813C42.2657 25.7657 41.8125 25.7813 41.375 25.7813Z" fill="#6D6D6D"/>
<path d="M27.5469 20.5937C26.6719 20.5937 26.6719 20.5937 26.6719 19.6719C26.6719 18.7031 26.6094 18.8125 27.6562 18.7969C28.4844 18.7969 28.4844 18.7969 28.4687 19.7812C28.4687 20.5937 28.4687 20.5937 27.5469 20.5937Z" fill="#6D6D6D"/>
<path d="M18.1094 37.7812C18.9844 37.7812 18.9844 37.7812 18.9844 38.7031C18.9844 39.6875 19.0469 39.5781 18 39.5781C17.1719 39.5781 17.1719 39.5781 17.1719 38.5937C17.1719 37.7812 17.1719 37.7812 18.1094 37.7812Z" fill="#6D6D6D"/>
<path d="M30.1562 13.6874C29.7031 13.6874 29.2656 13.6874 28.8125 13.6874C28.5156 13.6874 28.3906 13.5624 28.3906 13.2655C28.4062 11.5624 28.2031 11.9217 29.6719 11.8905C30.2656 11.8749 30.8594 11.9061 31.4531 11.8905C31.7969 11.8749 31.9375 12.0155 31.9219 12.3592C31.9062 13.953 32.0937 13.6561 30.6875 13.6874C30.5156 13.703 30.3437 13.703 30.1562 13.6874Z" fill="#6D6D6D"/>
<path d="M47.4688 13.7032C47.0625 13.7032 46.6407 13.7032 46.2344 13.7032C46.125 13.7032 45.9844 13.7344 45.9219 13.6875C45.3907 13.3282 45.7657 12.7813 45.6719 12.3125C45.625 12.0157 45.7969 11.9063 46.0938 11.9063C46.9844 11.9063 47.8907 11.8594 48.7813 11.9219C49.5313 11.9688 49.1094 12.6094 49.1719 12.9688C49.2188 13.25 49.3438 13.7032 48.7657 13.7032C48.3282 13.6875 47.8907 13.6875 47.4688 13.7032C47.4688 13.6875 47.4688 13.6875 47.4688 13.7032Z" fill="#6D6D6D"/>
<path d="M52.6406 12.7969C52.6406 13.6875 52.6406 13.6875 51.7344 13.6875C50.8438 13.6875 50.8438 13.6875 50.8438 12.7188C50.8438 11.875 50.8438 11.875 51.75 11.875C52.6406 11.8906 52.6406 11.8906 52.6406 12.7969Z" fill="#6D6D6D"/>
</svg>
