<?xml version="1.0" encoding="utf-8"?>
<!-- Generator: Adobe Illustrator 27.9.0, SVG Export Plug-In . SVG Version: 6.00 Build 0)  -->
<svg version="1.1" id="Capa_1" xmlns="http://www.w3.org/2000/svg" xmlns:xlink="http://www.w3.org/1999/xlink" x="0px" y="0px"
	 viewBox="0 0 50 50" style="enable-background:new 0 0 50 50;" xml:space="preserve">
<style type="text/css">
	.st0{fill:#383838;}
</style>
<g>
	<path class="st0" d="M39.3,26.6c-0.3,0-0.4,0-0.6,0c-10.6,0-21.2,0-31.8,0c-0.4,0-0.7,0-1-0.2c-0.6-0.4-0.9-1-0.8-1.7
		c0.2-0.7,0.7-1.2,1.5-1.2c0.2,0,0.4,0,0.6,0c10.5,0,21,0,31.6,0c0.2,0,0.4,0,0.6,0c0-0.2-0.2-0.3-0.3-0.4c-1.8-1.7-3.5-3.3-5.3-5
		c-0.6-0.5-0.7-1.2-0.5-1.8c0.4-1,1.7-1.3,2.6-0.5c0.9,0.8,1.8,1.7,2.7,2.5c2,1.9,4,3.7,6,5.6c0.7,0.7,0.7,1.7,0,2.4
		c-2.9,2.7-5.7,5.4-8.6,8c-0.6,0.6-1.3,0.7-1.9,0.3c-0.6-0.3-0.9-0.9-0.8-1.6c0-0.4,0.3-0.7,0.6-1c1.7-1.6,3.4-3.2,5.1-4.8
		C39,27,39.2,26.8,39.3,26.6z"/>
</g>
</svg>
