<?xml version="1.0" encoding="utf-8"?>
<!-- Generator: Adobe Illustrator 27.9.0, SVG Export Plug-In . SVG Version: 6.00 Build 0)  -->
<svg version="1.1" id="Capa_1" xmlns="http://www.w3.org/2000/svg" xmlns:xlink="http://www.w3.org/1999/xlink" x="0px" y="0px"
	 viewBox="0 0 166 166" style="enable-background:new 0 0 166 166;" xml:space="preserve">
<style type="text/css">
	.st0{fill:#383838;}
</style>
<g>
	<path class="st0" d="M75.3,7.5c5.1,0,10.2,0,15.3,0c0.3,0.1,0.7,0.2,1,0.2c6.2,0.5,12.4,1.6,18.3,3.6c11,3.7,20.4,9.8,26.8,19.7
		c8.5,13.1,10.3,27.5,6.6,42.4c-4.5,18.1-13.7,33.7-25.9,47.6c-0.3,0.4-0.8,0.6-0.8,1.4c6.5,0,13,0,19.4,0
		c12.4,0,21.1,12.5,16.9,24.1c-2.4,6.5-7.1,10.4-13.9,12c-37.4,0-74.8,0-112.1,0c-10.2-2.2-15.2-11.1-14.9-18.8
		c0.3-9.2,8.3-17.3,17.5-17.3c6.1,0,12.2,0,18.3,0c0.5,0,1.1,0.2,1.5-0.2c0-0.4-0.3-0.6-0.5-0.9c-9.2-10.1-16.4-21.6-21.7-34.2
		c-4.5-10.7-7.3-21.7-5.9-33.4c1-8.8,3.7-16.9,8.9-24.1c8.1-11.2,19.4-17.2,32.6-20.3C66.8,8.4,71.1,8,75.3,7.5z M57.8,53
		c-1,2.9-1.3,5.7-1.2,8.5c0.2,5,1.2,9.8,2.4,14.7c1.6,6.5,4.3,12.8,6.4,19.2c5.5,17.1,8.2,34.7,8.8,52.6c0,1.3,0.4,1.7,1.7,1.7
		c4.7-0.1,9.4,0,14.2,0c1.2,0,1.7-0.4,1.7-1.6c0.1-6.3,0.7-12.6,1.4-18.8c1.5-12.2,4-24.1,8-35.7c2.4-7,5.2-13.9,6.7-21.2
		c1.1-5.6,2.1-11.1,1-16.8c-0.2-0.8-0.2-1.6-0.8-2.3c-1.5,1.8-2.9,3.5-4.4,5.2c-4.2,4.6-8.9,8.6-15.1,10.5c-0.9,0.3-1.2,0.9-1.1,1.8
		c0,3,0,6,0,9c0,0.9,0.3,1.6,1,2.2c1.9,1.9,3.7,3.8,5.7,5.6c0.9,0.9,0.8,1.5,0,2.3c-1.4,1.3-2.8,2.7-4.2,4.2c-0.8,0.9-1.5,1.1-2.4,0
		c-1.1-1.3-2.4-2.3-3.5-3.6c-0.8-0.9-1.4-0.8-2.1,0c-1.2,1.3-2.5,2.5-3.7,3.8c-0.7,0.7-1.2,0.7-1.8,0c-1.5-1.6-3-3.1-4.6-4.6
		c-0.8-0.8-0.7-1.3,0-2c1.9-1.9,3.8-3.8,5.8-5.7c0.5-0.5,0.9-1.1,0.9-1.9c0-3.1,0-6.3,0-9.4c0-0.8-0.2-1.3-1-1.5
		c-6.5-2-11.5-6.3-15.9-11.3C60.3,56.1,59.2,54.6,57.8,53z M81.9,16.4c-2.1,0.1-5.4,0.3-8.7,0.6c-7,0.7-13.8,2.4-20.2,5.5
		c-1.1,0.5-1.4,1-0.7,2.1c1.7,2.7,3,5.6,4.4,8.5c2.7,5.5,5.8,10.8,9.6,15.7c3.1,4,6.5,7.8,11.1,10.1c2.1,1.1,4.3,1.6,6.7,1.4
		c3.6-0.4,6.4-2.3,9.1-4.6c5.8-5,10-11.2,13.6-17.9c2.2-4,4.2-8.1,6.3-12.2c1.4-2.7,1.9-2.3-1.2-3.7C102.7,17.8,93,16.6,81.9,16.4z
		 M62.8,124.3c-1.4-9.3-3.5-18.1-6.3-26.7c-2.8-8.2-5.9-16.2-7.6-24.8c-2-9.8-2.3-19.4,2.5-28.6c0.3-0.5,0.3-1,0-1.5
		c-2.3-4.4-4.6-8.8-6.8-13.2c-0.5-0.9-0.9-1-1.7-0.3c-2.5,2.3-4.7,4.8-6.4,7.7c-6.6,11-7.9,22.8-4.7,35.1
		c3.3,12.8,9.4,24.2,17.1,34.9c3.2,4.4,7,8.3,10.4,12.6C60.4,120.9,61.5,122.5,62.8,124.3z M103.3,124c2.3-3.3,4.9-6.4,7.6-9.4
		c8.1-9.1,14.5-19.3,19.3-30.5c4.1-9.8,6.8-19.8,5.2-30.5c-1.3-9.2-5-17.2-11.7-23.7c-1.5-1.5-1.6-1.5-2.6,0.3c-2,3.9-4,7.8-6,11.7
		c-0.6,1.2-0.7,2.2-0.1,3.4c3.1,6.1,4,12.7,3.3,19.5c-0.9,8.8-3.1,17.2-6.2,25.4C108,101.1,105,112.3,103.3,124z M45.8,149.6
		c5.2,0,10.4,0,15.6,0c1.2,0,1.7-0.3,1.4-1.6c-1.2-5.5-3.2-10.6-5.9-15.5c-0.4-0.7-0.9-1-1.7-1c-8.4,0-16.8-0.1-25.2,0.1
		c-5.8,0.1-9.7,5.2-8.6,10.8c0.8,4.2,4.4,7.2,9,7.2C35.5,149.6,40.7,149.6,45.8,149.6z M120,149.6c5.2,0,10.4,0.1,15.6,0
		c5.2-0.1,9.2-4.1,9.2-9.1c-0.1-5-4-8.9-9.1-9c-8.3-0.1-16.5,0-24.8,0c-0.9,0-1.5,0.3-1.9,1.1c-2.7,4.9-4.6,10-5.8,15.4
		c-0.3,1.2,0,1.7,1.4,1.6C109.7,149.5,114.9,149.6,120,149.6z"/>
	<path class="st0" d="M69.8,34.1c-1.1,0-2.3,0-3.4,0c-0.8,0-1.3-0.3-1.3-1.2c0-2.3,0-4.5,0-6.8c0-0.8,0.4-1.1,1.2-1.1
		c2.3,0,4.5,0,6.8,0c0.8,0,1.1,0.4,1.1,1.2c0,2.3,0,4.5,0,6.8c0,0.8-0.4,1.1-1.2,1.1C72,34.1,70.9,34.1,69.8,34.1z"/>
	<path class="st0" d="M96.1,34.1c-4.4,0-4.4,0-4.4-4.4c0-1.2,0-2.4,0-3.5c0-0.8,0.3-1.2,1.1-1.2c2.3,0,4.5,0,6.8,0
		c0.8,0,1.2,0.3,1.2,1.1c0,2.3,0,4.5,0,6.8c0,0.8-0.3,1.2-1.1,1.2C98.5,34.1,97.3,34.1,96.1,34.1z"/>
</g>
</svg>
