<svg width="65" height="65" viewBox="0 0 65 65" fill="none" xmlns="http://www.w3.org/2000/svg">
<path d="M60.4466 17.2486C60.0912 17.6887 59.6172 17.8411 59.0586 17.8241C58.2123 17.7903 57.3659 17.8411 56.5026 17.8072C56.0117 17.7903 55.8425 17.9765 55.8933 18.4335C55.9102 18.6197 55.8933 18.789 55.8933 18.9752C55.8933 32.1952 55.8933 45.4153 55.8933 58.6353C55.8933 58.9062 55.9102 59.177 55.8594 59.4478C55.7748 60.0572 55.4193 60.3788 54.793 60.3788C51.78 60.3788 48.75 60.3788 45.737 60.3788C45.0091 60.3788 44.6875 60.0403 44.6537 59.3124C44.6537 59.0924 44.6537 58.8723 44.6537 58.6692C44.6537 45.3476 44.6537 32.009 44.6537 18.6874C44.6537 17.8241 44.6537 17.8241 43.7565 17.8241C42.9271 17.8241 42.0977 17.8241 41.2683 17.8241C40.7604 17.8241 40.3373 17.7056 40.1003 17.2148C39.8802 16.7408 40.0834 16.3684 40.3711 16.0299C43.3503 12.4413 46.3464 8.86971 49.3255 5.28117C49.4948 5.07804 49.681 4.9257 49.9011 4.79028C50.155 4.79028 50.4089 4.79028 50.6628 4.79028C50.8151 4.94263 50.9844 5.07804 51.1198 5.24731C54.2175 8.97127 57.3321 12.6952 60.4297 16.4023C60.4466 16.6731 60.4466 16.9609 60.4466 17.2486ZM57.2474 15.8098C57.2643 15.5898 57.1628 15.5051 57.0781 15.4205C54.9115 12.8137 52.7279 10.2069 50.5612 7.58325C50.3073 7.26164 50.155 7.3632 49.9518 7.61711C47.8021 10.2069 45.6524 12.7799 43.5026 15.3697C43.4011 15.4882 43.2318 15.5728 43.2826 15.8098C43.8919 15.8098 44.5013 15.8098 45.1107 15.8098C46.3294 15.8098 46.6003 16.0806 46.6003 17.2994C46.6003 30.7056 46.6003 44.1119 46.6003 57.5012C46.6003 57.6705 46.6172 57.8228 46.6003 57.9921C46.5834 58.3137 46.7018 58.4491 47.0404 58.4491C49.1901 58.4491 51.3399 58.4491 53.4896 58.4491C53.7943 58.4491 53.9297 58.3306 53.9128 58.026C53.8959 57.8398 53.9128 57.6705 53.9128 57.4843C53.9128 44.0442 53.9128 30.6041 53.9128 17.164C53.9128 16.1314 54.2513 15.7929 55.2669 15.7929C55.9271 15.8098 56.5873 15.8098 57.2474 15.8098Z" fill="#FF6309"/>
<path d="M9.54691 4.75647C9.56384 5.50126 9.58077 6.22913 9.56384 6.97392C9.56384 7.32939 9.69926 7.4648 10.0378 7.44788C10.6133 7.43095 11.1888 7.4648 11.7644 7.44788C12.2214 7.43095 12.3737 7.61715 12.3568 8.05725C12.3568 9.73303 12.5261 9.44527 11.0026 9.4622C9.56384 9.47913 9.58077 9.4622 9.56384 10.8841C9.54691 12.4244 9.8516 12.2552 8.14196 12.2721C7.71879 12.2721 7.54952 12.1198 7.56644 11.6966C7.58337 11.138 7.54952 10.5794 7.58337 10.0208C7.6003 9.58069 7.43103 9.44527 7.00785 9.4622C6.44926 9.47913 5.89066 9.4622 5.33207 9.4622C4.99353 9.4622 4.82426 9.34371 4.84118 8.98824C4.85811 8.6497 4.85811 8.29423 4.84118 7.95569C4.82426 7.56637 5.01045 7.44788 5.36592 7.44788C5.94144 7.4648 6.51696 7.43095 7.09249 7.44788C7.43103 7.44788 7.58337 7.31246 7.58337 6.97392C7.58337 6.22913 7.58337 5.50126 7.6003 4.75647C8.24353 4.75647 8.88676 4.75647 9.54691 4.75647Z" fill="#FF6309"/>
<path d="M60.4467 59.4817C59.9558 59.4817 59.4649 59.5663 58.9909 59.4817C58.1784 59.3463 58.6693 58.6692 58.5847 58.246C58.517 57.9583 58.4154 57.5012 58.9909 57.5012C59.4818 57.5012 59.9727 57.5181 60.4467 57.5181C60.4467 58.1783 60.4467 58.8215 60.4467 59.4817Z" fill="#FF6309"/>
<path d="M20.6511 49.427C20.6511 52.6432 20.6511 55.8593 20.6511 59.0924C20.6511 60.0911 20.3633 60.3789 19.3646 60.3789C16.6055 60.3789 13.8294 60.3789 11.0703 60.3789C9.66538 60.3789 9.4284 60.1419 9.4284 58.7539C9.4284 52.5247 9.4284 46.3125 9.4284 40.0833C9.4284 38.9661 9.49611 39.1015 8.4297 39.0846C7.68491 39.0846 6.94012 39.0677 6.21226 39.0846C5.68752 39.0846 5.1797 39.0677 4.9258 38.4921C4.68882 37.9674 4.95965 37.5612 5.28127 37.1718C7.51564 34.4974 9.75002 31.8059 11.9844 29.1315C12.6953 28.2851 13.3893 27.4388 14.1003 26.5924C14.7604 25.8138 15.3698 25.8138 16.03 26.5924C18.9414 30.0794 21.836 33.5664 24.7474 37.0533C24.7813 37.0872 24.8151 37.138 24.849 37.1718C25.1706 37.5612 25.4753 37.9505 25.2044 38.4921C24.9505 39.0169 24.4766 39.0846 23.9688 39.0846C23.1393 39.0677 22.3099 39.0846 21.4805 39.0846C20.668 39.0846 20.668 39.0846 20.668 39.8632C20.6511 43.0625 20.6511 46.2447 20.6511 49.427ZM22.1914 37.1041C21.8021 36.6302 21.4974 36.2578 21.1927 35.8854C19.263 33.5664 17.3164 31.2474 15.3867 28.9283C15.2005 28.7083 15.0651 28.5052 14.7774 28.8606C12.5938 31.5013 10.4102 34.125 8.22658 36.7487C8.15887 36.8333 8.00653 36.901 8.10809 37.0703C8.14194 37.0872 8.1758 37.1041 8.20965 37.1041C8.78517 37.1041 9.36069 37.1041 9.95314 37.121C11.1211 37.121 11.4258 37.4427 11.4258 38.6106C11.4258 44.9752 11.4258 51.3398 11.4258 57.7213C11.4258 58.483 11.4258 58.483 12.2044 58.483C14.1172 58.483 16.0469 58.483 17.9597 58.483C18.7383 58.483 18.7383 58.483 18.7383 57.7213C18.7383 51.3398 18.7383 44.9414 18.7383 38.5599C18.7383 37.4257 19.043 37.138 20.194 37.121C20.8034 37.1041 21.4297 37.1041 22.1914 37.1041Z" fill="#FF6309"/>
<path d="M32.6354 60.3789C31.2136 60.3789 29.7748 60.3789 28.3529 60.3789C27.3711 60.3789 27.0326 60.0573 27.0326 59.0248C27.0156 56.8412 27.0326 54.6406 27.0326 52.457C27.0326 52.3386 27.0156 52.2031 27.0326 52.0847C27.2018 51.1198 26.8802 50.4596 25.8985 50.1719C25.4753 50.0365 25.2214 49.6641 25.2044 49.224C25.1706 47.2604 25.086 45.28 25.2383 43.3164C25.3737 41.6914 26.3216 40.625 27.8451 40.1003C28.2175 39.9649 28.3021 39.8294 28.2005 39.4401C27.4219 36.4271 29.2839 33.6849 32.3815 33.4479C35.7162 33.194 38.0013 36.3594 37.2057 39.2201C37.0534 39.7787 37.155 39.9649 37.6966 40.168C39.3216 40.7943 40.1172 42.0638 40.1511 43.7904C40.1849 45.5 40.1511 47.2266 40.168 48.9531C40.168 49.5625 39.931 50.0026 39.3724 50.2396C39.1862 50.3242 39.0169 50.4427 38.8307 50.5104C38.4245 50.6628 38.306 50.9167 38.306 51.3399C38.3229 53.7774 38.3229 56.2149 38.306 58.6693C38.306 58.9063 38.306 59.1432 38.2891 59.3802C38.2044 60.1081 37.8828 60.3958 37.155 60.4128C35.6315 60.3958 34.1419 60.3789 32.6354 60.3789ZM29.013 54.099C29.013 55.3685 29.03 56.638 29.013 57.8906C29.013 58.3138 29.1485 58.4492 29.5716 58.4492C31.6367 58.4323 33.7018 58.4323 35.7669 58.4492C36.224 58.4492 36.3594 58.2969 36.3425 57.8568C36.3255 55.6732 36.3932 53.4727 36.3086 51.2891C36.2578 50.0534 36.5117 49.1563 37.7982 48.8008C38.069 48.7162 38.1875 48.53 38.1875 48.2253C38.1706 46.6849 38.2044 45.1445 38.1706 43.6042C38.1537 42.6224 37.4089 41.9284 36.4271 41.8945C36.0039 41.8776 35.5977 41.8945 35.1745 41.8776C34.7175 41.8607 34.362 41.6576 34.1927 41.2175C34.0404 40.8112 34.1589 40.4388 34.4636 40.1172C34.5651 40.0156 34.6667 39.9141 34.7682 39.7956C35.513 38.9154 35.5977 37.6289 34.9883 36.6471C34.362 35.6485 33.194 35.1576 32.0768 35.4284C29.9779 35.9362 29.2839 38.3906 30.7904 39.9987C31.1289 40.3542 31.332 40.7435 31.1459 41.2175C30.9427 41.6914 30.5195 41.8438 30.0456 41.8607C29.724 41.8776 29.4024 41.8607 29.0638 41.8607C27.8959 41.8776 27.1849 42.5886 27.1849 43.7735C27.168 44.9414 27.2526 46.1263 27.168 47.2943C27.1003 48.2422 27.3373 48.8347 28.2852 49.1224C28.8438 49.3086 29.0638 49.7656 29.0469 50.3581C28.9961 51.6445 29.013 52.8802 29.013 54.099Z" fill="#FF6309"/>
<path d="M39.7956 26.914C38.6784 25.5768 37.6797 24.3749 36.6641 23.1731C35.4284 21.7005 34.1927 20.2278 32.9909 18.7551C32.72 18.4166 32.5677 18.4335 32.3138 18.7551C30.181 21.3281 28.0312 23.901 25.8984 26.4739C25.8138 26.5755 25.6784 26.6601 25.7122 26.7955C25.763 26.9648 25.9492 26.914 26.0846 26.914C26.6601 26.9309 27.2357 26.8971 27.8281 26.9309C28.6745 26.9817 28.9961 27.3202 28.9961 28.1666C28.9961 29.7577 28.9792 31.3489 29.013 32.94C29.013 33.414 28.8607 33.5833 28.3867 33.5663C26.8294 33.5325 27.0325 33.7525 27.0156 32.2122C27.0156 31.3997 27.0156 30.5872 27.0156 29.7747C27.0156 28.9114 27.0156 28.8945 26.1693 28.8945C25.306 28.8945 24.4258 28.8945 23.5625 28.8945C23.1055 28.8945 22.7331 28.776 22.5299 28.3528C22.3099 27.8958 22.4622 27.5234 22.75 27.151C25.763 23.5455 28.7591 19.9231 31.7721 16.3176C32.3138 15.6744 32.9739 15.6575 33.5156 16.3176C36.5286 19.9231 39.5417 23.5455 42.5378 27.151C42.8424 27.5064 42.9948 27.8958 42.7747 28.3528C42.5547 28.8098 42.1484 28.9114 41.6914 28.8945C40.7773 28.8775 39.8463 28.9114 38.9323 28.8775C38.4075 28.8606 38.2721 29.0637 38.2891 29.5377C38.306 30.638 38.2721 31.7382 38.306 32.8554C38.3229 33.3463 38.1875 33.5833 37.6289 33.5663C36.0716 33.5156 36.3255 33.7187 36.3086 32.2291C36.2917 30.8749 36.3086 29.5208 36.3086 28.1666C36.3086 27.3202 36.6302 26.9817 37.4766 26.9309C37.832 26.914 38.2044 26.914 38.5599 26.914C38.9323 26.914 39.2878 26.914 39.7956 26.914Z" fill="#FF6309"/>
<path d="M22.4454 16.8424C21.4636 16.8424 21.4636 16.8424 21.4636 15.8776C21.4636 15.4375 21.4467 15.0143 21.4636 14.5742C21.4805 14.2187 21.3282 14.0833 20.9727 14.1002C20.3972 14.1171 19.8217 14.1002 19.2292 14.1002C18.8737 14.1002 18.7045 13.9817 18.7045 13.5924C18.7383 11.7981 18.4675 12.1367 20.1263 12.1028C21.4467 12.0859 21.4467 12.1028 21.4467 10.7825C21.4467 10.4778 21.4636 10.1731 21.4467 9.86844C21.4128 9.44527 21.6159 9.29292 22.0222 9.30985C23.698 9.32678 23.4271 9.15751 23.4441 10.664C23.461 12.1197 23.4441 12.1197 24.8998 12.1197C24.9336 12.1197 24.9675 12.1197 25.0013 12.1197C25.3907 12.1705 25.8985 11.9166 26.1355 12.2552C26.4232 12.6953 26.2539 13.2708 26.2201 13.7955C26.2032 14.0833 25.9662 14.1002 25.7292 14.1171C25.1368 14.1171 24.5274 14.1341 23.9349 14.1171C23.5625 14.1002 23.4271 14.2695 23.4271 14.6419C23.444 15.1328 23.4271 15.6237 23.4271 16.1145C23.4271 16.8763 23.4271 16.8763 22.6823 16.8763C22.6316 16.8424 22.5469 16.8424 22.4454 16.8424Z" fill="#FF6309"/>
<path d="M6.737 25.2044C5.72137 25.2044 5.72137 25.2044 5.72137 24.1719C5.72137 23.207 5.72137 23.207 6.77085 23.207C7.71877 23.207 7.71877 23.207 7.71877 24.2565C7.71877 25.2044 7.71877 25.2044 6.737 25.2044Z" fill="#FF6309"/>
<path d="M37.3073 7.61715C36.1901 7.61715 36.3255 7.66793 36.3255 6.56767C36.3255 5.61975 36.3255 5.61975 37.3581 5.61975C38.306 5.61975 38.306 5.61975 38.306 6.66923C38.306 7.61715 38.306 7.61715 37.3073 7.61715Z" fill="#FF6309"/>
<path d="M31.6706 46.7187C31.6706 46.6172 31.6537 46.4987 31.6706 46.3971C31.806 45.5677 31.6029 44.9583 30.7057 44.7044C30.3841 44.6198 30.3503 44.3828 30.5195 44.1119C30.5534 44.0612 30.5703 44.0104 30.5873 43.9596C31.1628 42.7747 31.1797 42.7578 32.3307 43.3164C32.7201 43.5026 32.9909 43.3164 33.2787 43.164C34.1927 42.7239 34.0742 42.6054 34.5651 43.6041C34.5651 43.6211 34.582 43.638 34.582 43.6549C35.056 44.6198 35.0899 44.4674 34.1419 44.9244C33.7865 45.0937 33.6341 45.3138 33.6511 45.72C33.6849 46.431 33.6511 47.125 33.6511 47.8359C33.6511 48.1744 33.5326 48.3268 33.1771 48.3268C31.3828 48.2929 31.6875 48.5638 31.6537 46.9218C31.6537 46.8711 31.6706 46.8034 31.6706 46.7187Z" fill="#FF6309"/>
</svg>
