<svg width="60" height="60" viewBox="0 0 60 60" fill="none" xmlns="http://www.w3.org/2000/svg">
<path d="M24.6563 11.8595C28.625 11.8595 32.6094 11.922 36.5781 11.8282C38.9063 11.7813 40.9688 13.297 40.9844 16.1876C41 17.8126 41 19.422 40.9844 21.047C40.9844 21.547 41.1406 21.7032 41.6406 21.6876C44.1406 21.672 46.6406 21.6876 49.1406 21.672C49.9375 21.672 50.4375 21.9845 50.7656 22.7188C52.125 25.7657 53.5156 28.8126 54.9063 31.8438C55.0781 32.2188 55.1406 32.5938 55.1406 32.9845C55.1406 35.9689 55.1406 38.9532 55.1406 41.9376C55.1406 43.1251 54.7031 43.5626 53.5156 43.5782C53.375 43.5782 53.2188 43.5939 53.0781 43.5782C52.6563 43.5314 52.4844 43.7345 52.3594 44.1095C51.7656 45.922 50.5625 47.1564 48.7813 47.8126C45.7656 48.9064 42.4375 47.3282 41.3906 44.297C41.2031 43.7345 40.9375 43.5626 40.3594 43.5782C34.4219 43.5939 28.5 43.5939 22.5625 43.5782C22.0781 43.5782 21.8438 43.6876 21.6719 44.1876C20.8594 46.6251 18.6875 48.1564 16.1563 48.1564C13.6719 48.1564 11.4844 46.5939 10.6875 44.1876C10.5156 43.6876 10.2813 43.547 9.79688 43.5782C9.3125 43.6095 8.82813 43.5939 8.34375 43.5314C6.17188 43.2501 4.625 41.2657 4.90625 39.0939C4.96875 38.6095 4.98438 38.1251 5.04688 37.6407C5.14063 36.9532 5.70313 36.4845 6.35938 36.547C7.01563 36.6095 7.51563 37.2032 7.45313 37.9064C7.42188 38.3751 7.35938 38.8282 7.3125 39.297C7.1875 40.297 7.82813 41.0157 8.8125 41.1095C9.875 41.2032 10.5469 41.047 11.0156 39.8439C11.8906 37.6095 14.2188 36.3439 16.625 36.5626C19.1094 36.797 20.8125 38.1564 21.6719 40.5001C21.8438 40.9845 22.0625 41.1251 22.5625 41.1251C27.625 41.1095 32.7031 41.1095 37.7656 41.1095C38.5 41.1095 38.5156 41.0939 38.5156 40.3595C38.5156 32.3282 38.5156 24.297 38.5156 16.2501C38.5156 15.8126 38.5313 15.3751 38.2813 15.0001C37.9531 14.4845 37.4844 14.2657 36.875 14.2657C32.4219 14.2813 27.9531 14.2657 23.5 14.2657C19.8281 14.2657 16.1719 14.2657 12.5 14.2657C11.5 14.2657 11.1094 14.547 10.7813 15.4845C10.5156 16.2345 9.90625 16.5938 9.23438 16.3907C8.57813 16.1876 8.26563 15.547 8.45313 14.7813C8.90625 13.0313 10.4219 11.8438 12.25 11.8282C16.3906 11.8438 20.5313 11.8595 24.6563 11.8595ZM52.5469 41.1095C52.5938 41.0939 52.6406 41.0939 52.6875 41.0782C52.6875 40.3751 52.6875 39.6564 52.6875 38.9532C52.6875 38.7032 52.5156 38.672 52.3125 38.672C52.0156 38.672 51.7969 38.5626 51.625 38.3282C51.25 37.8282 51.25 36.6095 51.625 36.1251C51.7344 35.9845 51.875 35.8126 52.0625 35.8282C52.7813 35.8907 52.7188 35.4063 52.7031 34.9532C52.7031 34.7501 52.6875 34.5626 52.7031 34.3595C52.75 33.922 52.5625 33.7657 52.1406 33.7032C47.3281 32.9532 43.5781 29.4845 42.375 24.6876C42.2344 24.0938 42.0781 24.0313 41.3438 24.1095C40.8438 24.1563 40.9844 24.5313 40.9844 24.797C40.9844 30.047 40.9844 35.2813 40.9844 40.5314C40.9844 40.7189 40.9375 40.9064 41.1094 41.1251C41.9375 38.422 43.6563 36.7345 46.4688 36.5939C49.6406 36.4376 51.5938 38.1564 52.5469 41.1095ZM16.1719 38.9845C14.2969 38.9845 12.75 40.5314 12.7656 42.3751C12.7969 44.2345 14.2969 45.7189 16.1563 45.7345C18.0469 45.7345 19.6094 44.2189 19.5781 42.3751C19.5625 40.4845 18.0469 38.9845 16.1719 38.9845ZM46.8438 45.7345C48.7031 45.7345 50.2031 44.2345 50.2188 42.3751C50.2344 40.5157 48.7031 38.9845 46.8281 38.9845C44.9375 38.9845 43.4531 40.4689 43.4688 42.3751C43.4688 44.2814 44.9375 45.7345 46.8438 45.7345ZM46.8125 24.1095C46.3125 24.1095 45.8125 24.1251 45.3125 24.1095C44.9063 24.0938 44.75 24.2032 44.8906 24.6407C45.9375 27.9376 48.1094 30.0782 51.4063 31.0938C51.5156 31.1251 51.6563 31.2188 51.7656 31.1095C51.9063 30.9688 51.7813 30.8438 51.7188 30.7188C50.7813 28.6563 49.8438 26.6095 48.9219 24.547C48.7813 24.2501 48.6094 24.1095 48.2656 24.1251C47.7813 24.1251 47.2969 24.1095 46.8125 24.1095Z" fill="#6D6D6D"/>
<path d="M23.2188 34.1406C21.5938 34.1406 19.9844 34.1406 18.3594 34.1406C17.25 34.1406 16.7969 33.6406 16.9062 32.5156C17.0625 30.9062 17.2812 29.3125 17.4687 27.7031C17.6406 26.3125 17.8281 24.9218 17.9687 23.5312C18.0312 22.9218 18.2656 22.4531 18.7656 22.0781C20.2969 20.9218 21.8125 19.7343 23.3281 18.5468C23.6875 18.2656 24.0781 18.125 24.5313 18.1406C27.8594 18.1718 31.1875 18.1875 34.5 18.2187C35.3125 18.2343 35.7813 18.7031 35.7188 19.5312C35.5938 20.9843 35.4219 22.4218 35.25 23.875C35.0625 25.5468 34.8281 27.2187 34.6406 28.9062C34.5781 29.5 34.3281 29.9531 33.8594 30.3125C32.4063 31.4062 30.9688 32.5156 29.5469 33.625C29.0781 34 28.5625 34.1718 27.9531 34.1562C26.3906 34.125 24.7969 34.1406 23.2188 34.1406ZM23.3437 31.7031C24.4375 31.7031 25.5313 31.7031 26.625 31.7031C27.3594 31.7031 27.375 31.6875 27.4531 30.9687C27.6719 28.9843 27.875 27.0156 28.1563 25.0312C28.2344 24.4687 28.0469 24.4062 27.5781 24.4062C25.4063 24.4218 23.2344 24.4062 21.0625 24.4062C20.2969 24.4062 20.2969 24.4062 20.2031 25.1562C19.9687 27.1718 19.75 29.1875 19.5 31.1875C19.4531 31.6093 19.5937 31.6875 19.9531 31.6875C21.0781 31.7031 22.2187 31.7031 23.3437 31.7031ZM33 22.1406C32.2031 22.7656 31.5313 23.2656 30.8906 23.7968C30.7031 23.9531 30.6875 24.2031 30.6563 24.4375C30.5313 25.5625 30.3906 26.6718 30.25 27.7968C30.1563 28.5468 30.0938 29.2968 29.9844 30.2187C30.7969 29.5937 31.4688 29.0625 32.1406 28.5312C32.3125 28.3906 32.2969 28.1875 32.3281 27.9843C32.4531 26.8906 32.5938 25.8125 32.7188 24.7343C32.8125 23.9218 32.8906 23.1093 33 22.1406ZM22.9844 21.875C23 21.9218 23.0313 21.9687 23.0469 22.0156C24.75 22.0156 26.4531 21.9218 28.1406 22.0468C29.375 22.1406 30 21.3281 30.8281 20.75C30.6563 20.5781 30.5 20.625 30.375 20.625C28.75 20.5937 27.1094 20.6562 25.4844 20.5625C25.1875 20.5468 24.8594 20.4687 24.5938 20.6562C24.0469 21.0468 23.5156 21.4687 22.9844 21.875Z" fill="#6D6D6D"/>
</svg>
