<svg width="60" height="60" viewBox="0 0 60 60" fill="none" xmlns="http://www.w3.org/2000/svg">
<path d="M42.2188 2.73438C43.2188 3.04688 44.1406 3.48437 44.8594 4.26562C45.7813 5.28125 46.1875 6.46875 46.1875 7.82812C46.1875 12.0469 46.1875 16.25 46.1875 20.4687C46.1875 31.0625 46.1875 41.6562 46.1875 52.2656C46.1875 54.8437 44.5469 56.8906 42.1094 57.3281C41.1563 57.5 40.1875 57.4062 39.2344 57.375C38.7969 57.3594 38.5 56.9687 38.5313 56.5312C38.5625 56.0937 38.7656 55.7656 39.2344 55.7344C39.7813 55.7031 40.3438 55.7031 40.8906 55.7187C43.25 55.7656 44.5938 54 44.4531 52.1719C44.3906 51.3594 44.4219 50.5312 44.4531 49.7187C44.4688 49.3125 44.3281 49.1406 43.9063 49.1562C43.3594 49.1875 42.7969 49.1562 42.25 49.1562C33.7344 49.1562 25.2188 49.1562 16.7031 49.1562C15.8906 49.1562 15.8906 49.1562 15.8906 49.9844C15.8906 50.7187 15.9375 51.4531 15.875 52.1719C15.7344 54.0156 17.1094 55.7344 19.4531 55.7187C24.3594 55.6875 29.2656 55.7031 34.1719 55.7031C34.3438 55.7031 34.5313 55.6875 34.7031 55.7031C35.1563 55.75 35.4531 56.0625 35.4688 56.5C35.4844 56.9687 35.1719 57.3125 34.7031 57.3594C34.5625 57.375 34.4219 57.3594 34.2813 57.3594C29.2813 57.3594 24.2813 57.2969 19.2969 57.3906C16.8594 57.4375 14.1406 55.5469 14.1406 52.2344C14.1563 37.4219 14.1406 22.6094 14.1406 7.79687C14.1406 5.35937 15.4844 3.54687 17.8125 2.8125C17.9063 2.78125 18.0156 2.73437 18.1094 2.70312C19.2188 2.70312 20.3125 2.70312 21.4219 2.70312C21.7656 3.04687 21.9375 3.4375 21.7188 3.90625C21.5 4.35937 21.0781 4.34375 20.6563 4.34375C20.1719 4.34375 19.7031 4.32812 19.2188 4.34375C17.5625 4.39062 16.3125 5.35937 15.9531 6.89062C15.7813 7.59375 15.8594 7.70312 16.5938 7.70312C25.6406 7.70312 34.6875 7.70312 43.7344 7.70312C44.4531 7.70312 44.5313 7.59375 44.3594 6.89062C43.9844 5.3125 42.7188 4.35937 40.9844 4.34375C37.5469 4.32812 34.125 4.34375 30.6875 4.34375C29.0938 4.34375 27.4844 4.34375 25.8906 4.34375C25.3906 4.34375 25.0625 4.15625 24.9688 3.65625C24.8906 3.26562 25.0938 2.96875 25.3438 2.70312C30.9844 2.73437 36.5938 2.73438 42.2188 2.73438ZM44.4375 28.4844C44.4375 22.3906 44.4375 16.2812 44.4375 10.1875C44.4375 9.48437 44.4375 9.48437 43.7188 9.48437C34.6875 9.48437 25.6563 9.48437 16.625 9.48437C15.8906 9.48437 15.875 9.48437 15.875 10.2187C15.875 22.375 15.875 34.5469 15.875 46.7031C15.875 47.4375 15.875 47.4375 16.6094 47.4375C25.625 47.4375 34.6406 47.4375 43.6563 47.4375C44.4219 47.4375 44.4219 47.4375 44.4219 46.6875C44.4375 40.6094 44.4375 34.5469 44.4375 28.4844Z" fill="#6D6D6D"/>
<path d="M30.125 53.125C29.5469 53.125 28.9531 53.1406 28.375 53.125C27.7812 53.1094 27.4844 52.8281 27.4531 52.3125C27.4375 51.7656 27.7344 51.4063 28.3281 51.4063C29.5469 51.375 30.7656 51.375 32 51.4063C32.5937 51.4219 32.8906 51.7812 32.8594 52.3281C32.8281 52.8437 32.5312 53.1094 31.9375 53.125C31.3281 53.1406 30.7344 53.125 30.125 53.125Z" fill="#6D6D6D"/>
<path d="M29.7188 22.2344C32.0938 22.2344 34.4844 22.2188 36.8594 22.25C37.3125 22.25 37.5 22.1094 37.5469 21.6719C37.6094 21.2031 37.7188 20.7344 37.8125 20.25C38.2031 18.2188 39.9062 17.8906 41.3906 18.1406C41.8125 18.2188 42 18.5625 42 18.9688C41.9844 19.3906 41.7656 19.6875 41.3437 19.7656C41.0625 19.8281 40.7812 19.8125 40.5 19.8125C39.8125 19.8281 39.6094 19.9844 39.4844 20.6406C39.2187 22 38.9687 23.3594 38.7187 24.7188C38.1719 27.6094 37.6406 30.5156 37.0937 33.4062C36.9375 34.2187 36.5781 34.9219 35.9531 35.4687C35.7031 35.6875 35.6563 35.875 35.7969 36.1875C36.2188 37.2031 35.9688 38.2969 35.2188 38.9687C34.4688 39.6562 33.4063 39.8125 32.4844 39.3594C31.5469 38.9062 31.0156 37.9687 31.1094 36.8594C31.1406 36.5312 31.0625 36.4062 30.7344 36.4219C29.9844 36.4375 29.2344 36.4375 28.5 36.4219C28.1406 36.4219 28.0469 36.5625 28.0781 36.9062C28.1719 37.9375 27.75 38.75 26.8594 39.2812C25.9531 39.8125 25.0469 39.7344 24.2031 39.125C23.3594 38.5156 23.0625 37.6562 23.25 36.6406C23.2969 36.375 23.2656 36.1719 23.1719 35.9219C22.9219 35.2969 23.25 34.7812 23.9219 34.6875C24.1094 34.6719 24.3125 34.6719 24.5156 34.6719C27.4844 34.6719 30.4531 34.6719 33.4219 34.6719C34.3594 34.6719 35.0156 34.2344 35.3125 33.4687C35.4844 33 35.4375 32.9219 34.9219 32.9219C31.3906 32.9219 27.8438 32.9219 24.3125 32.9219C22.8594 32.9219 22.2188 32.375 21.9219 30.9531C21.5 28.8281 21.0469 26.7031 20.625 24.5781C20.3594 23.2813 21.25 22.2031 22.5938 22.1875C24.9531 22.2188 27.3438 22.2344 29.7188 22.2344ZM29.7031 23.9688C27.5 23.9688 25.2969 23.9688 23.0938 23.9688C22.2344 23.9688 22.2188 23.9844 22.3906 24.7969C22.7813 26.75 23.1875 28.6875 23.5781 30.6406C23.6563 31.0625 23.8594 31.2344 24.2969 31.2344C27.9375 31.2187 31.5781 31.2187 35.2188 31.2344C35.6562 31.2344 35.8125 31.0625 35.875 30.6719C36.2344 28.6562 36.5938 26.6562 36.9688 24.6406C37.0781 24 37.0781 23.9688 36.4219 23.9688C34.1875 23.9688 31.9531 23.9688 29.7031 23.9688ZM33.5469 36.4844C33.1406 36.4844 32.8594 36.7812 32.8594 37.1875C32.8594 37.625 33.1563 37.9219 33.5938 37.9062C33.9844 37.8906 34.2969 37.5781 34.2969 37.2031C34.2969 36.7969 33.9531 36.4844 33.5469 36.4844ZM26.3906 37.1875C26.3906 36.7969 26.0313 36.4531 25.625 36.4844C25.1719 36.5156 24.9531 36.7656 24.9531 37.2031C24.9531 37.6406 25.2656 37.9219 25.7031 37.9062C26.0781 37.9062 26.3906 37.5625 26.3906 37.1875Z" fill="#6D6D6D"/>
</svg>
