<?xml version="1.0" encoding="utf-8"?>
<!-- Generator: Adobe Illustrator 27.9.0, SVG Export Plug-In . SVG Version: 6.00 Build 0)  -->
<svg version="1.1" id="Capa_1" xmlns="http://www.w3.org/2000/svg" xmlns:xlink="http://www.w3.org/1999/xlink" x="0px" y="0px"
	 viewBox="0 0 166 166" style="enable-background:new 0 0 166 166;" xml:space="preserve">
<style type="text/css">
	.st0{fill:#383838;}
</style>
<g>
	<path class="st0" d="M158,51.8c0,3,0,6,0,9.1c-0.1,0.4-0.2,0.8-0.2,1.1c-1.3,7.6-4.9,13.7-11.2,18.1c-3.4,2.4-7.1,4-11.1,5.1
		c-3.6,1-7.2,1.6-10.9,1.9c-1.3,0.1-1.9,0.6-1.8,2c0.1,2.4,0,4.8,0,7.2c0.1,7.2,2.6,13.5,7.7,18.7c2,2,3.9,3.9,5.9,5.9
		c0.4,0.4,1.1,0.7,0.9,1.2c-0.2,0.6-1,0.3-1.6,0.3c-2.9,0-5.8,0-8.8,0c-9.8-0.1-17.7-4-23.9-11.5c-0.4-0.5-0.6-1.1-1.3-1.3
		c-0.1,0.1-0.2,0.2-0.2,0.4c-2.1,16-3.5,32-5.4,48c-8.6,0-17.2,0-25.7,0c-1.8-16.1-3.5-32.3-5.3-48.4c-0.9,0.1-1,0.7-1.3,1
		c-4.8,6-10.9,9.8-18.4,11.3c-5,1-10,0.4-15,0.5c-0.4,0-1,0.2-1.2-0.3c-0.2-0.5,0.4-0.7,0.7-1c2.1-2.1,4.3-4.3,6.4-6.4
		c3.7-3.8,6-8.2,7-13.4c0.7-3.8,0.4-7.7,0.5-11.5c0-2.4,0-2.5-2.5-2.7c-4.1-0.3-8.2-1.1-12.1-2.4c-8.7-2.9-15.6-8-18.9-17
		C7.5,61.1,7.6,54.3,9,47.5c3-13.7,9.6-25.2,21.1-33.4c10.7-7.6,22-8.1,33.5-1.4c1,0.6,1.7,0.5,2.7,0c11.1-6.1,22.3-6.2,33.5-0.1
		c1.1,0.6,1.9,0.6,3,0c10.1-5.9,20.4-6,30.5-0.2c8.9,5.1,14.9,12.9,19.4,22.1C155.5,39.9,157.1,45.8,158,51.8z M83.1,149.1
		c1.1,0,2.2,0,3.4,0c1,0,1.4-0.4,1.5-1.3c0.8-7.4,1.6-14.7,2.4-22.1c0.6-5.6,1.1-11.1,1.9-16.7c1.4-8.8,5.5-16.4,11.1-23.2
		c3.6-4.3,6.3-9.2,7.9-14.5c0.4-1.4,1.2-2.1,2.5-2.7c5-2,9.6-6.6,8.4-14.4c-0.8-5-4-8.1-8.5-9.9c-1.3-0.5-1.9-1.2-2.3-2.5
		c-1.8-5.4-4.4-10.4-8.1-14.8c-10.8-12.9-28.7-13.2-39.8-0.6c-3.8,4.3-6.5,9.1-8.3,14.5c-0.6,1.8-1.5,2.9-3.4,3.7
		c-6.5,2.8-9.4,9-7.5,15.6c1.2,4.4,4.3,6.9,8.4,8.5c0.9,0.4,1.7,0.8,2,1.9c1.8,5.9,4.8,11.1,8.7,15.9c5.4,6.6,9.3,14.1,10.6,22.6
		c1,6.3,1.5,12.8,2.2,19.1c0.7,6.5,1.4,13,2.1,19.5c0.1,0.9,0.5,1.3,1.4,1.3C80.8,149.1,81.9,149.1,83.1,149.1z M149.1,57
		c-0.1-5.9-1.3-11.2-3.5-16.2C142,32.4,137,25.2,129,20.4c-6-3.6-12.2-4.2-18.7-1.5c-1.1,0.4-1.4,0.8-0.5,1.8
		c3.8,4.2,6.6,8.9,8.7,14.1c0.5,1.3,1.2,2.2,2.4,2.9c12.5,7.7,14.2,25.2,3.4,35c-1.3,1.2-1.7,2.4-1.6,4.1c0.1,1.1,0.5,1.4,1.5,1.3
		c4.2-0.5,8.4-1.1,12.4-2.8C146.1,71.3,148.8,64.5,149.1,57z M17.1,56.6c0.1,0.9,0.2,1.8,0.3,2.8c0.5,5.7,3,10.2,7.7,13.5
		c5.2,3.5,11.1,4.6,17.1,5.2c0.5,0.1,1,0,1.2-0.6c0.4-1.1-0.1-3.4-1-4.2c-11.6-10.3-10-28,3.3-35.9c0.8-0.4,1.3-1,1.6-1.8
		c2.1-5.5,5.1-10.5,9.1-14.9c0.8-0.9,0.6-1.3-0.4-1.8c-4.2-1.8-8.4-2.2-12.9-1.1c-2.8,0.7-5.4,1.9-7.6,3.6
		C23.9,30.2,18.2,42.2,17.1,56.6z M113.6,87.8c-2.3,2.9-4.7,5.6-6.6,8.6c-0.6,1-0.7,1.8-0.3,2.9c1.5,3.8,3.8,7,7,9.5
		c0.8,0.6,1.5,1.2,2.9,1.7C113,103,113.8,95.3,113.6,87.8z M52.7,87.8c-0.2,7.6,0.6,15.2-2.9,22.5c0.6-0.1,0.8-0.1,0.9-0.2
		c4.4-2.7,7.4-6.5,9.2-11.4c0.3-0.8,0-1.5-0.4-2.2C57.4,93.4,55,90.7,52.7,87.8z"/>
	<path class="st0" d="M61.3,56.6c0,1.1,0,2.2,0,3.4c0,0.7-0.3,1.1-1.1,1.1c-2.3,0-4.6,0-6.9,0c-0.7,0-1.1-0.3-1.1-1.1
		c0-2.3,0-4.6,0-6.9c0-0.7,0.3-1.1,1.1-1.1c2.3,0,4.6,0,6.9,0c0.7,0,1.1,0.3,1.1,1.1C61.3,54.2,61.3,55.4,61.3,56.6z"/>
	<path class="st0" d="M109.6,52c4.4,0,4.4,0,4.4,4.3c0,1.2,0,2.3,0,3.5c0,0.8-0.3,1.2-1.1,1.2c-2.2,0-4.5,0-6.7,0
		c-0.8,0-1.2-0.3-1.2-1.1c0-2.2,0-4.5,0-6.7c0-0.9,0.5-1.2,1.3-1.2C107.3,52,108.5,52,109.6,52z"/>
</g>
</svg>
