<svg width="73" height="73" viewBox="0 0 73 73" fill="none" xmlns="http://www.w3.org/2000/svg">
<path d="M36.5381 70.7757C26.4435 70.7757 16.33 70.7757 6.23546 70.7757C3.72608 70.7757 2.37634 69.426 2.37634 66.9166C2.37634 66.3463 2.37634 65.776 2.37634 65.2057C2.39535 64.2742 2.79457 63.875 3.72608 63.8559C4.65759 63.8369 4.65759 63.8369 4.65759 62.9054C4.65759 49.7692 4.65759 36.633 4.65759 23.4968C4.65759 22.033 4.94275 21.7289 6.38754 21.7289C16.2349 21.7289 26.0633 21.7289 35.9107 21.7479C36.5381 21.7479 36.9753 21.5578 37.3935 21.1205C39.2566 19.1625 40.8154 17.0143 41.9941 14.581C42.3362 13.8776 42.3362 13.8776 41.5378 13.8776C40.6823 13.8776 39.8269 13.8586 38.9714 13.8776C38.4201 13.8776 37.9829 13.6875 37.7547 13.1742C37.5266 12.6419 37.6597 12.1666 38.0779 11.7484C41.0435 8.78278 44.0092 5.81715 46.9938 2.85153C47.6401 2.20517 48.2675 2.20517 48.9138 2.85153C51.8795 5.79814 54.8261 8.74476 57.7727 11.6914C58.2099 12.1286 58.381 12.6039 58.1339 13.1742C57.8868 13.7255 57.4305 13.8776 56.8602 13.8776C55.2253 13.8586 53.5904 13.8776 51.9555 13.8776C51.5563 13.8776 51.2901 13.9346 51.2141 14.4099C50.929 16.7481 50.4347 19.0294 49.6933 21.2726C49.5792 21.6148 49.6743 21.7669 50.0355 21.7479C50.2636 21.7479 50.5107 21.7479 50.7388 21.7479C56.1188 21.7479 61.4987 21.7479 66.8977 21.7479C68.1524 21.7479 68.4946 22.0901 68.4946 23.3638C68.4946 36.519 68.4946 49.6932 68.4946 62.8484C68.4946 63.8369 68.4946 63.8369 69.4831 63.875C70.3196 63.913 70.7378 64.3122 70.7568 65.1677C70.7758 65.8711 70.7758 66.5935 70.7568 67.2968C70.7378 69.331 69.293 70.7948 67.2589 70.7948C60.054 70.7948 52.849 70.7948 45.625 70.7948C42.6024 70.7757 39.5797 70.7757 36.5381 70.7757ZM33.4774 24.1052C33.2493 24.1052 33.0021 24.1052 32.774 24.1052C24.5425 24.1052 16.311 24.1052 8.07947 24.1052C7.01488 24.1052 7.01489 24.1052 7.01489 25.1317C7.01489 37.6976 7.01489 50.2635 7.01489 62.8294C7.01489 63.0195 7.01489 63.2096 7.01489 63.3997C7.01489 63.6849 7.14796 63.8369 7.45212 63.8369C7.68025 63.8369 7.92739 63.8369 8.15551 63.8369C9.18207 63.8369 9.18207 63.8369 9.18207 62.7724C9.18207 54.6359 9.18207 46.4994 9.18207 38.363C9.18207 34.808 9.18207 31.2531 9.18207 27.6981C9.18207 26.6716 9.58129 26.2724 10.5888 26.2724C11.3683 26.2724 12.1667 26.3104 12.9271 26.2534C13.6875 26.1963 13.8586 26.5005 13.8396 27.1849C13.7826 28.8578 13.9917 28.6297 12.3948 28.6297C11.7675 28.6297 11.5394 28.7817 11.5394 29.4661C11.5584 40.6632 11.5584 51.8604 11.5394 63.0385C11.5394 63.6658 11.7105 63.8559 12.3378 63.8559C28.4586 63.8369 44.5795 63.8369 60.7193 63.8559C61.3847 63.8559 61.5558 63.6468 61.5558 63.0005C61.5368 51.8224 61.5368 40.6632 61.5558 29.4851C61.5558 28.7627 61.3086 28.6297 60.6623 28.6297C57.6586 28.6677 54.636 28.6487 51.6323 28.6487C49.9784 28.6487 50.2256 28.8768 50.1495 27.1658C50.1115 26.4054 50.4157 26.2724 51.1 26.2724C54.8451 26.2914 58.5901 26.2914 62.3352 26.2914C63.5899 26.2914 63.9321 26.6336 63.9321 27.9073C63.9321 32.831 63.9321 37.7737 63.9321 42.6974C63.9321 49.4841 63.9321 56.2708 63.9131 63.0385C63.9131 63.6468 64.0652 63.932 64.7115 63.8369C64.8446 63.8179 64.9967 63.8369 65.1297 63.8369C66.0993 63.8369 66.0993 63.8369 66.0993 62.8484C66.0993 50.2255 66.0993 37.6216 66.1183 24.9987C66.1183 24.2953 65.9662 24.0672 65.2248 24.0672C59.9589 24.1052 54.693 24.0862 49.4271 24.0672C48.8188 24.0672 48.5146 24.2382 48.2485 24.8086C44.3513 33.1922 38.1159 39.1804 29.5993 42.7924C25.3789 44.5794 20.8925 45.1877 16.387 45.701C15.3224 45.8151 14.8662 45.3398 14.8662 44.2562C14.8662 39.4656 14.8662 34.675 14.8662 29.8843C14.8662 28.5726 15.3605 28.1544 16.6912 28.3065C20.3412 28.7057 23.9342 28.4205 27.4321 27.2609C29.6183 26.5385 31.6524 25.55 33.4774 24.1052ZM41.918 11.4823C42.6404 11.4823 43.3438 11.4632 44.0472 11.4823C45.0167 11.5013 45.492 12.1856 45.2448 13.1172C45.1878 13.3453 45.0928 13.5734 44.9977 13.7825C42.3743 20.151 38.0209 24.9036 31.8995 28.0213C27.5842 30.2265 22.9646 31.139 18.136 30.8919C17.4326 30.8539 17.2425 31.063 17.2425 31.7664C17.2805 35.2833 17.2615 38.7812 17.2615 42.2981C17.2615 43.0776 17.3566 43.1536 18.136 43.0586C19.3336 42.8875 20.5313 42.7544 21.7289 42.5263C33.0021 40.4351 41.1006 34.1807 46.0623 23.877C47.7352 20.3791 48.6097 16.6531 48.9329 12.794C49.0089 11.9195 49.4271 11.5203 50.3016 11.5013C51.3662 11.4823 52.4308 11.5013 53.4954 11.4823C53.6665 11.4823 53.8756 11.5773 54.0277 11.3302C52.1646 9.46715 50.3016 7.62314 48.4576 5.74111C48.0394 5.30387 47.8112 5.39892 47.45 5.77913C45.7581 7.50908 44.0282 9.20101 42.3362 10.9119C42.1651 11.064 41.956 11.1591 41.918 11.4823ZM36.6521 66.2132C28.0214 66.2132 19.3907 66.2132 10.7599 66.2132C8.97296 66.2132 7.20499 66.2323 5.41801 66.2132C4.94275 66.2132 4.73363 66.3273 4.73363 66.8596C4.75265 67.9622 5.17087 68.3994 6.36853 68.3994C26.5006 68.3994 46.6326 68.3994 66.7646 68.3994C67.0688 68.3994 67.373 68.3994 67.6771 68.2854C68.2284 68.0382 68.5706 67.2778 68.3805 66.5935C68.2284 65.9851 67.7151 66.2513 67.373 66.2513C57.1263 66.2132 46.8987 66.2132 36.6521 66.2132Z" fill="white"/>
<path d="M30.835 4.61951C30.835 4.0492 30.854 3.47889 30.835 2.90858C30.835 2.52837 30.987 2.37628 31.3863 2.35727C33.2113 2.2242 33.2113 2.20519 33.2113 4.0492C33.2113 4.23931 33.2113 4.42941 33.2113 4.61951C33.1732 4.65754 33.1352 4.71457 33.0972 4.75259C32.3748 4.75259 31.6524 4.75259 30.949 4.75259C30.911 4.71457 30.873 4.67655 30.835 4.61951Z" fill="white"/>
<path d="M30.8159 7.01485C30.3406 7.01485 29.8654 6.97683 29.4091 7.01485C28.7057 7.09089 28.5346 6.78672 28.5536 6.12136C28.6107 4.39141 28.3635 4.65756 30.0745 4.61954C30.3406 4.61954 30.5877 4.60052 30.8539 4.60052C30.8919 4.63855 30.9299 4.69558 30.968 4.7336C30.968 5.45599 30.968 6.17839 30.968 6.88177C30.8919 6.95782 30.8539 6.97683 30.8159 7.01485Z" fill="white"/>
<path d="M33.2112 4.61951C33.8006 4.61951 34.3899 4.63852 34.9792 4.63852C35.3404 4.63852 35.5115 4.7906 35.4925 5.1518C35.4925 5.17081 35.4925 5.18982 35.4925 5.22784C35.4735 7.43305 35.7396 6.9768 33.8006 7.01482C33.6104 7.01482 33.4203 7.01482 33.2302 7.01482C33.1922 6.9768 33.1352 6.93878 33.0972 6.90076C33.0972 6.17836 33.0972 5.45597 33.0972 4.75258C33.1352 4.71456 33.1732 4.67654 33.2112 4.61951Z" fill="white"/>
<path d="M33.2302 7.01485C33.2302 7.58516 33.1922 8.13647 33.2112 8.70678C33.2302 9.12501 33.0401 9.2961 32.6219 9.2961C30.4357 9.27709 30.892 9.52423 30.8349 7.66121C30.8349 7.45209 30.8159 7.24298 30.8159 7.03386C30.8539 6.99584 30.911 6.95782 30.949 6.9198C31.6714 6.9198 32.3938 6.9198 33.0972 6.9198C33.1352 6.95782 33.1732 6.99584 33.2302 7.01485Z" fill="white"/>
<path d="M62.7155 9.2961C61.5558 9.2961 61.5558 9.2961 61.5558 8.07943C61.5558 6.78673 61.4608 6.93881 62.8485 6.9198C63.9321 6.9198 63.9321 6.9198 63.9321 8.21251C63.9321 9.2961 63.9321 9.2961 62.7155 9.2961Z" fill="white"/>
<path d="M28.6488 12.6039C28.6298 13.9537 28.7628 13.8396 27.4321 13.8396C26.2725 13.8396 26.2725 13.8396 26.2725 12.6419C26.2725 11.4823 26.2725 11.4823 27.4891 11.4823C28.6488 11.4823 28.6488 11.4823 28.6488 12.6039Z" fill="white"/>
<path d="M66.1183 13.7255C66.1183 13.1552 66.1373 12.5849 66.1183 12.0146C66.1183 11.6344 66.2704 11.4823 66.6696 11.4633C68.4946 11.3302 68.4946 11.3112 68.4946 13.1552C68.4946 13.3453 68.4946 13.5354 68.4946 13.7255C68.4566 13.7636 68.4186 13.8206 68.3805 13.8586C67.6581 13.8586 66.9357 13.8586 66.2323 13.8586C66.1943 13.8206 66.1563 13.7826 66.1183 13.7255Z" fill="white"/>
<path d="M66.0993 16.1398C65.6241 16.1398 65.1488 16.1018 64.6925 16.1398C63.9892 16.2159 63.8181 15.9117 63.8371 15.2464C63.8941 13.5164 63.647 13.7826 65.3579 13.7445C65.6241 13.7445 65.8712 13.7255 66.1373 13.7255C66.1754 13.7635 66.2134 13.8206 66.2514 13.8586C66.2514 14.581 66.2514 15.3034 66.2514 16.0068C66.1944 16.0638 66.1373 16.1018 66.0993 16.1398Z" fill="white"/>
<path d="M68.4946 13.7255C69.0839 13.7255 69.6732 13.7445 70.2625 13.7445C70.6237 13.7445 70.7948 13.8966 70.7758 14.2578C70.7758 14.2768 70.7758 14.2958 70.7758 14.3339C70.7568 16.5391 71.0229 16.0828 69.0839 16.1208C68.8938 16.1208 68.7037 16.1208 68.5136 16.1208C68.4755 16.0828 68.4185 16.0448 68.3805 16.0068C68.3805 15.2844 68.3805 14.562 68.3805 13.8586C68.4185 13.8206 68.4565 13.7826 68.4946 13.7255Z" fill="white"/>
<path d="M68.5136 16.1399C68.5136 16.7102 68.4755 17.2615 68.4946 17.8318C68.5136 18.25 68.3235 18.4211 67.9052 18.4211C65.719 18.4021 66.1753 18.6492 66.1182 16.7862C66.1182 16.5771 66.0992 16.368 66.0992 16.1589C66.1373 16.1208 66.1943 16.0828 66.2323 16.0448C66.9547 16.0448 67.6771 16.0448 68.3805 16.0448C68.4375 16.0638 68.4755 16.1018 68.5136 16.1399Z" fill="white"/>
<path d="M36.519 62.8104C29.295 62.8104 22.0521 62.8104 14.8281 62.8104C13.7635 62.8104 13.7445 62.8104 13.7635 61.7838C13.7635 60.282 13.6115 60.4531 15.0753 60.4341C15.8357 60.4341 16.5961 60.4341 17.3565 60.4341C18.307 60.4341 18.307 60.4341 18.307 59.4456C18.307 56.1567 18.307 52.8489 18.307 49.5601C18.307 48.2484 18.6302 47.9252 19.9419 47.9252C21.976 47.9252 24.0292 47.9252 26.0633 47.9252C27.1279 47.9252 27.5081 48.3245 27.5081 49.389C27.5081 52.8109 27.5271 56.2138 27.4891 59.6357C27.4891 60.244 27.6411 60.4911 28.2875 60.4531C29.257 60.3961 30.2266 60.4151 31.1961 60.4531C31.8044 60.4721 31.9565 60.263 31.9565 59.6737C31.9375 54.4648 31.9375 49.237 31.9375 44.0281C31.9375 42.5073 32.2036 42.2411 33.7055 42.2411C35.7016 42.2411 37.6976 42.2411 39.6747 42.2411C40.7393 42.2411 41.1385 42.6403 41.1385 43.7049C41.1385 48.9518 41.1385 54.1797 41.1385 59.4265C41.1385 60.4531 41.1385 60.4531 42.2031 60.4531C43.0586 60.4531 43.9141 60.4151 44.7695 60.4721C45.4159 60.5101 45.625 60.301 45.625 59.6357C45.606 54.826 45.606 50.0164 45.606 45.1877C45.606 41.6708 45.606 38.1729 45.606 34.656C45.606 33.4963 45.9672 33.1351 47.1458 33.1351C49.1419 33.1351 51.138 33.1351 53.1151 33.1351C54.4838 33.1351 54.807 33.4583 54.807 34.808C54.807 43.0396 54.807 51.2711 54.807 59.5026C54.807 60.4721 54.807 60.4721 55.7766 60.4721C56.7461 60.4721 57.7156 60.4911 58.6851 60.4721C59.1794 60.4531 59.3505 60.6432 59.3505 61.1375C59.3125 63.1906 59.5786 62.8484 57.6776 62.8484C50.6628 62.8104 43.5909 62.8104 36.519 62.8104ZM48.0013 47.9633C48.0013 51.8794 48.0013 55.7765 48.0013 59.6927C48.0013 60.225 48.1154 60.4721 48.7237 60.4531C49.7312 60.4151 50.7578 60.4151 51.7844 60.4531C52.2976 60.4721 52.4878 60.301 52.4878 59.7687C52.4687 51.8984 52.4687 44.0471 52.4878 36.1768C52.4878 35.6255 52.2786 35.4924 51.7654 35.4924C50.7958 35.5114 49.8263 35.5304 48.8568 35.4924C48.2104 35.4544 48.0013 35.6635 48.0013 36.3289C48.0203 40.188 48.0013 44.0661 48.0013 47.9633ZM38.8003 52.5448C38.8003 50.1304 38.7812 47.7161 38.8003 45.3018C38.8003 44.8075 38.6862 44.5604 38.1349 44.5794C37.0893 44.6174 36.0437 44.5984 35.0172 44.5794C34.5419 44.5604 34.3518 44.7125 34.3518 45.2258C34.3708 50.0734 34.3708 54.9401 34.3518 59.7877C34.3518 60.301 34.5419 60.4341 35.0172 60.4341C36.0057 60.4151 37.0133 60.3961 38.0018 60.4341C38.6101 60.4531 38.8383 60.282 38.8193 59.6357C38.7812 57.2784 38.8003 54.9021 38.8003 52.5448ZM20.6833 55.3393C20.6833 56.8031 20.7023 58.2669 20.6833 59.7307C20.6643 60.263 20.8544 60.4341 21.3867 60.4151C22.4323 60.3771 23.4779 60.3961 24.5044 60.4151C24.9987 60.4341 25.1508 60.225 25.1508 59.7497C25.1318 56.7841 25.1318 53.8375 25.1508 50.8719C25.1508 50.4156 24.9797 50.2445 24.5234 50.2445C23.4588 50.2635 22.3943 50.2635 21.3297 50.2445C20.8354 50.2255 20.6643 50.4346 20.6833 50.9099C20.7023 52.4117 20.6833 53.8755 20.6833 55.3393Z" fill="white"/>
<path d="M18.3071 38.5151C18.3071 38.325 18.2881 38.1349 18.3071 37.9448C18.3641 37.4885 18.06 36.8422 18.5162 36.633C19.0675 36.3669 19.7709 36.5 20.3982 36.576C20.7214 36.614 20.6644 36.9182 20.6644 37.1463C20.7594 38.7432 20.7594 38.7432 22.3373 38.42C24.5045 37.9638 26.5576 37.1653 28.4396 35.9487C28.9529 35.6255 29.2191 35.6445 29.5613 36.1768C30.5118 37.6406 30.5308 37.6216 29.01 38.458C26.1774 40.0549 23.1547 41.0054 19.904 41.1765C18.6683 41.2336 18.3071 40.8534 18.2881 39.5987C18.3071 39.2185 18.3071 38.8573 18.3071 38.5151Z" fill="white"/>
<path d="M20.6834 33.1542C20.6834 34.3328 20.6834 34.3328 19.4858 34.3328C18.3071 34.3328 18.3071 34.3328 18.3071 33.0591C18.3071 31.9375 18.3071 31.9375 19.5808 31.9565C20.6834 31.9755 20.6834 31.9755 20.6834 33.1542Z" fill="white"/>
</svg>
