<svg width="55" height="55" viewBox="0 0 55 55" fill="none" xmlns="http://www.w3.org/2000/svg">
<path d="M7.16141 1.96216C7.69136 2.29159 7.61975 2.82153 7.5911 3.30851C7.56246 3.78117 7.70569 3.95304 8.19266 3.93872C9.30985 3.91007 10.427 3.9244 11.5442 3.9244C12.1744 3.9244 12.4895 4.19653 12.4895 4.69783C12.4895 5.19914 12.1744 5.48559 11.5585 5.48559C10.4127 5.48559 9.25256 5.49992 8.10673 5.48559C7.70569 5.48559 7.54813 5.6145 7.60542 6.00122C7.60542 6.02987 7.60542 6.07283 7.60542 6.10148C7.60542 7.39054 7.50516 7.50513 6.2161 7.47648C5.72912 7.46216 5.60022 7.61971 5.60022 8.09236C5.61454 13.6783 5.61454 19.2499 5.60022 24.8358C5.60022 25.2512 5.70048 25.4374 6.15881 25.4231C6.64579 25.4088 6.96089 25.6952 6.97522 26.1822C7.00386 27.0845 7.00386 27.9869 6.97522 28.8749C6.96089 29.4049 6.64579 29.6627 6.0872 29.6627C5.70048 29.6627 5.61454 29.8059 5.61454 30.164C5.62886 35.8072 5.62886 41.4647 5.61454 47.108C5.61454 47.466 5.72912 47.6236 6.10152 47.595C7.51949 47.509 7.69136 47.7812 7.61975 49.0989C7.60542 49.4713 7.73433 49.6002 8.10673 49.5858C13.75 49.5715 19.4075 49.5715 25.0507 49.5858C25.4518 49.5858 25.5664 49.4569 25.5664 49.0702C25.5664 48.5259 25.8528 48.2252 26.3971 48.2108C27.2565 48.1822 28.1302 48.1822 28.9895 48.2108C29.5195 48.2252 29.8203 48.5403 29.8059 49.0702C29.7916 49.5285 30.0065 49.5858 30.3788 49.5858C33.5872 49.5715 36.8098 49.5858 40.0182 49.5858C40.19 49.5858 40.3476 49.5858 40.5195 49.5858C41.0064 49.6145 41.3072 49.9153 41.3072 50.3736C41.3072 50.8319 41.0064 51.1184 40.5051 51.147C40.3619 51.1614 40.2044 51.147 40.0611 51.147C36.8671 51.147 33.6588 51.147 30.4648 51.1327C30.0208 51.1327 29.7773 51.19 29.8059 51.72C29.8346 52.1926 29.5052 52.4934 29.0182 52.5077C28.1302 52.5364 27.2565 52.5364 26.3684 52.5077C25.8385 52.4934 25.552 52.1783 25.5664 51.634C25.5807 51.2187 25.3945 51.1327 25.0364 51.1327C19.4075 51.147 13.7786 51.147 8.1497 51.1327C7.74865 51.1327 7.63407 51.2616 7.63407 51.6483C7.63407 53.095 7.57678 53.1379 6.14449 53.1379C5.09892 53.1379 4.03902 53.1379 2.99345 53.1379C2.34892 53.1379 2.07678 52.8801 2.07678 52.2356C2.06246 50.9895 2.06246 49.7434 2.07678 48.483C2.07678 47.8384 2.34892 47.5806 2.99345 47.5663C4.06767 47.5377 4.06767 47.5377 4.06767 46.4778C4.06767 41.0924 4.06767 35.7213 4.08199 30.3358C4.08199 29.8632 4.03902 29.5767 3.45178 29.6197C3.00777 29.6483 2.73564 29.3046 2.72131 28.8892C2.67834 27.9726 2.69267 27.0559 2.72131 26.1392C2.73564 25.6379 3.06506 25.3658 3.59501 25.3801C4.01037 25.3944 4.09631 25.2226 4.09631 24.8502C4.08199 19.2213 4.08199 13.5924 4.09631 7.96346C4.09631 7.57674 3.98173 7.44783 3.58069 7.44783C2.10543 7.44783 2.09111 7.40486 2.09111 5.91528C2.09111 4.89836 2.10543 3.88143 2.09111 2.8645C2.09111 2.46346 2.19137 2.14836 2.53512 1.91919C4.0247 1.96216 5.60022 1.96216 7.16141 1.96216ZM4.76949 5.92961C6.0299 5.92961 6.0299 5.9296 6.0299 4.68351C6.0299 3.49471 6.02991 3.49471 4.86975 3.49471C3.60933 3.49471 3.60933 3.49471 3.60933 4.7408C3.59501 5.9296 3.59501 5.92961 4.76949 5.92961ZM6.0299 50.4309C6.0299 49.1848 6.02991 49.1848 4.78381 49.1848C3.60933 49.1848 3.60933 49.1848 3.60933 50.3593C3.60933 51.6054 3.60933 51.6054 4.85543 51.6054C6.02991 51.6054 6.0299 51.6054 6.0299 50.4309ZM4.82678 28.1015C5.35673 28.2017 5.32808 27.858 5.34241 27.4999C5.37105 27.0702 5.17053 26.9843 4.78381 26.97C4.28251 26.9556 4.28251 27.2278 4.26819 27.5858C4.25386 28.0155 4.41142 28.1874 4.82678 28.1015ZM27.6575 49.8723C27.2421 49.8007 27.0559 49.9439 27.0703 50.4022C27.0703 50.8319 27.2421 50.9322 27.6288 50.9322C28.0442 50.9322 28.2304 50.8463 28.2161 50.3736C28.2161 49.9582 28.0729 49.8007 27.6575 49.8723Z" fill="#6D6D6D"/>
<path d="M53.2382 52.7369C53.009 53.0663 52.6939 53.1809 52.2929 53.1809C51.0754 53.1666 49.858 53.1809 48.6405 53.1666C47.9673 53.1666 47.7095 52.9088 47.7095 52.2213C47.6952 51.1614 47.6952 51.1614 46.6496 51.1614C45.8189 51.1614 44.9882 51.1614 44.1574 51.1614C43.5416 51.1614 43.2121 50.8749 43.2265 50.3736C43.2265 49.8723 43.5559 49.6002 44.1718 49.6002C45.1744 49.6002 46.177 49.5858 47.1653 49.6002C47.5663 49.6145 47.7668 49.4999 47.7095 49.0702C47.7095 49.0559 47.7095 49.0416 47.7095 49.0272C47.7239 47.6809 47.7955 47.595 49.1132 47.6093C49.5572 47.6093 49.7147 47.509 49.7147 47.022C49.7004 41.4218 49.7004 35.8358 49.7147 30.2356C49.7147 29.8632 49.6574 29.6483 49.1991 29.6627C48.6548 29.677 48.3541 29.3762 48.3254 28.8463C48.2968 27.9869 48.2968 27.1132 48.3254 26.2538C48.3397 25.7095 48.6405 25.4231 49.1848 25.4231C49.5715 25.4231 49.7147 25.3228 49.7004 24.9075C49.6861 19.2642 49.6861 13.621 49.7004 7.96346C49.7004 7.59106 49.5858 7.47648 49.2134 7.47648C47.7239 7.46216 47.7239 7.44783 47.7095 5.97257C47.7095 5.60018 47.5949 5.48559 47.2225 5.48559C41.5793 5.49992 35.9361 5.49992 30.2785 5.48559C29.8775 5.48559 29.7629 5.6145 29.7629 6.00122C29.7629 6.54549 29.4765 6.84627 28.9322 6.86059C28.0728 6.88924 27.1991 6.88924 26.3397 6.86059C25.8098 6.84627 25.509 6.53117 25.5233 6.00122C25.5377 5.55721 25.3371 5.48559 24.9504 5.48559C21.871 5.49992 18.7916 5.48559 15.7121 5.48559C15.5403 5.48559 15.3827 5.49992 15.2108 5.47127C14.7955 5.41398 14.509 5.08455 14.5233 4.68351C14.5377 4.26815 14.7812 4.01033 15.1965 3.93872C15.3541 3.91007 15.5259 3.9244 15.6978 3.9244C18.7772 3.9244 21.8567 3.91007 24.9361 3.93872C25.3515 3.93872 25.5377 3.85278 25.5233 3.39445C25.509 2.89315 25.8098 2.57804 26.3254 2.56372C27.2134 2.53507 28.0871 2.53507 28.9752 2.56372C29.5051 2.57804 29.7772 2.89315 29.7629 3.45174C29.7629 3.82414 29.8918 3.93872 30.2642 3.93872C35.9074 3.9244 41.5507 3.9244 47.2082 3.93872C47.6236 3.93872 47.7239 3.79549 47.7095 3.40877C47.6952 2.89315 47.5806 2.32023 48.1392 1.96216C49.7434 1.96216 51.3332 1.96216 52.9374 1.96216C53.1809 1.96216 53.2525 2.01945 53.2382 2.26294C53.2238 3.86711 53.2382 5.45695 53.2382 7.06111C52.8801 7.61971 52.3072 7.50513 51.7916 7.4908C51.4048 7.47648 51.2616 7.59106 51.2616 7.9921C51.2759 13.6353 51.2759 19.2929 51.2616 24.9361C51.2616 25.3085 51.3762 25.4231 51.7486 25.4231C52.3072 25.4231 52.6223 25.6952 52.6366 26.2252C52.6653 27.1132 52.6653 27.9869 52.6366 28.8749C52.6223 29.3905 52.3072 29.6913 51.8059 29.677C51.3332 29.6627 51.2616 29.8632 51.2616 30.2786C51.2759 35.8645 51.2759 41.4361 51.2616 47.022C51.2616 47.5233 51.4192 47.6666 51.8918 47.6236C52.3788 47.5806 52.9087 47.5233 53.2382 48.0533C53.2382 49.6002 53.2382 51.1757 53.2382 52.7369ZM50.4882 5.92961C51.7056 5.92961 51.7056 5.9296 51.7056 4.69783C51.7056 3.49471 51.7056 3.49471 50.5025 3.49471C49.285 3.49471 49.285 3.49471 49.285 4.72648C49.2707 5.9296 49.2707 5.92961 50.4882 5.92961ZM51.7056 50.4166C51.7056 49.1705 51.7056 49.1705 50.4452 49.1705C49.2707 49.1705 49.2707 49.1705 49.2707 50.3593C49.2707 51.6054 49.2707 51.6054 50.5311 51.6054C51.7056 51.6054 51.7056 51.6054 51.7056 50.4166ZM27.6431 5.22778C28.0442 5.31372 28.216 5.17049 28.216 4.71216C28.216 4.29679 28.0728 4.16789 27.6575 4.16789C27.2564 4.16789 27.0416 4.22518 27.0559 4.71216C27.0845 5.12752 27.1991 5.31372 27.6431 5.22778ZM51.0038 27.5572C51.0611 27.1562 50.9465 26.97 50.5025 26.97C50.0585 26.97 49.9296 27.1275 49.9439 27.5572C49.9582 27.9296 50.0012 28.1444 50.4595 28.1301C50.9035 28.1301 51.0897 27.9869 51.0038 27.5572Z" fill="#6D6D6D"/>
<path d="M27.6719 9.93994C29.1185 9.93994 30.5651 9.93994 32.026 9.93994C33.3008 9.93994 33.9453 10.4126 34.375 11.63C38.056 22.1287 41.737 32.6131 45.418 43.1118C45.862 44.3579 45.3034 45.1456 43.9714 45.16C41.3073 45.16 38.6432 45.16 35.9792 45.16C34.8047 45.16 34.1315 44.6873 33.7161 43.5701C33.0859 41.8657 32.4557 40.1613 31.8398 38.4569C31.7109 38.0988 31.5247 37.9699 31.1523 37.9699C28.8177 37.9842 26.4831 37.9842 24.1628 37.9699C23.776 37.9699 23.6042 38.0988 23.4753 38.4569C22.8594 40.147 22.2292 41.8227 21.5989 43.5128C21.1549 44.7016 20.5104 45.16 19.2643 45.16C16.6289 45.16 13.9935 45.16 11.3724 45.16C9.98305 45.16 9.43878 44.3865 9.89711 43.0688C12.9479 34.4035 15.9844 25.7238 19.0208 17.0584C19.6654 15.2108 20.3242 13.3488 20.9687 11.5011C21.3268 10.4842 22.0286 9.96859 23.1172 9.96859C24.6497 9.93994 26.1536 9.93994 27.6719 9.93994ZM25.237 11.5871C24.6354 11.5871 24.0338 11.5871 23.4323 11.5871C22.6445 11.5871 22.6445 11.6014 22.3724 12.3462C20.0521 18.9777 17.7174 25.6092 15.3828 32.2407C14.1224 35.8214 12.8763 39.4022 11.6159 42.9829C11.4726 43.3983 11.5299 43.5415 11.9883 43.5272C12.7903 43.4985 13.5924 43.4985 14.3802 43.5272C14.8099 43.5415 15.0677 43.3983 15.1966 42.9686C15.3112 42.5675 15.4687 42.1808 15.6406 41.8084C15.8411 41.393 16.2565 41.2355 16.6432 41.393C17.0443 41.5506 17.2305 41.9373 17.1159 42.3813C17.0586 42.6248 16.9583 42.854 16.8724 43.0831C16.7578 43.3696 16.7864 43.5272 17.1445 43.5128C17.9036 43.4985 18.6771 43.5128 19.4362 43.5128C19.7226 43.5128 19.9088 43.3839 20.0091 43.1118C20.5963 41.522 21.1836 39.9321 21.7851 38.3423C21.8997 38.0272 21.7851 37.9556 21.4987 37.9699C20.9974 37.9842 20.4961 38.0272 19.9948 37.9556C19.1068 37.841 18.5482 38.0701 18.3476 39.0298C18.2331 39.5311 17.7604 39.7173 17.3307 39.574C16.8867 39.4165 16.7005 38.9868 16.8724 38.4712C17.0156 38.0558 17.1732 37.6548 17.3164 37.2537C17.5885 36.5089 17.789 36.3514 18.6055 36.3514C23.0026 36.3514 27.3997 36.3514 31.7969 36.3514C32.6133 36.3514 32.7995 36.5089 33.0859 37.2681C33.7878 39.173 34.4896 41.0779 35.1771 42.9829C35.3203 43.3696 35.5352 43.5415 35.9505 43.5272C36.7526 43.4985 37.5547 43.5272 38.3425 43.5272C38.944 43.5272 38.944 43.5272 38.7435 42.9686C36.724 37.2251 34.7044 31.4673 32.6849 25.7238C32.3984 24.8931 32.0977 24.0623 31.8255 23.2173C31.6966 22.8162 31.8398 22.4868 32.1979 22.272C32.5417 22.0571 32.8711 22.1574 33.1576 22.4295C33.3151 22.5871 33.3867 22.8019 33.4583 23.0024C34.8047 26.8553 36.1654 30.6938 37.5117 34.5467C38.5 37.3683 39.5026 40.2042 40.4766 43.0402C40.6055 43.4269 40.7917 43.5701 41.1927 43.5415C41.8086 43.5128 42.4245 43.5272 43.0404 43.5272C43.8138 43.5272 43.8281 43.5272 43.556 42.768C40.849 35.048 38.1419 27.3423 35.4349 19.6222C34.5612 17.1444 33.6875 14.6665 32.8281 12.1743C32.6849 11.7446 32.4557 11.5584 31.9974 11.5728C31.3099 11.6014 30.6367 11.5871 29.9492 11.5728C29.5911 11.5584 29.4622 11.6444 29.6055 12.0311C29.8919 12.7902 30.1497 13.5636 30.4219 14.3371C31.0091 15.9985 31.5964 17.66 32.1693 19.3358C32.3411 19.8227 32.1263 20.2238 31.6823 20.3813C31.2669 20.5246 30.8802 20.3384 30.6797 19.88C30.6081 19.7082 30.5508 19.5363 30.4935 19.3644C29.6484 16.9725 28.8034 14.5949 27.987 12.203C27.8294 11.759 27.6003 11.5441 27.1133 11.5728C26.5117 11.6014 25.8815 11.5871 25.237 11.5871Z" fill="#6D6D6D"/>
<path d="M25.2226 32.9713C23.5182 32.9713 21.8281 32.9713 20.1237 32.9713C19.207 32.9713 18.8919 32.513 19.1784 31.6536C20.9114 26.6836 22.6445 21.7278 24.3633 16.7578C24.5065 16.3567 24.707 16.0273 25.194 16.0273C25.681 16.013 25.8958 16.3424 26.039 16.7435C27.7864 21.6992 29.5195 26.6692 31.2526 31.625C31.5677 32.5273 31.2526 32.9713 30.3073 32.9713C28.6172 32.9856 26.9271 32.9713 25.2226 32.9713ZM25.2656 19.3645C25.194 19.4362 25.1653 19.4362 25.1653 19.4505C23.819 23.3033 22.4726 27.1419 21.1263 30.9947C21.026 31.2812 21.1263 31.3528 21.3984 31.3528C22.1146 31.3528 22.8307 31.3242 23.5468 31.3671C24.0052 31.3958 24.2343 31.2239 24.3776 30.7799C25.1367 28.5455 25.9245 26.3112 26.6979 24.0911C26.7552 23.9336 26.8125 23.7903 26.7552 23.6041C26.2539 22.2005 25.7669 20.8112 25.2656 19.3645ZM27.7148 26.3828C27.6718 26.3828 27.6289 26.3971 27.5859 26.3971C27.056 27.9296 26.5117 29.4622 25.9817 31.0091C25.8958 31.2382 25.9674 31.3528 26.2109 31.3528C27.1562 31.3528 28.1015 31.3528 29.0469 31.3528C29.3763 31.3528 29.3906 31.1809 29.3047 30.9375C29.1328 30.4505 28.9752 29.9635 28.8034 29.4765C28.4453 28.4309 28.0872 27.414 27.7148 26.3828Z" fill="#6D6D6D"/>
</svg>
