<?xml version="1.0" encoding="utf-8"?>
<!-- Generator: Adobe Illustrator 23.1.0, SVG Export Plug-In . SVG Version: 6.00 Build 0)  -->
<svg version="1.1" id="Capa_1" xmlns="http://www.w3.org/2000/svg" xmlns:xlink="http://www.w3.org/1999/xlink" x="0px" y="0px"
	 viewBox="0 0 55 55" style="enable-background:new 0 0 55 55;" xml:space="preserve">
<style type="text/css">
	.st0{fill:#383838;}
</style>
<g>
	<path class="st0" d="M27.6,41.7c-8-0.1-14.2-6.3-14.2-14.2c0-7.9,6.3-14.2,14.2-14.2c7.9,0,14.2,6.3,14.2,14.2
		C41.8,35.5,35.5,41.6,27.6,41.7z M32.9,15.9c0,0.3,0.1,0.6,0.1,0.8c0.2,2.1-0.4,3.6-2.6,4.2C30.2,21,30,21,29.8,21.1
		c-0.4,0.1-0.4,0.3-0.2,0.5c0.2,0.3,0.4,0.4,0.7,0.6c0.7,0.5,1.4,1,2.1,1.6c0.9,0.9,0.6,2.1-0.6,2.6c-0.4,0.1-0.9,0.2-1.3,0.2
		c-1,0-1.9,0.1-2.9,0.3C27.3,27,27,27,26.9,27.3c-0.1,0.3,0.2,0.4,0.4,0.6c0.4,0.4,0.8,0.7,1.1,1.1c0.6,0.6,1.1,1.3,1.3,2.2
		c0.3,0.8,0.1,1.6-0.6,2.2c-1,0.9-2.5,1-3.6,0.3c-1-0.6-1.6-1.5-2.1-2.5c-0.5-1-1-2-1.6-2.8c-0.3-0.4-0.7-0.7-1.2-0.8
		c-0.9-0.2-1.6-0.8-2.1-1.6c-0.3-0.6-0.5-1.3-0.6-2c-0.1-1-0.2-1.9-0.8-2.8c-0.1-0.1-0.1-0.3-0.3-0.4c-0.2,0-0.2,0.2-0.3,0.3
		c-1.3,2.4-1.9,4.9-1.7,7.6c0.2,2.5,1.2,4.8,2.7,6.8c0.3,0.4,0.5,0.5,1,0.3c0.5-0.2,1.1-0.3,1.7-0.4c1.5-0.2,2.5,0.6,2.6,2.1
		c0,0.2,0.1,0.4,0.3,0.5c0.4,0.3,0.7,0.7,0.7,1.2c0,0.4,0.2,0.5,0.6,0.6c1.5,0.4,3.1,0.5,4.6,0.3c1.9-0.2,3.7-0.9,5.4-1.9
		c0.2-0.1,0.3-0.2,0.2-0.5c-0.1-0.4-0.1-0.8,0.1-1.3c0.2-0.5,0.2-1.1,0.1-1.6c-0.2-0.6-0.4-1.1-0.5-1.7c-0.3-1.2-0.1-1.7,0.9-2.4
		c0.8-0.5,1.2-1.3,1.2-2.2c0-0.5,0-1,0.1-1.6c0.1-1,0.5-1.7,1.5-2.1c0.4-0.2,0.9-0.3,1.4-0.3c0.7,0,0.7,0,0.5-0.7
		c-0.7-2.5-2.1-4.5-4.1-6.2C35,17,34.1,16.4,32.9,15.9z M27.7,14.8c-1.1,0-2.2,0.1-3.2,0.4c-2.6,0.7-4.8,2-6.5,4
		c-0.1,0.2-0.3,0.3-0.1,0.5c0.8,1.2,1.3,2.6,1.4,4c0.1,1.3,0.7,2.3,2.1,2.6c0.5,0.1,0.9,0.5,1.2,0.9c0.4,0.5,0.8,1.1,1.1,1.6
		c0.4,0.8,0.8,1.6,1.3,2.4c0.4,0.7,0.9,1.4,1.8,1.5c0.6,0.1,1.1,0,1.5-0.5c0.3-0.4,0-0.8-0.2-1.2c-0.1-0.1-0.1-0.2-0.2-0.3
		c-0.4-0.6-0.9-1.1-1.5-1.6c-0.3-0.3-0.6-0.6-0.8-1c-0.4-0.8-0.2-1.5,0.5-2c0.5-0.3,1.1-0.5,1.7-0.6c1-0.2,2.1-0.2,3.1-0.3
		c0.2,0,0.3,0,0.4-0.2c0.1-0.2-0.1-0.3-0.2-0.4c-0.5-0.4-1-0.7-1.4-1.1c-0.5-0.4-1.1-0.8-1.4-1.4c-0.6-1.1-0.2-2,1-2.4
		c0.5-0.1,1-0.2,1.4-0.4c0.6-0.3,0.9-0.7,1-1.4c0-0.8,0-1.5-0.2-2.3c-0.1-0.3-0.2-0.4-0.5-0.5C29.9,14.9,28.8,14.8,27.7,14.8z
		 M36.2,36.9c0.1,0,0.2,0,0.2-0.1c0.1-0.1,0.2-0.2,0.3-0.2c2.6-2.7,3.8-5.8,3.7-9.5c0-1.2,0-1.1-1.1-1c-0.2,0-0.5,0.1-0.7,0.2
		c-0.4,0.1-0.6,0.4-0.6,0.8c-0.1,0.5-0.1,1.1-0.1,1.6c-0.1,1.3-0.6,2.4-1.6,3.2c-0.7,0.5-0.7,0.5-0.4,1.3
		C36.2,34.4,36.7,35.6,36.2,36.9z M21.9,38.9c-0.3-0.4-0.3-0.9-0.3-1.4c0-0.4-0.3-0.7-0.7-0.7c-0.4,0-0.8,0-1.2,0.1
		c-0.1,0-0.2,0-0.3,0.1c0,0.1,0.1,0.2,0.2,0.2C20.2,38,21,38.5,21.9,38.9z"/>
	<path class="st0" d="M50.4,27.4c0.1,11.1-7.9,20.7-18.9,22.6c-5.3,0.9-10.4,0-15.1-2.6c-0.3-0.2-0.5-0.2-0.7,0.2
		c-0.8,1.4-2.7,2-4.3,1.3c-1.4-0.7-2.3-1.9-2.9-3.3c-1-2.6-1-5.1,0.6-7.5c0.3-0.5,0.8-0.9,1.2-1.3c0.2-0.2,0.5-0.3,0.8-0.1
		c0.3,0.2,0.4,0.4,0.4,0.8c-0.1,1.4,0.1,1.7,1.5,2.2c0.7,0.3,1.4,0.5,2,0.7c1.4,0.5,2.4,1.4,3.1,2.8c0.5,1.1,0.4,2.3-0.6,3
		c-0.4,0.3,0,0.3,0.2,0.4c1.7,0.9,3.6,1.6,5.5,1.9c7.9,1.4,14.7-0.7,20.2-6.6c3.1-3.4,4.9-7.4,5.4-12c0.4-3.8-0.1-7.5-1.7-11
		c0-0.1-0.1-0.2-0.1-0.3c-0.2-0.5-0.1-0.9,0.3-1c0.4-0.2,0.7,0,0.9,0.5c0.9,2,1.5,4.1,1.8,6.3C50.4,25.5,50.5,26.5,50.4,27.4z
		 M17,44.4c0-0.3-0.1-0.5-0.2-0.8c-0.5-1-1.4-1.6-2.4-2c-0.7-0.3-1.5-0.5-2.3-0.8c-0.7-0.3-1.3-0.7-1.6-1.4
		c-0.1-0.1-0.1-0.3-0.3-0.3c-0.1,0-0.2,0.2-0.2,0.3c-1.2,2.3-0.7,5.7,1.1,7.5c0.3,0.3,0.7,0.6,1.1,0.7c1,0.4,2.1-0.1,2.4-0.9
		c0.1-0.2,0.1-0.4-0.2-0.6c-0.4-0.3-0.8-0.6-1.2-0.9c-0.7-0.6-1.4-1.2-2-1.9c-0.3-0.3-0.3-0.6,0-0.9c0.2-0.3,0.6-0.3,0.9-0.1
		c0.2,0.1,0.3,0.3,0.4,0.4c0.9,0.9,1.8,1.7,2.8,2.4c0.4,0.3,0.8,0.1,1.2,0C16.9,45,17,44.7,17,44.4z"/>
	<path class="st0" d="M4.8,27.5C4.7,16.7,12.6,7.2,23.3,5.1C28.8,4.1,34,4.9,38.9,7.7c0.2,0.1,0.4,0.3,0.5-0.1
		c0.7-1.5,2.8-2.2,4.4-1.3C45.2,6.9,46,8,46.6,9.4c1.1,2.6,1.1,5.2-0.5,7.6c-0.3,0.5-0.8,0.9-1.2,1.3c-0.2,0.2-0.5,0.3-0.8,0.2
		c-0.3-0.2-0.4-0.5-0.4-0.8c0.1-1.3-0.1-1.6-1.3-2.1c-0.7-0.3-1.5-0.5-2.2-0.8c-1.3-0.5-2.4-1.4-3-2.7c-0.5-1.1-0.5-2.4,0.5-3.1
		c0.3-0.3,0-0.3-0.2-0.4c-1.4-0.7-2.8-1.3-4.3-1.7c-7-1.7-13.4-0.4-19,4.1c-4.1,3.3-6.6,7.6-7.6,12.8C5.8,28,6.3,32.1,8,36.1
		c0.1,0.1,0.1,0.3,0.2,0.4c0.1,0.4,0,0.8-0.3,0.9c-0.3,0.2-0.7,0-0.9-0.4c-0.3-0.6-0.6-1.3-0.8-1.9C5.2,32.7,4.8,30.1,4.8,27.5z
		 M46,12.7c0-1.4-0.5-2.9-1.5-4.1c-0.4-0.5-0.8-0.8-1.4-1.1c-1-0.4-2.2,0-2.5,0.9c-0.1,0.3-0.1,0.4,0.2,0.6c0.4,0.3,0.8,0.6,1.2,0.9
		c0.7,0.6,1.4,1.2,2,1.8c0.3,0.3,0.3,0.7,0,1c-0.3,0.3-0.6,0.3-1,0.1c-0.1-0.1-0.3-0.2-0.4-0.4c-0.9-0.9-1.8-1.7-2.8-2.4
		c-0.4-0.3-0.9-0.2-1.3,0c-0.4,0.2-0.4,0.6-0.3,1c0,0.2,0.1,0.4,0.2,0.6c0.5,1,1.4,1.6,2.4,2c0.7,0.3,1.5,0.5,2.2,0.8
		c0.7,0.3,1.4,0.8,1.7,1.5c0.2,0.3,0.3,0.2,0.4,0C45.7,14.9,46,13.9,46,12.7z"/>
</g>
</svg>
