<svg width="180" height="64" viewBox="0 0 180 64" fill="none" xmlns="http://www.w3.org/2000/svg">
<mask id="mask0_4_25" style="mask-type:luminance" maskUnits="userSpaceOnUse" x="0" y="0" width="180" height="64">
<path d="M180 0H0V63.2433H180V0Z" fill="white"/>
</mask>
<g mask="url(#mask0_4_25)">
<path d="M11.5588 47.292C11.5588 46.3609 11.7177 45.7285 12.0353 45.3947C12.353 45.0609 12.9706 44.8852 13.9059 44.8852H20.8941C21.8294 44.8852 22.4471 45.0609 22.7647 45.3947C23.0824 45.7285 23.2412 46.3609 23.2412 47.292V52.7028C23.2412 53.6339 23.0824 54.2839 22.7647 54.6176C22.4471 54.9514 21.8294 55.1271 20.8941 55.1271H13.9059C12.9882 55.1271 12.353 54.9514 12.0353 54.6176C11.7177 54.2839 11.5588 53.6339 11.5588 52.7028V47.292ZM13.7647 53.1595H21.0529V46.7649H13.7647V53.1595Z" fill="#FF6309"/>
<path d="M26.6294 55.1271V44.8852H34.7647C35.5059 44.8852 36.053 45.0433 36.3882 45.3595C36.7235 45.6757 36.8824 46.1852 36.8824 46.8703V49.2771C36.8824 49.9622 36.7235 50.4717 36.3882 50.7703C36.053 51.0865 35.5235 51.2271 34.7647 51.2271H33.5294L37.8353 55.1095H34.6765L30.8824 51.2271H28.8V55.1095H26.6294V55.1271ZM33.8294 46.642H28.8V49.4703H33.8294C34.2177 49.4703 34.4824 49.4001 34.6235 49.2771C34.7647 49.1541 34.8353 48.9433 34.8353 48.6447V47.4676C34.8353 47.169 34.7647 46.9582 34.6235 46.8352C34.4647 46.7122 34.2 46.642 33.8294 46.642Z" fill="#FF6309"/>
<path d="M39.4412 55.1271L44.8059 44.8852H46.9235L52.3765 55.1271H49.9059L48.7765 52.8784H42.7941L41.6647 55.1271H39.4412ZM43.7118 50.9987H47.8588L45.7412 46.7298L43.7118 50.9987Z" fill="#FF6309"/>
<path d="M53.7529 55.1271V44.8852H55.2706L62.9294 51.6838V44.8852H64.9235V55.1271H63.4059L55.7647 48.223V55.1271H53.7529Z" fill="#FF6309"/>
<path d="M77.0647 46.7649H70.1824V53.1595H77.0647V50.9811H73.4824V49.1541H79.2353V52.7028C79.2353 53.6338 79.0765 54.2838 78.7588 54.6176C78.4412 54.9514 77.8235 55.1271 76.8883 55.1271H70.3412C69.4236 55.1271 68.8059 54.9514 68.4706 54.6176C68.153 54.2838 67.9941 53.6338 67.9941 52.7028V47.3095C67.9941 46.3784 68.153 45.746 68.4706 45.4122C68.7883 45.0784 69.4059 44.9028 70.3412 44.9028H76.8883C77.8059 44.9028 78.4235 45.0609 78.7412 45.3946C79.0765 45.7284 79.2353 46.3257 79.2353 47.1865V47.4501L77.0824 47.8717V46.7649H77.0647Z" fill="#FF6309"/>
<path d="M82.5707 55.1271V44.8852H92.2589V46.6947H84.7942V48.9257H89.1354V50.6825H84.7942V53.1947H92.3824V55.1095H82.5707V55.1271Z" fill="#FF6309"/>
<path d="M105.406 55.1271L101.735 44.8852H104.047L106.412 52.0176L108.953 44.8852H110.471L112.994 52.0176L115.324 44.8852H117.318L113.682 55.1271H112.182L109.571 47.8893L106.924 55.1271H105.406Z" fill="#FF6309"/>
<path d="M118.765 47.292C118.765 46.3609 118.924 45.7284 119.241 45.3947C119.559 45.0609 120.176 44.8852 121.112 44.8852H128.1C129.035 44.8852 129.653 45.0609 129.971 45.3947C130.288 45.7284 130.447 46.3609 130.447 47.292V52.7028C130.447 53.6338 130.288 54.2838 129.971 54.6176C129.653 54.9514 129.035 55.1271 128.1 55.1271H121.112C120.194 55.1271 119.559 54.9514 119.241 54.6176C118.924 54.2838 118.765 53.6338 118.765 52.7028V47.292ZM120.953 53.1595H128.241V46.7649H120.953V53.1595Z" fill="#FF6309"/>
<path d="M132.547 55.1271V44.8852H140.682C141.424 44.8852 141.971 45.0433 142.306 45.3595C142.641 45.6757 142.8 46.1852 142.8 46.8703V49.2771C142.8 49.9622 142.641 50.4717 142.306 50.7703C141.971 51.0865 141.441 51.2271 140.682 51.2271H139.447L143.753 55.1095H140.594L136.8 51.2271H134.718V55.1095H132.547V55.1271ZM139.747 46.642H134.718V49.4703H139.747C140.135 49.4703 140.4 49.4001 140.541 49.2771C140.682 49.1541 140.753 48.9433 140.753 48.6447V47.4676C140.753 47.169 140.682 46.9582 140.541 46.8352C140.382 46.7122 140.118 46.642 139.747 46.642Z" fill="#FF6309"/>
<path d="M145.571 55.1271V44.8852H147.794V53.2122H154.871V55.1271H145.571Z" fill="#FF6309"/>
<path d="M156.935 55.1271V44.8852H163.024C164.771 44.8852 166.112 45.3244 167.047 46.2028C167.982 47.0811 168.459 48.3284 168.459 49.9622C168.459 51.6838 167.965 52.9663 166.976 53.8271C165.988 54.6879 164.488 55.1095 162.494 55.1095H156.935V55.1271ZM159.159 53.2122H162C163.553 53.2122 164.629 52.9487 165.247 52.4393C165.865 51.9298 166.182 51.069 166.182 49.8568C166.182 48.8028 165.918 48.0122 165.406 47.5028C164.894 46.9933 164.1 46.7298 163.041 46.7298H159.159V53.2122Z" fill="#FF6309"/>
<path d="M136.376 8.11623L124.235 38.7716H119.241L110.329 20.0797L101.682 38.7716H96.6176L84.3 8.11623H91.4823L99.6176 27.9325L107.788 8.11623H112.853L120.971 27.9325L129.529 8.11623H136.376Z" fill="#FF6309"/>
<path d="M44.1 11.8083V35.103C44.1 37.1408 45.7588 38.7746 47.7882 38.7746H77.3117C79.3588 38.7746 81 37.1232 81 35.103V11.8083C81 9.77049 79.3411 8.13671 77.3117 8.13671H47.7882C45.7588 8.11914 44.1 9.77049 44.1 11.8083ZM73.5706 32.5908H51.547V14.3029H73.5706V32.5908Z" fill="#FF6309"/>
</g>
</svg>
