<?xml version="1.0" encoding="utf-8"?>
<!-- Generator: Adobe Illustrator 27.9.0, SVG Export Plug-In . SVG Version: 6.00 Build 0)  -->
<svg version="1.1" id="Capa_1" xmlns="http://www.w3.org/2000/svg" xmlns:xlink="http://www.w3.org/1999/xlink" x="0px" y="0px"
	 viewBox="0 0 180 64" style="enable-background:new 0 0 180 64;" xml:space="preserve">
<style type="text/css">
	.st0{fill:#FFFFFF;filter:url(#Adobe_OpacityMaskFilter);}
	.st1{mask:url(#mask0_4_25_00000018218750037932905040000008730803268668341656_);}
	.st2{fill:#FFFFFF;}
</style>
<defs>
	<filter id="Adobe_OpacityMaskFilter" filterUnits="userSpaceOnUse" x="11.6" y="8.1" width="156.9" height="47">
		<feColorMatrix  type="matrix" values="1 0 0 0 0  0 1 0 0 0  0 0 1 0 0  0 0 0 1 0"/>
	</filter>
</defs>
<mask maskUnits="userSpaceOnUse" x="11.6" y="8.1" width="156.9" height="47" id="mask0_4_25_00000018218750037932905040000008730803268668341656_">
	<path class="st0" d="M180,0H0v63.2h180V0z"/>
</mask>
<g class="st1">
	<path class="st2" d="M11.6,47.3c0-0.9,0.2-1.6,0.5-1.9c0.3-0.3,0.9-0.5,1.9-0.5h7c0.9,0,1.6,0.2,1.9,0.5c0.3,0.3,0.5,1,0.5,1.9v5.4
		c0,0.9-0.2,1.6-0.5,1.9c-0.3,0.3-0.9,0.5-1.9,0.5h-7c-0.9,0-1.6-0.2-1.9-0.5c-0.3-0.3-0.5-1-0.5-1.9V47.3z M13.8,53.2h7.3v-6.4
		h-7.3V53.2z"/>
	<path class="st2" d="M26.6,55.1V44.9h8.1c0.7,0,1.3,0.2,1.6,0.5c0.3,0.3,0.5,0.8,0.5,1.5v2.4c0,0.7-0.2,1.2-0.5,1.5
		c-0.3,0.3-0.9,0.5-1.6,0.5h-1.2l4.3,3.9h-3.2l-3.8-3.9h-2.1v3.9L26.6,55.1L26.6,55.1z M33.8,46.6h-5v2.8h5c0.4,0,0.7-0.1,0.8-0.2
		c0.1-0.1,0.2-0.3,0.2-0.6v-1.2c0-0.3-0.1-0.5-0.2-0.6C34.5,46.7,34.2,46.6,33.8,46.6z"/>
	<path class="st2" d="M39.4,55.1l5.4-10.2h2.1l5.5,10.2h-2.5l-1.1-2.2h-6l-1.1,2.2H39.4z M43.7,51h4.1l-2.1-4.3L43.7,51z"/>
	<path class="st2" d="M53.8,55.1V44.9h1.5l7.7,6.8v-6.8h2v10.2h-1.5l-7.6-6.9v6.9H53.8z"/>
	<path class="st2" d="M77.1,46.8h-6.9v6.4h6.9V51h-3.6v-1.8h5.8v3.5c0,0.9-0.2,1.6-0.5,1.9c-0.3,0.3-0.9,0.5-1.9,0.5h-6.5
		c-0.9,0-1.5-0.2-1.9-0.5c-0.3-0.3-0.5-1-0.5-1.9v-5.4c0-0.9,0.2-1.6,0.5-1.9c0.3-0.3,0.9-0.5,1.9-0.5h6.5c0.9,0,1.5,0.2,1.9,0.5
		c0.3,0.3,0.5,0.9,0.5,1.8v0.3l-2.2,0.4L77.1,46.8L77.1,46.8z"/>
	<path class="st2" d="M82.6,55.1V44.9h9.7v1.8h-7.5v2.2h4.3v1.8h-4.3v2.5h7.6v1.9L82.6,55.1L82.6,55.1z"/>
	<path class="st2" d="M105.4,55.1l-3.7-10.2h2.3l2.4,7.1l2.5-7.1h1.5L113,52l2.3-7.1h2l-3.6,10.2h-1.5l-2.6-7.2l-2.6,7.2H105.4z"/>
	<path class="st2" d="M118.8,47.3c0-0.9,0.2-1.6,0.5-1.9c0.3-0.3,0.9-0.5,1.9-0.5h7c0.9,0,1.6,0.2,1.9,0.5c0.3,0.3,0.5,1,0.5,1.9
		v5.4c0,0.9-0.2,1.6-0.5,1.9c-0.3,0.3-0.9,0.5-1.9,0.5h-7c-0.9,0-1.6-0.2-1.9-0.5c-0.3-0.3-0.5-1-0.5-1.9V47.3z M121,53.2h7.3v-6.4
		H121V53.2z"/>
	<path class="st2" d="M132.5,55.1V44.9h8.1c0.7,0,1.3,0.2,1.6,0.5s0.5,0.8,0.5,1.5v2.4c0,0.7-0.2,1.2-0.5,1.5
		c-0.3,0.3-0.9,0.5-1.6,0.5h-1.2l4.3,3.9h-3.2l-3.8-3.9h-2.1v3.9L132.5,55.1L132.5,55.1z M139.7,46.6h-5v2.8h5
		c0.4,0,0.7-0.1,0.8-0.2s0.2-0.3,0.2-0.6v-1.2c0-0.3-0.1-0.5-0.2-0.6C140.4,46.7,140.1,46.6,139.7,46.6z"/>
	<path class="st2" d="M145.6,55.1V44.9h2.2v8.3h7.1v1.9H145.6z"/>
	<path class="st2" d="M156.9,55.1V44.9h6.1c1.7,0,3.1,0.4,4,1.3c0.9,0.9,1.4,2.1,1.4,3.8c0,1.7-0.5,3-1.5,3.9
		c-1,0.9-2.5,1.3-4.5,1.3L156.9,55.1L156.9,55.1z M159.2,53.2h2.8c1.6,0,2.6-0.3,3.2-0.8c0.6-0.5,0.9-1.4,0.9-2.6
		c0-1.1-0.3-1.8-0.8-2.4c-0.5-0.5-1.3-0.8-2.4-0.8h-3.9V53.2z"/>
	<path class="st2" d="M136.4,8.1l-12.1,30.7h-5l-8.9-18.7l-8.6,18.7h-5.1L84.3,8.1h7.2l8.1,19.8l8.2-19.8h5.1l8.1,19.8l8.6-19.8
		H136.4z"/>
	<path class="st2" d="M44.1,11.8v23.3c0,2,1.7,3.7,3.7,3.7h29.5c2,0,3.7-1.7,3.7-3.7V11.8c0-2-1.7-3.7-3.7-3.7H47.8
		C45.8,8.1,44.1,9.8,44.1,11.8z M73.6,32.6h-22V14.3h22V32.6z"/>
</g>
</svg>
