<?xml version="1.0" encoding="utf-8"?>
<!-- Generator: Adobe Illustrator 27.9.0, SVG Export Plug-In . SVG Version: 6.00 Build 0)  -->
<svg version="1.1" id="Layer_1" xmlns="http://www.w3.org/2000/svg" xmlns:xlink="http://www.w3.org/1999/xlink" x="0px" y="0px"
	 viewBox="0 0 100 100" style="enable-background:new 0 0 100 100;" xml:space="preserve">
<style type="text/css">
	.st0{fill:#1987C7;}
</style>
<path id="Columbia_logo_blue" class="st0" d="M6.7,51.6c0.5,0.5,0.5,1.2,0,1.7l-0.4,0.4c-0.5,0.5-1.2,0.5-1.7,0L1.9,51
	c-0.5-0.5-0.5-1.2,0-1.7l0.4-0.4c0.5-0.5,1.2-0.5,1.7,0L6.7,51.6L6.7,51.6z M6.4,46.4c-0.5-0.5-1.2-0.5-1.7,0l-0.4,0.4
	c-0.5,0.5-0.5,1.2,0,1.7L7,51.2c0.5,0.5,1.2,0.5,1.7,0l0.4-0.4c0.5-0.5,0.5-1.2,0-1.7L6.4,46.4L6.4,46.4z M13.7,48.8
	c-0.5-0.5-1.2-0.5-1.7,0l-0.4,0.4c-0.5,0.5-0.5,1.2,0,1.7l2.7,2.7c0.5,0.5,1.2,0.5,1.7,0l0.4-0.4c0.5-0.5,0.5-1.2,0-1.7L13.7,48.8
	L13.7,48.8z M16.2,46.3c-0.5-0.5-1.2-0.5-1.7,0L14,46.8c-0.5,0.5-0.5,1.2,0,1.7l2.7,2.7c0.5,0.5,1.2,0.5,1.7,0l0.4-0.4
	c0.5-0.5,0.5-1.2,0-1.7L16.2,46.3L16.2,46.3z M11.6,43.7c0.5-0.5,0.5-1.2,0-1.7l-0.4-0.4c-0.5-0.5-1.2-0.5-1.7,0l-2.7,2.7
	c-0.5,0.5-0.5,1.2,0,1.7l0.4,0.4c0.5,0.5,1.2,0.5,1.7,0L11.6,43.7L11.6,43.7z M14,46.1c0.5-0.5,0.5-1.2,0-1.7L13.6,44
	c-0.5-0.5-1.2-0.5-1.7,0l-2.7,2.7c-0.5,0.5-0.5,1.2,0,1.7l0.4,0.4c0.5,0.5,1.2,0.5,1.7,0L14,46.1L14,46.1z M11.6,53.2
	c0.5-0.5,0.5-1.2,0-1.7l-0.4-0.4c-0.5-0.5-1.2-0.5-1.7,0l-2.7,2.7c-0.5,0.5-0.5,1.2,0,1.7L7.2,56c0.5,0.5,1.2,0.5,1.7,0L11.6,53.2
	L11.6,53.2z M14,55.7c0.5-0.5,0.5-1.2,0-1.7l-0.4-0.4c-0.5-0.5-1.2-0.5-1.7,0l-2.7,2.8c-0.5,0.5-0.5,1.2,0,1.7l0.4,0.4
	c0.5,0.5,1.2,0.5,1.7,0L14,55.7L14,55.7z M33.9,53.3c0.1,0.1,0.4,0.7,0.4,0.7c-0.2,0.8-0.7,2-0.7,2L33.5,56c-2,0.8-5.2,1.5-8.5,0.1
	c-2-0.8-3.5-2.4-4-4.4c-0.6-2.1-0.2-4.4,1.2-6.2c1.5-1.9,3.8-3,6.9-3.2c1.2-0.1,3.6,0.2,5,1h0.1c0,0,0.1,3.3,0,3.5l-0.1,0.2l-1,0.1
	l-0.1-0.4c-0.2-1-0.6-3.5-4.2-3.3c-1.5,0.1-2.8,0.8-3.7,2.1c-1.2,1.5-1.5,3.5-1,5.8c0.5,2.2,2.2,3.6,3.5,4.1c0.5,0.2,2.2,0.6,3.5,0
	C32.3,54.8,33.4,53.9,33.9,53.3 M46.2,56.8V45.4c0-0.4,0-1-0.4-1.4c-0.1-0.1-0.6-0.5-0.6-0.5V43l3.1-0.6l0.3,0.2c0,0,0,12.1,0,12.3
	c0.1,1.2,0.8,1.3,0.8,1.3v0.7L46.2,56.8L46.2,56.8z M59.8,56c-0.5-0.1-0.8-0.6-0.8-1.4v-7.3l-0.2-0.1l-3.1,0.6v0.5
	c0,0,0.5,0.4,0.6,0.5c0.4,0.4,0.4,1,0.4,1.4v4.3c-1,0.8-1.9,1-2.6,0.7c-0.5-0.2-0.8-0.8-0.8-1.7v-6.2l-0.2-0.1l-3.1,0.6v0.5
	c0,0,0.5,0.4,0.6,0.5c0.4,0.4,0.4,1,0.4,1.4v3.7c0,0.7,0.1,1,0.1,1.3c0.2,0.8,0.7,1.3,1.3,1.6c1.1,0.4,2.7,0,4.3-1.1v1H60V56H59.8
	L59.8,56z M75.2,56c-0.5-0.1-0.8-0.6-0.8-1.4v-4.4c0-1-0.5-3-2.5-3c-1.5,0-2.5,0.9-3,1.4c-0.3-0.7-1-1.4-2.2-1.4
	c-1,0-1.8,0.4-2.7,1.1v-0.9l-0.3-0.2l-3.1,0.6v0.5c0,0,0.5,0.4,0.6,0.5c0.4,0.4,0.4,1,0.4,1.4v6.5h3.4V56L64.7,56
	c-0.5-0.1-0.8-0.5-0.8-1.4c0,0,0-4.5,0-5.2c0.6-0.5,1.2-0.6,1.8-0.5c0.5,0.1,1,0.4,1,2.2v5.6h3.3V56l-0.2-0.1
	c-0.5-0.1-0.8-0.5-0.8-1.4v-4.4c0-0.1,0-0.5-0.1-0.7c0.6-0.5,1.2-0.6,1.8-0.5c0.5,0.1,1,0.4,1,2.2v5.6h3.3L75.2,56L75.2,56L75.2,56z
	 M45.1,52c0-1.4-0.5-2.7-1.3-3.5c-0.9-0.9-2.2-1.4-3.8-1.4c-2.9,0-5.1,2.1-5.1,4.9c0,3,2,4.9,5.1,4.9c1.5,0,2.8-0.5,3.7-1.4
	C44.6,54.6,45.1,53.4,45.1,52 M40,55.8c-1.9,0-2.4-1.5-2.4-3.9c0-1.8,0.5-3.9,2.4-3.9s2.4,2.1,2.4,3.9C42.4,54.4,41.8,55.8,40,55.8
	 M86.6,44.3c0-0.7,0.5-1.3,1.3-1.3c0.7,0,1.3,0.5,1.3,1.3c0,0.7-0.5,1.3-1.3,1.3C87.1,45.5,86.6,44.9,86.6,44.3 M86.7,56.7v-6.5
	c0-0.4,0-1-0.4-1.4c-0.1-0.1-0.6-0.5-0.6-0.5v-0.5l3.1-0.6l0.3,0.2v7.3c0,0.8,0.3,1.3,0.8,1.4l0.2,0.1v0.7L86.7,56.7L86.7,56.7z
	 M84.9,49.5c-0.7-1.2-1.5-1.9-2.5-2.1c-1.5-0.4-2.9,0.3-3.8,0.8v-5.6l-0.3-0.2l-3.1,0.6v0.5c0,0,0.5,0.4,0.6,0.5
	c0.4,0.4,0.4,1,0.4,1.4v10.6V56l0.1,0.1c1.8,0.9,4.1,1,5.8,0.4c1.9-0.8,2.7-2.1,3-3.1C85.7,51.8,85.4,50.3,84.9,49.5 M82.4,54.6
	c-0.5,0.9-1.6,1.5-2.5,1.2s-1.3-1.2-1.3-2.5c0,0,0-3.2,0-3.9c0,0,0.1,0,0.1-0.1c0.5-0.2,1.5-0.8,2.8-0.1c0.7,0.4,1.2,1,1.5,1.9
	C83.2,52.2,83.1,53.4,82.4,54.6 M98.5,55.7l-0.2-0.1c-0.1,0-0.4-0.4-0.4-0.9v-4.3c0-1.3-0.4-2.2-1.2-2.7c-0.7-0.5-1.6-0.5-2.7-0.2
	c-1.3,0.4-3.2,2.1-3.5,2.4L90.6,50v0.1c0,0.1,0.2,0.3,0.2,0.4l0.1,0.1H93c0,0,0-0.5,0-0.6c0-0.8,0.5-1.3,1-1.3
	c0.5-0.1,0.8-0.1,1,0.1c0.3,0.2,0.5,0.8,0.5,1.8v0.5l-4.4,1.9l-0.1,0.1v0.1c-0.4,1.2-0.3,2.2,0.2,2.8c0.9,1,3.2,1.2,6.4,0.4
	c0.2-0.1,0.8-0.1,0.8-0.1C98.5,56.3,98.5,55.7,98.5,55.7 M95.6,52.2v3.3c-0.7,0.5-1.5,0.5-2,0.1c-0.5-0.5-0.7-1.3-0.3-2.2L95.6,52.2
	L95.6,52.2z"/>
</svg>
