<?xml version="1.0" encoding="utf-8"?>
<!-- Generator: Adobe Illustrator 27.9.0, SVG Export Plug-In . SVG Version: 6.00 Build 0)  -->
<svg version="1.1" id="Capa_1" xmlns="http://www.w3.org/2000/svg" xmlns:xlink="http://www.w3.org/1999/xlink" x="0px" y="0px"
	 viewBox="0 0 100 100" style="enable-background:new 0 0 100 100;" xml:space="preserve">
<style type="text/css">
	.st0{fill:#AAD63E;}
</style>
<g>
	<g>
		<path class="st0" d="M10.8,40.7c0.5-2.1,0.9-3.9,2.5-5.4c1.1-1,2.5-1.6,4-1.6c0,0,0.6,0,1,0.1L18,34.5c0,0-0.8-0.1-1.3,0
			c-0.6,0.1-1,0.4-1.5,0.9c-0.8,0.8-1.1,1.8-1.6,4L12,46.8h4.2l-0.3,1h-4.2L9.1,59.3c-0.5,2.1-0.9,3.9-2.5,5.4c-1.1,1-2.5,1.6-4,1.6
			H2.1l0.3-0.9c0.1,0,0.3,0,0.5,0c0.8-0.1,1.4-0.4,1.8-1c0.8-1,1-1.6,1.5-3.8l2.9-12.8h-4l0.3-1h4L10.8,40.7z"/>
		<path class="st0" d="M67,51.5h-5.9c0.4-1.5,1.6-3.9,3.8-3.9C67.3,47.6,67.4,50,67,51.5 M65.2,46.4c-3.1,0-5.9,2.1-6.5,5.4
			c-1.1,5.6,3,6.6,4.8,6.6c1.5,0,2.7-0.5,3.6-1.2l-0.8-0.9c-0.6,0.4-1.4,0.7-2.2,0.7c-2.9,0-3.3-2.5-3.1-4.2h8.3
			C70,50,69.1,46.4,65.2,46.4"/>
		<path class="st0" d="M31.2,38c0,0-3.5,14.9-3.8,16.7c-0.5,2.8,1,3.1,1.8,3.3c1.4,0.2,2.3,0,2.3,0l0.1-0.9c0,0-0.5,0.2-1.2,0.1
			c-0.9-0.1-1-0.7-0.8-2.2C30,53.2,33.6,38,33.6,38L31.2,38L31.2,38L31.2,38z"/>
		<path class="st0" d="M74.2,38c0,0-3.5,14.9-3.8,16.7c-0.5,2.8,1,3.1,1.8,3.3c1.4,0.2,2.3,0,2.3,0l0.1-0.9c0,0-0.5,0.2-1.2,0.1
			c-0.9-0.1-1-0.7-0.8-2.2c0.3-1.8,3.9-16.9,3.9-16.9L74.2,38L74.2,38z"/>
		<path class="st0" d="M79.5,38c0,0-3.5,14.9-3.8,16.7c-0.5,2.8,1,3.1,1.8,3.3c1.4,0.2,2.3,0,2.3,0l0.1-0.9c0,0-0.5,0.2-1.2,0.1
			c-0.9-0.1-1-0.7-0.8-2.2c0.3-1.8,3.9-16.9,3.9-16.9L79.5,38L79.5,38z"/>
		<path class="st0" d="M22.9,53.1c-0.3,0.9-1.4,4.2-4,4.2c-3.1,0-1.6-4.7-1.4-5.6c0.3-0.9,1.4-4.2,3.9-4.2
			C24.5,47.5,23.2,52.2,22.9,53.1 M24.3,46.7L24,47.9H24c-0.6-1.2-1.8-1.5-2.9-1.5c-3.5,0-5.5,2.9-6.1,5.7c-0.9,4,0.4,6.3,3.7,6.3
			c1.4,0,2.5-0.4,4-1.6l0.6,1.3h1.2l2.5-11.3C26.8,46.7,24.3,46.7,24.3,46.7z"/>
		<path class="st0" d="M41.5,53.1c-0.3,0.9-1.4,4.2-4,4.2c-3.1,0-1.6-4.7-1.4-5.6c0.3-0.9,1.4-4.2,3.9-4.2
			C43.1,47.5,41.8,52.2,41.5,53.1 M42.9,46.7l-0.3,1.2h-0.1c-0.6-1.2-1.8-1.5-2.9-1.5c-3.5,0-5.5,2.9-6.1,5.7
			c-0.9,4,0.4,6.3,3.7,6.3c1.4,0,2.5-0.4,4-1.6l0.6,1.3h1.2l2.5-11.3C45.4,46.7,42.9,46.7,42.9,46.7z"/>
		<path class="st0" d="M89.5,53.1c-0.3,0.9-1.4,4.2-4,4.2c-3.1,0-1.6-4.7-1.4-5.6c0.3-0.9,1.4-4.2,3.9-4.2
			C91.1,47.5,89.8,52.2,89.5,53.1 M90.9,46.7l-0.3,1.2h-0.1c-0.6-1.2-1.8-1.5-2.9-1.5c-3.5,0-5.5,2.9-6.1,5.7
			c-0.9,4,0.4,6.3,3.7,6.3c1.4,0,2.5-0.4,4-1.6l0.6,1.3h1.2l2.5-11.3C93.4,46.7,90.9,46.7,90.9,46.7z"/>
		<path class="st0" d="M54.4,53.3c-0.3,0.9-1.4,4.2-3.7,4.2c-2.8,0-1.9-4.7-1.6-5.6c0.4-1.5,1.2-4.2,3.5-4.2
			C55.7,47.7,54.6,52.3,54.4,53.3 M53.5,46.4c-1.4,0-2.8,0.6-3.6,1.6h-0.1L52.1,38h-2.6c0,0-3.6,15.5-4.6,20.1h1.4l1.2-1.3
			c0.9,1.3,1.8,1.6,3.3,1.6c3.3,0,5.5-2.3,6.3-6.3C57.8,49.4,57,46.4,53.5,46.4"/>
	</g>
	<path class="st0" d="M94.7,56.3c0-0.9,0.7-1.6,1.6-1.6s1.6,0.7,1.6,1.6c0,0.9-0.7,1.6-1.6,1.6C95.4,57.8,94.7,57.2,94.7,56.3"/>
</g>
</svg>
