<?xml version="1.0" encoding="utf-8"?>
<!-- Generator: Adobe Illustrator 27.9.0, SVG Export Plug-In . SVG Version: 6.00 Build 0)  -->
<svg version="1.1" id="Capa_1" xmlns="http://www.w3.org/2000/svg" xmlns:xlink="http://www.w3.org/1999/xlink" x="0px" y="0px"
	 viewBox="0 0 100 100" style="enable-background:new 0 0 100 100;" xml:space="preserve">
<style type="text/css">
	.st0{fill:#FF0019;}
	.st1{fill:#FFCB00;}
</style>
<g>
	<path d="M73,44.5c-0.3-2.3-2.2-2.8-4.2-2.8c-2.8,0-15,0-18.2,0.1c-1.7,0.1-3.1,1-3.3,2.9c-0.2,1.7,0.9,3,2.5,3.3
		c1.9,0.4,2.2,1.4,2.2,3c0,3.7-0.1,7.4,0,11.1c0.1,2.7,1.9,4.3,4,3.7c2-0.5,2.6-2.1,2.6-3.9c0-4.3,0-8.6,0-13c0.1-6.3-1.1-5.6,6-5.6
		c0.9,0,2.1-0.2,2.2,1.3c0.2,1.5-0.8,1.8-1.9,1.9c-2.2,0.2-3.1,1.5-3.1,3.6c0,3.9-0.1,7.8,0,11.6c0.1,2.8,1.5,4.3,3.5,4.1
		c2.5-0.3,3-2.1,3-4.3c0-3.7,0-7.4,0-11.1c0-1.1-0.1-2.2,1.5-2.3C71.9,47.9,73.3,46.8,73,44.5z M56.9,53.9L56.9,53.9
		c0,2.7,0,5.5,0,8.2c0,1-0.2,2.1-1.5,2.1s-1.5-1.1-1.5-2.1c0-3.8-0.1-7.6,0-11.4c0-2.2-0.6-3.8-3-4.2c-0.9-0.2-1.8-0.6-1.7-1.7
		c0.1-1.3,1.2-1.3,2.2-1.4c5.5-0.4,5.6-0.4,5.6,5L56.9,53.9L56.9,53.9z M66.9,61.6c0,1.2-0.3,2.5-1.7,2.5c-1.6,0-1.6-1.3-1.6-2.5
		c0-1.9,0-3.7,0-5.5h0c0-2,0-4,0-6.1c0-1.1,0.5-1.8,1.7-1.9c1.3,0,1.7,0.7,1.7,1.9C66.9,53.9,66.9,57.8,66.9,61.6z M71.8,44.9
		c0,0.6-0.3,1-0.6,1.2c-0.3,0.2-0.7,0.3-1.1,0.3h-1.9c-0.2,0-0.4-0.1-0.4-0.3v-2.4c0-0.2,0.2-0.3,0.4-0.3h1.6
		C71.8,43.4,71.8,44.9,71.8,44.9z"/>
	<path d="M12.4,41.7c2.1,0,4.3-0.1,6.4,0c2.1,0.2,3.7,1.1,3.6,3.5c-0.1,2.2-1.7,3-3.7,2.9c-2.4-0.1-3.1,0.9-3,3.1
		c0.1,2.9,0,5.8,0,8.7c0,1.1-0.1,2.1-0.3,3.2c-0.3,1.8-1.5,2.9-3.3,2.8s-2.9-1.4-2.9-3.2c-0.1-3.8-0.1-7.6,0-11.4
		c0.1-2.2-0.5-3.3-3-3.2c-2.2,0.1-3.9-0.7-3.9-3.2c0-2.4,1.8-3.1,3.8-3.2C8.2,41.6,10.3,41.7,12.4,41.7
		C12.4,41.7,12.4,41.7,12.4,41.7z M10.5,55.5L10.5,55.5c0,1.9,0,3.9,0,5.8c0,1.3,0.1,2.8,1.7,2.8c1.7,0,1.7-1.5,1.7-2.7
		c0-3.8,0-7.6,0-11.4c0-2.1,1-3.3,3.2-3.5c0.7-0.1,1.4-0.1,2.1-0.2c0.7-0.1,1.4-0.4,1.5-1.2c0.1-0.9-0.5-1.6-1.4-1.6
		c-4.7-0.1-9.4-0.1-14.1,0c-0.9,0-1.5,0.7-1.4,1.6c0.1,0.8,0.7,1.2,1.5,1.3c0.6,0.1,1.2,0.1,1.9,0.2c2.4,0.1,3.6,1.2,3.4,3.7
		C10.4,52,10.5,53.7,10.5,55.5z"/>
	<path d="M97.8,53.9c0,6.7-5.6,12.2-12.2,12.1C79.1,66,73.5,60.4,73.4,54c-0.1-6.6,5.6-12.2,12.2-12.2
		C92.3,41.8,97.8,47.2,97.8,53.9z M85.5,43.4c-5.9,0-10.4,4.6-10.3,10.5c0,6,4.6,10.5,10.7,10.4c5.8,0,10.5-4.7,10.5-10.5
		C96.3,48.1,91.4,43.4,85.5,43.4z"/>
	<path d="M46.9,53.7c0,6.7-5.4,12.3-12,12.3s-12.4-5.7-12.3-12.1c0-6.6,5.8-12.2,12.3-12.2C41.5,41.8,46.9,47.2,46.9,53.7z
		 M24.3,53.8c0,6,4.5,10.6,10.5,10.6c5.9,0,10.5-4.5,10.6-10.3c0.1-5.7-4.8-10.6-10.7-10.6C28.9,43.4,24.4,47.9,24.3,53.8z"/>
	<path class="st0" d="M55.4,33.9c1.9,0.2,3.1,1.3,3,3.1c-0.1,1.8-1.3,3-3.2,2.9c-1.8-0.1-3-1.2-2.9-3.1
		C52.4,35.1,53.6,34.1,55.4,33.9z"/>
	<path class="st1" d="M62.2,37.1c0.1-1.8,0.9-2.9,2.7-3c1.9-0.1,3.1,1,3.1,2.8c0,1.8-1.1,3-3,3C63.3,39.9,62.4,38.7,62.2,37.1z"/>
	<path d="M85.6,61.4c-4.1,0-7.4-3.4-7.4-7.4c0-4,3.4-7.5,7.4-7.5c4.1,0,7.6,3.4,7.5,7.6C93,58.1,89.7,61.4,85.6,61.4z M91.5,54.2
		c0.2-3.2-2.1-5.9-5.3-6.1c-3.6-0.2-6.4,2.1-6.6,5.4c-0.2,3.2,2.4,6,5.6,6.1C88.7,59.8,91.3,57.5,91.5,54.2z"/>
	<path d="M27.3,53.9c0-4,3.4-7.4,7.4-7.5c3.9-0.1,7.5,3.3,7.6,7.3c0.1,4.1-3.4,7.6-7.5,7.6C30.9,61.4,27.4,57.9,27.3,53.9z
		 M34.9,48.1c-3.4,0-6,2.5-6,5.8c0,3.3,2.6,5.8,6,5.7c3.3,0,5.8-2.4,5.8-5.6C40.8,50.7,38.3,48.1,34.9,48.1z"/>
</g>
</svg>
