<?xml version="1.0" encoding="utf-8"?>
<!-- Generator: Adobe Illustrator 27.1.0, SVG Export Plug-In . SVG Version: 6.00 Build 0)  -->
<svg version="1.1"
	 id="svg2" xmlns:inkscape="http://www.inkscape.org/namespaces/inkscape" xmlns:svg="http://www.w3.org/2000/svg" xmlns:cc="http://creativecommons.org/ns#" xmlns:rdf="http://www.w3.org/1999/02/22-rdf-syntax-ns#" xmlns:sodipodi="http://sodipodi.sourceforge.net/DTD/sodipodi-0.dtd" xmlns:dc="http://purl.org/dc/elements/1.1/" inkscape:version="0.91 r13725"
	 xmlns="http://www.w3.org/2000/svg" xmlns:xlink="http://www.w3.org/1999/xlink" x="0px" y="0px" viewBox="0 0 100 100"
	 style="enable-background:new 0 0 100 100;" xml:space="preserve">
<style type="text/css">
	.st0{fill-rule:evenodd;clip-rule:evenodd;}
</style>
<sodipodi:namedview  bordercolor="#666666" borderopacity="1" gridtolerance="10" guidetolerance="10" id="namedview37" inkscape:current-layer="svg2" inkscape:cx="50.084007" inkscape:cy="66.777676" inkscape:pageopacity="0" inkscape:pageshadow="2" inkscape:showpageshadow="false" inkscape:window-height="705" inkscape:window-maximized="1" inkscape:window-width="1366" inkscape:window-x="-8" inkscape:window-y="-8" inkscape:zoom="1" objecttolerance="10" pagecolor="#ffffff" showborder="true" showgrid="false">
	</sodipodi:namedview>
<g>
	<polygon class="st0" points="62.9,32.2 62.9,29.9 53.9,29.9 53.9,42.3 62.9,42.3 62.9,40.3 56.4,40.3 56.4,36.9 62.1,36.9 
		62.1,34.7 56.4,34.7 56.4,32.2 62.9,32.2 	"/>
	<polygon class="st0" points="60.4,43.6 60.4,48.4 55.5,48.4 55.5,43.6 52.9,43.6 52.9,55.9 55.5,55.9 55.5,50.4 60.4,50.4 
		60.4,55.9 62.9,55.9 62.9,43.6 60.4,43.6 	"/>
	<polygon class="st0" points="62.9,59.4 62.9,57.2 53.9,57.2 53.9,69.8 62.9,69.8 62.9,67.5 56.4,67.5 56.4,64.2 62.1,64.2 
		62.1,62.1 56.4,62.1 56.4,59.4 62.9,59.4 	"/>
	<polygon class="st0" points="52.4,29.9 49.9,29.9 49.9,34.7 45,34.7 45,29.9 42.5,29.9 42.5,42.3 45,42.3 45,36.8 49.9,36.8 
		49.9,42.3 52.4,42.3 52.4,29.9 	"/>
	<polygon class="st0" points="31.7,29.9 31.7,32.2 35.5,32.2 35.5,42.3 38,42.3 38,32.2 41.9,32.2 41.9,29.9 31.7,29.9 	"/>
	<path class="st0" d="M23.8,43.3c-4,0-6,2.3-6,6.5c0,4.5,2.1,6.7,6,6.7s6-2.2,6-6.7C29.8,45.5,27.7,43.3,23.8,43.3L23.8,43.3z
		 M20.4,49.8c0-2.9,1.1-4.3,3.3-4.3c2.4,0,3.5,1.4,3.5,4.3c0,3-1.1,4.5-3.5,4.5C21.6,54.2,20.4,52.8,20.4,49.8L20.4,49.8z"/>
	<polygon class="st0" points="14.1,43.6 14.1,52.3 9.2,43.6 6.5,43.6 6.5,55.9 8.9,55.9 8.9,47.3 13.9,55.9 16.6,55.9 16.6,43.6 
		14.1,43.6 	"/>
	<polygon class="st0" points="25.8,62.3 25.8,59.4 32.1,59.4 32.1,57.2 23.3,57.2 23.3,69.8 25.8,69.8 25.8,64.5 31.4,64.5 
		31.4,62.3 25.8,62.3 	"/>
	<polygon class="st0" points="52,45.8 52,43.6 41.9,43.6 41.9,45.8 45.6,45.8 45.6,55.9 48.2,55.9 48.2,45.8 52,45.8 	"/>
	<path class="st0" d="M36.3,51.2c0.8,0,1.4,0.1,1.7,0.5l0.5,4.3h2.9v-0.3c-0.3-0.2-0.5-0.9-0.5-2.4c0-1.7-0.6-2.7-1.6-3.1
		c1.3-0.5,1.9-1.4,1.9-3c0-2.2-1.3-3.5-4-3.5H31v12.3h2.6v-4.7H36.3L36.3,51.2z M33.6,49.1v-3.3h3.1c1.3,0,1.9,0.5,1.9,1.6
		s-0.6,1.7-2,1.7H33.6L33.6,49.1z"/>
	<path class="st0" d="M38,57.2h-3l-4.4,12.6h2.7l1-2.7h4.6l0.8,2.7h2.7L38,57.2L38,57.2z M36.4,60.1L38,65h-3.1L36.4,60.1L36.4,60.1
		z"/>
	<path class="st0" d="M50.4,61.3h2.5c-0.1-1.1-0.5-2-1.2-2.9c-1.1-0.9-2.4-1.6-4.1-1.6s-3,0.6-4.1,1.7c-0.9,1.1-1.6,2.7-1.6,4.8
		c0,4.4,1.9,6.6,5.5,6.6c3.2,0,4.9-1.6,5.5-4.6h-2.5c-0.3,1.4-1.4,2.2-2.9,2.2c-2.1,0-3-1.4-3-4.1c0-3,0.9-4.4,3-4.4
		C49,59.1,49.8,59.9,50.4,61.3L50.4,61.3z"/>
	<path class="st0" d="M18.8,69.6L18.8,69.6L18.8,69.6L18.8,69.6z M18.9,69.6L18.9,69.6c0.4,0,0.8-0.2,1-0.4c0.2-0.3,0.4-0.6,0.4-1.1
		l0,0l0,0c0-0.5-0.2-0.9-0.4-1.1c-0.3-0.2-0.6-0.3-1-0.3h0c-0.5,0-0.9,0.1-1.1,0.3l0,0c-0.2,0.2-0.3,0.6-0.3,1.1v0
		c0,0.4,0.1,0.8,0.3,1C18,69.4,18.3,69.6,18.9,69.6L18.9,69.6L18.9,69.6L18.9,69.6L18.9,69.6L18.9,69.6z M18.8,69.9L18.8,69.9
		c-0.6,0-1-0.2-1.3-0.5c-0.3-0.3-0.4-0.7-0.4-1.2v0c0-0.6,0.1-1,0.4-1.3l0,0l0,0l0,0l0,0c0.3-0.3,0.7-0.4,1.3-0.4h0
		c0.5,0,0.9,0.1,1.2,0.4s0.5,0.7,0.5,1.3l0,0l0,0c0,0.6-0.2,1-0.5,1.3C19.8,69.7,19.4,69.9,18.8,69.9L18.8,69.9L18.8,69.9z M19,68
		L19,68L19,68L19,68C19,68,19,68,19,68c0.2,0,0.3-0.1,0.3-0.3v0c0,0,0,0,0,0c0,0-0.1,0-0.3,0l0,0l0,0l0,0h-0.5V68H19L19,68L19,68z
		 M19.3,68.3l0.3,0.4c0,0.1,0,0.2,0,0.2c-0.1,0.1-0.2,0-0.3,0l-0.4-0.6h-0.4v0.5c0,0.1-0.1,0.2-0.2,0.2s-0.2-0.1-0.2-0.2v-0.6v-0.8
		c0-0.1,0.1-0.2,0.2-0.2H19l0,0l0,0l0,0l0,0c0,0,0,0,0,0c0.2,0,0.3,0,0.4,0.1c0,0,0.1,0,0.1,0.1c0.1,0.1,0.1,0.2,0.1,0.3
		C19.6,68,19.6,68.2,19.3,68.3L19.3,68.3z"/>
	<path class="st0" d="M64.7,29.9c7.9,0,14.8,2.9,20.3,8.4c5.7,5.7,8.6,12.5,8.6,20.5v10.9H81.9V58.5c0-4.4-1.6-8.3-4.8-11.4
		c-0.8-0.8-1.6-1.4-2.5-2.1c-2.6-1.7-5.6-2.5-8.7-2.5h-1.3V29.9L64.7,29.9z M80.8,69.8h-9V61c0-1.4-0.5-2.6-1.4-3.5
		c-0.9-1-2.2-1.4-3.5-1.4h-2.2V43.6h1.3c3.3,0,6.2,0.9,8.7,2.9c0.6,0.3,1.3,0.9,1.7,1.4c3,3,4.4,6.5,4.4,10.6V69.8L80.8,69.8z
		 M70.7,69.8h-6V57.2h2.2c1,0,1.9,0.3,2.7,1.1c0.6,0.6,1.1,1.6,1.1,2.7V69.8L70.7,69.8z"/>
</g>
</svg>
