<?xml version="1.0" encoding="utf-8"?>
<!-- Generator: Adobe Illustrator 27.1.0, SVG Export Plug-In . SVG Version: 6.00 Build 0)  -->
<svg version="1.1"
	 id="svg2" xmlns:inkscape="http://www.inkscape.org/namespaces/inkscape" xmlns:svg="http://www.w3.org/2000/svg" xmlns:cc="http://creativecommons.org/ns#" xmlns:rdf="http://www.w3.org/1999/02/22-rdf-syntax-ns#" xmlns:sodipodi="http://sodipodi.sourceforge.net/DTD/sodipodi-0.dtd" xmlns:dc="http://purl.org/dc/elements/1.1/" inkscape:version="0.91 r13725"
	 xmlns="http://www.w3.org/2000/svg" xmlns:xlink="http://www.w3.org/1999/xlink" x="0px" y="0px" viewBox="0 0 100 100"
	 style="enable-background:new 0 0 100 100;" xml:space="preserve">
<style type="text/css">
	.st0{fill:#AD292D;}
</style>
<sodipodi:namedview  bordercolor="#666666" borderopacity="1" gridtolerance="10" guidetolerance="10" id="namedview37" inkscape:current-layer="svg2" inkscape:cx="50.084007" inkscape:cy="66.777676" inkscape:pageopacity="0" inkscape:pageshadow="2" inkscape:showpageshadow="false" inkscape:window-height="705" inkscape:window-maximized="1" inkscape:window-width="1366" inkscape:window-x="-8" inkscape:window-y="-8" inkscape:zoom="1" objecttolerance="10" pagecolor="#ffffff" showborder="true" showgrid="false">
	</sodipodi:namedview>
<g>
	<path class="st0" d="M46.9,38.7h-4.8l5,13h5.4l5.1-13h-4.7l-3,8.5L46.9,38.7L46.9,38.7z M33.1,43.9c0-1.9,0.4-3,2.3-3
		c1.8,0,2.3,0.9,2.3,3H33.1L33.1,43.9z M35.5,49.7c-2,0-2.4-0.9-2.4-3.2H42c0-5.7-1.4-8.1-6.5-8.1c-5.6,0-7.1,1.9-7.1,6.9
		c0,4.9,2,7.2,6.8,7.2c4.7,0,6.4-1.7,6.5-4.4h-4.1C37.6,49.2,37.2,49.7,35.5,49.7L35.5,49.7z M23.5,38.7h-4.4v13h8.8v-3.1h-4.4V38.7
		L23.5,38.7z M58.1,61.9c-3.8,1-6.3,1.9-8,2.8c-5.2-2.3-10.8-3.6-16.2-3.6c-6.7,0-12.7,1.7-17.8,4.2L8.8,29.9h49.2"/>
	<path class="st0" d="M76.4,67.2c0-0.2-0.2-0.3-0.8-0.3v0.6C76,67.5,76.4,67.5,76.4,67.2L76.4,67.2z M75.1,68.9v-2.5h0.7
		c0.7,0,1.2,0.2,1.2,0.8c0,0.3-0.2,0.5-0.6,0.7l0.5,1h-0.5L76,68.2h-0.4v0.7H75.1L75.1,68.9z M78,67.6c0-1.1-0.9-2-2.1-2
		c-1.2,0-2.1,0.9-2.1,2c0,1.1,1,2.1,2.1,2.1C77.1,69.7,78,68.8,78,67.6L78,67.6z M75.9,65.1c1.4,0,2.5,1.1,2.5,2.5
		c0,1.4-1.1,2.5-2.5,2.5c-1.4,0-2.5-1.1-2.5-2.5C73.4,66.3,74.6,65.1,75.9,65.1L75.9,65.1z M72.4,47.6h-4.6c0.1,3.1,1.7,4.4,6.7,4.4
		c4.7,0,6.5-1,6.5-4.3c0-5.1-8.6-2.6-8.6-5.6c0-0.7,0.9-1.4,2-1.4c1.2,0,1.7,0.5,1.9,1.6h4.4c-0.1-2.7-1.7-4-6-4
		c-4.6,0-6.7,1.3-6.7,4.1c0,5.6,8.6,2.6,8.6,5.8c0,1-0.5,1.4-1.8,1.4C73.4,49.7,72.5,49.1,72.4,47.6L72.4,47.6z M66.3,39.5l-0.2,1.3
		c1.4-0.9,1.9-1.6,1.9-2.6c0-1.1-0.7-1.7-1.8-1.7c-1.1,0-1.8,0.6-1.8,1.5C64.4,39.4,65.2,39.5,66.3,39.5L66.3,39.5z M58.8,38.7v13
		h4.3v-13H58.8L58.8,38.7z M58,29.9h33.2l-7.8,35.5c-5.1-3-9.8-4.2-16.6-4.2c-3.7,0-6.2,0.3-8.8,0.8 M58,29.9"/>
</g>
</svg>
