<?xml version="1.0" encoding="utf-8"?>
<!-- Generator: Adobe Illustrator 27.9.0, SVG Export Plug-In . SVG Version: 6.00 Build 0)  -->
<svg version="1.1" id="Capa_1" xmlns="http://www.w3.org/2000/svg" xmlns:xlink="http://www.w3.org/1999/xlink" x="0px" y="0px"
	 viewBox="0 0 100 100" style="enable-background:new 0 0 100 100;" xml:space="preserve">
<style type="text/css">
	.st0{clip-path:url(#SVGID_00000142876803944043761690000012273362689394553248_);}
	.st1{fill:#0072BA;}
	.st2{fill:#ED1C2C;}
	.st3{fill:#FFFFFF;}
	.st4{fill:#FEDF00;}
</style>
<g>
	<defs>
		<rect id="SVGID_1_" width="100" height="100"/>
	</defs>
	<clipPath id="SVGID_00000032624550258034441720000016422498085144257933_">
		<use xlink:href="#SVGID_1_"  style="overflow:visible;"/>
	</clipPath>
	<g style="clip-path:url(#SVGID_00000032624550258034441720000016422498085144257933_);">
		<g>
			<g id="g338" transform="matrix(19.200204,0,0,19.200204,504.57655,1203.4669)">
				<path id="path340" class="st1" d="M-25.7-59.4h-0.1v-0.2h-0.2v0.2h-0.1v-0.4h0.1v0.2h0.2v-0.2h0.1V-59.4z"/>
			</g>
			<g id="g344">
				<g id="g350" transform="translate(180.9971,532.433)">
					<path id="path352" class="st1" d="M-162.6-473.6c0-0.3,0-0.6-0.1-0.8c-0.1-0.2-0.2-0.5-0.4-0.6c-0.2-0.2-0.4-0.3-0.7-0.4
						c-0.3-0.1-0.6-0.2-0.9-0.2c-0.6,0-1.2,0.2-1.5,0.6c-0.4,0.4-0.6,0.9-0.6,1.5c0,0.6,0.2,1.1,0.6,1.5c0.4,0.4,0.9,0.6,1.5,0.6
						c0.4,0,0.8-0.1,1.1-0.3c0.3-0.2,0.6-0.4,0.7-0.7C-162.7-472.9-162.6-473.2-162.6-473.6 M-160.2-473.6c0,0.7-0.2,1.4-0.5,2.1
						c-0.3,0.6-0.9,1.1-1.5,1.5c-0.7,0.4-1.5,0.6-2.5,0.6c-1,0-1.8-0.2-2.5-0.6c-0.7-0.4-1.2-0.9-1.5-1.5c-0.3-0.6-0.5-1.3-0.5-2
						c0-0.7,0.2-1.4,0.5-2c0.3-0.6,0.8-1.1,1.5-1.5c0.7-0.4,1.5-0.6,2.5-0.6c0.7,0,1.4,0.1,2,0.3c0.6,0.2,1.1,0.5,1.4,0.9
						c0.4,0.4,0.7,0.8,0.9,1.3C-160.3-474.7-160.2-474.2-160.2-473.6"/>
				</g>
			</g>
			<g id="g354" transform="matrix(19.200204,0,0,19.200204,1064.5179,1203.4669)">
				<path id="path356" class="st1" d="M-53.8-59.4h-0.1v-0.2l-0.1,0.1h0l-0.1-0.1v0.2h-0.1v-0.4h0.1l0.1,0.2l0.1-0.2h0.1V-59.4z"/>
			</g>
			<g id="g358" transform="matrix(19.200204,0,0,19.200204,1276.6956,1203.4669)">
				<path id="path360" class="st1" d="M-64.4-59.4h-0.3v-0.4h0.3v0.1h-0.2v0.1h0.2v0.1h-0.2v0.1L-64.4-59.4L-64.4-59.4z"/>
			</g>
			<g id="g364">
				<g id="g370" transform="translate(222.6459,527.8155)">
					<path id="path372" class="st1" d="M-173.5-465.6c-0.3,0.2-0.7,0.3-1,0.4c-0.3,0.1-0.7,0.2-1.1,0.2c-0.4,0-0.7,0.1-1.1,0.1
						c-0.7,0-1.3-0.1-1.9-0.3c-0.6-0.2-1-0.5-1.4-0.9c-0.4-0.4-0.7-0.8-0.9-1.3c-0.2-0.5-0.3-1.1-0.3-1.7c0-0.7,0.1-1.3,0.4-1.8
						c0.2-0.5,0.6-1,1-1.3c0.4-0.3,0.9-0.6,1.5-0.8c0.5-0.2,1.1-0.2,1.7-0.2c0.9,0,1.9,0.2,3.1,0.6v2.1c-0.4-0.2-0.8-0.5-1.2-0.6
						c-0.4-0.2-0.8-0.2-1.4-0.2c-0.5,0-0.9,0.1-1.3,0.3c-0.4,0.2-0.7,0.4-1,0.8c-0.2,0.3-0.4,0.7-0.4,1.2c0,0.4,0.1,0.8,0.3,1.1
						c0.2,0.3,0.5,0.6,0.9,0.8c0.4,0.2,0.8,0.3,1.3,0.3c0.4,0,0.8,0,1.1-0.1s0.6-0.2,0.9-0.3c0.2-0.1,0.5-0.3,0.7-0.4V-465.6z"/>
				</g>
			</g>
			<g id="g374" transform="matrix(19.200204,0,0,19.200204,1719.8132,1203.4669)">
				<path id="path376" class="st1" d="M-86.6-59.4h-0.3v-0.4h0.3v0.1h-0.2v0.1h0.2v0.1h-0.2v0.1L-86.6-59.4L-86.6-59.4z"/>
			</g>
			<g id="g378" transform="matrix(19.200204,0,0,19.200204,1990.6033,1203.4669)">
				<path id="path380" class="st1" d="M-100.2-59.4h-0.1l-0.2-0.2v0.2h-0.1v-0.4h0.1l0.2,0.2v-0.2h0.1V-59.4z"/>
			</g>
			<g id="g382" transform="matrix(19.200204,0,0,19.200204,2249.3702,1361.0737)">
				<path id="path384" class="st1" d="M-113.1-67.9h-0.2v0.3h-0.1v-0.3h-0.2V-68h0.4V-67.9z"/>
			</g>
			<g id="g386" transform="matrix(19.200204,0,0,19.200204,2452.5065,1203.4669)">
				<path id="path388" class="st1" d="M-123.3-59.4h-0.3v-0.4h0.3v0.1h-0.2v0.1h0.2v0.1h-0.2v0.1L-123.3-59.4L-123.3-59.4z"/>
			</g>
			<g id="g392">
				<g id="g398" transform="translate(280.0558,534.4211)">
					<path id="path400" class="st1" d="M-188.4-477.1c0-0.4-0.1-0.6-0.4-0.8c-0.2-0.1-0.6-0.2-1.2-0.2h-0.5v1.9h0.5
						c0.6,0,1-0.1,1.2-0.2C-188.5-476.5-188.4-476.7-188.4-477.1 M-185.1-471.6h-2.6l-0.6-1.4c-0.2-0.5-0.4-0.9-0.6-1.1
						c-0.2-0.2-0.4-0.4-0.5-0.5c-0.2-0.1-0.4-0.1-0.7-0.1h-0.3v3.1h-2.4v-8h4.1c0.7,0,1.2,0.1,1.6,0.4c0.4,0.3,0.7,0.6,0.9,1
						c0.2,0.4,0.3,0.8,0.3,1.1c0,0.4-0.1,0.7-0.2,1c-0.2,0.3-0.3,0.5-0.5,0.6c-0.2,0.1-0.4,0.3-0.6,0.4c0.3,0.2,0.5,0.3,0.6,0.5
						c0.2,0.2,0.4,0.6,0.7,1.3L-185.1-471.6z"/>
				</g>
			</g>
		</g>
		<g>
			<g>
				<g id="g290">
					<g id="g296" transform="translate(199.1924,545.6508)">
						<path id="path298" class="st2" d="M-167.4-496.6c0,0.6-0.2,1.2-0.5,1.6c-0.3,0.5-0.8,0.8-1.4,1.1c-0.6,0.2-1.2,0.4-2,0.4
							c-0.2,0-0.5,0-0.8,0c-0.3,0-0.7-0.1-1.2-0.2c-0.5-0.1-1-0.3-1.6-0.5v-2.5c0.5,0.3,1,0.6,1.5,0.8c0.5,0.2,1,0.3,1.6,0.3
							c0.5,0,0.9-0.1,1-0.3c0.2-0.2,0.2-0.3,0.2-0.5c0-0.3-0.1-0.5-0.4-0.7c-0.3-0.2-0.6-0.4-1.1-0.6c-0.6-0.2-1-0.5-1.5-0.8
							c-0.4-0.3-0.8-0.6-1-1c-0.3-0.4-0.4-0.9-0.4-1.5c0-0.5,0.1-1,0.4-1.5c0.3-0.4,0.7-0.8,1.2-1.1c0.5-0.3,1.2-0.4,2-0.4
							c0.6,0,1.1,0.1,1.6,0.2c0.5,0.1,0.9,0.2,1.2,0.4c0.3,0.1,0.5,0.2,0.6,0.3v2.4c-0.4-0.3-0.9-0.6-1.4-0.8
							c-0.5-0.2-1.1-0.3-1.6-0.3c-0.4,0-0.7,0.1-0.8,0.2c-0.2,0.1-0.3,0.3-0.3,0.5c0,0.2,0.1,0.4,0.3,0.5c0.2,0.1,0.5,0.3,0.9,0.5
							c0.8,0.4,1.4,0.7,1.9,1s0.8,0.6,1.1,1C-167.5-497.7-167.4-497.2-167.4-496.6"/>
					</g>
					<g id="g300" transform="translate(211.8264,548.3917)">
						<path id="path302" class="st2" d="M-170.7-501.4c0-0.4-0.1-0.7-0.2-1c-0.1-0.3-0.3-0.6-0.5-0.8c-0.2-0.2-0.5-0.4-0.8-0.5
							c-0.3-0.1-0.7-0.2-1.1-0.2c-0.8,0-1.4,0.2-1.9,0.7c-0.5,0.5-0.7,1.1-0.7,1.8c0,0.8,0.2,1.4,0.7,1.8c0.5,0.5,1.1,0.7,1.9,0.7
							c0.5,0,1-0.1,1.4-0.3c0.4-0.2,0.7-0.5,0.9-0.9C-170.8-500.5-170.7-500.9-170.7-501.4 M-167.6-501.4c0,0.9-0.2,1.8-0.6,2.6
							c-0.4,0.8-1.1,1.4-1.9,1.9c-0.8,0.5-1.9,0.7-3.1,0.7c-1.2,0-2.3-0.2-3.1-0.7c-0.8-0.5-1.5-1.1-1.9-1.9
							c-0.4-0.8-0.6-1.6-0.6-2.5c0-0.9,0.2-1.7,0.6-2.5c0.4-0.8,1-1.4,1.9-1.9c0.9-0.5,1.9-0.7,3.1-0.7c0.9,0,1.7,0.1,2.5,0.4
							c0.7,0.3,1.3,0.6,1.8,1.1c0.5,0.5,0.8,1,1.1,1.6C-167.7-502.7-167.6-502.1-167.6-501.4"/>
					</g>
					<g id="g304" transform="translate(227.4066,548.315)">
						<path id="path306" class="st2" d="M-174.7-501.3c0-0.8-0.2-1.4-0.5-1.9c-0.3-0.5-0.7-0.8-1.1-0.9c-0.4-0.2-0.9-0.2-1.3-0.2
							h-1.3v5.9h1.3c0.8,0,1.5-0.2,2-0.6C-175-499.3-174.7-500.1-174.7-501.3 M-171.7-501.1c0,1-0.2,1.8-0.6,2.4
							c-0.4,0.6-0.8,1.1-1.3,1.5c-0.7,0.6-1.7,0.8-3,0.8h-0.2h-5.2v-9.9h4.1c0.6,0,1.2,0,1.6,0.1c0.4,0.1,0.8,0.2,1.2,0.3
							c0.4,0.1,0.7,0.2,0.9,0.4c0.2,0.1,0.5,0.3,0.7,0.5c0.3,0.3,0.6,0.6,0.9,1c0.3,0.4,0.5,0.8,0.6,1.3
							C-171.7-502.3-171.7-501.7-171.7-501.1"/>
					</g>
				</g>
				<path id="path308" class="st2" d="M60,52h-3V42h3V52z"/>
				<g id="g310" transform="matrix(19.200204,0,0,19.200204,2130.7129,1485.2472)">
					<path id="path312" class="st2" d="M-107.2-74.6h-0.2v-0.3l-0.1,0.2h0l-0.1-0.2v0.3h-0.2v-0.5h0.1l0.2,0.2l0.2-0.2h0.1V-74.6z"
						/>
				</g>
				<g id="g314" transform="matrix(19.200204,0,0,19.200204,2342.2628,1582.2025)">
					<path id="path316" class="st2" d="M-117.8-79.9l-0.1-0.2l-0.1,0.2H-117.8z M-117.5-79.7h-0.2l0-0.1h-0.2l0,0.1h-0.2l0.2-0.5
						h0.2L-117.5-79.7z"/>
				</g>
				<g id="g320">
					<g id="g326" transform="translate(284.2617,542.6843)">
						<path id="path328" class="st2" d="M-189.5-491.5c-0.4,0.2-0.8,0.4-1.3,0.5c-0.4,0.1-0.9,0.2-1.3,0.3c-0.4,0.1-0.9,0.1-1.4,0.1
							c-0.9,0-1.6-0.1-2.3-0.4c-0.7-0.2-1.3-0.6-1.8-1.1c-0.5-0.5-0.9-1-1.1-1.6c-0.3-0.6-0.4-1.3-0.4-2.1c0-0.9,0.1-1.6,0.4-2.2
							c0.3-0.6,0.7-1.2,1.2-1.6c0.5-0.4,1.1-0.7,1.8-0.9c0.7-0.2,1.4-0.3,2.2-0.3c1.1,0,2.4,0.3,3.8,0.8v2.6c-0.5-0.3-1-0.6-1.5-0.8
							c-0.5-0.2-1-0.3-1.7-0.3c-0.6,0-1.1,0.1-1.6,0.3c-0.5,0.2-0.9,0.6-1.2,1c-0.3,0.4-0.5,0.9-0.5,1.5c0,0.5,0.1,1,0.4,1.4
							c0.3,0.4,0.6,0.7,1.1,1c0.5,0.2,1,0.4,1.6,0.4c0.5,0,0.9-0.1,1.4-0.2c0.4-0.1,0.8-0.2,1.1-0.4c0.3-0.1,0.6-0.3,0.9-0.5V-491.5
							z"/>
					</g>
					<g id="g330" transform="translate(287.0209,544.0822)">
						<path id="path332" class="st2" d="M-190.2-493.9v0.4h0.2c0.1,0,0.2,0,0.2,0c0,0,0.1-0.1,0.1-0.2c0-0.1,0-0.1-0.1-0.2
							c-0.1,0-0.1,0-0.3,0H-190.2z M-190.4-494.1h0.4c0.2,0,0.3,0,0.4,0.1c0.1,0.1,0.1,0.1,0.1,0.3c0,0.1,0,0.2-0.1,0.2
							c-0.1,0.1-0.1,0.1-0.2,0.1l0.3,0.6h-0.2l-0.3-0.6h-0.2v0.6h-0.2V-494.1z"/>
					</g>
					<g id="g334" transform="translate(287.3008,544.7931)">
						<path id="path336" class="st2" d="M-190.3-495.1c-0.2,0-0.3,0-0.4,0.1c-0.1,0.1-0.3,0.2-0.4,0.3c-0.1,0.1-0.1,0.2-0.2,0.3
							c0,0.1-0.1,0.2-0.1,0.3c0,0.1,0,0.3,0.1,0.4c0.1,0.1,0.1,0.2,0.2,0.3c0.1,0.1,0.2,0.2,0.3,0.2c0.2,0.1,0.5,0.1,0.8,0
							c0.1-0.1,0.2-0.1,0.3-0.2c0.1-0.1,0.2-0.2,0.2-0.3c0-0.1,0.1-0.3,0.1-0.4c0-0.1,0-0.3-0.1-0.4c0-0.1-0.1-0.2-0.2-0.3
							c-0.1-0.1-0.2-0.2-0.3-0.2C-190-495.1-190.2-495.1-190.3-495.1 M-190.3-492.9c-0.2,0-0.3,0-0.5-0.1c-0.1-0.1-0.3-0.2-0.4-0.3
							c-0.1-0.1-0.2-0.2-0.3-0.4c-0.1-0.2-0.1-0.3-0.1-0.5c0-0.1,0-0.3,0.1-0.4c0-0.1,0.1-0.2,0.2-0.4c0.1-0.1,0.3-0.3,0.4-0.3
							c0.3-0.1,0.7-0.2,1,0c0.1,0.1,0.3,0.1,0.4,0.3c0.1,0.1,0.2,0.2,0.3,0.4c0.1,0.1,0.1,0.3,0.1,0.5c0,0.2,0,0.3-0.1,0.5
							c-0.1,0.2-0.2,0.3-0.3,0.4c-0.1,0.1-0.2,0.2-0.4,0.3C-190-492.9-190.1-492.9-190.3-492.9"/>
					</g>
				</g>
			</g>
			<g>
				<g id="g402" transform="matrix(19.200204,0,0,19.200204,675.38535,1834.4951)">
					<path id="path404" d="M-34.3-93.5h-0.2v-0.1h-0.1h-0.1v0.1h-0.2l-0.2,0.3v0.4h1v-0.4L-34.3-93.5z"/>
				</g>
				<path id="path406" class="st2" d="M11,50.5H3.2v-5.1H11V50.5z"/>
				<path id="path408" class="st3" d="M20.2,50.5h-7.8v-5.1h7.8V50.5z"/>
				<g id="g410" transform="matrix(19.200204,0,0,19.200204,753.56481,1692.212)">
					<path id="path412" class="st1" d="M-38.2-85.8l-0.2-0.2l-0.4,0l0.2,0.2H-38.2z"/>
				</g>
				<g id="g414" transform="matrix(19.200204,0,0,19.200204,514.66433,1692.089)">
					<path id="path416" class="st4" d="M-26.3-85.8l-0.2-0.2l-0.2,0.2H-26.3z"/>
				</g>
			</g>
		</g>
	</g>
</g>
</svg>
