<?xml version="1.0" encoding="utf-8"?>
<!-- Generator: Adobe Illustrator 27.9.0, SVG Export Plug-In . SVG Version: 6.00 Build 0)  -->
<svg version="1.1" id="Capa_1" xmlns="http://www.w3.org/2000/svg" xmlns:xlink="http://www.w3.org/1999/xlink" x="0px" y="0px"
	 viewBox="0 0 100 100" style="enable-background:new 0 0 100 100;" xml:space="preserve">
<style type="text/css">
	.st0{fill:#F5333F;}
</style>
<g>
	<path d="M95.4,58c0,1.6,0,3.1,0,4.7c0,1-0.6,1.8-1.5,2c-0.9,0.3-1.9-0.1-2.4-0.9c-0.2-0.4-0.3-0.8-0.3-1.2c0-3,0-5.9,0-8.9
		c0-2-1.3-3.6-3.1-4.1c-2.4-0.6-4.9,1-5.3,3.5c0,0.2,0,0.5,0,0.7c0,3,0,5.9,0,8.9c0,1.1-0.6,1.9-1.6,2.1c-1.4,0.4-2.6-0.7-2.6-2.1
		c0-2.9,0-5.9,0-8.8c0-0.3,0-0.6-0.1-1c-0.4-2-2.1-3.5-4.2-3.5s-3.8,1.5-4.2,3.5c-0.1,0.3-0.1,0.6-0.1,1c0,2.9,0,5.9,0,8.8
		c0,1.2-0.9,2.2-2.1,2.2c-1.1,0-2.1-0.9-2.1-2c0-3.1-0.1-6.3,0-9.4c0.1-4.2,3.2-7.4,7-8c2.9-0.5,5.4,0.4,7.5,2.5
		c0.2,0.2,0.3,0.2,0.5,0c1.4-1.5,3.2-2.4,5.3-2.6c2.7-0.3,5,0.6,6.9,2.6c1.3,1.3,2.1,3,2.3,4.9c0,0.4,0.1,0.7,0.1,1.1
		C95.4,55.2,95.4,56.6,95.4,58z"/>
	<path d="M13.3,41.7c0,1.4,0,2.9,0,4.3c0,1-0.4,1.6-1.2,2.1c-2.2,1.2-3.3,3.1-3.5,5.6c-0.2,3.2,1.9,6.2,5,7c3.6,0.9,7.4-1.4,8.1-5.1
		c0.6-3.1-0.7-6-3.5-7.5c-0.7-0.4-1.1-1-1.1-1.8c0-3,0-6,0-9c0-1.1,0.8-2,1.9-2c1-0.1,1.9,0.7,2,1.8c0,0.2,0,0.4,0,0.6
		c0,2.4,0,4.8,0,7.1c0,0.3,0.1,0.4,0.3,0.6c2.5,1.8,3.9,4.3,4.3,7.3c0.5,3.7-0.6,6.9-3.4,9.5c-1.7,1.6-3.7,2.5-6,2.7
		c-3.3,0.3-6.1-0.7-8.5-3C6,60.1,5,58.1,4.7,55.7c-0.4-3.2,0.3-6,2.3-8.5c0.6-0.7,1.2-1.4,2-1.9c0.2-0.2,0.3-0.3,0.3-0.6
		c0-2.5,0-4.9,0-7.4c0-0.8,0.3-1.5,1-1.9c1.3-0.7,2.9,0.2,2.9,1.8c0,0,0,0,0,0.1C13.3,38.7,13.3,40.2,13.3,41.7z"/>
	<path d="M46.1,50c0-4.3,0-8.5,0-12.8c0-1,0.8-1.9,1.8-2.1c1-0.1,2,0.5,2.3,1.5c0.1,0.2,0.1,0.5,0.1,0.7c0,2.8,0,5.7,0,8.5
		c0,0.4,0,0.4,0.4,0.2c5-2.5,10.9,0.2,12.1,5.7c0.1,0.6,0.2,1.2,0.2,1.8c0,3,0,6,0,9c0,1.1-0.6,1.9-1.6,2.2
		c-1.3,0.3-2.6-0.7-2.6-2.1c0-2.4,0-4.8,0-7.1c0-0.7,0-1.4,0-2.1c0-2.1-1.8-3.9-3.8-4.1c-2.3-0.2-4.3,1.4-4.6,3.6c0,0.3,0,0.6,0,0.9
		c0,2.9,0,5.7,0,8.6c0,0.7-0.2,1.3-0.7,1.8c-0.7,0.6-1.4,0.7-2.2,0.3c-0.8-0.4-1.2-1-1.2-1.9C46.1,58.5,46.1,54.2,46.1,50L46.1,50z"
		/>
	<path d="M36.6,41.2c0,1.2,0,2.5,0,3.7c0,0.3,0.1,0.4,0.4,0.4c1.7,0,3.3,0,5,0c1,0,1.9,0.7,2.1,1.7c0.3,1.3-0.7,2.5-2.1,2.5
		c-1.6,0-3.3,0-4.9,0c-0.5,0-0.5,0-0.5,0.5c0,1.9,0,3.9,0,5.8c0,2.5,1.8,4.5,4.3,4.8c0.2,0,0.3,0,0.5,0c1.2,0,2.1,0.9,2.1,2.1
		c0,1.1-0.9,2-2.1,2.1c-4.2,0.1-8.1-3-8.9-7.5c-0.1-0.5-0.1-1-0.1-1.5c0-2,0-3.9,0-5.9c0-0.3-0.1-0.4-0.4-0.4c-0.4,0-0.9,0-1.3,0
		c-1-0.2-1.8-1.2-1.7-2.2c0.1-1.1,1-1.9,2-1.9c0.3,0,0.7,0,1,0c0.3,0,0.4-0.1,0.4-0.4c0-1.9,0-3.9,0-5.8c0-0.6,0-1.2,0-1.8
		c0.1-1.1,1-1.9,2.2-1.8c1,0,1.9,0.9,1.9,1.9C36.7,38.7,36.6,40,36.6,41.2L36.6,41.2z"/>
	<path class="st0" d="M15.2,57.4c-1.9,0-3.4-1.5-3.4-3.4c0-1.9,1.5-3.4,3.4-3.4c1.7,0,3.3,1.3,3.3,3.4C18.5,56,17,57.4,15.2,57.4z"
		/>
</g>
</svg>
