<?xml version="1.0" encoding="utf-8"?>
<!-- Generator: Adobe Illustrator 27.1.0, SVG Export Plug-In . SVG Version: 6.00 Build 0)  -->
<svg version="1.1"
	 id="svg2" xmlns:inkscape="http://www.inkscape.org/namespaces/inkscape" xmlns:svg="http://www.w3.org/2000/svg" xmlns:cc="http://creativecommons.org/ns#" xmlns:rdf="http://www.w3.org/1999/02/22-rdf-syntax-ns#" xmlns:sodipodi="http://sodipodi.sourceforge.net/DTD/sodipodi-0.dtd" xmlns:dc="http://purl.org/dc/elements/1.1/" inkscape:version="0.91 r13725"
	 xmlns="http://www.w3.org/2000/svg" xmlns:xlink="http://www.w3.org/1999/xlink" x="0px" y="0px" viewBox="0 0 100 100"
	 style="enable-background:new 0 0 100 100;" xml:space="preserve">
<style type="text/css">
	.st0{fill:#FFFFFF;}
	.st1{fill:none;stroke:#004494;stroke-width:0.444;}
	.st2{fill:#004494;}
	.st3{fill:none;stroke:#004494;stroke-width:0.148;}
</style>
<sodipodi:namedview  bordercolor="#666666" borderopacity="1" gridtolerance="10" guidetolerance="10" id="namedview37" inkscape:current-layer="svg2" inkscape:cx="50.084007" inkscape:cy="66.777676" inkscape:pageopacity="0" inkscape:pageshadow="2" inkscape:showpageshadow="false" inkscape:window-height="705" inkscape:window-maximized="1" inkscape:window-width="1366" inkscape:window-x="-8" inkscape:window-y="-8" inkscape:zoom="1" objecttolerance="10" pagecolor="#ffffff" showborder="true" showgrid="false">
	</sodipodi:namedview>
<g>
	<path class="st0" d="M50,52.4c-3.9,0-7.1-3.2-7.1-7.1c0-3.9,3.2-7.1,7.1-7.1V24.4c-11.6,0-21,9.4-21,21c0,11.6,9.4,21,21,21V52.4z"
		/>
	<path class="st1" d="M50,52.4c-3.9,0-7.1-3.2-7.1-7.1c0-3.9,3.2-7.1,7.1-7.1V24.4c-11.6,0-21,9.4-21,21c0,11.6,9.4,21,21,21V52.4z"
		/>
	<path class="st2" d="M77.2,45.4L64.1,32.2L50.8,45.4h6.2c0,3.6-2.7,6.6-6.2,7v13.9C62,65.9,71,56.7,71,45.4H77.2z"/>
	<polygon class="st2" points="58.6,26.7 50.8,19 50.8,26.7 	"/>
	<polygon class="st2" points="50.8,34.7 59.9,34.7 63.2,31.3 59.9,28 50.8,28 	"/>
	<polygon class="st2" points="50.8,35.9 50.8,43.7 58.6,35.9 	"/>
	<path class="st2" d="M28.9,52.3c-0.6-1.9-1-4-1.1-6.1H7.6l4.8,6.1H28.9z"/>
	<path class="st2" d="M33.5,60.3H18.8l4.8,6.1l19,0C39.1,65.1,36,63,33.5,60.3"/>
	<path class="st2" d="M32.4,59c-1.3-1.6-2.3-3.5-3.1-5.5H13.4l4.3,5.5H32.4z"/>
	<path class="st2" d="M87.6,52.3l4.8-6.1H72.2c-0.1,2.1-0.5,4.2-1.1,6.1H87.6z"/>
	<path class="st2" d="M82.2,59l4.3-5.5H70.7c-0.8,2-1.8,3.8-3.1,5.5H82.2z"/>
	<path class="st2" d="M66.5,60.3c-2.5,2.7-5.6,4.8-9.1,6.1l19,0l4.8-6.1H66.5z"/>
	<g>
		<path class="st2" d="M33.6,72.2c-2.3,0-4.2,1.9-4.2,4.2c0,2.3,1.9,4.2,4.2,4.2c2.3,0,4.2-1.9,4.2-4.2C37.8,74.1,36,72.2,33.6,72.2
			 M33.6,79.6c-1.8,0-3.2-1.4-3.2-3.2s1.4-3.2,3.2-3.2c1.8,0,3.2,1.4,3.2,3.2S35.4,79.6,33.6,79.6"/>
		<path class="st3" d="M33.6,72.2c-2.3,0-4.2,1.9-4.2,4.2c0,2.3,1.9,4.2,4.2,4.2c2.3,0,4.2-1.9,4.2-4.2C37.8,74.1,36,72.2,33.6,72.2
			z M33.6,79.6c-1.8,0-3.2-1.4-3.2-3.2s1.4-3.2,3.2-3.2c1.8,0,3.2,1.4,3.2,3.2S35.4,79.6,33.6,79.6z"/>
		<path class="st2" d="M33.6,73.9c-1.4,0-2.5,1.1-2.5,2.5s1.1,2.5,2.5,2.5c1.4,0,2.5-1.1,2.5-2.5S35,73.9,33.6,73.9 M33.6,77.9
			c-0.8,0-1.5-0.7-1.5-1.5c0-0.8,0.7-1.5,1.5-1.5c0.8,0,1.5,0.7,1.5,1.5C35.1,77.2,34.4,77.9,33.6,77.9"/>
		<path class="st3" d="M33.6,73.9c-1.4,0-2.5,1.1-2.5,2.5s1.1,2.5,2.5,2.5c1.4,0,2.5-1.1,2.5-2.5S35,73.9,33.6,73.9z M33.6,77.9
			c-0.8,0-1.5-0.7-1.5-1.5c0-0.8,0.7-1.5,1.5-1.5c0.8,0,1.5,0.7,1.5,1.5C35.1,77.2,34.4,77.9,33.6,77.9z"/>
		<path class="st2" d="M49.9,73.9c-1.4,0-2.5,1.1-2.5,2.5s1.1,2.5,2.5,2.5c1.4,0,2.5-1.1,2.5-2.5S51.3,73.9,49.9,73.9 M49.9,77.9
			c-0.8,0-1.5-0.7-1.5-1.5c0-0.8,0.7-1.5,1.5-1.5c0.8,0,1.5,0.7,1.5,1.5C51.4,77.2,50.8,77.9,49.9,77.9"/>
		<path class="st3" d="M49.9,73.9c-1.4,0-2.5,1.1-2.5,2.5s1.1,2.5,2.5,2.5c1.4,0,2.5-1.1,2.5-2.5S51.3,73.9,49.9,73.9z M49.9,77.9
			c-0.8,0-1.5-0.7-1.5-1.5c0-0.8,0.7-1.5,1.5-1.5c0.8,0,1.5,0.7,1.5,1.5C51.4,77.2,50.8,77.9,49.9,77.9z"/>
		<path class="st2" d="M26.2,77c-0.3,1.5-1.6,2.6-3.1,2.6c-1.8,0-3.2-1.4-3.2-3.2s1.4-3.2,3.2-3.2c1.5,0,2.7,1,3.1,2.3h1.1
			c-0.4-1.9-2.1-3.4-4.1-3.4c-2.3,0-4.2,1.9-4.2,4.2s1.9,4.2,4.2,4.2c2.1,0,3.9-1.6,4.2-3.6H26.2z"/>
		<path class="st3" d="M26.2,77c-0.3,1.5-1.6,2.6-3.1,2.6c-1.8,0-3.2-1.4-3.2-3.2s1.4-3.2,3.2-3.2c1.5,0,2.7,1,3.1,2.3h1.1
			c-0.4-1.9-2.1-3.4-4.1-3.4c-2.3,0-4.2,1.9-4.2,4.2s1.9,4.2,4.2,4.2c2.1,0,3.9-1.6,4.2-3.6H26.2z"/>
		<path class="st2" d="M24.4,77c-0.2,0.5-0.7,0.9-1.4,0.9c-0.8,0-1.5-0.7-1.5-1.5c0-0.8,0.7-1.5,1.5-1.5c0.5,0,0.9,0.3,1.2,0.6h1.2
			c-0.3-1-1.3-1.7-2.4-1.7c-1.4,0-2.5,1.1-2.5,2.5c0,1.4,1.1,2.5,2.5,2.5c1.2,0,2.2-0.8,2.5-1.9H24.4z"/>
		<path class="st3" d="M24.4,77c-0.2,0.5-0.7,0.9-1.4,0.9c-0.8,0-1.5-0.7-1.5-1.5c0-0.8,0.7-1.5,1.5-1.5c0.5,0,0.9,0.3,1.2,0.6h1.2
			c-0.3-1-1.3-1.7-2.4-1.7c-1.4,0-2.5,1.1-2.5,2.5c0,1.4,1.1,2.5,2.5,2.5c1.2,0,2.2-0.8,2.5-1.9H24.4z"/>
		<path class="st2" d="M49.9,72.2c-0.4,0-0.8,0.1-1.2,0.2v-4.2h-1.1v3.2v1.5v1.3c0.6-0.6,1.4-0.9,2.2-0.9c1.8,0,3.2,1.4,3.2,3.2
			c0,1.8-1.4,3.2-3.2,3.2s-3.2-1.4-3.2-3.2v-2.8v-2.3v-3.2h-1.1v8.2c0,2.3,1.9,4.2,4.2,4.2c2.3,0,4.2-1.9,4.2-4.2
			C54.2,74.1,52.3,72.2,49.9,72.2"/>
		<path class="st3" d="M49.9,72.2c-0.4,0-0.8,0.1-1.2,0.2v-4.2h-1.1v3.2v1.5v1.3c0.6-0.6,1.4-0.9,2.2-0.9c1.8,0,3.2,1.4,3.2,3.2
			c0,1.8-1.4,3.2-3.2,3.2s-3.2-1.4-3.2-3.2v-2.8v-2.3v-3.2h-1.1v8.2c0,2.3,1.9,4.2,4.2,4.2c2.3,0,4.2-1.9,4.2-4.2
			C54.2,74.1,52.3,72.2,49.9,72.2z"/>
		<path class="st2" d="M60,76.3"/>
		<path class="st3" d="M60,76.3L60,76.3z"/>
		<path class="st2" d="M60.6,77.8c-0.1,0-0.3,0.1-0.4,0.1c-0.6,0-1.1-0.3-1.3-0.8H60h1.5h1.1c0.1-0.2,0.1-0.4,0.1-0.7
			c0-1.4-1.1-2.5-2.5-2.5c-1.4,0-2.5,1.1-2.5,2.5s1.1,2.5,2.5,2.5c0.9,0,1.6-0.4,2.1-1.1H60.6z M60.3,74.9c0.7,0,1.3,0.5,1.4,1.1
			h-2.9C59,75.4,59.6,74.9,60.3,74.9"/>
		<path class="st3" d="M60.6,77.8c-0.1,0-0.3,0.1-0.4,0.1c-0.6,0-1.1-0.3-1.3-0.8H60h1.5h1.1c0.1-0.2,0.1-0.4,0.1-0.7
			c0-1.4-1.1-2.5-2.5-2.5c-1.4,0-2.5,1.1-2.5,2.5s1.1,2.5,2.5,2.5c0.9,0,1.6-0.4,2.1-1.1H60.6z M60.3,74.9c0.7,0,1.3,0.5,1.4,1.1
			h-2.9C59,75.4,59.6,74.9,60.3,74.9z"/>
		<path class="st2" d="M62.9,78.1c-0.6,0.9-1.5,1.4-2.6,1.4c-1.8,0-3.2-1.4-3.2-3.2c0-1.8,1.4-3.2,3.2-3.2c1.8,0,3.2,1.4,3.2,3.2
			c0,0.2,0,0.5-0.1,0.7h1.1c0-0.2,0.1-0.5,0.1-0.7c0-2.3-1.9-4.2-4.2-4.2c-2.3,0-4.2,1.9-4.2,4.2c0,2.3,1.9,4.2,4.2,4.2
			c1.7,0,3.2-1,3.9-2.5H62.9z"/>
		<path class="st3" d="M62.9,78.1c-0.6,0.9-1.5,1.4-2.6,1.4c-1.8,0-3.2-1.4-3.2-3.2c0-1.8,1.4-3.2,3.2-3.2c1.8,0,3.2,1.4,3.2,3.2
			c0,0.2,0,0.5-0.1,0.7h1.1c0-0.2,0.1-0.5,0.1-0.7c0-2.3-1.9-4.2-4.2-4.2c-2.3,0-4.2,1.9-4.2,4.2c0,2.3,1.9,4.2,4.2,4.2
			c1.7,0,3.2-1,3.9-2.5H62.9z"/>
		<path class="st2" d="M67.2,76.8V74v-1.5v-4.4h-1.1v8.7c0,2.3,1.9,4.2,4.2,4.2c0.1,0,0.2,0,0.3,0V80c-0.1,0-0.2,0-0.3,0
			C68.6,80,67.2,78.6,67.2,76.8"/>
		<path class="st3" d="M67.2,76.8V74v-1.5v-4.4h-1.1v8.7c0,2.3,1.9,4.2,4.2,4.2c0.1,0,0.2,0,0.3,0V80c-0.1,0-0.2,0-0.3,0
			C68.6,80,67.2,78.6,67.2,76.8z"/>
		<path class="st2" d="M68.9,73.4h1.8v-1.1h-1.8v-4.2h-1.1l0,4.4h0v4.3h0v0.1h0c0.1,1.4,1.2,2.4,2.5,2.4c0.1,0,0.2,0,0.3,0v-1.1
			c-0.1,0-0.2,0-0.3,0c-0.8,0-1.5-0.7-1.5-1.5v0v-1.4h1.8v-1.1h-1.8V74V73.4z"/>
		<path class="st3" d="M68.9,73.4h1.8v-1.1h-1.8v-4.2h-1.1l0,4.4h0v4.3h0v0.1h0c0.1,1.4,1.2,2.4,2.5,2.4c0.1,0,0.2,0,0.3,0v-1.1
			c-0.1,0-0.2,0-0.3,0c-0.8,0-1.5-0.7-1.5-1.5v0v-1.4h1.8v-1.1h-1.8V74V73.4z"/>
		<path class="st2" d="M79.5,76.4C79.5,76.4,79.5,76.4,79.5,76.4l0-0.2h0c-0.1-1.3-1.2-2.3-2.5-2.3c-1.4,0-2.5,1.1-2.5,2.5
			s1.1,2.5,2.5,2.5c0.6,0,1.1-0.2,1.5-0.5v2.2h1.1L79.5,76.4C79.5,76.4,79.5,76.4,79.5,76.4 M76.9,77.9c-0.8,0-1.5-0.7-1.5-1.5
			c0-0.8,0.7-1.5,1.5-1.5c0.8,0,1.5,0.7,1.5,1.5C78.4,77.2,77.8,77.9,76.9,77.9"/>
		<path class="st3" d="M79.5,76.4C79.5,76.4,79.5,76.4,79.5,76.4l0-0.2h0c-0.1-1.3-1.2-2.3-2.5-2.3c-1.4,0-2.5,1.1-2.5,2.5
			s1.1,2.5,2.5,2.5c0.6,0,1.1-0.2,1.5-0.5v2.2h1.1L79.5,76.4C79.5,76.4,79.5,76.4,79.5,76.4z M76.9,77.9c-0.8,0-1.5-0.7-1.5-1.5
			c0-0.8,0.7-1.5,1.5-1.5c0.8,0,1.5,0.7,1.5,1.5C78.4,77.2,77.8,77.9,76.9,77.9z"/>
		<path class="st2" d="M81.2,76.2c-0.1-2.2-2-4-4.2-4c-2.3,0-4.2,1.9-4.2,4.2c0,2.3,1.9,4.2,4.2,4.2c0.2,0,0.4,0,0.5,0v-1.1
			c-0.2,0-0.3,0-0.5,0c-1.8,0-3.2-1.4-3.2-3.2c0-1.8,1.4-3.2,3.2-3.2c1.7,0,3,1.3,3.2,3h0v0.2v0v2.8v1.4h1.1L81.2,76.2L81.2,76.2z"
			/>
		<path class="st3" d="M81.2,76.2c-0.1-2.2-2-4-4.2-4c-2.3,0-4.2,1.9-4.2,4.2c0,2.3,1.9,4.2,4.2,4.2c0.2,0,0.4,0,0.5,0v-1.1
			c-0.2,0-0.3,0-0.5,0c-1.8,0-3.2-1.4-3.2-3.2c0-1.8,1.4-3.2,3.2-3.2c1.7,0,3,1.3,3.2,3h0v0.2v0v2.8v1.4h1.1L81.2,76.2L81.2,76.2z"
			/>
		<path class="st2" d="M43.4,70.9c-2.3,0-4.2,1.8-4.2,4.1h0v5.6h1.1v-2.7v-2.8h0c0,0,0,0,0,0c0-1.8,1.4-3.2,3.2-3.2
			c0.2,0,0.4,0,0.5,0.1v-1.1C43.8,70.9,43.6,70.9,43.4,70.9"/>
		<path class="st3" d="M43.4,70.9c-2.3,0-4.2,1.8-4.2,4.1h0v5.6h1.1v-2.7v-2.8h0c0,0,0,0,0,0c0-1.8,1.4-3.2,3.2-3.2
			c0.2,0,0.4,0,0.5,0.1v-1.1C43.8,70.9,43.6,70.9,43.4,70.9z"/>
		<path class="st2" d="M43.4,72.6c-1.4,0-2.5,1.1-2.5,2.5c0,0,0,0,0,0.1h0v5.4H42v-3.4v-2h0c0,0,0-0.1,0-0.1c0-0.8,0.7-1.5,1.5-1.5
			c0.2,0,0.4,0,0.5,0.1v-1.1C43.8,72.6,43.6,72.6,43.4,72.6"/>
		<path class="st3" d="M43.4,72.6c-1.4,0-2.5,1.1-2.5,2.5c0,0,0,0,0,0.1h0v5.4H42v-3.4v-2h0c0,0,0-0.1,0-0.1c0-0.8,0.7-1.5,1.5-1.5
			c0.2,0,0.4,0,0.5,0.1v-1.1C43.8,72.6,43.6,72.6,43.4,72.6z"/>
	</g>
</g>
</svg>
