<?xml version="1.0" encoding="utf-8"?>
<!-- Generator: Adobe Illustrator 27.1.0, SVG Export Plug-In . SVG Version: 6.00 Build 0)  -->
<svg version="1.1"
	 id="svg2" xmlns:inkscape="http://www.inkscape.org/namespaces/inkscape" xmlns:svg="http://www.w3.org/2000/svg" xmlns:cc="http://creativecommons.org/ns#" xmlns:rdf="http://www.w3.org/1999/02/22-rdf-syntax-ns#" xmlns:sodipodi="http://sodipodi.sourceforge.net/DTD/sodipodi-0.dtd" xmlns:dc="http://purl.org/dc/elements/1.1/" inkscape:version="0.91 r13725"
	 xmlns="http://www.w3.org/2000/svg" xmlns:xlink="http://www.w3.org/1999/xlink" x="0px" y="0px" viewBox="0 0 100 100"
	 style="enable-background:new 0 0 100 100;" xml:space="preserve">
<style type="text/css">
	.st0{fill:none;}
	.st1{fill:#BDC1CA;}
	.st2{fill:#2A445F;}
</style>
<sodipodi:namedview  bordercolor="#666666" borderopacity="1" gridtolerance="10" guidetolerance="10" id="namedview37" inkscape:current-layer="svg2" inkscape:cx="50.084007" inkscape:cy="66.777676" inkscape:pageopacity="0" inkscape:pageshadow="2" inkscape:showpageshadow="false" inkscape:window-height="705" inkscape:window-maximized="1" inkscape:window-width="1366" inkscape:window-x="-8" inkscape:window-y="-8" inkscape:zoom="1" objecttolerance="10" pagecolor="#ffffff" showborder="true" showgrid="false">
	</sodipodi:namedview>
<rect x="-34.7" y="-60" class="st0" width="163.3" height="211"/>
<g id="g16">
	<g id="g22" transform="translate(266.7085,465.2793)">
		<g>
			<path id="path24_00000150817398934676162090000007253304062706934205_" inkscape:connector-curvature="0" class="st1" d="
				M-230.4-438.2l11.5,38.3c1.3,4.2,1.6,4.5,4.3,4.7v2c-2.2-0.1-4.5-0.2-6.8-0.2c-2.4,0-4.4,0.1-7,0.2v-2c2.1,0,3.5-0.1,3.5-1.7
				c0-0.7-0.3-1.5-0.4-2.3l-2.7-10.1l-5.4-19.6l-9.2,28.6c-0.3,0.9-0.7,2.2-0.7,3c0,1.7,1.3,1.9,3.2,2.1v2c-1.9-0.1-3.6-0.2-5.4-0.2
				c-1.8,0-3.5,0.1-5.3,0.2v-1.9c3.4-0.2,4.3-2.7,6.3-8.3l11.8-34.7H-230.4z"/>
		</g>
	</g>
	<g id="g26" transform="translate(446.6836,326.9492)">
		<g>
			<path id="path28_00000072987485971383300990000004917502278374816905_" inkscape:connector-curvature="0" class="st1" d="
				M-362.4-263c-1.5,2-2.8,3.8-5.4,5.7c-3.7,2.6-7.2,3.2-9.9,3.2c-8.9,0-17.5-7.2-17.5-22.2c0-5.4,0.9-12.4,5.5-17.5
				c4.8-5.3,10.9-5.5,13-5.5c3.3,0,6.7,0.7,12.3,2c-0.1,5.3-0.1,6.2,0.1,11h-2.4c-0.1-0.9-0.4-3.8-1.6-5.9c-0.6-1.1-3.1-4.7-8.2-4.7
				c-3.3,0-6.4,1.5-8.4,4.2c-1.5,2-3.4,5.9-3.4,14.3c0,12.9,5.4,20.7,13.1,20.7c5.6,0,9-4.1,11.1-6.6L-362.4-263z"/>
		</g>
	</g>
	<g id="g30" transform="translate(170.4546,370.7891)">
		<path id="path32" inkscape:connector-curvature="0" class="st2" d="M-159.8-318.5c0,0.1-0.1,0.3-0.1,0.4l-0.7,1.7h1.6l-0.7-1.7
			L-159.8-318.5z M-156.7-313.6h-1.4l-0.6-1.6h-2.4l-0.6,1.6h-1.3l2.5-6.5h1.3L-156.7-313.6z"/>
	</g>
	<g id="g34" transform="translate(199.8232,366.9268)">
		<path id="path36" inkscape:connector-curvature="0" class="st2" d="M-181.4-313.6c0.7,0,0.9-0.4,0.9-0.7c0-0.6-0.4-0.8-1-0.8h-0.9
			v1.5H-181.4z M-181.3-316.3c1.1,0,2.1,0.6,2.1,1.9c0,1.1-0.6,1.5-1,1.7l1.5,3h-1.5l-1.2-2.7h-0.9v2.7h-1.3v-6.5H-181.3z"/>
	</g>
	<g id="g38" transform="translate(216.957,372.5469)">
		<path id="path40" inkscape:connector-curvature="0" class="st2" d="M-193.9-320.7v-1.2h4.8v1.2h-1.7v5.3h-1.3v-5.3H-193.9z"/>
	</g>
	<g id="g42" transform="translate(253.6533,352.0391)">
		<path id="path44" inkscape:connector-curvature="0" class="st2" d="M-220.8-294.7c-1.1,0-2.4-0.6-2.4-2.7v-3.9h1.3v4.1
			c0,0.8,0.3,1.4,1.2,1.4c0.9,0,1.2-0.7,1.2-1.4v-4.1h1.3v3.9C-218.4-295.3-219.7-294.7-220.8-294.7"/>
	</g>
	<g id="g46" transform="translate(283.0068,366.9268)">
		<path id="path48" inkscape:connector-curvature="0" class="st2" d="M-242.3-313.6c0.7,0,0.9-0.4,0.9-0.7c0-0.6-0.4-0.8-1-0.8h-0.9
			v1.5H-242.3z M-242.3-316.3c1.1,0,2.1,0.6,2.1,1.9c0,1.1-0.6,1.5-1,1.7l1.5,3h-1.5l-1.2-2.7h-0.9v2.7h-1.3v-6.5
			C-244.6-316.3-242.3-316.3-242.3-316.3z"/>
	</g>
	<g id="g50" transform="translate(312.0107,373.1992)">
		<path id="path52" inkscape:connector-curvature="0" class="st2" d="M-263.6-321.5c-1.1,0-1.5,1.1-1.5,2.3c0,0.9,0.2,2.3,1.5,2.3
			c1.3,0,1.5-1.3,1.5-2.3C-262.1-320.5-262.4-321.5-263.6-321.5 M-263.6-322.7c1.4,0,2.9,0.9,2.9,3.4c0,1.6-0.7,3.4-2.9,3.4
			c-2.2,0-2.9-1.8-2.9-3.4C-266.5-321.8-265-322.7-263.6-322.7"/>
	</g>
	<g id="g54" transform="translate(363.5498,352.0391)">
		<path id="path56" inkscape:connector-curvature="0" class="st2" d="M-301.4-294.7c-2.2,0-2.9-1.8-2.9-3.4c0-2.5,1.5-3.4,2.9-3.4
			c1.5,0,2,0.7,2.5,1.9l-1.3,0.3c-0.2-0.6-0.4-1.1-1.2-1.1c-1.1,0-1.5,1.1-1.5,2.3c0,0.9,0.2,2.3,1.5,2.3c0.8,0,1.1-0.5,1.3-1.2
			l1.3,0.3C-299.3-295.5-299.9-294.7-301.4-294.7"/>
	</g>
	<g id="g58" transform="translate(392.3809,370.7891)">
		<path id="path60" inkscape:connector-curvature="0" class="st2" d="M-322.5-318.5c0,0.1-0.1,0.3-0.1,0.4l-0.7,1.7h1.6l-0.7-1.7
			L-322.5-318.5z M-319.4-313.6h-1.4l-0.6-1.6h-2.4l-0.6,1.6h-1.3l2.5-6.5h1.3C-321.8-320.1-319.4-313.6-319.4-313.6z"/>
	</g>
	<g id="g62" transform="translate(418.1006,376.9336)">
		<path id="path64" inkscape:connector-curvature="0" class="st2" d="M-341.4-326.3v5.4h2.6v1.1h-3.9v-6.5H-341.4z"/>
	</g>
	<g id="g66" transform="translate(442.25,376.9336)">
		<path id="path68" inkscape:connector-curvature="0" class="st2" d="M-359.1-326.3v5.4h2.6v1.1h-3.9v-6.5H-359.1z"/>
	</g>
	<g id="g70" transform="translate(477.0498,376.9336)">
		<path id="path72" inkscape:connector-curvature="0" class="st2" d="M-384.6-326.3v1.1h-2.8v1.5h2.7v1.1h-2.7v1.7h2.9v1.1h-4.2
			v-6.5H-384.6z"/>
	</g>
</g>
</svg>
