<?xml version="1.0" encoding="utf-8"?>
<!-- Generator: Adobe Illustrator 27.9.0, SVG Export Plug-In . SVG Version: 6.00 Build 0)  -->
<svg version="1.1" id="Capa_1" xmlns="http://www.w3.org/2000/svg" xmlns:xlink="http://www.w3.org/1999/xlink" x="0px" y="0px"
	 viewBox="0 0 100 100" style="enable-background:new 0 0 100 100;" xml:space="preserve">
<g>
	<path d="M46.6,22.2c0.3,0.3,0.7,0.6,1.1,1.1c0.3-2.2,0.9-4.1,3.1-4.8c-0.8,0.8-0.6,1.7-0.4,2.6c0.2,0.9,0.6,1.7,0.9,2.6
		c0.5,1.6,0.1,2.7-1.4,3.5c-0.5,0.3-1.1,0.5-1.6,0.8c-0.5,0.3-1.2,0.7-1.5,1.2c-1,1.3-2.4,1.7-3.9,1.6c-2-0.1-3.8-0.9-5.7-1.6
		c-2.3-0.9-4.5-1.9-6.8-2.7c-1.6-0.5-3.4-0.6-5.1,0c-3,1.1-5.1,4.7-4.6,8c0.2,1.5,2.2,3.5,3.8,3.7c0.4,0,0.9-0.1,1.3-0.1
		c0-0.1,0-0.2,0-0.3c-0.4-0.2-0.7-0.5-1-0.7c0-0.1,0-0.1,0-0.2c0.7,0,1.4,0,2,0c0.4,0,0.9-0.1,1.3-0.4c1.9-1.3,4.1-1.5,6.4-1.5
		c3.4,0,6.6,0.9,9.9,1.5c2.5,0.4,5.1,0.7,7.7,0.1c0.5-0.1,0.8-0.3,0.8-0.9c0-1,0.7-1.5,1.5-1.9c0.8-0.5,1.7-0.8,2.5-1.2
		c0.2-0.1,0.4-0.2,0.8-0.5c-0.9-0.3-1.5-0.6-2.3-0.9c1.5-0.7,2.7-1.7,3.6-3c-0.2-0.1-0.5-0.1-0.5-0.2c-0.2-0.3-0.4-0.6-0.5-1
		c0-0.1,0.3-0.4,0.5-0.5c1.9-0.9,3.8-1.8,5.8-2.6c0.6-0.3,1.4-0.4,2.1-0.5c0-0.3-0.1-0.6-0.1-0.8c1.4,0,2.7-0.1,4.1,0
		c0.6,0.1,1.2,0.5,1.8,0.9c0.1-0.2,0.3-0.5,0.6-0.8c0.9,1,1.7,1.8,2.4,2.7c0.2,0.3,0.2,0.9,0.1,1.3c-0.1,0.4-0.3,0.7-0.6,1.1
		c2,1.5,4,3,6,4.4c0.5,0.3,0.5,0.5,0.3,1c-0.4,0.7-0.8,1.4-1,2.1c-0.3,0.7-0.7,0.9-1.4,0.9c-0.8-0.1-1.6-0.2-2.5-0.3
		c-0.4,0-0.8-0.1-1.1-0.1c-1,0.1-1.1,0.4-0.6,1.3c0.5,0.9,1.3,1.3,2.3,1.1c0.5-0.1,0.9-0.2,1.4-0.4c0.3,1.5-1.4,2.1-1.5,3.4
		c-0.1,0-0.1,0.1-0.2,0.1c-0.2-0.3-0.5-0.5-0.7-0.8c-0.6-1.3-1.3-1-2.2-0.2c-0.1,0.1-0.1,0.3,0,0.5c0.9,1.8,0.5,3.7,0.5,5.6
		c0,0.5,0,0.9,0,1.5c-0.5-0.1-0.9-0.2-1.4-0.2c-0.3,0-0.8-0.1-1,0.1c-0.3,0.3-0.1,0.7,0.3,1c0.2,0.2,0.4,0.5,0.5,0.7
		c-0.5,0.1-1,0.2-1.4,0.4c-0.8,0.3-1,1-0.7,1.8c0.5,1.3,0.7,2.7,1.2,4.1c0.5,1.5,1,3,1.7,4.4c0.5,1.2,1.4,2,2.8,2.3
		c0.6,0.1,1.2,0.4,1.7,0.8c0.4,0.2,0.6,0.7,1,1.2c-1,0-1.8,0.1-2.5,0.1c-1.3,0-2.6,0-3.8,0c-0.5,0-0.9-0.2-1.1-0.6
		c-0.4-1-0.6-1.9-0.9-2.9c-0.3-1-0.5-2.1-1.7-2.7c-0.2,0.3-0.3,0.7-0.5,1c-0.1,0.2-0.3,0.5-0.5,0.5c-0.2,0-0.5-0.2-0.6-0.4
		c-0.4-1.1-0.8-2.3-1.2-3.4c-0.4-0.9-0.9-1.8-1.4-2.6c-0.3-0.4-0.7-0.5-1.1-0.1c-0.1,0.1-0.2,0.2-0.4,0.2c-1.8,0.6-2.3,2-2.2,3.8
		c0.1,1.3,0.4,2.7,0.6,4c0.1,0.4,0.3,0.5,0.8,0.6c0.7,0,1.4,0.1,2,0.4c1,0.4,1.6,1.2,1.8,2.3c-1.1-0.1-2.2-0.2-3.3-0.3
		c-0.8,0-1.6,0-2.3-0.1c-0.2,0-0.4-0.2-0.6-0.3c-0.4-0.4-0.7-1-1.2-1.3c-1.1-0.8-1.3-1.8-1-3.1c0,0,0,0,0-0.1
		c0.2-0.6,0.1-1.3-0.5-1.5c-0.3-0.1-0.8,0.2-1.3,0.3c-0.8-1.8-0.1-3.8,0.1-5.8c-2.2,0.2-4.3,0.3-6.3-0.4c-2-0.7-3.8-1.5-5.8-2.4
		c0.1,0.5,0.1,1.1,0.2,1.7c0.3,1.2-0.2,2.2-1.2,2.8c-0.2,0.1-0.4,0.2-0.6,0.4c-1,0.8-1.1,1-0.7,2.2c0.3,1,0.5,1.9,0.8,2.8
		c0.3,1,1,1.5,2.1,1.6c0.8,0.1,1.6,0.4,2.4,0.6c1.1,0.4,1.7,1.2,1.7,2.6c-0.4,0-0.9,0-1.3,0c-1.4-0.1-2.7-0.4-4.1-0.4
		c-1.1,0-1.5-0.3-1.8-1.3c-0.5-1.8-1.9-3-3.4-4c-1-0.7-2-1.4-3.1-2.1c1.1-0.9,1.9-1.9,2.1-3.3c0.1-0.6-0.1-1-0.7-1.1
		c-0.8-0.1-1.4-0.2-2.1,0.4c-1.4,1.1-3.1,1.7-4.7,2.3c-1.4,0.5-2.8,1.1-4,1.9c-1.6,0.9-2.3,2.4-2.4,4.2c0,0.5,0.3,0.7,0.7,0.9
		c0.9,0.4,1.9,0.7,2.8,1.1c0.8,0.3,1.2,1,1.3,1.7c-1.7,0-3.3,0-5-0.1c-0.3,0-0.6-0.2-0.9-0.3c-1.5-1.1-1.9-3.1-1.1-5.1
		c0.2-0.6,0.6-1.1,0.9-1.6c0.4-0.7,0.4-1-0.2-1.6c-0.9-0.7-0.9-0.8-0.1-1.6c1.8-1.9,3.4-3.9,4.2-6.4c0.6-2,0.7-4.1,0.4-6.1
		c0-0.2-0.3-0.5-0.5-0.6c-1.3-0.5-2.5-1-3.5-2c-3.1-3.1-3-8.4,0.2-11.6c2.4-2.4,5.3-2.9,8.5-2.5c2.8,0.4,5.1,1.9,7.5,3.3
		c1.9,1,3.8,1.8,5.9,1.9c1.5,0,2.5-0.7,3.4-1.7c0.2-0.3,0.3-0.8,0.2-1.2c-0.2-1.4-0.4-2.8-0.6-4.2c0-0.1,0-0.3,0-0.5
		C46.5,22.3,46.5,22.3,46.6,22.2 M60.4,42.4c-1-1.2-0.7-2.3,0.1-3.3c0.5-0.7,0.3-1.2-0.1-1.8c-0.4-0.4-0.8-0.8-1.3-1.2
		c-0.6-0.5-1-1.1-0.6-2c0-0.1,0-0.3,0-0.6c-0.3,0.3-0.5,0.4-0.5,0.6c-0.1,0.4-0.2,0.9-0.3,1.3c-0.3,1.3-0.3,2.6-1.4,3.7
		c0.4,0.1,0.9,0.4,1,0.3c0.6-0.6,1-1.2,1.5-1.9c0.8,0.8,0.8,1.6,0,2.5c-0.4,0.4-0.9,0.8-1.3,1.2c-0.4,0.4-0.7,0.7-1,1.1
		c0,0.1,0.1,0.1,0.1,0.2C57.7,41.8,59,42.4,60.4,42.4 M67.1,45.3c-0.7,0.5-1.2,1.2-1.9,1.5c-0.7,0.2-1.6,0-2.4,0c-0.2,0.6,0,1,1.1,1
		c1.3,0.1,2.6,0,3.8,0C67.6,47.1,67.4,46.2,67.1,45.3 M37.3,46.7c-1.1,0.2-1.5,0.5-1.7,1.6c-0.1,0.6-0.2,1.2-0.4,1.7
		c-0.1,0.3-0.5,0.5-0.8,0.9c1.2,0.2,1.9-0.4,2.4-1.1C37.4,48.9,37.8,47.9,37.3,46.7 M58.5,47.4c1.8-0.6,3.7-1.9,4-2.9
		C59.3,44.7,58.1,46.1,58.5,47.4 M65.2,28.6l0.3,0.2c0.8-1.1,1.5-2.2,3.2-1.4c-0.4-0.9-2.2-1.5-2.8-1.1c-0.1,0-0.1,0.1-0.2,0.2
		C65.5,27.1,65.3,27.9,65.2,28.6 M72.6,29.8c0.7,0.8,1.5,1,2,0.6c0.1-0.1,0.3-0.3,0.2-0.4s-0.2-0.3-0.4-0.3
		C74,29.8,73.4,29.8,72.6,29.8"/>
	<path d="M86.1,73.9c0.6-0.7,1.4-1.1,2.4-1.1c1.1,0,1.9,0.4,2.4,1.1c0.5,0.7,0.8,1.8,0.8,3.1c0,1.4-0.3,2.4-0.9,3.2
		c-0.6,0.7-1.4,1-2.3,1c-1.1,0-1.9-0.4-2.5-1c-0.5-0.7-0.8-1.8-0.8-3.2C85.2,75.6,85.5,74.6,86.1,73.9 M85.1,80.3
		c0.9,0.8,2,1.3,3.4,1.3c1.4,0,2.6-0.4,3.4-1.3c0.9-0.8,1.3-1.9,1.3-3.3c0-1.4-0.5-2.5-1.4-3.3c-0.9-0.8-2-1.2-3.4-1.2
		c-1.3,0-2.4,0.4-3.4,1.2c-0.9,0.8-1.4,1.9-1.4,3.3C83.8,78.3,84.2,79.5,85.1,80.3 M71.4,72.7h-2.7V73H69c0.5,0,0.7,0,0.9,0.1
		c0.1,0.1,0.2,0.2,0.3,0.4s0.1,0.6,0.1,1.4v3.8c0,0.7,0,1.2-0.1,1.5c0,0.3-0.2,0.5-0.4,0.7c-0.2,0.2-0.5,0.3-0.9,0.3v0.3h3.1v-0.3
		c-0.4,0-0.7-0.1-0.9-0.3c-0.2-0.2-0.4-0.4-0.4-0.7s-0.1-0.7-0.1-1.4v-5.1l3.5,7.8h0.3l3.4-7.8v5.6c0,0.7,0,1.2-0.1,1.4
		c0,0.2-0.1,0.4-0.3,0.5c-0.1,0.1-0.4,0.1-0.8,0.1h-0.3v0.3h4.2v-0.3h-0.4c-0.4,0-0.7,0-0.8-0.1c-0.1-0.1-0.2-0.3-0.3-0.5
		c0-0.2,0-0.7,0-1.4v-4.3c0-0.7,0-1.2,0.1-1.4c0-0.2,0.1-0.3,0.3-0.4c0.1-0.1,0.4-0.1,0.8-0.1h0.3v-0.3h-2.7l-3.2,7.2L71.4,72.7z
		 M61.5,73c0.4,0,0.7,0,0.9,0.1c0.1,0.1,0.2,0.2,0.3,0.4c0,0.2,0,0.6,0,1.4v4.3c0,0.7,0,1.2,0,1.4c0,0.2-0.1,0.4-0.3,0.5
		c-0.1,0.1-0.4,0.1-0.8,0.1h-0.3v0.3h4v-0.3H65c-0.4,0-0.7,0-0.8-0.1c-0.1-0.1-0.2-0.3-0.3-0.5c0-0.2,0-0.7,0-1.4v-4.3
		c0-0.7,0-1.2,0.1-1.4c0-0.2,0.1-0.3,0.3-0.4c0.1-0.1,0.4-0.1,0.8-0.1h0.2v-0.3h-4V73L61.5,73L61.5,73z M51.5,72.9
		c0.2,0,0.4,0,0.5,0c1,0,1.7,0.2,2,0.5c0.3,0.4,0.5,0.9,0.5,1.5c0,0.4,0,0.6-0.1,0.9c-0.1,0.2-0.2,0.4-0.4,0.6
		c-0.2,0.1-0.4,0.3-0.6,0.3c-0.3,0.1-0.5,0.1-0.9,0.1c-0.3,0-0.7,0-1,0L51.5,72.9L51.5,72.9z M58.1,81.1c-0.5,0-1-0.2-1.3-0.5
		c-0.4-0.3-0.9-0.9-1.5-1.7c-0.8-1.1-1.4-1.7-1.8-1.9c0.8-0.1,1.4-0.4,1.9-0.8c0.4-0.4,0.6-0.9,0.6-1.4c0-0.5-0.2-0.9-0.5-1.3
		c-0.3-0.4-0.7-0.6-1.3-0.8c-0.5-0.1-1.2-0.2-2-0.2c-0.5,0-1.1,0-2,0.1L49,72.7V73h0.1c0.5,0,0.7,0,0.9,0.1c0.1,0.1,0.2,0.2,0.3,0.4
		c0,0.2,0,0.6,0,1.4v4.3c0,0.7,0,1.2,0,1.4c0,0.2-0.1,0.4-0.3,0.5c-0.1,0.1-0.4,0.1-0.8,0.1h-0.3v0.3H53v-0.3h-0.4
		c-0.4,0-0.7,0-0.8-0.1c-0.1-0.1-0.2-0.3-0.3-0.5c0-0.2,0-0.7,0-1.4v-1.9h0.3c0.2,0,0.4,0,0.5,0.1c0.1,0.1,0.3,0.3,0.6,0.7
		c0.3,0.4,0.6,0.7,0.9,1.1c0.9,1.2,1.5,2,1.9,2.3h2.3L58.1,81.1L58.1,81.1z M41.3,72.9c0.1,0,0.4,0,0.7,0c0.8,0,1.4,0.2,1.7,0.5
		c0.4,0.3,0.5,0.9,0.5,1.6c0,0.5-0.1,0.9-0.3,1.2c-0.2,0.3-0.5,0.5-0.8,0.6c-0.3,0.1-0.7,0.1-1.2,0.1h-0.6V72.9L41.3,72.9z
		 M42.2,77.3c1,0,1.7-0.1,2.1-0.3c0.4-0.2,0.7-0.5,0.9-0.8s0.3-0.8,0.3-1.3c0-0.5-0.1-1-0.5-1.4c-0.3-0.4-0.7-0.6-1.2-0.8
		s-1.2-0.2-2.1-0.2c-0.5,0-1.2,0-2,0l-1.1,0V73h0.2c0.4,0,0.7,0,0.9,0.1c0.1,0.1,0.2,0.2,0.3,0.4c0,0.2,0,0.6,0,1.4v4.3
		c0,0.7,0,1.2,0,1.4c0,0.2-0.1,0.4-0.3,0.5c-0.1,0.1-0.4,0.1-0.8,0.1h-0.2v0.3h4v-0.3h-0.3c-0.4,0-0.7,0-0.8-0.1
		c-0.1-0.1-0.2-0.3-0.3-0.5c0-0.2,0-0.7,0-1.4v-1.8L42.2,77.3L42.2,77.3z M27.2,73.5c0.2-0.3,0.4-0.4,0.5-0.5c0.2,0,0.6-0.1,1.1-0.1
		h1.3v6.2c0,0.7,0,1.2-0.1,1.4c0,0.2-0.1,0.4-0.3,0.5c-0.1,0.1-0.4,0.1-0.8,0.1h-0.5v0.3h4.3v-0.3h-0.4c-0.4,0-0.7,0-0.8-0.1
		c-0.1-0.1-0.2-0.3-0.3-0.5c0-0.2,0-0.7,0-1.4V73h1.4c0.5,0,0.8,0,1,0.1c0.2,0.1,0.4,0.2,0.5,0.5c0.2,0.3,0.3,0.4,0.4,0.9H35l0-1.8
		h-8.4l0,1.8h0.3C26.9,73.9,27.1,73.8,27.2,73.5 M17.9,77.9l1.5-3.7l1.5,3.7H17.9z M21.8,79.8c0.2,0.5,0.3,0.8,0.3,0.8
		c0,0.2-0.1,0.3-0.2,0.4c-0.1,0.1-0.4,0.1-0.9,0.1v0.3h3.4v-0.3c-0.3,0-0.5-0.1-0.7-0.2c-0.1-0.1-0.3-0.3-0.4-0.5l-0.4-0.9L20,72.6
		h-0.3l-2.5,6.1c-0.2,0.4-0.3,0.7-0.3,0.7c-0.3,0.7-0.5,1.1-0.7,1.4s-0.5,0.4-0.9,0.4v0.3H18v-0.3c-0.3,0-0.5-0.1-0.7-0.2
		s-0.3-0.3-0.3-0.6c0-0.2,0.2-0.8,0.5-1.6l0.2-0.5h3.3L21.8,79.8z M9.4,72.9c0.1,0,0.4,0,0.7,0c0.8,0,1.4,0.2,1.7,0.5
		c0.4,0.3,0.5,0.9,0.5,1.6c0,0.5-0.1,0.9-0.3,1.2c-0.2,0.3-0.5,0.5-0.8,0.6c-0.3,0.1-0.7,0.1-1.2,0.1H9.4V72.9z M10.4,77.3
		c1,0,1.7-0.1,2.1-0.3c0.4-0.2,0.7-0.5,0.9-0.8s0.3-0.8,0.3-1.3c0-0.5-0.1-1-0.5-1.4c-0.3-0.4-0.7-0.6-1.2-0.8
		c-0.5-0.1-1.2-0.2-2.1-0.2c-0.5,0-1.2,0-2,0l-1.1,0V73H7c0.4,0,0.7,0,0.9,0.1C8,73.1,8,73.3,8.1,73.5c0,0.2,0,0.6,0,1.4v4.3
		c0,0.7,0,1.2,0,1.4C8,80.7,8,80.9,7.8,81c-0.1,0.1-0.4,0.1-0.8,0.1H6.8v0.3h4v-0.3h-0.3c-0.4,0-0.6,0-0.8-0.1
		c-0.1-0.1-0.2-0.3-0.3-0.5c0-0.2,0-0.7,0-1.4v-1.8L10.4,77.3L10.4,77.3z"/>
</g>
</svg>
