<?xml version="1.0" encoding="utf-8"?>
<!-- Generator: Adobe Illustrator 27.9.0, SVG Export Plug-In . SVG Version: 6.00 Build 0)  -->
<svg version="1.1" id="Capa_1" xmlns="http://www.w3.org/2000/svg" xmlns:xlink="http://www.w3.org/1999/xlink" x="0px" y="0px"
	 viewBox="0 0 100 100" style="enable-background:new 0 0 100 100;" xml:space="preserve">
<style type="text/css">
	.st0{fill:#0033A0;}
	.st1{fill:#FFFFFF;}
	.st2{fill:#DD0031;}
	.st3{fill:#480E2F;}
</style>
<g>
	<rect x="1.9" y="35.5" class="st0" width="96.1" height="29.1"/>
	<path class="st1" d="M48.7,54.2c0.1-0.6-0.2-0.7-0.7-0.7c-0.6,0-0.8,0.2-0.8,0.5c-0.1,0.4,0.2,0.5,0.6,0.6c0.6,0.2,1.7,0.3,2.5,0.8
		c1.1,0.6,1.2,1.7,0.9,2.5c-0.6,2.4-2.5,2.9-5.1,2.9c-2.1,0-3.8-1-3.3-2.9h3.4c-0.1,0.2-0.1,0.4,0,0.6c0.1,0.2,0.3,0.3,0.7,0.3
		c0.7,0,1-0.3,1-0.7c0-0.2-0.1-0.5-0.6-0.6c0,0-1.5-0.4-1.9-0.6c-1.3-0.5-1.8-1.6-1.4-2.9c0.5-1.8,2.3-2.5,4.8-2.5
		c2.2,0,3.7,0.8,3.1,2.8H48.7 M76.2,51.7h5.3c1.7,0,2.7,0.8,2.4,2.2c-0.3,1.3-1.1,1.9-2.3,2.1v0c1.1,0.2,1.6,0.9,1.3,2.3
		c-0.2,0.7-0.6,2.2-0.6,2.2h-3.4c0,0,0.4-1.6,0.6-2.4c0.1-0.5,0-1-0.8-1h-0.4l-0.9,3.3h-3.4L76.2,51.7 M79,55.5c0.8,0,1.2-0.3,1.4-1
		c0.1-0.6-0.1-0.8-0.8-0.8h-0.5l-0.5,1.8L79,55.5"/>
	<polyline class="st1" points="61.5,54.2 61.5,54.2 58.5,60.6 55.3,60.6 55.7,54.2 55.7,54.2 54,60.6 51,60.6 53.4,51.7 58.3,51.7 
		57.8,57 57.9,57 60.3,51.7 65.1,51.7 62.8,60.6 59.8,60.6 61.5,54.2 	"/>
	<path class="st1" d="M10.8,57.2l-0.2,0.6H6.2l0.2-0.6h0.7L9.3,49H8.6l0.2-0.6h4.8c1.7,0,3.1,0.9,2.7,2.6c-0.3,1.2-0.9,1.7-1.6,2.1
		c-1,0.5-2.1,0.6-3.5,0.6l-1,3.6H10.8 M13.1,49.1C12.9,49,12.7,49,12.3,49l-1.1,4c0.4,0,0.7-0.1,1.1-0.3c0.4-0.3,0.6-0.7,0.8-1.5
		C13.5,49.7,13.4,49.3,13.1,49.1 M86.5,54.1h-2.2l0.6-2.4h7.9l-0.6,2.4H90l-1.7,6.5h-3.5L86.5,54.1 M68.4,51.7H73l0.5,8.9h-3.7
		l0.1-1.4h-2.5l-0.7,1.4h-3.4L68.4,51.7 M69.9,57l0.2-3.4h0L68.4,57H69.9"/>
	<path class="st1" d="M25.2,48.3L25,49h0.7l-2.2,8.2h-0.6c-0.2-0.3-0.3-1-0.3-1.6c0-1.2,0-1.6-0.4-2c-0.2-0.4-0.7-0.6-1.1-0.7
		c0.6,0,1.3-0.2,1.7-0.5c0.6-0.4,1-1.1,1.1-1.6c0.2-0.9,0-1.4-0.3-1.8c-0.6-0.7-1.6-0.7-2.7-0.7h-4.3L16.6,49h0.7l-2.2,8.2h-0.7
		l-0.2,0.6h4.4l0.2-0.6h-0.7l1.1-3.9c0.3,0,0.6,0,0.7,0.3c0.2,0.4-0.1,1.5-0.1,2.4c0,0.5,0,0.9,0.3,1.3c0.3,0.5,0.8,0.6,1.4,0.6
		c0.7,0,5.6,0,5.6,0l0.2-0.6h-0.7l2.2-8.2h0.7l0.2-0.6L25.2,48.3 M19.9,52.6c-0.2,0.1-0.5,0.1-0.6,0.1l1-3.6c0.6,0,0.8,0,1,0.3
		c0.2,0.3,0.1,0.9-0.1,1.6C20.9,51.8,20.7,52.4,19.9,52.6"/>
	<path class="st1" d="M35.3,55.1h-0.6c-0.8,1.2-2,2.3-2.9,2.2c-0.7-0.1-0.8-0.7-0.7-1.6c0.1-0.8,0.2-1.2,0.4-1.7
		c0.4-1.6,1.1-3.6,1.6-4.4c0.3-0.4,0.8-0.7,1.2-0.7c0.6,0,1.1,0.3,1.4,1.3c0.1,0.3,0.1,1.2,0.1,1.2h0.6l0.8-3h-0.5L35.8,49
		c-0.3-0.3-0.8-0.7-1.8-0.8c-1.2-0.1-2.3,0.3-3.3,1.1c-0.8,0.6-1.8,1.9-2.2,3.7c-0.4,1.4-0.2,3,0.5,3.9c0.5,0.7,1.4,1.1,2.3,1.1
		c1,0,1.6-0.4,2.2-0.7l0.4,0.5h0.5L35.3,55.1"/>
	<path class="st1" d="M37.5,48.3L37.4,49h0.7l-2.2,8.2h-0.7L35,57.9h7.1l0.9-3.1h-0.6l0,0.1c-0.2,0.4-0.6,1.3-1.5,1.9
		c-0.6,0.4-1.4,0.5-2,0.5l1.1-4.1c0.3,0,0.7,0.2,0.9,0.6c0.1,0.3,0.1,0.8,0,1.1h0.6l1-3.7h-0.6c-0.1,0.3-0.4,0.8-0.6,1
		c-0.3,0.2-0.6,0.2-1.1,0.2L41,49c0.6,0,1.2,0,1.6,0.4c0.3,0.3,0.4,1,0.5,1.7h0.6l0.7-2.7L37.5,48.3"/>
	<path class="st2" d="M57.7,47.8l-0.4,1.2l1,0.6h0.2l0.3-1.2l-1-0.6 M55.3,45.6l1.3,0.4h0.3v-1.5l-1.2-0.4h-0.2L55.3,45.6 M52,41.2
		l0.4,1.6l1,0h0.7v-0.5l-0.3-1.2h-0.6L52,41.2 M47.8,39.1l0.9,1.7h0.1l1.8-0.5v-0.3l-0.8-1.5h-0.4L47.8,39.1 M42.8,38.1l1.6,1.7h0.1
		l1.9-1.1v-0.3l-1.4-1.5h-0.2L42.8,38.1 M37.3,38.9l2.2,1.1h0.2l1.6-1.9V38l-2.2-1.1H39L37.3,38.9 M33.1,39.3l-0.9,3l2.6,0.1h0.5
		l0.8-2.7v-0.3l-2.3-0.1 M28.1,43.8l0,3.6l3.4-0.8V43h-0.3L28.1,43.8"/>
	<polyline class="st3" points="38.1,37.9 38.1,37.6 38.1,37.7 37.8,38.1 37.9,38.1 	"/>
	<polyline class="st3" points="41.2,37.9 41.2,37.8 39.2,36.8 39,36.8 38.8,36.8 38.8,36.9 38.5,37.2 38.5,37.3 38.1,37.6 
		38.1,37.9 38.2,37.7 38.5,37.4 38.5,37.4 38.6,37.3 38.8,37.1 39,36.9 39,36.9 39,36.8 	"/>
	<path class="st2" d="M38.5,37.4L38.5,37.4L38.5,37.4 M41.2,37.9L41.2,37.9L39,36.8l0,0h0"/>
	<path class="st3" d="M44.2,37.2V37L42.6,38l0,0.1h0.2l0,0l0,0 M41.4,38L41.4,38L41.4,38l0-0.2h-0.1l-0.1-0.1v0.1"/>
	<path class="st2" d="M44.2,37.2L42.7,38l0,0l0.1-0.1L44.2,37.2 M41.3,38.1L41.3,38.1L41.3,38.1l-0.1-0.2v0"/>
	<path class="st3" d="M44.7,36.9l0.1-0.1l1.2,1.3h0.1l-0.6-0.6c-0.1-0.2-0.3-0.4-0.6-0.6l-0.1-0.1l-0.3,0.1L44.2,37v0.2l0,0
		L44.7,36.9L44.7,36.9"/>
	<path class="st2" d="M46,38.1L46,38.1l-1.1-1.3l-0.1,0.1h0.1l0.5,0.5l0.1,0.2 M44.2,37.2L44.2,37.2L44.2,37.2"/>
	<polyline class="st3" points="35.1,39.3 35.1,39.3 32.9,39.2 32.9,39.3 32.4,41.1 32.5,41.1 33.1,39.3 33.1,39.3 33.1,39.2 	"/>
	<polyline class="st2" points="33.1,39.3 33.6,39.3 35.1,39.3 35.1,39.3 33.1,39.2 	"/>
	<path class="st3" d="M37.8,38.1l-0.1,0.2l-0.3,0.2l-0.1,0.2c0,0.1-0.1,0.1-0.2,0.2l0.1,0.2l0.9,0.5v-0.1L37.3,39v0l0,0l0-0.1v0
		l0.3-0.3l0.1-0.1l0.3-0.4L37.8,38.1 M36.2,39.4l-0.5,1.7h0L36.2,39.4l0-0.1h-1.1v0.1"/>
	<path class="st2" d="M38,38.1L38,38.1l-0.4,0.4l0.1-0.1l0.1-0.1 M37.3,38.9L37.3,38.9L37.3,38.9 M36.2,39.4l-1.1,0v0.1L36.2,39.4
		l-0.1,0.2l-0.5,1.6h0.1"/>
	<polyline class="st3" points="41.2,38.3 39.6,40.1 39.5,40 39.5,40 38.1,39.4 38.1,39.5 39.5,40.2 39.6,40.2 39.7,40.2 39.8,40 
		40.7,38.9 40.8,38.8 41.2,38.4 	"/>
	<polyline class="st2" points="39.5,40 39.6,40.1 41.2,38.3 41.2,38.2 40.7,38.7 40.7,38.8 40,39.5 40,39.6 39.7,40 39.7,40 	"/>
	<path class="st3" d="M44.2,39.5L44.2,39.5L43.6,39l-0.5-0.6l0,0c-0.1,0-0.2-0.1-0.3-0.2l0.1,0l0,0h-0.2l0.1,0.1l0.2,0.2
		c0.1,0,0.2,0.1,0.3,0.3l0.1,0.2l0.9,0.9L44.2,39.5L44.2,39.5 M41.4,38.2l0-0.2h0l-0.2,0.2v0.2"/>
	<path class="st2" d="M44.2,39.6L44.2,39.6L44.2,39.6 M42.8,38.1L42.8,38.1L42.8,38.1 M41.3,38.1L41.3,38.1l-0.1,0.2v0L41.3,38.1"/>
	<polyline class="st3" points="46.5,38.6 46.6,38.6 46.5,38.4 46.3,38.2 46.1,38.1 46.1,38.1 46.5,38.5 44.4,39.7 44.3,39.7 
		44.3,39.7 44.2,39.6 44.2,39.8 44.3,39.8 44.5,39.8 	"/>
	<polyline class="st2" points="44.3,39.7 44.4,39.7 46.5,38.5 46.1,38.1 45.9,38.1 46.3,38.4 46.4,38.4 46.4,38.6 46.2,38.6 
		45.3,39.2 	"/>
	<path class="st3" d="M47.8,39l1.9-0.5l0.5,1v-0.1l-0.5-0.9l-0.1-0.1l-0.2,0.1L47.6,39L47.6,39l0.1,0.1l0.7,1.3
		c0.1,0.2,0.2,0.3,0.2,0.5l0.3-0.1l1.5-0.4v-0.1l-1.6,0.4l0,0l0,0l-0.1-0.1l-0.6-1.1l-0.1-0.3l0-0.1L47.8,39L47.8,39L47.8,39
		L47.8,39"/>
	<path class="st2" d="M48.7,40.8L48.7,40.8l1.6-0.4v0 M50.3,39.6v-0.1l-0.5-1L47.8,39l0.2,0l1.4-0.4h0.3l0.1,0.1 M47.8,39.1
		L47.8,39.1L47.8,39.1"/>
	<path class="st3" d="M53.3,41L53.3,41L51.9,41v0.1H52l0-0.1 M50.7,40.3L50.7,40.3V40l-0.4-0.6v0.1L50.7,40.3l-0.4,0l0,0v0.1"/>
	<path class="st2" d="M53.3,41L52,41l0,0.1L53.3,41 M50.6,40.2L50.6,40.2l-0.1,0.1l-0.2,0.1l0.4-0.1l-0.4-0.8v0.1"/>
	<polyline class="st3" points="53.3,41 53.9,41.1 53.9,41.1 53.9,41.1 53.9,41 53.3,41 	"/>
	<polyline class="st2" points="53.3,41 53.3,41.1 53.9,41.1 53.9,41.1 	"/>
	<polyline class="st3" points="28,44.1 28.1,43.8 28.1,43.8 28.1,43.8 28.7,43.6 29,43.5 29,43.5 28,43.7 28,44.1 	"/>
	<polyline class="st2" points="28.1,43.8 28.1,43.7 28.7,43.6 28.1,43.8 	"/>
	<polyline class="st3" points="31.6,44.1 31.6,44.1 31.6,42.8 31.4,42.9 29,43.5 29,43.5 30.9,43.1 31,43 31.6,42.9 	"/>
	<polyline class="st2" points="31,43 31.4,43 31.4,44.1 31.6,44.1 31.6,42.9 	"/>
	<polyline class="st3" points="35.1,42.5 35.1,42.4 34.8,42.4 34.6,42.4 32.2,42.3 32.2,42.2 32.5,41.1 32.4,41.1 32.1,42.3 
		32.1,42.4 33.2,42.4 	"/>
	<polyline class="st2" points="34.8,42.4 35.1,42.4 35.1,42.4 	"/>
	<polyline class="st3" points="35.8,41.1 35.7,41.1 35.3,42.5 35.1,42.4 35.1,42.5 35.3,42.5 35.3,42.4 	"/>
	<polyline class="st2" points="35.7,41.1 35.7,41.1 35.2,42.4 35.1,42.4 35.1,42.4 35.3,42.5 	"/>
	<polyline class="st3" points="51.9,41.1 51.9,41.4 52.3,42.9 52.8,42.9 53.3,42.9 53.3,42.8 52.9,42.8 52.4,42.8 52.4,42.7 
		52.4,42.7 52.3,42.5 52,41.2 52,41.2 52,41.1 	"/>
	<path class="st2" d="M52.4,42.7L52.4,42.7l0.5,0 M52,41.1L52,41.1l1.3,0.1l0-0.1"/>
	<path class="st3" d="M55.8,44.1h0.3l-0.6-0.2h-0.3v0.2h0.1v-0.1h0V44 M54.3,42.9l-0.1-0.2l-0.4-1.6h0l0.4,1.7l-0.9,0h-0.1v0.1"/>
	<path class="st2" d="M55.8,44.1L55.4,44v0.1h0.1v0.1 M53.9,41.1l-0.6,0l0,0L53.9,41.1c0.1,0.6,0.2,1.2,0.3,1.7h-0.7l0.9,0
		L53.9,41.1"/>
	<polyline class="st3" points="28,44.1 28,47.2 28.1,47.2 28.1,44.1 28,44.1 	"/>
	<polyline class="st2" points="29,47.1 29,47.1 29,47.1 29,47.1 29,47.2 	"/>
	<polyline class="st3" points="29.3,47.2 31.6,46.6 31.6,44.2 31.6,44.1 31.6,44.1 31.6,46.6 29.1,47.2 29.3,47.2 	"/>
	<polyline class="st2" points="31.6,46.6 31.6,44.1 31.5,44.1 31.5,44.8 31.5,46.5 31.3,46.6 29,47.1 29,47.1 29.1,47.2 	"/>
	<path class="st3" d="M56.4,44.3L56.4,44.3l-0.5-0.1l0,0 M56.4,46v-0.1l-0.8-0.2l-0.2-0.1l0,0l0,0v-0.1l0.1-0.1v-0.2v-1.2h-0.1
		l-0.1,1.6h0.2"/>
	<path class="st2" d="M56.4,44.4L56.4,44.4l-0.5-0.2h-0.3 M55.3,45.5v-0.1V45.5 M55.5,45.7l-0.2-0.1l0,0"/>
	<path class="st3" d="M56.7,44.4l-0.4-0.1l0,0 M56.8,46.1h0.1L57,46v-1.6h-0.3l0.2,0.1L56.9,46l-0.3-0.1h-0.1l-0.2-0.1V46"/>
	<polyline class="st2" points="56.4,44.3 56.4,44.4 56.8,44.5 56.9,44.5 56.9,46 56.6,46 56.9,46.1 57,44.5 	"/>
	<polyline class="st3" points="28,47.6 28.3,47.5 29,47.3 29,47.2 28.1,47.4 28.1,47.2 28,47.2 	"/>
	<path class="st3" d="M57.7,47.8L57.7,47.8l1.2,0.6v-0.1l-1.2-0.7h-0.1v0.1l-0.4,1.3v0.1h0.1l1,0.6h0.3l0.3-1.2v0l-0.4,1.2l-0.2-0.1
		h0l-1-0.6v-0.1L57.7,47.8L57.7,47.8 M29.7,47.2h-0.5l-0.2,0v0.1"/>
	<polyline class="st2" points="58.9,48.4 58.9,48.3 57.8,47.7 57.7,47.8 57.9,47.8 58.3,48 58.6,48.2 58.9,48.4 58.9,48.4 
		58.6,49.4 58.6,49.5 58.4,49.5 58.6,49.6 	"/>
</g>
</svg>
