<?xml version="1.0" encoding="utf-8"?>
<!-- Generator: Adobe Illustrator 23.1.0, SVG Export Plug-In . SVG Version: 6.00 Build 0)  -->
<svg version="1.1" id="Capa_1" xmlns="http://www.w3.org/2000/svg" xmlns:xlink="http://www.w3.org/1999/xlink" x="0px" y="0px"
	 viewBox="0 0 100 100" style="enable-background:new 0 0 100 100;" xml:space="preserve">
<style type="text/css">
	.st0{fill:#FFFFFF;}
	.st1{fill:#52A933;}
	.st2{fill:#027CBB;}
	.st3{fill:none;stroke:#B1B1AF;stroke-width:1.061;stroke-miterlimit:10;}
	.st4{fill:#777F6F;}
	.st5{opacity:0;}
	.st6{clip-path:url(#SVGID_2_);}
	.st7{clip-path:url(#SVGID_4_);fill:none;stroke:#FFFFFF;stroke-width:0;stroke-miterlimit:10;}
	.st8{clip-path:url(#SVGID_6_);}
	.st9{clip-path:url(#SVGID_8_);fill:none;stroke:#FFFFFF;stroke-width:0;stroke-miterlimit:10;}
	.st10{clip-path:url(#SVGID_10_);}
	.st11{clip-path:url(#SVGID_12_);fill:none;stroke:#FFFFFF;stroke-width:0;stroke-miterlimit:10;}
	.st12{clip-path:url(#SVGID_14_);}
	.st13{clip-path:url(#SVGID_16_);fill:none;stroke:#FFFFFF;stroke-width:0;stroke-miterlimit:10;}
	.st14{clip-path:url(#SVGID_18_);}
	.st15{clip-path:url(#SVGID_20_);fill:none;stroke:#FFFFFF;stroke-width:0;stroke-miterlimit:10;}
	.st16{clip-path:url(#SVGID_22_);}
	.st17{clip-path:url(#SVGID_24_);fill:none;stroke:#FFFFFF;stroke-width:0;stroke-miterlimit:10;}
	.st18{clip-path:url(#SVGID_26_);}
	.st19{clip-path:url(#SVGID_28_);fill:none;stroke:#FFFFFF;stroke-width:0;stroke-miterlimit:10;}
	.st20{clip-path:url(#SVGID_30_);}
	.st21{clip-path:url(#SVGID_32_);fill:none;stroke:#FFFFFF;stroke-width:0;stroke-miterlimit:10;}
	.st22{clip-path:url(#SVGID_34_);}
	.st23{clip-path:url(#SVGID_36_);fill:none;stroke:#FFFFFF;stroke-width:0;stroke-miterlimit:10;}
	.st24{clip-path:url(#SVGID_38_);}
	.st25{clip-path:url(#SVGID_40_);fill:none;stroke:#FFFFFF;stroke-width:0;stroke-miterlimit:10;}
	.st26{clip-path:url(#SVGID_42_);}
	.st27{clip-path:url(#SVGID_44_);fill:none;stroke:#FFFFFF;stroke-width:0;stroke-miterlimit:10;}
	.st28{fill:#0C384F;}
</style>
<g>
	<path class="st0" d="M19.2,50c0,5.1-3.5,9.3-7.9,9.3c-4.4,0-7.9-4.2-7.9-9.3c0-5.1,3.5-9.3,7.9-9.3C15.7,40.7,19.2,44.8,19.2,50"/>
	<path class="st1" d="M8.7,47.2c0-0.1,0-0.2,0-0.3c0-0.2,0.1-0.4-0.1-0.5c-0.2,0-0.5-0.2-0.7,0.1c-0.6,0.6-1.1,1.2-1.7,1.8
		c-0.2,0.2-0.4,0.5-0.7,0.6C5.2,49.1,5,49,4.8,48.9c-0.2-0.2-0.2-0.3-0.1-0.5c0.1-0.3,0.2-0.6,0.4-0.8c1.1-1.1,2.1-2.3,3.1-3.4
		c0.7-0.8,1.4-1.4,2.1-2.2c0.2-0.2,0.5-0.2,0.7-0.3c1,0,1.9,0,2.9,0c0.5,0,1.3-0.1,1.6,0.4c0.1,0.2,0.6,0.3,0.7,0.4
		c0.9,0.8,1.3,1.6,1.9,2.7c0,0.1,0.2,0.1,0.2,0.2c-0.6,0.3-1.6,0.6-2.3,0.8c-0.6,0.2-0.9,0.8-1.5,1c-0.1,0-0.2,0.1-0.2,0.1
		c-0.2,0-0.4-0.2-0.6-0.2c-0.3-0.2-0.7-0.3-0.9-0.6c0.4-0.3,0.7-0.7,1.1-1c0.2-0.2,0.2-0.4,0.2-0.6c-0.2-0.9-1-1.2-1.9-0.9
		c-0.6,0.2-0.9,0.6-1.3,1c-0.3,0.3-0.6,0.5-0.5,1c0,0.1,0,0.2,0,0.3c0,0.1,0,0.1,0,0.2C9.8,46.7,9.2,46.9,8.7,47.2"/>
	<path class="st2" d="M16,57.2c0.1,0.1,0.3,0,0.4,0.1c-2.4,2.7-6.7,3.6-10.1,0c0.2-0.1,0.4,0,0.6-0.1L16,57.2z"/>
	<path class="st1" d="M16,57.2l-9.1,0c0-0.1,0-0.1-0.1-0.2c0-0.3-0.2-0.4-0.3-0.6c3.3,0,6.6,0,9.9,0c-0.1,0.1-0.2,0.3-0.3,0.4
		C16,56.9,16,57.1,16,57.2"/>
	<path class="st2" d="M16.4,56.5c-3.3,0-6.6,0-9.9,0C6,56.4,5.8,56,6,55.6c0.1-0.1,0.2-0.1,0.3-0.1c3.4,0,6.7,0,10.1,0
		c0.2,0,0.4,0,0.4,0.3C16.8,56.1,17,56.5,16.4,56.5"/>
	<path class="st3" d="M19.4,50c0,5.3-3.7,9.6-8.2,9.6c-4.5,0-8.2-4.3-8.2-9.6c0-5.3,3.7-9.6,8.2-9.6C15.8,40.3,19.4,44.6,19.4,50z"
		/>
	<path class="st4" d="M11.2,47.7h0.5l0,0l0,0l0,0l0,0l0,0l0,0l0,0l0,0l0,0l0,0l0,0l0,0l0,0l0,0l0,0l0,0l0,0l0,0l0,0l0,0l0,0l0,0l0,0
		l0,0l0,0l0,0l0,0l0,0l0,0l0,0l0,0l0,0h-0.5V47.7z M11.2,48.2h0.6h0l0,0l0,0l0,0l0,0l0,0l0,0l0,0l0,0l0,0l0,0l0,0l0,0l0,0l0,0l0,0
		l0,0l0,0l0,0l0,0l0,0l0,0l0,0v0v0l0,0l0,0l0,0l0,0l0,0l0,0l0,0l0,0l0,0l0,0l0,0l0,0l0,0l0,0l0,0l0,0l0,0l0,0l0,0l0,0l0,0l0,0h0
		h-0.6V48.2z M10.8,48.5v-1.3h0.9l0,0l0,0l0,0l0,0l0,0l0,0l0,0l0,0l0,0l0,0l0,0l0,0l0,0l0,0l0,0l0,0l0,0l0,0l0,0l0,0l0,0l0,0l0,0
		l0,0l0,0l0,0l0,0l0,0l0,0l0,0l0,0l0,0l0,0l0,0l0,0l0,0l0,0l0,0l0,0l0,0l0,0l0,0l0,0l0,0l0,0l0,0l0,0l0,0l0,0l0,0l0,0l0,0l0,0l0,0
		l0,0l0,0l0,0l0,0l0,0l0,0l0,0l0,0l0,0l0,0l0,0l0,0l0,0l0,0l0,0l0,0l0,0l0,0l0,0l0,0l0,0l0,0l0,0l0,0l0,0l0,0l0,0l0,0l0,0l0,0l0,0
		l0,0l0,0l0,0l0,0l0,0l0,0l0,0l0,0l0,0l0,0l0,0H10.8z"/>
	<g class="st5">
		<g>
			<defs>
				<rect id="SVGID_1_" x="10.8" y="47.2" width="1.3" height="1.3"/>
			</defs>
			<clipPath id="SVGID_2_">
				<use xlink:href="#SVGID_1_"  style="overflow:visible;"/>
			</clipPath>
			<g class="st6">
				<defs>
					<rect id="SVGID_3_" x="10.8" y="47.2" width="1.3" height="1.3"/>
				</defs>
				<clipPath id="SVGID_4_">
					<use xlink:href="#SVGID_3_"  style="overflow:visible;"/>
				</clipPath>
				<path class="st7" d="M12,47.8L12,47.8L12,47.8L12,47.8L12,47.8L12,47.8L12,47.8l0.1,0.1l0,0l0,0l0,0l0,0l0,0l0,0l0,0l0,0l0,0
					l0,0l0,0l0,0l0,0l0,0l0,0l0,0l0,0l0,0l0,0l0,0l0,0l0,0l0,0l0,0l0,0l0,0l0,0l0,0l0,0l0,0l0,0l0,0l0,0l0,0l0,0l0,0l0,0l0,0l0,0
					l0,0l0,0h-0.9v-1.3h0.9l0,0l0,0l0,0l0,0l0,0l0,0l0,0l0,0l0,0l0,0l0,0l0,0l0,0l0,0l0,0l0,0l0,0l0,0l0,0l0,0l0,0l0,0l0,0l0,0l0,0
					l0,0l0,0l0,0l0,0l0,0l0,0l0,0l0,0l0,0l0,0l0,0l0,0l0,0l0,0l0,0L12,47.8L12,47.8L12,47.8L12,47.8L12,47.8L12,47.8L12,47.8
					L12,47.8z M11.2,48.2h0.6h0l0,0l0,0l0,0l0,0l0,0l0,0l0,0l0,0l0,0l0,0l0,0l0,0l0,0l0,0l0,0l0,0l0,0l0,0l0,0l0,0l0,0l0,0v0v0l0,0
					l0,0l0,0l0,0l0,0l0,0l0,0l0,0l0,0l0,0l0,0l0,0l0,0l0,0l0,0l0,0l0,0l0,0l0,0l0,0l0,0l0,0h0h-0.6V48.2z M11.2,47.7h0.5l0,0l0,0
					l0,0l0,0l0,0l0,0l0,0l0,0l0,0l0,0l0,0l0,0l0,0l0,0l0,0l0,0l0,0l0,0l0,0l0,0l0,0l0,0l0,0l0,0l0,0l0,0l0,0l0,0l0,0l0,0l0,0l0,0
					h-0.5V47.7z"/>
			</g>
		</g>
	</g>
	<path class="st4" d="M11.2,49.5h0.5L11.4,49L11.2,49.5z M11.9,50l-0.1-0.2h-0.7L11,50h-0.3l0.7-1.3h0.3l0.7,1.3H11.9z"/>
	<g class="st5">
		<g>
			<defs>
				<rect id="SVGID_5_" x="10.6" y="48.7" width="1.6" height="1.3"/>
			</defs>
			<clipPath id="SVGID_6_">
				<use xlink:href="#SVGID_5_"  style="overflow:visible;"/>
			</clipPath>
			<g class="st8">
				<defs>
					<rect id="SVGID_7_" x="10.6" y="48.7" width="1.6" height="1.3"/>
				</defs>
				<clipPath id="SVGID_8_">
					<use xlink:href="#SVGID_7_"  style="overflow:visible;"/>
				</clipPath>
				<path class="st9" d="M11.4,49l-0.2,0.5h0.5L11.4,49z M12.2,50h-0.3l-0.1-0.2h-0.7L11,50h-0.3l0.7-1.3h0.3L12.2,50z"/>
			</g>
		</g>
	</g>
	<polygon class="st4" points="11.3,51.5 11.3,51.1 10.6,50.2 11,50.2 11.4,50.8 11.9,50.2 12.3,50.2 11.6,51.1 11.6,51.5 	"/>
	<g class="st5">
		<g>
			<defs>
				<rect id="SVGID_9_" x="10.6" y="50.2" width="1.6" height="1.3"/>
			</defs>
			<clipPath id="SVGID_10_">
				<use xlink:href="#SVGID_9_"  style="overflow:visible;"/>
			</clipPath>
			<g class="st10">
				<defs>
					<rect id="SVGID_11_" x="10.6" y="50.2" width="1.6" height="1.3"/>
				</defs>
				<clipPath id="SVGID_12_">
					<use xlink:href="#SVGID_11_"  style="overflow:visible;"/>
				</clipPath>
				<polygon class="st11" points="11.9,50.2 12.3,50.2 11.6,51.1 11.6,51.5 11.3,51.5 11.3,51.1 10.6,50.2 11,50.2 11.4,50.8 				
					"/>
			</g>
		</g>
	</g>
	<polygon class="st4" points="12.4,51.5 12.4,50.2 13.6,50.2 13.6,50.5 12.7,50.5 12.7,50.7 13.6,50.7 13.6,51 12.7,51 12.7,51.2 
		13.6,51.2 13.6,51.5 	"/>
	<g class="st5">
		<g>
			<defs>
				<rect id="SVGID_13_" x="12.4" y="50.2" width="1.2" height="1.3"/>
			</defs>
			<clipPath id="SVGID_14_">
				<use xlink:href="#SVGID_13_"  style="overflow:visible;"/>
			</clipPath>
			<g class="st12">
				<defs>
					<rect id="SVGID_15_" x="12.4" y="50.2" width="1.2" height="1.3"/>
				</defs>
				<clipPath id="SVGID_16_">
					<use xlink:href="#SVGID_15_"  style="overflow:visible;"/>
				</clipPath>
				<polygon class="st13" points="13.6,50.2 13.6,50.5 12.7,50.5 12.7,50.7 13.6,50.7 13.6,51 12.7,51 12.7,51.2 13.6,51.2 
					13.6,51.5 12.4,51.5 12.4,50.2 				"/>
			</g>
		</g>
	</g>
	<path class="st4" d="M14.3,50.7h0.5h0l0,0l0,0l0,0l0,0l0,0l0,0l0,0l0,0l0,0l0,0l0,0l0,0l0,0l0,0l0,0l0,0l0,0l0,0v0v0l0,0l0,0l0,0
		l0,0l0,0l0,0l0,0l0,0l0,0l0,0l0,0l0,0l0,0l0,0l0,0l0,0l0,0l0,0h0h-0.5V50.7z M15,51.5L14.6,51h-0.2v0.5H14v-1.3h0.8l0,0l0,0l0,0
		l0,0l0,0l0,0l0,0l0,0l0,0l0,0l0,0l0,0l0,0l0,0l0,0l0,0l0,0l0,0l0,0l0,0l0,0l0,0l0,0l0,0l0,0l0,0l0,0l0,0l0,0l0,0l0,0l0,0v0l0,0l0,0
		l0,0l0,0l0,0l0,0l0,0l0,0l0,0l0,0l0,0l0,0l0,0l0,0l0,0l0,0l0,0l0,0l0,0l0,0l0,0l0,0l0,0l0,0l0,0l0,0l0,0l0,0l0,0l0,0l0,0l0.4,0.5
		H15z"/>
	<g class="st5">
		<g>
			<defs>
				<rect id="SVGID_17_" x="14" y="50.2" width="1.3" height="1.3"/>
			</defs>
			<clipPath id="SVGID_18_">
				<use xlink:href="#SVGID_17_"  style="overflow:visible;"/>
			</clipPath>
			<g class="st14">
				<defs>
					<rect id="SVGID_19_" x="14" y="50.2" width="1.3" height="1.3"/>
				</defs>
				<clipPath id="SVGID_20_">
					<use xlink:href="#SVGID_19_"  style="overflow:visible;"/>
				</clipPath>
				<path class="st15" d="M14.8,50.5h-0.5v0.2h0.5h0l0,0l0,0l0,0l0,0l0,0l0,0l0,0l0,0l0,0l0,0l0,0l0,0l0,0l0,0l0,0v0l0,0l0,0v0v0
					l0,0l0,0v0l0,0l0,0l0,0l0,0L14.8,50.5L14.8,50.5L14.8,50.5L14.8,50.5L14.8,50.5L14.8,50.5L14.8,50.5L14.8,50.5L14.8,50.5
					L14.8,50.5L14.8,50.5L14.8,50.5z M14.6,51h-0.2v0.5H14v-1.3h0.8l0,0l0,0l0,0l0,0l0,0l0,0l0,0l0,0l0,0l0,0l0,0l0,0l0,0l0,0l0,0
					l0,0l0,0l0,0l0,0l0,0l0,0l0,0l0,0l0,0l0,0l0,0l0,0l0,0l0,0l0,0l0,0l0,0v0l0,0l0,0l0,0l0,0l0,0l0,0l0,0l0,0l0,0l0,0l0,0l0,0l0,0
					l0,0l0,0l0,0l0,0l0,0l0,0l0,0l0,0l0,0l0,0l0,0l0,0l0,0l0,0l0,0l0,0l0,0l0,0l0.4,0.5H15L14.6,51z"/>
			</g>
		</g>
	</g>
	<path class="st4" d="M9.7,51h0.5L10,50.6L9.7,51z M10.4,51.5l-0.1-0.2H9.6l-0.1,0.2H9.1l0.7-1.3h0.3l0.7,1.3H10.4z"/>
	<g class="st5">
		<g>
			<defs>
				<rect id="SVGID_21_" x="9.1" y="50.2" width="1.6" height="1.3"/>
			</defs>
			<clipPath id="SVGID_22_">
				<use xlink:href="#SVGID_21_"  style="overflow:visible;"/>
			</clipPath>
			<g class="st16">
				<defs>
					<rect id="SVGID_23_" x="9.1" y="50.2" width="1.6" height="1.3"/>
				</defs>
				<clipPath id="SVGID_24_">
					<use xlink:href="#SVGID_23_"  style="overflow:visible;"/>
				</clipPath>
				<path class="st17" d="M10,50.6L9.7,51h0.5L10,50.6z M10.8,51.5h-0.3l-0.1-0.2H9.6l-0.1,0.2H9.1l0.7-1.3h0.3L10.8,51.5z"/>
			</g>
		</g>
	</g>
	<path class="st4" d="M8,50.7h0.5l0,0l0,0l0,0l0,0l0,0l0,0l0,0l0,0l0,0l0,0l0,0l0,0l0,0l0,0l0,0l0,0l0,0l0,0l0,0l0,0l0,0l0,0l0,0
		l0,0l0,0l0,0l0,0l0,0l0,0l0,0l0,0l0,0H8V50.7z M8,51.2h0.6h0l0,0l0,0l0,0l0,0l0,0l0,0l0,0l0,0l0,0l0,0l0,0l0,0l0,0l0,0l0,0l0,0l0,0
		l0,0l0,0l0,0l0,0l0,0v0v0l0,0l0,0l0,0l0,0l0,0l0,0l0,0l0,0l0,0l0,0l0,0l0,0l0,0l0,0l0,0l0,0l0,0l0,0l0,0h0l0,0H8V51.2z M7.7,51.5
		v-1.3h0.9l0,0l0,0l0,0l0,0l0,0l0,0l0,0l0,0l0,0l0,0l0,0l0,0l0,0l0,0l0,0l0,0l0,0l0,0l0,0l0,0l0,0l0,0l0,0l0,0l0,0l0,0l0,0l0,0l0,0
		l0,0l0,0l0,0v0l0,0l0,0l0,0l0,0l0,0l0,0l0,0l0,0l0,0l0,0l0,0l0,0l0,0l0,0l0,0l0,0l0,0l0,0l0,0l0,0l0,0l0,0l0,0l0,0l0,0l0,0l0,0l0,0
		l0,0l0,0l0,0l0,0l0,0l0,0l0,0l0,0l0,0l0,0l0,0l0,0l0,0l0,0l0,0l0,0l0,0l0,0l0,0l0,0l0,0l0,0l0,0l0,0l0,0l0,0l0,0l0,0l0,0l0,0l0,0
		l0,0l0,0l0,0l0,0H7.7z"/>
	<g class="st5">
		<g>
			<defs>
				<rect id="SVGID_25_" x="7.7" y="50.2" width="1.3" height="1.3"/>
			</defs>
			<clipPath id="SVGID_26_">
				<use xlink:href="#SVGID_25_"  style="overflow:visible;"/>
			</clipPath>
			<g class="st18">
				<defs>
					<rect id="SVGID_27_" x="7.7" y="50.2" width="1.3" height="1.3"/>
				</defs>
				<clipPath id="SVGID_28_">
					<use xlink:href="#SVGID_27_"  style="overflow:visible;"/>
				</clipPath>
				<path class="st19" d="M8.8,50.8L8.8,50.8L8.8,50.8L8.8,50.8L8.8,50.8L8.8,50.8L8.8,50.8l0.1,0.1l0,0l0,0l0,0l0,0l0,0l0,0l0,0
					l0,0l0,0l0,0l0,0l0,0l0,0l0,0l0,0l0,0l0,0l0,0l0,0l0,0l0,0l0,0l0,0l0,0l0,0l0,0l0,0l0,0l0,0l0,0l0,0l0,0l0,0l0,0l0,0l0,0l0,0
					l0,0l0,0l0,0l0,0H7.7v-1.3h0.9l0,0l0,0l0,0l0,0l0,0l0,0l0,0l0,0l0,0l0,0l0,0l0,0l0,0l0,0l0,0l0,0l0,0l0,0l0,0l0,0l0,0l0,0l0,0
					l0,0l0,0l0,0l0,0l0,0l0,0l0,0l0,0l0,0v0l0,0l0,0l0,0l0,0l0,0l0,0l0,0L8.8,50.8L8.8,50.8L8.8,50.8L8.8,50.8L8.8,50.8L8.8,50.8
					L8.8,50.8L8.8,50.8z M8,51.2h0.6h0l0,0l0,0l0,0l0,0l0,0l0,0l0,0l0,0l0,0l0,0l0,0l0,0l0,0l0,0l0,0l0,0l0,0l0,0l0,0l0,0l0,0l0,0v0
					v0l0,0l0,0l0,0l0,0l0,0l0,0l0,0l0,0l0,0l0,0l0,0l0,0l0,0l0,0l0,0l0,0l0,0l0,0l0,0h0l0,0H8V51.2z M8,50.7h0.5l0,0l0,0l0,0l0,0
					l0,0l0,0l0,0l0,0l0,0l0,0l0,0l0,0l0,0l0,0l0,0l0,0l0,0l0,0l0,0l0,0l0,0l0,0l0,0l0,0l0,0l0,0l0,0l0,0l0,0l0,0l0,0l0,0H8V50.7z"/>
			</g>
		</g>
	</g>
	<polygon class="st4" points="10.8,53 10.8,51.8 12,51.8 12,52 11.2,52 11.2,52.2 12,52.2 12,52.5 11.2,52.5 11.2,52.8 12,52.8 
		12,53 	"/>
	<g class="st5">
		<g>
			<defs>
				<rect id="SVGID_29_" x="10.8" y="51.8" width="1.2" height="1.3"/>
			</defs>
			<clipPath id="SVGID_30_">
				<use xlink:href="#SVGID_29_"  style="overflow:visible;"/>
			</clipPath>
			<g class="st20">
				<defs>
					<rect id="SVGID_31_" x="10.8" y="51.8" width="1.2" height="1.3"/>
				</defs>
				<clipPath id="SVGID_32_">
					<use xlink:href="#SVGID_31_"  style="overflow:visible;"/>
				</clipPath>
				<polygon class="st21" points="12,51.8 12,52 11.2,52 11.2,52.2 12,52.2 12,52.5 11.2,52.5 11.2,52.8 12,52.8 12,53 10.8,53 
					10.8,51.8 				"/>
			</g>
		</g>
	</g>
	<path class="st4" d="M11.2,53.8h0.5h0l0,0l0,0l0,0l0,0l0,0l0,0l0,0l0,0l0,0l0,0l0,0l0,0l0,0l0,0l0,0l0,0l0,0l0,0v0v0l0,0l0,0l0,0
		l0,0l0,0l0,0l0,0l0,0l0,0l0,0l0,0l0,0l0,0l0,0l0,0l0,0l0,0l0,0l0,0h-0.5V53.8z M11.9,54.6l-0.4-0.5h-0.4v0.5h-0.3v-1.3h0.9l0,0l0,0
		l0,0l0,0l0,0l0,0l0,0l0,0l0,0l0,0l0,0l0,0l0,0l0,0l0,0l0,0l0,0l0,0l0,0l0,0l0,0l0,0l0,0l0,0l0,0l0,0l0,0l0,0l0,0l0,0l0,0l0,0v0l0,0
		l0,0l0,0l0,0l0,0l0,0l0,0l0,0l0,0l0,0l0,0l0,0l0,0l0,0l0,0l0,0l0,0l0,0l0,0l0,0l0,0l0,0l0,0l0,0l0,0l0,0l0,0l0,0l0,0l0,0l0,0
		l0.4,0.5H11.9z"/>
	<g class="st5">
		<g>
			<defs>
				<rect id="SVGID_33_" x="10.8" y="53.3" width="1.4" height="1.3"/>
			</defs>
			<clipPath id="SVGID_34_">
				<use xlink:href="#SVGID_33_"  style="overflow:visible;"/>
			</clipPath>
			<g class="st22">
				<defs>
					<rect id="SVGID_35_" x="10.8" y="53.3" width="1.4" height="1.3"/>
				</defs>
				<clipPath id="SVGID_36_">
					<use xlink:href="#SVGID_35_"  style="overflow:visible;"/>
				</clipPath>
				<path class="st23" d="M10.8,54.6v-1.3h0.9l0,0l0,0l0,0l0,0l0,0l0,0l0,0l0,0l0,0l0,0l0,0l0,0l0,0l0,0l0,0l0,0l0,0l0,0l0,0l0,0
					l0,0l0,0l0,0l0,0l0,0l0,0l0,0l0,0l0,0l0,0l0,0l0,0v0l0,0l0,0l0,0l0,0l0,0l0,0l0,0l0,0l0,0l0,0l0,0l0,0l0,0l0,0l0,0l0,0l0,0l0,0
					l0,0l0,0l0,0l0,0l0,0l0,0l0,0l0,0l0,0l0,0l0,0l0,0l0,0l0.4,0.5h-0.4l-0.4-0.5h-0.4v0.5H10.8z M11.8,53.7L11.8,53.7L11.8,53.7
					L11.8,53.7L11.8,53.7L11.8,53.7L11.8,53.7L11.8,53.7L11.8,53.7L11.8,53.7L11.8,53.7L11.8,53.7L11.8,53.7l-0.1-0.1l0,0l0,0l0,0
					l0,0l0,0l0,0l0,0h-0.5v0.2h0.5h0l0,0l0,0l0,0l0,0l0,0l0,0L11.8,53.7L11.8,53.7L11.8,53.7L11.8,53.7L11.8,53.7L11.8,53.7
					L11.8,53.7L11.8,53.7L11.8,53.7L11.8,53.7L11.8,53.7L11.8,53.7L11.8,53.7z"/>
			</g>
		</g>
	</g>
	<polygon class="st4" points="11.3,54.9 11.1,54.9 11,54.9 10.9,54.8 10.7,54.8 10.6,54.8 10.4,54.8 10.3,54.7 10.2,54.7 10,54.7 
		9.9,54.6 9.8,54.6 9.6,54.5 9.5,54.5 9.4,54.4 9.3,54.4 9.1,54.3 9,54.2 8.9,54.2 8.8,54.1 8.7,54 8.6,54 8.5,53.9 8.4,53.8 
		8.3,53.7 8.2,53.6 8.1,53.5 8,53.4 7.9,53.3 7.8,53.2 7.7,53.1 7.6,53 7.6,53 7.5,52.9 7.5,52.8 7.5,52.8 7.4,52.7 7.4,52.7 
		7.3,52.6 7.3,52.5 7.3,52.5 7.2,52.4 7.2,52.4 7.2,52.3 7.1,52.2 7.1,52.2 7.1,52.1 7,52 7,52 7,51.9 7,51.8 6.9,51.8 6.9,51.7 
		6.9,51.6 6.9,51.5 6.8,51.5 6.8,51.4 6.8,51.3 6.8,51.3 6.8,51.2 6.8,51.1 6.8,51 6.7,51 6.7,50.9 6.7,50.9 6.7,50.8 6.7,50.8 
		6.7,50.7 6.7,50.7 6.7,50.7 6.7,50.6 6.7,50.6 6.7,50.4 6.8,50.2 6.8,49.9 6.9,49.7 6.9,49.5 7,49.3 7.1,49.1 7.2,48.9 7.3,48.7 
		7.4,48.6 7.5,48.4 7.6,48.2 7.7,48 7.9,47.9 8,47.7 8.2,47.6 8.3,47.4 8.5,47.3 8.7,47.2 8.9,47.1 9.1,46.9 9.3,46.8 9.5,46.7 
		9.7,46.7 9.9,46.6 10.1,46.5 10.3,46.5 10.5,46.4 10.7,46.4 11,46.3 11.2,46.3 11.4,46.3 11.7,46.3 11.9,46.3 12.1,46.4 12.4,46.4 
		12.6,46.5 12.8,46.5 13,46.6 13.2,46.7 13.4,46.7 13.6,46.8 13.8,46.9 14,47.1 14.2,47.2 14.4,47.3 14.5,47.4 14.7,47.6 14.8,47.7 
		15,47.9 15.1,48 15.3,48.2 15.4,48.4 15.5,48.6 15.6,48.7 15.7,48.9 15.8,49.1 15.9,49.3 16,49.5 16,49.7 16.1,49.9 16.1,50.2 
		16.1,50.4 16.2,50.6 16.2,50.6 16.2,50.7 16.2,50.7 16.2,50.7 16.2,50.8 16.2,50.8 16.2,50.8 16.2,50.9 16.2,50.9 16.2,51 16.2,51 
		16.2,51 16.2,51.1 16.2,51.1 16.2,51.1 16.2,51.2 16.2,51.1 16.2,51.1 16.1,51.1 16.1,51 16.1,51 16.1,51 16.1,50.9 16.1,50.9 
		16.1,50.8 16.1,50.7 16.1,50.7 16.1,50.6 16.1,50.5 16.1,50.4 16,50.4 16,50.3 16,50.2 16,50.2 16,50.1 15.9,50 15.9,50 15.9,49.9 
		15.9,49.8 15.8,49.7 15.8,49.7 15.8,49.6 15.7,49.6 15.7,49.5 15.7,49.4 15.6,49.4 15.6,49.3 15.6,49.2 15.5,49.2 15.5,49.1 
		15.5,49 15.4,49 15.4,48.9 15.3,48.9 15.3,48.8 15.2,48.7 15.2,48.6 15.1,48.5 15,48.4 14.9,48.3 14.8,48.3 14.7,48.2 14.6,48.1 
		14.5,48 14.4,47.9 14.3,47.8 14.2,47.7 14.1,47.7 14,47.6 13.8,47.5 13.7,47.5 13.6,47.4 13.5,47.3 13.4,47.3 13.2,47.2 13.1,47.2 
		13,47.1 12.8,47.1 12.7,47.1 12.6,47 12.4,47 12.3,47 12.1,46.9 12,46.9 11.9,46.9 11.7,46.9 11.6,46.9 11.4,46.9 11.2,46.9 
		11,46.9 10.8,46.9 10.6,47 10.4,47 10.3,47.1 10.1,47.1 9.9,47.2 9.7,47.3 9.5,47.3 9.4,47.4 9.2,47.5 9,47.6 8.9,47.7 8.7,47.8 
		8.6,48 8.5,48.1 8.3,48.2 8.2,48.4 8.1,48.5 8,48.7 7.9,48.8 7.8,49 7.7,49.1 7.6,49.3 7.5,49.5 7.5,49.7 7.4,49.8 7.4,50 
		7.3,50.2 7.3,50.4 7.3,50.6 7.3,50.6 7.3,50.7 7.3,50.7 7.3,50.7 7.3,50.8 7.3,50.8 7.3,50.8 7.3,50.9 7.3,50.9 7.3,51 7.3,51 
		7.3,51 7.3,51.1 7.3,51.1 7.3,51.1 7.3,51.2 7.3,51.4 7.3,51.6 7.4,51.7 7.4,51.9 7.5,52.1 7.5,52.3 7.6,52.5 7.7,52.6 7.8,52.8 
		7.9,52.9 8,53.1 8.1,53.3 8.2,53.4 8.3,53.5 8.5,53.7 8.6,53.8 8.7,53.9 8.9,54 9,54.1 9.2,54.2 9.4,54.3 9.5,54.4 9.7,54.5 
		9.9,54.6 10.1,54.7 10.3,54.7 10.4,54.8 10.6,54.8 10.8,54.8 11,54.9 11.2,54.9 11.4,54.9 	"/>
	<g class="st5">
		<g>
			<defs>
				<rect id="SVGID_37_" x="6.7" y="46.3" width="9.5" height="8.6"/>
			</defs>
			<clipPath id="SVGID_38_">
				<use xlink:href="#SVGID_37_"  style="overflow:visible;"/>
			</clipPath>
			<g class="st24">
				<defs>
					<rect id="SVGID_39_" x="6.7" y="46.3" width="9.5" height="8.5"/>
				</defs>
				<clipPath id="SVGID_40_">
					<use xlink:href="#SVGID_39_"  style="overflow:visible;"/>
				</clipPath>
				<polygon class="st25" points="16.2,50.6 16.1,50.4 16.1,50.2 16.1,49.9 16,49.7 16,49.5 15.9,49.3 15.8,49.1 15.7,48.9 
					15.6,48.7 15.5,48.6 15.4,48.4 15.3,48.2 15.1,48 15,47.9 14.8,47.7 14.7,47.6 14.5,47.4 14.4,47.3 14.2,47.2 14,47.1 
					13.8,46.9 13.6,46.8 13.4,46.7 13.2,46.7 13,46.6 12.8,46.5 12.6,46.5 12.4,46.4 12.1,46.4 11.9,46.3 11.7,46.3 11.4,46.3 
					11.2,46.3 11,46.3 10.7,46.4 10.5,46.4 10.3,46.5 10.1,46.5 9.9,46.6 9.7,46.7 9.4,46.7 9.3,46.8 9.1,46.9 8.9,47.1 8.7,47.2 
					8.5,47.3 8.3,47.4 8.2,47.6 8,47.7 7.9,47.9 7.7,48 7.6,48.2 7.5,48.4 7.4,48.6 7.3,48.7 7.2,48.9 7.1,49.1 7,49.3 6.9,49.5 
					6.9,49.7 6.8,49.9 6.8,50.2 6.7,50.4 6.7,50.6 6.7,50.6 6.7,50.7 6.7,50.7 6.7,50.7 6.7,50.8 6.7,50.8 6.7,50.9 6.7,50.9 
					6.7,51 6.8,51 6.8,51.1 6.8,51.2 6.8,51.3 6.8,51.3 6.8,51.4 6.8,51.5 6.9,51.5 6.9,51.6 6.9,51.7 6.9,51.8 7,51.8 7,51.9 7,52 
					7,52 7.1,52.1 7.1,52.2 7.1,52.2 7.2,52.3 7.2,52.4 7.2,52.4 7.3,52.5 7.3,52.5 7.3,52.6 7.4,52.7 7.4,52.7 7.5,52.8 7.5,52.8 
					7.5,52.9 7.6,53 7.6,53 7.7,53.1 7.8,53.2 7.9,53.3 8,53.4 8.1,53.5 8.2,53.6 8.3,53.7 8.4,53.8 8.5,53.9 8.6,54 8.7,54 
					8.8,54.1 8.9,54.2 9,54.2 9.1,54.3 9.3,54.4 9.4,54.4 9.5,54.5 9.6,54.5 9.8,54.6 9.9,54.6 10,54.7 10.2,54.7 10.3,54.7 
					10.4,54.8 10.6,54.8 10.7,54.8 10.9,54.8 11,54.9 11.1,54.9 11.3,54.9 11.4,54.9 11.2,54.9 11,54.9 10.8,54.8 10.6,54.8 
					10.4,54.8 10.3,54.7 10.1,54.7 9.9,54.6 9.7,54.5 9.5,54.4 9.4,54.3 9.2,54.2 9,54.1 8.9,54 8.7,53.9 8.6,53.8 8.5,53.7 
					8.3,53.5 8.2,53.4 8.1,53.3 8,53.1 7.9,52.9 7.8,52.8 7.7,52.6 7.6,52.5 7.5,52.3 7.5,52.1 7.4,51.9 7.4,51.7 7.3,51.6 
					7.3,51.4 7.3,51.2 7.3,51.1 7.3,51.1 7.3,51.1 7.3,51 7.3,51 7.3,51 7.3,50.9 7.3,50.9 7.3,50.8 7.3,50.8 7.3,50.8 7.3,50.7 
					7.3,50.7 7.3,50.7 7.3,50.6 7.3,50.6 7.3,50.4 7.3,50.2 7.4,50 7.4,49.8 7.5,49.7 7.5,49.5 7.6,49.3 7.7,49.1 7.8,49 7.9,48.8 
					8,48.7 8.1,48.5 8.2,48.4 8.3,48.2 8.5,48.1 8.6,48 8.7,47.8 8.9,47.7 9,47.6 9.2,47.5 9.4,47.4 9.5,47.3 9.7,47.3 9.9,47.2 
					10.1,47.1 10.3,47.1 10.4,47 10.6,47 10.8,46.9 11,46.9 11.2,46.9 11.4,46.9 11.6,46.9 11.7,46.9 11.9,46.9 12,46.9 12.2,46.9 
					12.3,47 12.4,47 12.6,47 12.7,47.1 12.8,47.1 13,47.1 13.1,47.2 13.2,47.2 13.4,47.3 13.5,47.3 13.6,47.4 13.7,47.5 13.8,47.5 
					14,47.6 14.1,47.7 14.2,47.7 14.3,47.8 14.4,47.9 14.5,48 14.6,48.1 14.7,48.2 14.8,48.3 14.9,48.3 15,48.4 15.1,48.5 
					15.2,48.6 15.2,48.7 15.3,48.8 15.3,48.9 15.4,48.9 15.4,49 15.5,49 15.5,49.1 15.5,49.2 15.6,49.2 15.6,49.3 15.6,49.4 
					15.7,49.4 15.7,49.5 15.7,49.5 15.8,49.6 15.8,49.7 15.8,49.7 15.9,49.8 15.9,49.9 15.9,50 15.9,50 16,50.1 16,50.2 16,50.2 
					16,50.3 16,50.4 16.1,50.4 16.1,50.5 16.1,50.6 16.1,50.7 16.1,50.7 16.1,50.8 16.1,50.9 16.1,50.9 16.1,51 16.1,51 16.1,51 
					16.1,51.1 16.2,51.1 16.2,51.1 16.2,51.2 16.2,51.1 16.2,51.1 16.2,51.1 16.2,51 16.2,51 16.2,51 16.2,50.9 16.2,50.9 
					16.2,50.8 16.2,50.8 16.2,50.8 16.2,50.7 16.2,50.7 16.2,50.7 16.2,50.6 				"/>
			</g>
		</g>
	</g>
	<polygon class="st4" points="11.2,55.4 11,55.4 10.7,55.4 10.5,55.4 10.3,55.3 10.1,55.3 9.9,55.2 9.7,55.1 9.5,55 9.3,54.9 
		9.1,54.8 8.9,54.7 8.7,54.6 8.5,54.5 8.3,54.3 8.2,54.2 8,54.1 7.9,53.9 7.7,53.7 7.6,53.6 7.5,53.4 7.4,53.2 7.3,53 7.2,52.8 
		7.1,52.6 7,52.4 6.9,52.2 6.8,52 6.8,51.8 6.8,51.6 6.7,51.4 6.7,51.2 6.7,51.1 6.7,51.1 6.7,51.1 6.7,51 6.7,51 6.7,51 6.7,50.9 
		6.7,50.9 6.7,50.9 6.7,50.8 6.7,50.8 6.7,50.7 6.7,50.7 6.7,50.7 6.7,50.6 6.7,50.6 6.7,50.6 6.7,50.7 6.7,50.7 6.7,50.7 6.7,50.8 
		6.7,50.8 6.7,50.8 6.7,50.9 6.7,51 6.8,51 6.8,51.1 6.8,51.2 6.8,51.3 6.8,51.3 6.8,51.4 6.8,51.5 6.9,51.5 6.9,51.6 6.9,51.7 
		6.9,51.7 7,51.8 7,51.9 7,52 7,52 7.1,52.1 7.1,52.2 7.1,52.2 7.2,52.3 7.2,52.4 7.2,52.4 7.3,52.5 7.3,52.5 7.3,52.6 7.4,52.7 
		7.4,52.7 7.5,52.8 7.5,52.8 7.5,52.9 7.6,53 7.6,53 7.7,53.1 7.8,53.2 7.9,53.3 8,53.4 8.1,53.5 8.2,53.6 8.3,53.7 8.4,53.8 
		8.5,53.9 8.6,54 8.7,54 8.8,54.1 8.9,54.2 9,54.2 9.1,54.3 9.3,54.4 9.4,54.4 9.5,54.5 9.6,54.5 9.8,54.6 9.9,54.6 10,54.7 
		10.2,54.7 10.3,54.7 10.4,54.8 10.6,54.8 10.7,54.8 10.9,54.8 11,54.9 11.1,54.9 11.3,54.9 11.4,54.9 11.6,54.9 11.8,54.9 12,54.8 
		12.2,54.8 12.4,54.8 12.6,54.7 12.8,54.7 13,54.6 13.2,54.5 13.3,54.4 13.5,54.3 13.7,54.2 13.8,54.1 14,54 14.1,53.9 14.3,53.8 
		14.4,53.7 14.5,53.5 14.7,53.4 14.8,53.3 14.9,53.1 15,52.9 15.1,52.8 15.2,52.6 15.2,52.5 15.3,52.3 15.4,52.1 15.4,51.9 
		15.5,51.7 15.5,51.6 15.6,51.4 15.6,51.2 15.6,51.1 15.6,51.1 15.6,51.1 15.6,51 15.6,51 15.6,51 15.6,50.9 15.6,50.9 15.6,50.9 
		15.6,50.8 15.6,50.8 15.6,50.7 15.6,50.7 15.6,50.7 15.6,50.6 15.6,50.6 15.6,50.4 15.5,50.2 15.5,50 15.4,49.8 15.4,49.7 
		15.3,49.5 15.2,49.3 15.2,49.1 15.1,49 15,48.8 14.9,48.7 14.8,48.5 14.7,48.4 14.5,48.2 14.4,48.1 14.3,48 14.1,47.8 14,47.7 
		13.8,47.6 13.7,47.5 13.5,47.4 13.3,47.3 13.2,47.3 13,47.2 12.8,47.1 12.6,47.1 12.4,47 12.2,47 12,46.9 11.8,46.9 11.6,46.9 
		11.4,46.9 11.6,46.9 11.7,46.9 11.9,46.9 12,46.9 12.2,46.9 12.3,47 12.4,47 12.6,47 12.7,47.1 12.8,47.1 13,47.1 13.1,47.2 
		13.2,47.2 13.4,47.3 13.5,47.3 13.6,47.4 13.7,47.5 13.8,47.5 14,47.6 14.1,47.7 14.2,47.7 14.3,47.8 14.4,47.9 14.5,48 14.6,48.1 
		14.7,48.2 14.8,48.2 14.9,48.3 15,48.4 15.1,48.5 15.2,48.6 15.2,48.7 15.3,48.8 15.3,48.9 15.4,48.9 15.4,49 15.5,49 15.5,49.1 
		15.5,49.2 15.6,49.2 15.6,49.3 15.6,49.4 15.7,49.4 15.7,49.5 15.7,49.5 15.8,49.6 15.8,49.7 15.8,49.7 15.9,49.8 15.9,49.9 
		15.9,50 15.9,50 16,50.1 16,50.2 16,50.2 16,50.3 16,50.4 16.1,50.4 16.1,50.5 16.1,50.6 16.1,50.7 16.1,50.7 16.1,50.8 16.1,50.9 
		16.1,50.9 16.1,51 16.1,51 16.1,51 16.2,51.1 16.2,51.1 16.2,51.1 16.2,51.2 16.1,51.4 16.1,51.6 16.1,51.8 16,52 16,52.2 
		15.9,52.4 15.8,52.6 15.7,52.8 15.6,53 15.5,53.2 15.4,53.4 15.3,53.6 15.1,53.7 15,53.9 14.8,54.1 14.7,54.2 14.5,54.3 14.4,54.5 
		14.2,54.6 14,54.7 13.8,54.8 13.6,54.9 13.4,55 13.2,55.1 13,55.2 12.8,55.3 12.6,55.3 12.4,55.4 12.1,55.4 11.9,55.4 11.7,55.4 
		11.4,55.4 	"/>
	<g class="st5">
		<g>
			<defs>
				<rect id="SVGID_41_" x="6.7" y="46.9" width="9.5" height="8.5"/>
			</defs>
			<clipPath id="SVGID_42_">
				<use xlink:href="#SVGID_41_"  style="overflow:visible;"/>
			</clipPath>
			<g class="st26">
				<defs>
					<rect id="SVGID_43_" x="6.7" y="46.9" width="9.5" height="8.5"/>
				</defs>
				<clipPath id="SVGID_44_">
					<use xlink:href="#SVGID_43_"  style="overflow:visible;"/>
				</clipPath>
				<polygon class="st27" points="6.7,51.2 6.7,51.4 6.8,51.6 6.8,51.8 6.9,52 6.9,52.2 7,52.4 7.1,52.6 7.2,52.8 7.3,53 7.4,53.2 
					7.5,53.4 7.6,53.6 7.7,53.7 7.9,53.9 8,54.1 8.2,54.2 8.3,54.3 8.5,54.5 8.7,54.6 8.9,54.7 9.1,54.8 9.3,54.9 9.4,55 9.7,55.1 
					9.9,55.2 10.1,55.3 10.3,55.3 10.5,55.4 10.7,55.4 11,55.4 11.2,55.4 11.4,55.4 11.7,55.4 11.9,55.4 12.1,55.4 12.4,55.4 
					12.6,55.3 12.8,55.3 13,55.2 13.2,55.1 13.4,55 13.6,54.9 13.8,54.8 14,54.7 14.2,54.6 14.3,54.5 14.5,54.3 14.7,54.2 
					14.8,54.1 15,53.9 15.1,53.7 15.3,53.6 15.4,53.4 15.5,53.2 15.6,53 15.7,52.8 15.8,52.6 15.9,52.4 16,52.2 16,52 16.1,51.8 
					16.1,51.6 16.1,51.4 16.2,51.2 16.2,51.1 16.2,51.1 16.1,51.1 16.1,51 16.1,51 16.1,51 16.1,50.9 16.1,50.9 16.1,50.8 
					16.1,50.7 16.1,50.7 16.1,50.6 16.1,50.5 16.1,50.4 16,50.4 16,50.3 16,50.2 16,50.2 16,50.1 15.9,50 15.9,50 15.9,49.9 
					15.9,49.8 15.8,49.7 15.8,49.7 15.8,49.6 15.7,49.5 15.7,49.5 15.7,49.4 15.6,49.4 15.6,49.3 15.6,49.2 15.5,49.2 15.5,49.1 
					15.5,49 15.4,49 15.4,48.9 15.3,48.9 15.3,48.8 15.2,48.7 15.2,48.6 15.1,48.5 15,48.4 14.9,48.3 14.8,48.2 14.7,48.2 
					14.6,48.1 14.5,48 14.4,47.9 14.3,47.8 14.2,47.7 14.1,47.7 14,47.6 13.8,47.5 13.7,47.5 13.6,47.4 13.5,47.3 13.4,47.3 
					13.2,47.2 13.1,47.2 13,47.1 12.8,47.1 12.7,47.1 12.6,47 12.4,47 12.3,47 12.2,46.9 12,46.9 11.9,46.9 11.7,46.9 11.6,46.9 
					11.4,46.9 11.6,46.9 11.8,46.9 12,46.9 12.2,47 12.4,47 12.6,47.1 12.8,47.1 13,47.2 13.2,47.3 13.3,47.3 13.5,47.4 13.7,47.5 
					13.8,47.6 14,47.7 14.1,47.8 14.3,48 14.4,48.1 14.5,48.2 14.7,48.4 14.8,48.5 14.9,48.7 15,48.8 15.1,49 15.2,49.1 15.2,49.3 
					15.3,49.5 15.4,49.7 15.4,49.8 15.5,50 15.5,50.2 15.6,50.4 15.6,50.6 15.6,50.6 15.6,50.7 15.6,50.7 15.6,50.7 15.6,50.8 
					15.6,50.8 15.6,50.8 15.6,50.9 15.6,50.9 15.6,51 15.6,51 15.6,51 15.6,51.1 15.6,51.1 15.6,51.1 15.6,51.2 15.6,51.4 
					15.5,51.6 15.5,51.7 15.4,51.9 15.4,52.1 15.3,52.3 15.2,52.5 15.2,52.6 15.1,52.8 15,52.9 14.9,53.1 14.8,53.3 14.7,53.4 
					14.5,53.5 14.4,53.7 14.3,53.8 14.1,53.9 14,54 13.8,54.1 13.7,54.2 13.5,54.3 13.3,54.4 13.2,54.5 13,54.6 12.8,54.7 
					12.6,54.7 12.4,54.8 12.2,54.8 12,54.8 11.8,54.9 11.6,54.9 11.4,54.9 11.3,54.9 11.1,54.9 11,54.9 10.9,54.8 10.7,54.8 
					10.6,54.8 10.4,54.8 10.3,54.7 10.2,54.7 10,54.7 9.9,54.6 9.8,54.6 9.6,54.5 9.5,54.5 9.4,54.4 9.3,54.4 9.1,54.3 9,54.2 
					8.9,54.2 8.8,54.1 8.7,54 8.6,54 8.5,53.9 8.4,53.8 8.3,53.7 8.2,53.6 8.1,53.5 8,53.4 7.9,53.3 7.8,53.2 7.7,53.1 7.6,53 
					7.6,53 7.5,52.9 7.5,52.8 7.5,52.8 7.4,52.7 7.4,52.7 7.3,52.6 7.3,52.5 7.3,52.5 7.2,52.4 7.2,52.4 7.2,52.3 7.1,52.2 
					7.1,52.2 7.1,52.1 7,52 7,52 7,51.9 7,51.8 6.9,51.7 6.9,51.7 6.9,51.6 6.9,51.5 6.8,51.5 6.8,51.4 6.8,51.3 6.8,51.3 6.8,51.2 
					6.8,51.1 6.8,51 6.7,51 6.7,50.9 6.7,50.8 6.7,50.8 6.7,50.8 6.7,50.7 6.7,50.7 6.7,50.7 6.7,50.6 6.7,50.6 6.7,50.6 6.7,50.7 
					6.7,50.7 6.7,50.7 6.7,50.8 6.7,50.8 6.7,50.8 6.7,50.9 6.7,50.9 6.7,51 6.7,51 6.7,51 6.7,51.1 6.7,51.1 6.7,51.1 				"/>
			</g>
		</g>
	</g>
	<g>
		<path class="st28" d="M28.6,49c-0.4,0-0.7-0.1-1-0.4c-0.3-0.3-0.4-0.6-0.4-1.1c0-0.4,0.1-0.8,0.3-1.1c0.2-0.3,0.6-0.4,1-0.4
			c0.5,0,0.8,0.2,1,0.4c0.2,0.3,0.3,0.7,0.3,1.1c0,0.5-0.1,0.8-0.4,1.1C29.4,48.8,29,49,28.6,49 M29.6,47.4c0-0.4-0.1-0.6-0.2-0.9
			c-0.2-0.2-0.4-0.4-0.8-0.4c-0.4,0-0.6,0.1-0.8,0.4c-0.2,0.2-0.2,0.5-0.2,0.9c0,0.4,0.1,0.7,0.3,0.9c0.2,0.2,0.4,0.3,0.7,0.3
			c0.4,0,0.6-0.1,0.8-0.4C29.5,48,29.6,47.8,29.6,47.4"/>
		<path class="st28" d="M31,48.9h-0.3V46H31v0.4c0.1-0.1,0.3-0.3,0.4-0.4c0.1-0.1,0.3-0.1,0.5-0.1c0.4,0,0.7,0.1,0.9,0.4
			c0.1,0.1,0.1,0.2,0.1,0.3c0,0.1,0,0.2,0,0.4v1.9h-0.3V47c0-0.5-0.2-0.8-0.8-0.8c-0.2,0-0.4,0.1-0.5,0.2c-0.1,0.1-0.2,0.2-0.3,0.4
			c-0.1,0.2-0.1,0.4-0.1,0.6V48.9z"/>
		<path class="st28" d="M36.2,44.8h0.3v4.1h-0.3v-0.5h0c-0.1,0.2-0.2,0.3-0.4,0.4c-0.2,0.1-0.4,0.2-0.6,0.2c-0.5,0-0.8-0.2-1-0.4
			c-0.2-0.3-0.3-0.6-0.3-1.1c0-0.4,0.1-0.8,0.3-1.1c0.2-0.3,0.5-0.5,1-0.5c0.2,0,0.4,0,0.6,0.1c0.2,0.1,0.3,0.2,0.5,0.4V44.8z
			 M36.2,47.4c0-0.3-0.1-0.6-0.3-0.9c-0.2-0.2-0.4-0.4-0.7-0.4c-0.4,0-0.6,0.1-0.8,0.4c-0.2,0.3-0.2,0.6-0.2,0.9
			c0,0.4,0.1,0.7,0.3,0.8c0.2,0.2,0.4,0.3,0.7,0.3c0.3,0,0.6-0.1,0.7-0.4C36.2,48.1,36.2,47.8,36.2,47.4"/>
		<path class="st28" d="M38.7,49c-0.4,0-0.7-0.1-1-0.4c-0.3-0.3-0.4-0.6-0.4-1.1c0-0.4,0.1-0.8,0.3-1.1c0.2-0.3,0.6-0.4,1-0.4
			c0.5,0,0.8,0.2,1,0.4c0.2,0.3,0.3,0.7,0.3,1.1c0,0.5-0.1,0.8-0.4,1.1C39.5,48.8,39.1,49,38.7,49 M39.7,47.4c0-0.4-0.1-0.6-0.2-0.9
			c-0.2-0.2-0.4-0.4-0.8-0.4c-0.4,0-0.6,0.1-0.8,0.4c-0.2,0.2-0.2,0.5-0.2,0.9c0,0.4,0.1,0.7,0.3,0.9c0.2,0.2,0.4,0.3,0.7,0.3
			c0.4,0,0.6-0.1,0.8-0.4C39.7,48,39.7,47.8,39.7,47.4"/>
		<path class="st28" d="M44.7,44.8h0.3v4.1h-0.3v-0.5h0c-0.1,0.2-0.2,0.3-0.4,0.4c-0.2,0.1-0.4,0.2-0.6,0.2c-0.5,0-0.8-0.2-1-0.4
			c-0.2-0.3-0.3-0.6-0.3-1.1c0-0.4,0.1-0.8,0.3-1.1c0.2-0.3,0.5-0.5,1-0.5c0.2,0,0.4,0,0.6,0.1c0.2,0.1,0.3,0.2,0.5,0.4V44.8z
			 M44.7,47.4c0-0.3-0.1-0.6-0.3-0.9c-0.2-0.2-0.4-0.4-0.7-0.4c-0.4,0-0.6,0.1-0.8,0.4c-0.2,0.3-0.2,0.6-0.2,0.9
			c0,0.4,0.1,0.7,0.3,0.8c0.2,0.2,0.4,0.3,0.7,0.3c0.3,0,0.6-0.1,0.7-0.4C44.6,48.1,44.7,47.8,44.7,47.4"/>
		<path class="st28" d="M46.2,47.5c0,0.3,0.1,0.6,0.3,0.8c0.2,0.2,0.4,0.3,0.7,0.3c0.5,0,0.8-0.2,0.9-0.7h0.4
			c-0.1,0.3-0.2,0.5-0.4,0.7c-0.2,0.2-0.5,0.3-0.9,0.3c-0.5,0-0.8-0.2-1-0.4c-0.2-0.3-0.3-0.6-0.3-1.1c0-0.4,0.1-0.8,0.4-1.1
			c0.2-0.3,0.6-0.4,1-0.4c0.8,0,1.3,0.5,1.3,1.6H46.2z M48.2,47.2c0-0.3-0.1-0.5-0.2-0.7c-0.2-0.2-0.4-0.3-0.7-0.3
			c-0.3,0-0.5,0.1-0.7,0.3c-0.2,0.2-0.3,0.4-0.3,0.7H48.2z"/>
		<polygon class="st28" points="51,48.9 51,44.8 53.7,44.8 53.7,45.2 51.4,45.2 51.4,46.6 53.5,46.6 53.5,47 51.4,47 51.4,48.6 
			53.8,48.6 53.8,48.9 		"/>
		<path class="st28" d="M54.7,48.9h-0.3V46h0.3v0.4h0c0.2-0.3,0.5-0.5,0.9-0.5c0.3,0,0.5,0.1,0.6,0.2c0.1,0.1,0.2,0.2,0.3,0.4
			c0.2-0.4,0.5-0.6,1-0.6c0.2,0,0.4,0,0.5,0.1c0.1,0.1,0.2,0.2,0.3,0.3c0.1,0.1,0.1,0.2,0.1,0.4c0,0.1,0,0.3,0,0.4v1.8h-0.3v-2
			c0-0.2,0-0.4-0.1-0.5c-0.1-0.1-0.3-0.2-0.5-0.2c-0.3,0-0.5,0.1-0.7,0.3c-0.1,0.1-0.1,0.2-0.2,0.4c0,0.1,0,0.3,0,0.4v1.6h-0.3v-2
			c0-0.2,0-0.4-0.1-0.5c-0.1-0.1-0.3-0.2-0.5-0.2c-0.3,0-0.5,0.1-0.7,0.3c-0.1,0.1-0.1,0.2-0.2,0.4c0,0.1,0,0.3,0,0.4V48.9z"/>
		<path class="st28" d="M59.8,50h-0.3V46h0.3v0.5h0c0.1-0.2,0.3-0.3,0.5-0.4c0.2-0.1,0.4-0.1,0.6-0.1c0.5,0,0.8,0.1,1,0.4
			c0.2,0.3,0.3,0.7,0.3,1.1c0,0.4-0.1,0.8-0.3,1.1c-0.2,0.3-0.5,0.5-1,0.5c-0.2,0-0.4,0-0.6-0.1c-0.2-0.1-0.3-0.2-0.5-0.4V50z
			 M59.8,47.4c0,0.3,0.1,0.6,0.3,0.9c0.2,0.2,0.4,0.4,0.7,0.4c0.4,0,0.6-0.1,0.8-0.4c0.2-0.2,0.2-0.6,0.2-0.9c0-0.4-0.1-0.7-0.3-0.9
			c-0.2-0.2-0.4-0.3-0.7-0.3c-0.3,0-0.6,0.1-0.7,0.4C59.9,46.8,59.8,47.1,59.8,47.4"/>
		<rect x="63" y="44.8" class="st28" width="0.3" height="4.1"/>
		<path class="st28" d="M64.5,47.5c0,0.3,0.1,0.6,0.3,0.8c0.2,0.2,0.4,0.3,0.7,0.3c0.5,0,0.8-0.2,0.9-0.7h0.4
			c-0.1,0.3-0.2,0.5-0.4,0.7c-0.2,0.2-0.5,0.3-0.9,0.3c-0.5,0-0.8-0.2-1-0.4c-0.2-0.3-0.3-0.6-0.3-1.1c0-0.4,0.1-0.8,0.4-1.1
			c0.2-0.3,0.6-0.4,1-0.4c0.8,0,1.3,0.5,1.3,1.6H64.5z M66.4,47.2c0-0.3-0.1-0.5-0.2-0.7c-0.2-0.2-0.4-0.3-0.7-0.3
			c-0.3,0-0.5,0.1-0.7,0.3c-0.2,0.2-0.3,0.4-0.3,0.7H66.4z"/>
		<path class="st28" d="M68.9,47.2c0.1,0,0.1,0,0.2,0c0.1,0,0.2,0,0.2-0.1c0.1,0,0.1-0.1,0.1-0.1c0-0.1,0-0.1,0-0.2
			c0-0.2-0.1-0.3-0.2-0.4c-0.1-0.1-0.3-0.2-0.6-0.2c-0.2,0-0.4,0-0.6,0.1c-0.1,0.1-0.2,0.3-0.3,0.5h-0.3c0-0.3,0.2-0.6,0.4-0.7
			c0.2-0.1,0.5-0.2,0.8-0.2c0.3,0,0.6,0.1,0.8,0.2c0.2,0.1,0.3,0.4,0.3,0.7v1.6c0,0.1,0,0.2,0.1,0.2c0.1,0,0.1,0,0.3,0v0.3
			c0,0-0.1,0-0.1,0c-0.1,0-0.1,0-0.2,0c-0.1,0-0.1,0-0.2,0c-0.1,0-0.2-0.1-0.2-0.2c0-0.1-0.1-0.2-0.1-0.3c-0.3,0.3-0.7,0.5-1.1,0.5
			c-0.3,0-0.5-0.1-0.7-0.2c-0.2-0.1-0.3-0.3-0.3-0.6c0-0.5,0.3-0.8,1-0.9L68.9,47.2z M69.5,47.4c-0.1,0.1-0.3,0.1-0.4,0.1
			c-0.1,0-0.3,0-0.4,0c-0.5,0-0.8,0.2-0.8,0.6c0,0.2,0.1,0.3,0.2,0.4c0.1,0.1,0.3,0.1,0.4,0.1c0.3,0,0.5-0.1,0.7-0.2
			c0.2-0.1,0.3-0.3,0.3-0.6V47.4z"/>
		<path class="st28" d="M73.1,44.8h0.3v4.1h-0.3v-0.5h0c-0.1,0.2-0.2,0.3-0.4,0.4c-0.2,0.1-0.4,0.2-0.6,0.2c-0.5,0-0.8-0.2-1-0.4
			c-0.2-0.3-0.3-0.6-0.3-1.1c0-0.4,0.1-0.8,0.3-1.1c0.2-0.3,0.5-0.5,1-0.5c0.2,0,0.4,0,0.6,0.1c0.2,0.1,0.3,0.2,0.5,0.4V44.8z
			 M73.1,47.4c0-0.3-0.1-0.6-0.3-0.9c-0.2-0.2-0.4-0.4-0.7-0.4c-0.4,0-0.6,0.1-0.8,0.4c-0.2,0.3-0.2,0.6-0.2,0.9
			c0,0.4,0.1,0.7,0.3,0.8c0.2,0.2,0.4,0.3,0.7,0.3c0.3,0,0.6-0.1,0.7-0.4C73,48.1,73.1,47.8,73.1,47.4"/>
		<path class="st28" d="M75.6,49c-0.4,0-0.7-0.1-1-0.4c-0.3-0.3-0.4-0.6-0.4-1.1c0-0.4,0.1-0.8,0.3-1.1c0.2-0.3,0.6-0.4,1-0.4
			c0.5,0,0.8,0.2,1,0.4c0.2,0.3,0.3,0.7,0.3,1.1c0,0.5-0.1,0.8-0.4,1.1C76.3,48.8,76,49,75.6,49 M76.6,47.4c0-0.4-0.1-0.6-0.2-0.9
			c-0.2-0.2-0.4-0.4-0.8-0.4c-0.4,0-0.6,0.1-0.8,0.4c-0.2,0.2-0.2,0.5-0.2,0.9c0,0.4,0.1,0.7,0.3,0.9c0.2,0.2,0.4,0.3,0.7,0.3
			c0.4,0,0.6-0.1,0.8-0.4C76.5,48,76.6,47.8,76.6,47.4"/>
		<path class="st28" d="M77.9,48c0.1,0.5,0.4,0.7,0.9,0.7c0.3,0,0.4-0.1,0.6-0.2c0.1-0.1,0.2-0.2,0.2-0.4c0-0.1,0-0.2-0.1-0.3
			c-0.1-0.1-0.1-0.1-0.2-0.2c0,0-0.1,0-0.1-0.1c-0.1,0-0.1,0-0.2,0c-0.1,0-0.2,0-0.4-0.1c-0.1,0-0.1,0-0.2-0.1c-0.1,0-0.1,0-0.2,0
			c-0.1,0-0.2-0.1-0.3-0.1c-0.1-0.1-0.2-0.1-0.2-0.2c-0.1-0.1-0.1-0.2-0.1-0.4c0-0.2,0.1-0.5,0.3-0.6c0.2-0.2,0.4-0.2,0.8-0.2
			c0.7,0,1,0.3,1.1,0.9h-0.3c0-0.2-0.1-0.4-0.3-0.5c-0.1-0.1-0.3-0.1-0.5-0.1c-0.4,0-0.7,0.2-0.7,0.5c0,0.1,0,0.2,0.1,0.2
			c0.1,0.1,0.1,0.1,0.2,0.2c0.2,0.1,0.4,0.1,0.6,0.2c0.1,0,0.2,0.1,0.4,0.1c0.1,0,0.2,0.1,0.3,0.2c0.1,0.1,0.2,0.1,0.2,0.2
			c0.1,0.1,0.1,0.2,0.1,0.4c0,0.3-0.1,0.5-0.3,0.6C79.3,48.9,79,49,78.6,49c-0.3,0-0.6-0.1-0.8-0.3c-0.2-0.2-0.3-0.4-0.3-0.7H77.9z"
			/>
		<path class="st28" d="M82.3,48.9v-4.1h1.5c0.5,0,0.8,0.1,1,0.3c0.2,0.2,0.3,0.4,0.3,0.7c0,0.3-0.1,0.5-0.2,0.6
			c-0.1,0.1-0.3,0.2-0.5,0.2v0c0.6,0.1,0.9,0.4,0.9,1c0,0.4-0.1,0.7-0.4,0.9c-0.2,0.2-0.6,0.3-1,0.3H82.3z M82.7,46.6h1
			c0.4,0,0.7-0.1,0.8-0.2c0.2-0.1,0.2-0.3,0.2-0.6c0-0.3-0.1-0.4-0.3-0.5c-0.2-0.1-0.5-0.2-0.9-0.2h-0.9V46.6z M82.7,48.6h1
			c0.4,0,0.7,0,0.9-0.1c0.2-0.1,0.3-0.3,0.3-0.7c0-0.3-0.1-0.5-0.3-0.7C84.4,47,84.1,47,83.7,47h-1V48.6z"/>
		<path class="st28" d="M87.5,47.2c0.1,0,0.1,0,0.2,0c0.1,0,0.2,0,0.2-0.1c0.1,0,0.1-0.1,0.1-0.1c0-0.1,0-0.1,0-0.2
			c0-0.2-0.1-0.3-0.2-0.4c-0.1-0.1-0.3-0.2-0.6-0.2c-0.2,0-0.4,0-0.6,0.1c-0.1,0.1-0.2,0.3-0.3,0.5h-0.3c0-0.3,0.2-0.6,0.4-0.7
			c0.2-0.1,0.5-0.2,0.8-0.2c0.3,0,0.6,0.1,0.8,0.2c0.2,0.1,0.3,0.4,0.3,0.7v1.6c0,0.1,0,0.2,0.1,0.2c0.1,0,0.1,0,0.3,0v0.3
			c0,0-0.1,0-0.1,0c-0.1,0-0.1,0-0.2,0c-0.1,0-0.1,0-0.2,0c-0.1,0-0.2-0.1-0.2-0.2c0-0.1-0.1-0.2-0.1-0.3C87.8,48.8,87.4,49,87,49
			c-0.3,0-0.5-0.1-0.7-0.2c-0.2-0.1-0.3-0.3-0.3-0.6c0-0.5,0.3-0.8,1-0.9L87.5,47.2z M88.1,47.4c-0.1,0.1-0.3,0.1-0.4,0.1
			c-0.1,0-0.3,0-0.4,0c-0.5,0-0.8,0.2-0.8,0.6c0,0.2,0.1,0.3,0.2,0.4c0.1,0.1,0.3,0.1,0.4,0.1c0.3,0,0.5-0.1,0.7-0.2
			c0.2-0.1,0.3-0.3,0.3-0.6V47.4z"/>
		<path class="st28" d="M89.4,49.7c0.1,0,0.2,0,0.3,0c0.1,0,0.2,0,0.2-0.1c0.1-0.1,0.1-0.1,0.1-0.2c0-0.1,0.1-0.2,0.1-0.3
			c0-0.1,0.1-0.2,0.1-0.2L89.1,46h0.4l0.9,2.5l0.9-2.5h0.4l-1.1,2.9c-0.1,0.4-0.3,0.7-0.4,0.9C90.1,49.9,90,50,89.7,50
			c-0.1,0-0.2,0-0.3,0V49.7z"/>
		<path class="st28" d="M92.6,47.5c0,0.3,0.1,0.6,0.3,0.8c0.2,0.2,0.4,0.3,0.7,0.3c0.5,0,0.8-0.2,0.9-0.7h0.4
			c-0.1,0.3-0.2,0.5-0.4,0.7c-0.2,0.2-0.5,0.3-0.9,0.3c-0.5,0-0.8-0.2-1-0.4c-0.2-0.3-0.3-0.6-0.3-1.1c0-0.4,0.1-0.8,0.4-1.1
			c0.2-0.3,0.6-0.4,1-0.4c0.8,0,1.3,0.5,1.3,1.6H92.6z M94.5,47.2c0-0.3-0.1-0.5-0.2-0.7c-0.2-0.2-0.4-0.3-0.7-0.3
			c-0.3,0-0.5,0.1-0.7,0.3c-0.2,0.2-0.3,0.4-0.3,0.7H94.5z"/>
		<path class="st28" d="M96,48.9h-0.3V46H96v0.5h0c0.1-0.2,0.2-0.4,0.4-0.5c0.2-0.1,0.3-0.1,0.6-0.1v0.4c-0.4,0-0.6,0.1-0.8,0.3
			C96,46.8,96,47.1,96,47.5V48.9z"/>
		<polygon class="st28" points="24.5,51.2 28.9,51.2 28.9,52.6 26.2,52.6 26.2,53.3 28.5,53.3 28.5,54.6 26.2,54.6 26.2,56.7 
			24.5,56.7 		"/>
		<polygon class="st28" points="29.5,51.2 34.2,51.2 34.2,52.6 31.3,52.6 31.3,53.3 33.9,53.3 33.9,54.6 31.3,54.6 31.3,55.2 
			34.3,55.2 34.3,56.7 29.5,56.7 		"/>
		<path class="st28" d="M35.1,51.2h3.1c1.5,0,1.8,0.8,1.8,1.4c0,0.6-0.3,0.9-0.7,1.1c0.5,0.2,1,0.6,1,1.4c0,1.1-1,1.7-2,1.7h-3.2
			V51.2z M36.9,53.3h0.9c0.4,0,0.6-0.1,0.6-0.5c0-0.3-0.2-0.4-0.6-0.4h-0.9V53.3z M36.9,55.3h1c0.4,0,0.7-0.1,0.7-0.5
			c0-0.3-0.2-0.5-0.6-0.5h-1.1V55.3z"/>
		<path class="st28" d="M42.6,51.2h1.7l2.1,5.5h-1.8l-0.2-0.8h-1.8l-0.3,0.8h-1.8L42.6,51.2z M44,54.7L43.5,53h0l-0.5,1.7H44z"/>
		<polygon class="st28" points="47.5,54.6 45.5,51.2 47.4,51.2 48.4,53.2 49.4,51.2 51.3,51.2 49.2,54.6 49.2,56.7 47.5,56.7 		"/>
		<polygon class="st28" points="24.2,48.9 24.2,44.8 26.8,44.8 26.8,45.2 24.6,45.2 24.6,46.6 26.6,46.6 26.6,47 24.6,47 24.6,48.9 
					"/>
	</g>
</g>
</svg>
