<?xml version="1.0" encoding="utf-8"?>
<!-- Generator: Adobe Illustrator 23.1.0, SVG Export Plug-In . SVG Version: 6.00 Build 0)  -->
<svg version="1.1" id="Capa_1" xmlns="http://www.w3.org/2000/svg" xmlns:xlink="http://www.w3.org/1999/xlink" x="0px" y="0px"
	 viewBox="0 0 100 100" style="enable-background:new 0 0 100 100;" xml:space="preserve">
<style type="text/css">
	.st0{fill-rule:evenodd;clip-rule:evenodd;fill:#EE4023;}
	.st1{fill-rule:evenodd;clip-rule:evenodd;fill:#FFFFFF;}
</style>
<g>
	<path class="st0" d="M39,83.2c8.3-1.1,22.1-3,30.8-4.2c8.7-1.2,12.4-1.7,14.6-2.1c2.2-0.4,3-0.6,3.7-1.1c0.7-0.5,1.4-1.2,1.9-1.9
		c0.5-0.7,0.7-1.3,0.8-2.3c0.1-1,0.1-2.4,0.1-7.2c0-4.8,0-13,0-18c0-5,0-6.8-0.2-8.2c-0.2-1.4-0.5-2.4-1-3.2c-0.5-0.8-1.2-1.5-1.9-2
		c-0.7-0.5-1.4-1-3.5-1.8c-2.1-0.9-5.4-2.2-11.5-4.6c-6-2.4-14.7-5.8-19.8-7.9c-5.1-2.1-6.6-2.8-7.8-3.2c-1.2-0.4-2-0.5-2.9-0.5
		c-1,0-2.1,0.2-3.1,0.6c-1,0.4-1.8,1-3.8,3c-2.1,2-5.4,5.5-9.5,9.7c-4.2,4.3-9.3,9.3-12.1,12.4c-2.8,3.1-3.4,4.1-3.8,5.2
		c-0.4,1.1-0.6,2.2-0.5,3.4c0,1.2,0.3,2.4,0.8,4.5c0.6,2.1,1.5,5.2,2.6,9.3c1.2,4.1,2.5,9.2,3.5,12.5c0.9,3.3,1.4,4.9,1.8,5.9
		c0.4,1,0.7,1.5,1.2,2c0.5,0.5,1.1,0.9,1.7,1.2c0.7,0.3,1.4,0.5,2.1,0.5c0.7,0.1,1.4,0.1,3.2-0.2C27.9,84.7,30.7,84.3,39,83.2z"/>
	<path class="st1" d="M24.4,54.9h4.2v11.8h6.4v3.7h-6.4h-4.2v-3.7V54.9L24.4,54.9z M31.7,36.8c1.1,0,2.2,0.2,3.2,0.6v4.2
		c-0.8-0.6-1.7-1-2.8-1c-2.4,0-4.4,1.9-4.4,4.2c0,2.3,2,4.2,4.4,4.2c1.1,0,2-0.4,2.8-1v4.3c-1,0.4-2,0.6-3.2,0.6
		c-4.6,0-8.4-3.6-8.4-8.1S27.1,36.8,31.7,36.8L31.7,36.8z M50.7,52.5c0.5,0.1,1.3,0.3,2,0.4c0.7,0.1,1.4,0.1,2.1,0
		c0.6-0.1,1.1-0.2,1.7-0.4c0.5-0.2,1-0.5,1.5-0.8c0.4-0.4,0.7-0.9,0.9-1.4c0.2-0.5,0.2-1.1,0.2-1.6c0-0.5-0.1-1-0.3-1.4
		c-0.2-0.4-0.6-0.8-1.2-1.2c-0.6-0.3-1.3-0.6-2.1-0.9c-0.7-0.3-1.4-0.5-1.8-0.7c-0.4-0.2-0.5-0.3-0.6-0.5c0-0.2,0-0.4,0.2-0.5
		c0.1-0.2,0.4-0.3,0.8-0.3c0.4,0,0.9,0,1.5,0.1c0.6,0.1,1.2,0.3,1.7,0.5c0.5,0.2,0.9,0.4,1.4,0.6c0-1.1,0-2.1,0-3.2
		c-0.5-0.2-1.1-0.4-1.6-0.6c-0.6-0.1-1.2-0.2-1.8-0.3c-0.6,0-1.3,0-2,0.1c-0.6,0.1-1.2,0.3-1.8,0.6c-0.5,0.3-1,0.6-1.4,1.1
		c-0.4,0.4-0.6,1-0.7,1.5c-0.1,0.6-0.1,1.2,0.1,1.7c0.2,0.5,0.4,0.9,0.8,1.3c0.3,0.3,0.8,0.6,1.5,0.9c0.7,0.3,1.7,0.6,2.3,0.8
		c0.7,0.2,1,0.4,1.3,0.6c0.2,0.2,0.2,0.4,0.2,0.5c0,0.2-0.1,0.3-0.3,0.4c-0.2,0.1-0.5,0.2-0.9,0.2c-0.4,0-0.9,0-1.5-0.1
		c-0.5-0.1-1.1-0.2-1.6-0.4c-0.5-0.2-1.1-0.4-1.6-0.7c0,1.1,0,2.1,0,3.2C49.8,52.3,50.1,52.4,50.7,52.5L50.7,52.5z M66.5,45.7
		c-0.4-0.1-0.9-0.2-1.4-0.2c-0.6,0-1.3,0-1.9,0.2c-0.7,0.2-1.4,0.4-1.9,0.8c-0.5,0.4-0.9,0.9-1.1,1.4c-0.2,0.5-0.3,1-0.2,1.6
		c0,0.6,0.2,1.1,0.4,1.6c0.3,0.5,0.7,0.9,1.1,1.2c0.5,0.3,1,0.5,1.6,0.6c0.6,0.1,1.3,0.1,1.8,0c0.6-0.1,1.1-0.4,1.5-0.6
		c0.4-0.2,0.6-0.5,0.8-0.6c0.1-0.1,0.2-0.1,0.2,0.1c0,0.2,0,0.6,0,1c1.3,0,2.7,0,4,0c0-1.6,0-3.2,0-4.5c0-1.3,0-2.4,0-3.2
		c0-0.8-0.1-1.2-0.3-1.7c-0.2-0.5-0.5-0.9-0.8-1.3c-0.4-0.4-0.8-0.7-1.3-0.9c-0.5-0.2-1.1-0.4-1.7-0.5c-0.6-0.1-1.3-0.1-1.9-0.1
		c-0.7,0-1.4,0.1-2.1,0.2c-0.7,0.1-1.5,0.4-2.2,0.6c0,1,0,2.1,0,3.1c0.4-0.2,0.9-0.3,1.4-0.5c0.5-0.1,1.1-0.2,1.7-0.3
		c0.6,0,1.3,0,1.8,0.1c0.5,0.1,0.8,0.2,1,0.4c0.2,0.2,0.4,0.5,0.5,0.7c0.1,0.2,0.1,0.5,0.1,0.7c0,0.2,0,0.3,0,0.5
		C67.1,45.9,66.9,45.8,66.5,45.7L66.5,45.7z M66.5,47.4c0.4,0.1,0.7,0.2,1,0.3c0,0.2,0,0.3,0,0.6c0,0.3-0.1,0.6-0.2,0.9
		c-0.1,0.3-0.3,0.6-0.6,0.8c-0.3,0.2-0.6,0.3-0.9,0.4c-0.3,0.1-0.7,0.1-1,0c-0.3-0.1-0.6-0.3-0.7-0.5c-0.2-0.2-0.2-0.5-0.3-0.7
		c0-0.3,0-0.5,0.1-0.8c0.1-0.2,0.3-0.5,0.6-0.6c0.3-0.2,0.6-0.3,0.9-0.3C65.8,47.3,66.2,47.3,66.5,47.4L66.5,47.4z M42.8,45.7
		c-0.4-0.1-0.9-0.2-1.4-0.2c-0.6,0-1.3,0-1.9,0.2c-0.7,0.2-1.4,0.4-1.9,0.8c-0.5,0.4-0.9,0.9-1.1,1.4c-0.2,0.5-0.3,1-0.2,1.6
		c0,0.6,0.2,1.1,0.4,1.6c0.3,0.5,0.7,0.9,1.1,1.2c0.5,0.3,1,0.5,1.6,0.6c0.6,0.1,1.3,0.1,1.8,0c0.6-0.1,1.1-0.4,1.5-0.6
		c0.4-0.2,0.6-0.5,0.8-0.6c0.1-0.1,0.2-0.1,0.2,0.1c0,0.2,0,0.6,0,1c1.3,0,2.7,0,4,0c0-1.6,0-3.2,0-4.5c0-1.3,0-2.4,0-3.2
		c0-0.8-0.1-1.2-0.3-1.7c-0.2-0.5-0.5-0.9-0.8-1.3c-0.4-0.4-0.8-0.7-1.3-0.9c-0.5-0.2-1.1-0.4-1.7-0.5c-0.6-0.1-1.3-0.1-1.9-0.1
		c-0.7,0-1.4,0.1-2.1,0.2c-0.7,0.1-1.5,0.4-2.2,0.6c0,1,0,2.1,0,3.1c0.4-0.2,0.9-0.3,1.4-0.5c0.5-0.1,1.1-0.2,1.7-0.3
		c0.6,0,1.3,0,1.8,0.1c0.5,0.1,0.8,0.2,1,0.4c0.2,0.2,0.4,0.5,0.5,0.7c0.1,0.2,0.1,0.5,0.1,0.7c0,0.2,0,0.3,0,0.5
		C43.5,45.9,43.2,45.8,42.8,45.7L42.8,45.7z M42.8,47.4c0.4,0.1,0.7,0.2,1,0.3c0,0.2,0,0.3,0,0.6c0,0.3-0.1,0.6-0.2,0.9
		s-0.3,0.6-0.6,0.8c-0.3,0.2-0.6,0.3-0.9,0.4c-0.3,0.1-0.7,0.1-1,0c-0.3-0.1-0.6-0.3-0.7-0.5c-0.2-0.2-0.2-0.5-0.3-0.7
		c0-0.3,0-0.5,0.1-0.8c0.1-0.2,0.3-0.5,0.6-0.6c0.3-0.2,0.6-0.3,0.9-0.3C42.1,47.3,42.5,47.3,42.8,47.4L42.8,47.4z M81.3,67.9
		c0.2,0,0.5,0.1,0.7,0.2c0.2,0.1,0.4,0.3,0.5,0.5c0.1,0.2,0.2,0.4,0.2,0.7c0,0.2-0.1,0.5-0.2,0.7c-0.1,0.2-0.3,0.4-0.5,0.5
		c-0.2,0.1-0.4,0.2-0.7,0.2c-0.2,0-0.5-0.1-0.7-0.2c-0.2-0.1-0.4-0.3-0.5-0.5c-0.1-0.2-0.2-0.4-0.2-0.7c0-0.2,0.1-0.5,0.2-0.7
		c0.1-0.2,0.3-0.4,0.5-0.5C80.9,68,81.1,67.9,81.3,67.9L81.3,67.9z M81.3,68.2c-0.2,0-0.4,0-0.5,0.1c-0.2,0.1-0.3,0.2-0.4,0.4
		c-0.1,0.2-0.1,0.4-0.1,0.6c0,0.2,0,0.4,0.1,0.5c0.1,0.2,0.2,0.3,0.4,0.4c0.2,0.1,0.4,0.1,0.5,0.1c0.2,0,0.4,0,0.5-0.1
		c0.2-0.1,0.3-0.2,0.4-0.4c0.1-0.2,0.1-0.4,0.1-0.5c0-0.2-0.1-0.4-0.1-0.6c-0.1-0.2-0.2-0.3-0.4-0.4C81.7,68.2,81.5,68.2,81.3,68.2
		L81.3,68.2z M80.7,70H81v-0.6h0.1c0.1,0,0.1,0,0.2,0.1c0.1,0,0.1,0.1,0.2,0.3l0.1,0.2H82l-0.2-0.3c-0.1-0.1-0.1-0.2-0.1-0.2
		c0-0.1-0.1-0.1-0.1-0.1c0,0-0.1,0-0.1-0.1c0.1,0,0.2-0.1,0.3-0.1c0.1-0.1,0.1-0.2,0.1-0.3c0-0.1,0-0.1-0.1-0.2
		c0-0.1-0.1-0.1-0.1-0.1c-0.1,0-0.1-0.1-0.2-0.1c0,0-0.2,0-0.5,0h-0.3V70L80.7,70z M81,69.2h0.1c0.2,0,0.3,0,0.3,0
		c0,0,0.1,0,0.1-0.1c0,0,0-0.1,0-0.1c0,0,0-0.1,0-0.1c0,0-0.1-0.1-0.1-0.1c0,0-0.1,0-0.3,0H81V69.2L81,69.2z M66.2,65.5
		c0.3,0,0.7,0.1,1.2,0.1c0.5,0,1.2,0,1.9,0c0.7,0,1.4-0.2,1.9-0.3c0.5-0.1,0.7-0.2,0.9-0.4c0.2-0.2,0.3-0.4,0.3-0.7
		c0.1-0.4,0.1-0.9,0.1-1.5c0-0.6-0.1-1.2-0.4-1.7c-0.2-0.6-0.6-1.1-1-1.5c-0.4-0.4-1-0.8-1.5-1c-0.5-0.2-1.1-0.3-1.6-0.3
		c-0.5,0-1-0.1-1.6,0c-0.6,0.1-1.3,0.3-1.8,0.5c-0.6,0.3-1.1,0.7-1.6,1.1c-0.5,0.5-0.9,1-1.2,1.7c-0.3,0.7-0.5,1.4-0.5,2.1
		c-0.1,0.7,0,1.4,0.1,2.1c0.1,0.7,0.3,1.3,0.5,1.9c0.3,0.6,0.7,1.1,1.2,1.6c0.5,0.4,1,0.7,1.6,1c0.6,0.2,1.2,0.4,1.9,0.5
		c0.7,0.1,1.5,0.1,2.2,0c0.7-0.1,1.3-0.2,1.9-0.4c0.6-0.2,1.3-0.5,1.9-0.7l0,0c0-1.1,0-2.1,0-3.2c-0.4,0.2-0.7,0.5-1.3,0.7
		c-0.6,0.2-1.3,0.4-2,0.5c-0.7,0.1-1.4,0.1-1.9-0.1c-0.5-0.1-1-0.3-1.3-0.5c-0.3-0.3-0.5-0.6-0.6-0.9c-0.1-0.3-0.1-0.5-0.1-0.8
		C65.5,65.4,65.8,65.4,66.2,65.5L66.2,65.5z M65.8,63.4c-0.3,0-0.4-0.1-0.5-0.1c0-0.2,0-0.4,0-0.6c0-0.2,0.1-0.5,0.2-0.8
		c0.1-0.3,0.3-0.5,0.6-0.7c0.2-0.2,0.5-0.3,0.8-0.4c0.3-0.1,0.7-0.1,1-0.1c0.3,0,0.6,0.2,0.9,0.4c0.3,0.2,0.5,0.5,0.6,0.8
		c0.1,0.3,0.2,0.6,0.2,0.8c0,0.2,0,0.3-0.2,0.4c-0.2,0.1-0.4,0.2-0.9,0.3c-0.4,0.1-1,0.1-1.6,0.1C66.5,63.5,66,63.5,65.8,63.4
		L65.8,63.4z M74.1,58.4v12h4.2v-3.3V67c0-0.4,0-0.8,0.1-1.2c0.1-0.5,0.2-1,0.4-1.4c0.2-0.4,0.5-0.8,0.8-1.1
		c0.3-0.3,0.7-0.5,1.1-0.6c0.4-0.1,0.9-0.1,1.4-0.1c0-1.4,0-2.9,0-4.3c-0.3,0-0.6,0-1,0.1c-0.4,0.1-0.8,0.2-1.2,0.5
		c-0.4,0.3-0.8,0.7-1,1c-0.2,0.3-0.3,0.6-0.3,0.7c-0.1,0.1-0.2,0.2-0.2,0.2l0,0v-2.3H74.1L74.1,58.4z M43.5,58.4h4.2v12h-4.2v-1.7
		c-0.2,0.2-0.4,0.4-0.6,0.6c-0.3,0.3-0.7,0.6-1.1,0.8c-0.4,0.2-0.8,0.3-1.3,0.4c-0.5,0.1-1.1,0.1-1.7-0.1c-0.6-0.1-1.1-0.4-1.5-0.7
		c-0.4-0.3-0.8-0.8-1-1.3c-0.2-0.5-0.3-1-0.4-1.5c0-0.5,0-0.8,0-1.3v-7.2H40c0,2.2-0.1,4.7,0,6.9c0,0.4,0.1,0.6,0.2,0.8
		c0.1,0.2,0.4,0.5,0.7,0.6c0.3,0.2,0.7,0.2,1,0.2c0.3,0,0.6-0.1,0.8-0.2c0.2-0.1,0.4-0.4,0.6-0.8c0.1-0.1,0.1-0.2,0.2-0.4V58.4
		L43.5,58.4z M49.7,54.9h4.2v7.6l3.2-4.1h4.8l-4.2,4.8l4.3,7.2h-4.5l-2.5-4.1l-1.1,1.2v2.9h-4.2V54.9z"/>
</g>
</svg>
