<?xml version="1.0" encoding="utf-8"?>
<!-- Generator: Adobe Illustrator 23.1.0, SVG Export Plug-In . SVG Version: 6.00 Build 0)  -->
<svg version="1.1" id="Capa_1" xmlns="http://www.w3.org/2000/svg" xmlns:xlink="http://www.w3.org/1999/xlink" x="0px" y="0px"
	 viewBox="0 0 100 100" style="enable-background:new 0 0 100 100;" xml:space="preserve">
<style type="text/css">
	.st0{fill:#80C241;}
</style>
<g>
	<g>
		<path d="M94.3,63.7c0,0.8-0.6,1.5-1.5,1.6c-0.8,0-1.5-0.6-1.6-1.5c0-0.8,0.6-1.5,1.5-1.6c0,0,0,0,0.1,0
			C93.6,62.2,94.2,62.9,94.3,63.7C94.3,63.7,94.3,63.7,94.3,63.7z M91.6,63.7c0,0.6,0.5,1.2,1.2,1.2c0.6,0,1.1-0.5,1.1-1.2
			c0.1-0.6-0.2-1.2-0.9-1.4s-1.2,0.2-1.4,0.9C91.6,63.4,91.6,63.6,91.6,63.7z M92.5,64.5h-0.4v-1.5h0.6l0.5,0.1
			c0.1,0.1,0.1,0.2,0.1,0.3c0,0.2-0.1,0.3-0.3,0.4l0,0c0.1,0.1,0.2,0.2,0.2,0.4c0,0.1,0.1,0.3,0.1,0.4h-0.3
			c-0.1-0.1-0.1-0.2-0.1-0.4c0-0.1-0.1-0.3-0.2-0.3c0,0,0,0-0.1,0h-0.2L92.5,64.5L92.5,64.5L92.5,64.5z M92.5,63.7h0.2
			c0.2,0,0.4-0.1,0.4-0.2c0-0.2-0.1-0.2-0.3-0.2h-0.2L92.5,63.7L92.5,63.7L92.5,63.7z M86.7,67v13h2.6V64.4l0,0
			C87.9,64.4,86.7,65.6,86.7,67L86.7,67z M43.6,67v13h2.6V64.4l0,0C44.8,64.4,43.6,65.6,43.6,67z M11.4,68.4c-1.2,0-2.4,0.5-3,1.5
			v-5.5l0,0c-1.5,0-2.6,1.2-2.6,2.6l0,0v13h2.6v-5.7C8.4,72.1,9,71,10.8,71s2.4,1.3,2.4,4.1v5h2.7v-6.6
			C15.9,70.1,14.2,68.4,11.4,68.4z M40,68.6h2.4v9.5c0,4.1-2.3,6.4-6,6.4c-3.7,0-4.7-1.3-5.5-3.9h2.6c0.6,1,1.7,1.7,2.9,1.6
			c2.1,0,3.6-1.5,3.6-3.8v-0.1c-1,1.1-2.5,1.7-4,1.6c-1.5,0-2.9-0.5-4-1.5c-1.2-1.1-1.8-2.7-1.8-4.3c0-3.5,2.4-6,5.8-6
			c1.5,0,2.9,0.6,4,1.7L40,68.6L40,68.6z M39.8,74.3c0-1.9-1.5-3.5-3.4-3.5c-1.9,0-3.5,1.6-3.5,3.5c0,1.9,1.6,3.5,3.5,3.5
			C38.3,77.6,39.7,76.1,39.8,74.3z M82.9,68.6h2.6V80h-2.6v-1.4c-0.7,1.2-1.8,1.6-3.6,1.6c-3.2,0-5.9-2.6-6-5.8c0-0.1,0-0.2,0-0.3
			c0-1.6,0.6-3.1,1.6-4.2c1.1-1.2,2.7-1.8,4.3-1.8c1.6,0,2.9,0.6,3.7,1.7V68.6L82.9,68.6L82.9,68.6z M82.6,74.4
			c0-1.8-1.4-3.3-3.2-3.4c-1.8,0-3.3,1.5-3.3,3.3c0,1.8,1.4,3.3,3.2,3.3C81.1,77.6,82.6,76.2,82.6,74.4L82.6,74.4L82.6,74.4z
			 M22.7,68.4c-1.2-0.1-2.4,0.5-3.1,1.5v-5.5l0,0c-1.5,0-2.6,1.2-2.6,2.6l0,0v13h2.6v-5.8c0.1-2.2,0.7-3.3,2.5-3.3
			c1.8,0,2.4,1.3,2.4,4.1v5h2.7v-6.6C27.1,70.1,25.5,68.4,22.7,68.4z M66.6,68.3c-1.2,0-2.4,0.4-3.4,1v-0.8l0,0v-4.1l0,0
			c-1.5,0-2.6,1.2-2.6,2.6l0,0v4.8l-4.7,4.7l-0.2,0.2c-1.3,1.3-3.5,1.4-4.8,0s-1.4-3.5,0-4.8c1.3-1.3,3.5-1.4,4.8,0
			c0.7,0.6,1,1.5,1,2.4l2.2-2.2c-0.3-0.8-0.7-1.5-1.3-2.1c-2.3-2.4-6.1-2.4-8.5-0.1c-2.4,2.3-2.4,6.1-0.1,8.5
			c2.3,2.4,6.1,2.4,8.5,0.1l0,0l0,0l2.5-2.5l4.1-4.1c1.3-1.3,3.5-1.4,4.8,0s1.4,3.5,0,4.8c-1.3,1.3-3.5,1.4-4.8,0
			c-0.6-0.6-1-1.5-1-2.4l0,0l-2.2,2.2c1.2,3.1,4.7,4.6,7.8,3.3s4.6-4.7,3.3-7.8C71.2,69.8,69,68.3,66.6,68.3L66.6,68.3z"/>
	</g>
	<g>
		<path d="M53.1,37.9c2.3,0,4.1,1.8,4.1,4.1l0,0c0,0.6-0.1,1.1-0.3,1.7c-2.1-2-5.2-2.6-7.9-1.4c0-0.1,0-0.3,0-0.3
			C49.1,39.6,50.9,37.9,53.1,37.9z M42.4,30.8c0.5,0,0.8-0.4,0.8-0.8c0-0.5-0.4-0.8-0.8-0.8c-0.5,0-0.8,0.4-0.8,0.8
			C41.5,30.5,41.9,30.8,42.4,30.8z M40.3,33.6c-0.4-0.1-0.8-0.2-1.1-0.4c1,1.3,2.8,1.6,4.1,0.6c0.1-0.1,0.2-0.2,0.4-0.3
			c-0.1-0.4-0.4-0.7-0.7-1C42.3,33.3,41.3,33.7,40.3,33.6z M53.1,28c0-1-0.4-2-1.1-2.8c1.1,2.1,0.2,4.7-1.9,5.7
			c-0.6,0.3-1.2,0.4-1.9,0.5c-0.9,0-1.9-0.3-2.6-0.8c1.4,1.8,4.1,2.1,5.9,0.6C52.6,30.4,53.1,29.3,53.1,28z M51.9,43.9
			c-2.8,0-5.1,2.3-5.1,5.1c0,2.8,2.3,5.1,5.1,5.1c2.8,0,5.1-2.3,5.1-5.1c0,0,0-0.1,0-0.1C57,46.1,54.7,43.9,51.9,43.9z M72.2,37.7
			c0,12.3-10,22.2-22.2,22.2S27.8,50,27.8,37.7S37.7,15.5,50,15.5c0,0,0.1,0,0.1,0C62.3,15.5,72.2,25.4,72.2,37.7z M65.5,29.7
			c-0.8-0.8-1.8-1.2-2.9-1.3l-1.1,0.2c-3.5-6.5-11.6-8.9-18.1-5.4s-8.9,11.6-5.4,18.1c0.6,1.1,1.4,2.1,2.2,3l1.9-1.4
			c-0.8-1.1-1.5-2.2-2.1-3.4c-0.3-0.7-0.4-1.4-0.3-2.2l0,0c0.4-1.4,1.7-2.1,3.1-1.8c0.5,0.1,1,0.4,1.3,0.8c0.8,0.7,1.2,2.3,2.2,6
			c0.2,0.8,0.2,1.6,0.1,2.4c-2.4,3-2.1,7.4,0.8,9.9c-4.2,0.2-7,0.5-7,0.8s5.3,0.9,11.8,0.9c4,0,7.2-3.2,7.2-7.2c0-1.3-0.4-2.6-1-3.7
			c4.7-3.7,6.4-10.2,4-15.7C63.2,29.2,64.4,29.2,65.5,29.7z"/>
		<circle class="st0" cx="51.9" cy="48.9" r="2.9"/>
	</g>
</g>
</svg>
