<?xml version="1.0" encoding="utf-8"?>
<!-- Generator: Adobe Illustrator 23.1.0, SVG Export Plug-In . SVG Version: 6.00 Build 0)  -->
<svg version="1.1" id="Capa_1" xmlns="http://www.w3.org/2000/svg" xmlns:xlink="http://www.w3.org/1999/xlink" x="0px" y="0px"
	 viewBox="0 0 100 100" style="enable-background:new 0 0 100 100;" xml:space="preserve">
<style type="text/css">
	.st0{fill:#201747;}
</style>
<g>
	<path class="st0" d="M40.8,30.1c-0.8-0.2-1.9,1.7-5.1,8.2c-0.2,0.4-0.4,0.8-0.6,1.2c3.1-3.3,4.4-5.5,5.4-7.2
		C41.4,30.9,41.3,30.2,40.8,30.1"/>
	<path class="st0" d="M85,39.4c-0.2-0.7-0.9-1.3-2-1.3c-1.4,0-3.2,1.2-5,4c-1.7,2.7-1.4,4.8-0.5,5.1C78.6,47.6,81.8,45.5,85,39.4
		C85,39.4,85,39.4,85,39.4"/>
	<path class="st0" d="M49.9,21.1C16.3,21.1,2,31.9,2,46.1c0,15.2,28.2,32.9,48,32.9c19.7,0,48-17.6,48-32.9
		C98,31.9,83.6,21.1,49.9,21.1 M60.6,28.3c1.2-0.2,3.2,1,3.2,2c0,1.5-2.4,2.9-3.5,2.4C59.3,32.3,59.4,28.9,60.6,28.3 M70.2,68.3
		l-3.3-1.2l-2.2-1.6l-1.1,2.2L59,63.1l-2.4-1.7l-2.1-4.6l-2.4-2.5l-1.7-0.5l2,3.1L51.5,59l0.6,2.7L51,62.5l1.4,1.1l0.1,1.6L50,63.4
		l-1,0.8l5.1,4l1.4,2.8L48,65l-0.9,0.8l9,7.1l-1.7,0.3l-8.3-6.5l-0.9,0.9l7.5,5.8l-1.9,0.1l-7.2-5.7l-3.3-0.9l8.4,6.6l-2.2-0.2
		L38,66.6l-1.2,0.7l7.2,5.6l-2.6-0.5l-6.5-5.1l-0.5,1.3l3.9,3c-4.6-1.4-7.5-2.8-10.5-4.3l1.3-0.6l2.5,0.7l3.1-2.5l2.5,0.3l5.9-3.7
		l1.7-4l2.5-1.7l1.1-2.3l1.6-1.5l2.9,0.8l2.9,3l2.4,4.5l1.8,1.3l2.4,2.5l2-0.6l3.1,2.3l4.6,1.5L70.2,68.3z M90.3,47.2
		c-1.9,2.7-5.4,5.1-7.7,4.2c-0.8-0.3-1.6-1.2-1.6-2c0-0.6,0.1-1.3,0.4-2.1c-2.9,2.8-4.6,3.5-5.5,3.2c-1-0.3-2-1-2.1-2.7
		c-0.1-0.5-0.1-1.1,0.1-1.9c-2.8,3.2-4.4,3.9-5.6,3.6c-1-0.3-1.6-1.2-1.6-2.3c0-1.8,6.1-9.8,5-9.8c-0.6,0-4.7,2-9.1,9.3
		c-0.3,0.7-0.5,1.3-0.6,1.8c-0.1,0.5-0.5,0.8-1,0.6c-1.1-0.3-1.6-1.3-1.6-2.3c0-0.4,0.4-1.3,0.9-2.4c-2.9,3.5-5.1,4.9-6.5,4.4
		c-0.9-0.3-1.6-1.1-1.6-2.1c0-0.5,0.7-1.8,1.5-3.4c-2.8,2.9-5.6,4.8-7.8,5.3c-0.5,0.1-0.9,0.1-1.3,0.1c0,0-0.1,0-0.1,0
		c-0.1,0-0.2,0-0.2,0c-0.1,0-0.2-0.1-0.3-0.1c-0.6-0.2-1.3-0.9-1.4-1.7c-0.1-0.5,0.2-1.2,0.9-1c2.1,0.5,4.7-1.4,6-4
		c1.3-2.6,1.4-4.7,0.5-5c-1.2-0.4-5,3.9-8,9.3c-1.7,3.5-3.9,7.9-4.4,9.4c-0.2,0.7-0.9,1-1.6,0.7c-0.9-0.4-1.5-1.1-1.5-2.3
		c0-1,2.9-5.5,5.2-9.9c-4.1,5.3-7.1,6.2-8.4,5.6c-0.8-0.4-1.5-1.3-1.6-2.3c0-0.3,0-0.5,0-0.8c-3.1,3.9-5.7,4.8-7.1,4.1
		c-0.8-0.4-1.3-1.2-1.3-2c0-0.9,0.3-1.9,0.8-3.1c-4.6,5-7.9,6.8-10.7,5.6c-2.5-1.1-3.9-5.6-0.9-11.3c3.8-7.1,12.2-11,18-9.2
		c2,0.6,3,2,3,2.8c0,1-1,1.6-1.6,1c-0.5-0.5-1.2-0.8-2.1-1c-5.3-1.4-11.1,2.4-13.6,7.2c-2.1,4.1-1.4,6.6-0.1,7.1
		c2.1,0.8,6.7-2.5,11.5-11.1c0.5-1,0.9-1.3,1.4-1.3c0.8,0,1.7,1.2,1.7,2.3c0,0.9-1.6,3.1-2.8,5.6c-1.2,2.7-1.3,3.3-0.5,3.6
		c0.7,0.3,2.4-0.9,5.7-5.1c0.6-1.6,1.4-3.4,2.4-5.6c3.2-7.4,5.8-10.2,8.3-9.5c2.2,0.6,2.6,2.9,1,5.8c-1.6,2.8-4.1,6.3-9.2,11.1
		c-0.5,1.8-0.2,2.4,0.4,2.6c0.8,0.3,5.5-2.8,8.9-9.4c0.4-1.1,0.8-2.2,1.1-3.1c0.2-0.6,0.6-0.8,1.2-0.6c0.8,0.3,1.6,1.4,1.6,2.4
		c0,0.3-0.5,1.6-1.3,3.3c2.4-3,4.7-5.1,6-4.7c2.3,0.6,3.2,3.5,0.9,8.3c-0.1,0.2-0.2,0.4-0.3,0.6c2-1.8,3.9-4,5-6
		c0.3-0.7,0.6-1.4,0.7-1.9c0.1-0.5,0.4-0.8,1-0.5c0.9,0.4,1.6,1,1.6,2.2c0,0.8-1.2,2.5-2.3,4.5c-1.2,2.1-2.4,3.9-1.7,4.3
		c0.6,0.3,4.9-3.2,7.8-9.3c0.2-0.5,0.4-1,0.5-1.3c0.2-0.6,0.5-0.8,1.1-0.6c0.9,0.3,1.6,1,1.6,1.8c0,0.5-0.5,1.6-1.2,3
		c3-3.3,6-4.8,7-4.8c1.2,0,2.3,1.2,2.3,2.5c0,1-5.4,8.7-4.9,9c0.5,0.3,2.1-1,5.2-5c0.1-0.2,0.2-0.3,0.3-0.5c2.1-3.1,4.4-4.9,7-4.9
		c1.5,0,2.5,0.9,3,1.8c0.1-0.3,0.3-0.6,0.4-0.9c0.2-0.5,0.6-0.9,1.3-0.6c0.7,0.3,1.3,1.2,1.3,1.9c-0.1,0.8-2.7,5.1-3.6,6.8
		c-1,1.9-1.2,3.3-0.5,3.7c0.8,0.3,2.3-0.7,4-2.8c0.3-0.4,0.8-0.6,1.1-0.3C90.4,45.5,90.8,46.4,90.3,47.2"/>
</g>
</svg>
