<?xml version="1.0" encoding="utf-8"?>
<!-- Generator: Adobe Illustrator 23.1.0, SVG Export Plug-In . SVG Version: 6.00 Build 0)  -->
<svg version="1.1" id="Capa_1" xmlns="http://www.w3.org/2000/svg" xmlns:xlink="http://www.w3.org/1999/xlink" x="0px" y="0px"
	 viewBox="0 0 100 100" style="enable-background:new 0 0 100 100;" xml:space="preserve">
<style type="text/css">
	.st0{clip-path:url(#SVGID_2_);fill:#11374F;}
	.st1{clip-path:url(#SVGID_2_);}
	.st2{opacity:0;clip-path:url(#SVGID_4_);}
	.st3{clip-path:url(#SVGID_6_);fill:none;stroke:#FFFFFF;stroke-width:3.700000e-02;stroke-miterlimit:10;}
	.st4{opacity:0;clip-path:url(#SVGID_8_);}
	.st5{clip-path:url(#SVGID_10_);fill:#11374F;}
	.st6{clip-path:url(#SVGID_10_);fill:none;stroke:#FFFFFF;stroke-width:3.700000e-02;stroke-miterlimit:10;}
	.st7{opacity:0;clip-path:url(#SVGID_12_);}
	.st8{clip-path:url(#SVGID_14_);fill:#11374F;}
	.st9{clip-path:url(#SVGID_14_);fill:none;stroke:#FFFFFF;stroke-width:3.700000e-02;stroke-miterlimit:10;}
	.st10{opacity:0;clip-path:url(#SVGID_16_);}
	.st11{clip-path:url(#SVGID_18_);fill:#11374F;}
	.st12{clip-path:url(#SVGID_18_);fill:none;stroke:#FFFFFF;stroke-width:3.700000e-02;stroke-miterlimit:10;}
	.st13{opacity:0;clip-path:url(#SVGID_20_);}
	.st14{clip-path:url(#SVGID_22_);fill:none;stroke:#FFFFFF;stroke-width:3.700000e-02;stroke-miterlimit:10;}
	.st15{opacity:0;clip-path:url(#SVGID_24_);}
	.st16{clip-path:url(#SVGID_26_);fill:#11374F;}
	.st17{clip-path:url(#SVGID_26_);fill:none;stroke:#FFFFFF;stroke-width:3.700000e-02;stroke-miterlimit:10;}
	.st18{opacity:0;clip-path:url(#SVGID_28_);}
	.st19{clip-path:url(#SVGID_30_);fill:#11374F;}
	.st20{clip-path:url(#SVGID_30_);fill:none;stroke:#FFFFFF;stroke-width:3.700000e-02;stroke-miterlimit:10;}
	.st21{opacity:0;clip-path:url(#SVGID_32_);}
	.st22{clip-path:url(#SVGID_34_);fill:#11374F;}
	.st23{clip-path:url(#SVGID_34_);fill:none;stroke:#FFFFFF;stroke-width:3.700000e-02;stroke-miterlimit:10;}
	.st24{opacity:0;clip-path:url(#SVGID_36_);}
	.st25{clip-path:url(#SVGID_38_);fill:none;stroke:#FFFFFF;stroke-width:3.700000e-02;stroke-miterlimit:10;}
	.st26{clip-path:url(#SVGID_2_);fill:#8DBE33;}
	.st27{opacity:0;clip-path:url(#SVGID_40_);}
	.st28{clip-path:url(#SVGID_42_);fill:none;stroke:#FFFFFF;stroke-width:3.700000e-02;stroke-miterlimit:10;}
	.st29{clip-path:url(#SVGID_2_);fill:#41B6E9;}
	.st30{opacity:0;clip-path:url(#SVGID_44_);}
	.st31{clip-path:url(#SVGID_46_);fill:none;stroke:#FFFFFF;stroke-width:3.700000e-02;stroke-miterlimit:10;}
</style>
<g>
	<defs>
		<rect id="SVGID_1_" x="10.6" y="10.6" width="78.8" height="78.8"/>
	</defs>
	<clipPath id="SVGID_2_">
		<use xlink:href="#SVGID_1_"  style="overflow:visible;"/>
	</clipPath>
	<path class="st0" d="M47.8,23.9h4.3l0.1,0l0.1,0l0.1,0l0.1,0l0.1,0l0.1,0l0.1,0l0.1-0.1l0.1-0.1l0-0.1l0-0.1l0-0.1l0-0.1l0-0.1
		l0-0.1l0-0.1l0-0.1l0-0.1l0-0.1l0-0.1l0-0.1l0-0.1l0-0.1l-0.1-0.1l-0.1-0.1l-0.1-0.1l-0.1,0l-0.1,0l-0.1,0l-0.1,0l-0.1,0l-0.1,0
		h-4.3V23.9z M47.8,28.1h4.4h0.1l0,0l0,0l0,0l0,0l0,0l0,0l0,0l0.1,0l0.1,0l0.1-0.1l0.1-0.1l0.1-0.1l0.1-0.1l0-0.1l0-0.1l0,0l0,0l0,0
		l0,0l0,0l0-0.1l0,0v-0.1v0l0-0.1l0,0l0,0l0,0l0,0l0,0l0,0l0-0.1l0-0.1L53,26.5l-0.1-0.1l-0.1-0.1l-0.1-0.1l-0.1,0l-0.1,0l0,0l0,0
		l0,0l0,0l-0.1,0l0,0l0,0h-0.1h-4.4V28.1z M45.4,30.3V20h7l0.2,0l0.2,0l0.1,0l0.1,0l0.1,0l0.1,0l0.1,0l0.1,0.1l0.1,0.1l0.1,0.1
		l0.1,0.1l0.1,0.1l0.1,0.1l0.1,0.1l0.1,0.1l0.1,0.1l0.1,0.1l0.1,0.1l0.1,0.1l0.1,0.1l0.1,0.1l0.1,0.1l0.1,0.1l0.1,0.1l0.1,0.1l0,0.1
		l0,0.1l0,0.1l0,0.1l0,0.1l0,0.2l0,0.2l0,0.1l0,0.1l0,0.1l0,0.1l0,0.1l0,0.1l0,0.1l0,0.1l0,0.1l-0.1,0.1L55,24.4L55,24.5l-0.1,0.1
		l-0.1,0.1l-0.1,0.1l-0.1,0.1l0.1,0.1l0.1,0.1l0.1,0.1l0.1,0.1l0.1,0.1l0.1,0.1l0.1,0.1l0.1,0.1l0.1,0.1l0.1,0.2l0,0.1l0,0.2l0,0.2
		l0,0.2l0,0.2l0,0.2l0,0.2l0,0.2l0,0.2l0,0.2l0,0.2l0,0.1l0,0.1l-0.1,0.1l-0.1,0.1l-0.1,0.1l-0.1,0.1l-0.1,0.1L55,29l-0.1,0.1
		l-0.1,0.1l-0.1,0.1l-0.1,0.1l-0.1,0.1l-0.1,0.1l-0.1,0.1l-0.1,0.1L54,29.9L53.9,30L53.7,30l-0.1,0.1l-0.1,0.1l-0.2,0l-0.1,0l-0.2,0
		l-0.2,0l-0.2,0l-0.2,0H45.4z"/>
	<g class="st1">
		<defs>
			<rect id="SVGID_3_" x="10.6" y="10.6" width="78.8" height="78.8"/>
		</defs>
		<clipPath id="SVGID_4_">
			<use xlink:href="#SVGID_3_"  style="overflow:visible;"/>
		</clipPath>
		<g class="st2">
			<g>
				<defs>
					<rect id="SVGID_5_" x="45.4" y="20" width="10.3" height="10.3"/>
				</defs>
				<clipPath id="SVGID_6_">
					<use xlink:href="#SVGID_5_"  style="overflow:visible;"/>
				</clipPath>
				<path class="st3" d="M54.7,24.9l0.1,0.1l0.1,0.1l0.1,0.1l0.1,0.1l0.1,0.1l0.1,0.1l0.1,0.1l0.1,0.1l0.1,0.1l0.1,0.2l0,0.1l0,0.2
					l0,0.2l0,0.2l0,0.2l0,0.2l0,0.2l0,0.2l0,0.2l0,0.2l0,0.2l0,0.1l0,0.1l-0.1,0.1l-0.1,0.1l-0.1,0.1l-0.1,0.1l-0.1,0.1L55,29
					l-0.1,0.1l-0.1,0.1l-0.1,0.1l-0.1,0.1l-0.1,0.1l-0.1,0.1l-0.1,0.1l-0.1,0.1L54,29.9L53.9,30L53.7,30l-0.1,0.1l-0.1,0.1l-0.2,0
					l-0.1,0l-0.2,0l-0.2,0l-0.2,0l-0.2,0h-7.1V20h7l0.2,0l0.2,0l0.1,0l0.1,0l0.1,0l0.1,0l0.1,0l0.1,0.1l0.1,0.1l0.1,0.1l0.1,0.1
					l0.1,0.1l0.1,0.1l0.1,0.1l0.1,0.1l0.1,0.1l0.1,0.1l0.1,0.1l0.1,0.1l0.1,0.1l0.1,0.1l0.1,0.1l0.1,0.1l0.1,0.1l0.1,0.1l0,0.1
					l0,0.1l0,0.1l0,0.1l0,0.1l0,0.2l0,0.2l0,0.1l0,0.1l0,0.1l0,0.1l0,0.1l0,0.1l0,0.1l0,0.1l0,0.1l-0.1,0.1L55,24.4L55,24.5
					l-0.1,0.1l-0.1,0.1L54.7,24.9L54.7,24.9z M47.8,28.1h4.4h0.1l0,0l0,0l0,0l0,0l0,0l0,0l0,0l0.1,0l0.1,0l0.1-0.1l0.1-0.1l0.1-0.1
					l0.1-0.1l0-0.1l0-0.1l0,0l0,0l0,0l0,0l0,0l0-0.1l0,0v-0.1v0l0-0.1l0,0l0,0l0,0l0,0l0,0l0,0l0-0.1l0-0.1L53,26.5l-0.1-0.1
					l-0.1-0.1l-0.1-0.1l-0.1,0l-0.1,0l0,0l0,0l0,0l0,0l-0.1,0l0,0l0,0h-0.1h-4.4V28.1z M47.8,23.9h4.3l0.1,0l0.1,0l0.1,0l0.1,0
					l0.1,0l0.1,0l0.1,0l0.1-0.1l0.1-0.1l0-0.1l0-0.1l0-0.1l0-0.1l0-0.1l0-0.1l0-0.1l0-0.1l0-0.1l0-0.1l0-0.1l0-0.1l0-0.1l0-0.1
					l-0.1-0.1l-0.1-0.1l-0.1-0.1l-0.1,0l-0.1,0l-0.1,0l-0.1,0l-0.1,0l-0.1,0h-4.3V23.9z"/>
			</g>
		</g>
	</g>
	<path class="st0" d="M48.2,38.6h3.6L50,34.9L48.2,38.6z M53.7,42.5l-0.8-1.7h-5.7l-0.8,1.7h-2.6l5.1-10.3h2.4l5.1,10.3H53.7z"/>
	<g class="st1">
		<defs>
			<rect id="SVGID_7_" x="10.6" y="10.6" width="78.8" height="78.8"/>
		</defs>
		<clipPath id="SVGID_8_">
			<use xlink:href="#SVGID_7_"  style="overflow:visible;"/>
		</clipPath>
		<g class="st4">
			<g>
				<defs>
					<rect id="SVGID_9_" x="43.7" y="32.2" width="12.6" height="10.3"/>
				</defs>
				<clipPath id="SVGID_10_">
					<use xlink:href="#SVGID_9_"  style="overflow:visible;"/>
				</clipPath>
				<path class="st5" d="M50,34.9l-1.8,3.7h3.6L50,34.9z M56.3,42.5h-2.6l-0.8-1.7h-5.7l-0.8,1.7h-2.6l5.1-10.3h2.4L56.3,42.5z"/>
				<path class="st6" d="M50,34.9l-1.8,3.7h3.6L50,34.9z M56.3,42.5h-2.6l-0.8-1.7h-5.7l-0.8,1.7h-2.6l5.1-10.3h2.4L56.3,42.5z"/>
			</g>
		</g>
	</g>
	<polygon class="st0" points="48.8,55 48.8,51.4 43.6,44.7 46.5,44.7 50,49.4 53.5,44.7 56.4,44.7 51.2,51.4 51.2,55 	"/>
	<g class="st1">
		<defs>
			<rect id="SVGID_11_" x="10.6" y="10.6" width="78.8" height="78.8"/>
		</defs>
		<clipPath id="SVGID_12_">
			<use xlink:href="#SVGID_11_"  style="overflow:visible;"/>
		</clipPath>
		<g class="st7">
			<g>
				<defs>
					<rect id="SVGID_13_" x="43.6" y="44.7" width="12.9" height="10.3"/>
				</defs>
				<clipPath id="SVGID_14_">
					<use xlink:href="#SVGID_13_"  style="overflow:visible;"/>
				</clipPath>
				<polygon class="st8" points="53.5,44.7 56.4,44.7 51.2,51.4 51.2,55 48.8,55 48.8,51.4 43.6,44.7 46.5,44.7 50,49.4 				"/>
				<polygon class="st9" points="53.5,44.7 56.4,44.7 51.2,51.4 51.2,55 48.8,55 48.8,51.4 43.6,44.7 46.5,44.7 50,49.4 				"/>
			</g>
		</g>
	</g>
	<polygon class="st0" points="57.8,55 57.8,44.7 67.1,44.7 67.1,46.9 60.2,46.9 60.2,48.6 66.8,48.6 66.8,50.8 60.2,50.8 60.2,52.8 
		67.1,52.8 67.1,55 	"/>
	<g class="st1">
		<defs>
			<rect id="SVGID_15_" x="10.6" y="10.6" width="78.8" height="78.8"/>
		</defs>
		<clipPath id="SVGID_16_">
			<use xlink:href="#SVGID_15_"  style="overflow:visible;"/>
		</clipPath>
		<g class="st10">
			<g>
				<defs>
					<rect id="SVGID_17_" x="57.8" y="44.7" width="9.3" height="10.3"/>
				</defs>
				<clipPath id="SVGID_18_">
					<use xlink:href="#SVGID_17_"  style="overflow:visible;"/>
				</clipPath>
				<polygon class="st11" points="67.1,44.7 67.1,46.9 60.2,46.9 60.2,48.6 66.8,48.6 66.8,50.8 60.2,50.8 60.2,52.8 67.1,52.8 
					67.1,55 57.8,55 57.8,44.7 				"/>
				<polygon class="st12" points="67.1,44.7 67.1,46.9 60.2,46.9 60.2,48.6 66.8,48.6 66.8,50.8 60.2,50.8 60.2,52.8 67.1,52.8 
					67.1,55 57.8,55 57.8,44.7 				"/>
			</g>
		</g>
	</g>
	<path class="st0" d="M72.8,48.9h3.5h0.1l0,0l0,0l0,0l0.1,0l0.1,0l0.1,0l0.1-0.1l0.1-0.1l0.1-0.1l0.1-0.1l0.1-0.1l0-0.1l0-0.1l0-0.1
		l0-0.1l0,0l0-0.1l0,0v-0.1v0l0-0.1l0,0l0,0l0-0.1l0-0.1l0-0.1l0-0.1l-0.1-0.1L77,47.2L77,47.1l-0.1-0.1l-0.1,0l-0.1,0l-0.1,0
		l-0.1,0l0,0l0,0l0,0h-0.1h-3.5V48.9z M77.6,55l-2.9-3.9h-1.8V55h-2.4V44.7h6.2l0.2,0l0.2,0l0.2,0l0.2,0l0.2,0l0.2,0l0.1,0.1
		l0.1,0.1L78,45l0.1,0.1l0.1,0.1l0.1,0.1l0.1,0.1l0.1,0.1l0.1,0.1l0.1,0.1l0.1,0.1l0.1,0.1l0.1,0.1l0.1,0.1l0.1,0.1l0.1,0.1l0.1,0.1
		l0.1,0.1l0.1,0.1l0,0.1l0,0.2l0,0.2l0,0.2l0,0.2l0,0.2l0,0.2V48l0,0.1l0,0.1l0,0.1l0,0.1l0,0.1l0,0.1l0,0.1l0,0.1l0,0.1l-0.1,0.1
		l-0.1,0.1l-0.1,0.1l-0.1,0.1l-0.1,0.1l-0.1,0.1l-0.1,0.1L79,50l-0.1,0.1l-0.1,0.1l-0.1,0.1l-0.1,0.1l-0.1,0.1l-0.1,0.1l-0.1,0.1
		l-0.1,0.1l-0.1,0.1L78,50.7l-0.1,0.1l-0.1,0l-0.1,0l-0.1,0l3,4H77.6z"/>
	<g class="st1">
		<defs>
			<rect id="SVGID_19_" x="10.6" y="10.6" width="78.8" height="78.8"/>
		</defs>
		<clipPath id="SVGID_20_">
			<use xlink:href="#SVGID_19_"  style="overflow:visible;"/>
		</clipPath>
		<g class="st13">
			<g>
				<defs>
					<rect id="SVGID_21_" x="70.4" y="44.7" width="10.1" height="10.3"/>
				</defs>
				<clipPath id="SVGID_22_">
					<use xlink:href="#SVGID_21_"  style="overflow:visible;"/>
				</clipPath>
				<path class="st14" d="M76.4,46.9h-3.5v2h3.5h0.1l0,0l0,0l0,0l0.1,0l0.1,0l0.1,0l0.1-0.1l0.1-0.1l0.1-0.1l0.1-0.1l0.1-0.1l0-0.1
					l0-0.1l0-0.1l0-0.1l0,0l0-0.1l0,0v-0.1v0l0-0.1l0,0l0,0l0-0.1l0-0.1l0-0.1l0-0.1l-0.1-0.1L77,47.2L77,47.1l-0.1-0.1l-0.1,0
					l-0.1,0l-0.1,0l-0.1,0l0,0L76.4,46.9L76.4,46.9L76.4,46.9z M74.6,51.1h-1.8V55h-2.4V44.7h6.2l0.2,0l0.2,0l0.2,0l0.2,0l0.2,0
					l0.2,0l0.1,0.1l0.1,0.1L78,45l0.1,0.1l0.1,0.1l0.1,0.1l0.1,0.1l0.1,0.1l0.1,0.1l0.1,0.1l0.1,0.1l0.1,0.1l0.1,0.1l0.1,0.1
					l0.1,0.1l0.1,0.1l0.1,0.1l0.1,0.1l0.1,0.1l0,0.1l0,0.2l0,0.2l0,0.2l0,0.2l0,0.2l0,0.2V48l0,0.1l0,0.1l0,0.1l0,0.1l0,0.1l0,0.1
					l0,0.1l0,0.1l0,0.1l-0.1,0.1l-0.1,0.1l-0.1,0.1l-0.1,0.1l-0.1,0.1l-0.1,0.1l-0.1,0.1L79,50l-0.1,0.1l-0.1,0.1l-0.1,0.1l-0.1,0.1
					l-0.1,0.1l-0.1,0.1l-0.1,0.1l-0.1,0.1l-0.1,0.1L78,50.7l-0.1,0.1l-0.1,0l-0.1,0l-0.1,0l3,4h-2.9L74.6,51.1z"/>
			</g>
		</g>
	</g>
	<path class="st0" d="M36.6,51.1h3.6l-1.8-3.7L36.6,51.1z M42.1,55l-0.8-1.7h-5.7L34.7,55h-2.6l5.1-10.3h2.4L44.7,55H42.1z"/>
	<g class="st1">
		<defs>
			<rect id="SVGID_23_" x="10.6" y="10.6" width="78.8" height="78.8"/>
		</defs>
		<clipPath id="SVGID_24_">
			<use xlink:href="#SVGID_23_"  style="overflow:visible;"/>
		</clipPath>
		<g class="st15">
			<g>
				<defs>
					<rect id="SVGID_25_" x="32.1" y="44.7" width="12.7" height="10.3"/>
				</defs>
				<clipPath id="SVGID_26_">
					<use xlink:href="#SVGID_25_"  style="overflow:visible;"/>
				</clipPath>
				<path class="st16" d="M38.4,47.3l-1.8,3.7h3.6L38.4,47.3z M44.7,55h-2.6l-0.8-1.7h-5.7L34.7,55h-2.6l5.1-10.3h2.4L44.7,55z"/>
				<path class="st17" d="M38.4,47.3l-1.8,3.7h3.6L38.4,47.3z M44.7,55h-2.6l-0.8-1.7h-5.7L34.7,55h-2.6l5.1-10.3h2.4L44.7,55z"/>
			</g>
		</g>
	</g>
	<path class="st0" d="M22.9,48.6h4.3l0.1,0l0.1,0l0.1,0l0.1,0l0.1,0l0.1,0l0.1-0.1l0.1-0.1l0.1-0.1l0.1-0.1l0-0.1l0-0.1l0-0.1l0-0.1
		l0-0.1l0-0.1l0-0.1l0-0.1l0-0.1l0-0.1l0-0.1l0-0.1l-0.1-0.1l-0.1-0.1l-0.1-0.1l-0.1,0l-0.1,0l-0.1,0l-0.1,0l-0.1,0l-0.1,0l-0.1,0
		h-4.3V48.6z M22.9,52.8h4.4h0.1l0,0l0.1,0l0,0l0,0l0,0l0,0l0,0l0.1,0l0.1,0l0.1-0.1l0.1-0.1l0.1-0.1l0.1-0.1l0.1-0.1l0-0.1l0,0l0,0
		l0,0l0,0l0-0.1l0,0l0,0v-0.1v-0.1l0,0l0-0.1l0,0l0-0.1l0-0.1l0-0.1l-0.1-0.1L28,51.2L28,51.1L27.9,51L27.8,51l-0.1-0.1l-0.1,0l0,0
		l0,0l0,0l0,0l0,0l0,0h-0.1l-0.1,0h-4.4V52.8z M20.4,55V44.7h7l0.2,0l0.2,0l0.2,0l0.1,0l0.1,0l0.1,0l0.1,0l0.1,0.1l0.1,0.1l0.1,0.1
		l0.1,0.1l0.1,0.1l0.1,0.1l0.1,0.1l0.1,0.1l0.1,0.1l0.1,0.1l0.1,0.1l0.1,0.1L30,46l0.1,0.1l0.1,0.1l0.1,0.1l0.1,0.1l0.1,0.1l0,0.1
		l0,0.1l0,0.1l0,0.1l0,0.2l0,0.2l0,0.2v0.1l0,0.1l0,0.1l0,0.1l0,0.1l0,0.1l0,0.1l0,0.1l0,0.1L30.2,49l-0.1,0.1l-0.1,0.1L30,49.3
		l-0.1,0.1l-0.1,0.1l-0.1,0.1l0.1,0.1l0.1,0.1l0.1,0.1l0.1,0.1l0.1,0.1l0.1,0.1l0.1,0.1l0.1,0.1l0.1,0.1l0.1,0.1l0,0.2l0,0.2l0,0.2
		l0,0.2l0,0.2l0,0.2l0,0.2l0,0.2l0,0.2l0,0.2l0,0.2l0,0.1l-0.1,0.1l-0.1,0.1l-0.1,0.1l-0.1,0.1l-0.1,0.1l-0.1,0.1l-0.1,0.1L30,53.8
		l-0.1,0.1l-0.1,0.1l-0.1,0.1l-0.1,0.1l-0.1,0.1l-0.1,0.1l-0.1,0.1l-0.1,0.1l-0.1,0.1l-0.1,0.1l-0.1,0.1l-0.1,0l-0.1,0l-0.2,0
		l-0.2,0l-0.2,0l-0.2,0l-0.2,0H20.4z"/>
	<g class="st1">
		<defs>
			<rect id="SVGID_27_" x="10.6" y="10.6" width="78.8" height="78.8"/>
		</defs>
		<clipPath id="SVGID_28_">
			<use xlink:href="#SVGID_27_"  style="overflow:visible;"/>
		</clipPath>
		<g class="st18">
			<g>
				<defs>
					<rect id="SVGID_29_" x="20.4" y="44.7" width="10.3" height="10.3"/>
				</defs>
				<clipPath id="SVGID_30_">
					<use xlink:href="#SVGID_29_"  style="overflow:visible;"/>
				</clipPath>
				<path class="st19" d="M29.8,49.6l0.1,0.1l0.1,0.1l0.1,0.1l0.1,0.1l0.1,0.1l0.1,0.1l0.1,0.1l0.1,0.1l0.1,0.1l0.1,0.1l0,0.2l0,0.2
					l0,0.2l0,0.2l0,0.2l0,0.2l0,0.2l0,0.2l0,0.2l0,0.2l0,0.2l0,0.1l-0.1,0.1l-0.1,0.1l-0.1,0.1l-0.1,0.1l-0.1,0.1l-0.1,0.1l-0.1,0.1
					L30,53.8l-0.1,0.1l-0.1,0.1l-0.1,0.1l-0.1,0.1l-0.1,0.1l-0.1,0.1l-0.1,0.1l-0.1,0.1l-0.1,0.1l-0.1,0.1l-0.1,0.1l-0.1,0l-0.1,0
					l-0.2,0l-0.2,0l-0.2,0l-0.2,0l-0.2,0h-7.2V44.7h7l0.2,0l0.2,0l0.2,0l0.1,0l0.1,0l0.1,0l0.1,0l0.1,0.1l0.1,0.1l0.1,0.1l0.1,0.1
					l0.1,0.1l0.1,0.1l0.1,0.1l0.1,0.1l0.1,0.1l0.1,0.1l0.1,0.1l0.1,0.1L30,46l0.1,0.1l0.1,0.1l0.1,0.1l0.1,0.1l0.1,0.1l0,0.1l0,0.1
					l0,0.1l0,0.1l0,0.2l0,0.2l0,0.2v0.1l0,0.1l0,0.1l0,0.1l0,0.1l0,0.1l0,0.1l0,0.1l0,0.1L30.2,49l-0.1,0.1l-0.1,0.1L30,49.3
					l-0.1,0.1L29.8,49.6L29.8,49.6z M22.9,52.8h4.4h0.1l0,0l0.1,0l0,0l0,0l0,0l0,0l0,0l0.1,0l0.1,0l0.1-0.1l0.1-0.1l0.1-0.1l0.1-0.1
					l0.1-0.1l0-0.1l0,0l0,0l0,0l0,0l0-0.1l0,0l0,0v-0.1v-0.1l0,0l0-0.1l0,0l0-0.1l0-0.1l0-0.1l-0.1-0.1L28,51.2L28,51.1L27.9,51
					L27.8,51l-0.1-0.1l-0.1,0l0,0l0,0l0,0l0,0l0,0l0,0h-0.1l-0.1,0h-4.4V52.8z M22.9,48.6h4.3l0.1,0l0.1,0l0.1,0l0.1,0l0.1,0l0.1,0
					l0.1-0.1l0.1-0.1l0.1-0.1l0.1-0.1l0-0.1l0-0.1l0-0.1l0-0.1l0-0.1l0-0.1l0-0.1l0-0.1l0-0.1l0-0.1l0-0.1l0-0.1l-0.1-0.1l-0.1-0.1
					l-0.1-0.1l-0.1,0l-0.1,0l-0.1,0l-0.1,0l-0.1,0l-0.1,0l-0.1,0h-4.3V48.6z"/>
				<path class="st20" d="M29.8,49.6l0.1,0.1l0.1,0.1l0.1,0.1l0.1,0.1l0.1,0.1l0.1,0.1l0.1,0.1l0.1,0.1l0.1,0.1l0.1,0.1l0,0.2l0,0.2
					l0,0.2l0,0.2l0,0.2l0,0.2l0,0.2l0,0.2l0,0.2l0,0.2l0,0.2l0,0.1l-0.1,0.1l-0.1,0.1l-0.1,0.1l-0.1,0.1l-0.1,0.1l-0.1,0.1l-0.1,0.1
					L30,53.8l-0.1,0.1l-0.1,0.1l-0.1,0.1l-0.1,0.1l-0.1,0.1l-0.1,0.1l-0.1,0.1l-0.1,0.1l-0.1,0.1l-0.1,0.1l-0.1,0.1l-0.1,0l-0.1,0
					l-0.2,0l-0.2,0l-0.2,0l-0.2,0l-0.2,0h-7.2V44.7h7l0.2,0l0.2,0l0.2,0l0.1,0l0.1,0l0.1,0l0.1,0l0.1,0.1l0.1,0.1l0.1,0.1l0.1,0.1
					l0.1,0.1l0.1,0.1l0.1,0.1l0.1,0.1l0.1,0.1l0.1,0.1l0.1,0.1l0.1,0.1L30,46l0.1,0.1l0.1,0.1l0.1,0.1l0.1,0.1l0.1,0.1l0,0.1l0,0.1
					l0,0.1l0,0.1l0,0.2l0,0.2l0,0.2v0.1l0,0.1l0,0.1l0,0.1l0,0.1l0,0.1l0,0.1l0,0.1l0,0.1L30.2,49l-0.1,0.1l-0.1,0.1L30,49.3
					l-0.1,0.1L29.8,49.6L29.8,49.6z M22.9,52.8h4.4h0.1l0,0l0.1,0l0,0l0,0l0,0l0,0l0,0l0.1,0l0.1,0l0.1-0.1l0.1-0.1l0.1-0.1l0.1-0.1
					l0.1-0.1l0-0.1l0,0l0,0l0,0l0,0l0-0.1l0,0l0,0v-0.1v-0.1l0,0l0-0.1l0,0l0-0.1l0-0.1l0-0.1l-0.1-0.1L28,51.2L28,51.1L27.9,51
					L27.8,51l-0.1-0.1l-0.1,0l0,0l0,0l0,0l0,0l0,0l0,0h-0.1l-0.1,0h-4.4V52.8z M22.9,48.6h4.3l0.1,0l0.1,0l0.1,0l0.1,0l0.1,0l0.1,0
					l0.1-0.1l0.1-0.1l0.1-0.1l0.1-0.1l0-0.1l0-0.1l0-0.1l0-0.1l0-0.1l0-0.1l0-0.1l0-0.1l0-0.1l0-0.1l0-0.1l0-0.1l-0.1-0.1l-0.1-0.1
					l-0.1-0.1l-0.1,0l-0.1,0l-0.1,0l-0.1,0l-0.1,0l-0.1,0l-0.1,0h-4.3V48.6z"/>
			</g>
		</g>
	</g>
	<polygon class="st0" points="45.4,67.4 45.4,57.2 54.6,57.2 54.6,59.4 47.8,59.4 47.8,61.1 54.4,61.1 54.4,63.3 47.8,63.3 
		47.8,65.2 54.6,65.2 54.6,67.4 	"/>
	<g class="st1">
		<defs>
			<rect id="SVGID_31_" x="10.6" y="10.6" width="78.8" height="78.8"/>
		</defs>
		<clipPath id="SVGID_32_">
			<use xlink:href="#SVGID_31_"  style="overflow:visible;"/>
		</clipPath>
		<g class="st21">
			<g>
				<defs>
					<rect id="SVGID_33_" x="45.4" y="57.2" width="9.3" height="10.3"/>
				</defs>
				<clipPath id="SVGID_34_">
					<use xlink:href="#SVGID_33_"  style="overflow:visible;"/>
				</clipPath>
				<polygon class="st22" points="54.6,57.2 54.6,59.4 47.8,59.4 47.8,61.1 54.4,61.1 54.4,63.3 47.8,63.3 47.8,65.2 54.6,65.2 
					54.6,67.4 45.4,67.4 45.4,57.2 				"/>
				<polygon class="st23" points="54.6,57.2 54.6,59.4 47.8,59.4 47.8,61.1 54.4,61.1 54.4,63.3 47.8,63.3 47.8,65.2 54.6,65.2 
					54.6,67.4 45.4,67.4 45.4,57.2 				"/>
			</g>
		</g>
	</g>
	<path class="st0" d="M47.8,74H52H52l0,0l0,0l0.1,0l0.1,0l0.1,0l0.1,0l0.1-0.1l0.1-0.1l0.1-0.1l0.1-0.1l0.1-0.1l0-0.1l0-0.1l0-0.1
		l0-0.1l0-0.1l0,0l0,0V73v0l0-0.1l0,0l0,0l0-0.1l0-0.1l0-0.1l0-0.1l-0.1-0.1l-0.1-0.1l-0.1-0.1l-0.1-0.1l-0.1,0l-0.1,0l-0.1,0
		l-0.1,0l-0.1,0l0,0l0,0l-0.1,0h-4.2V74z M53.5,80.1l-2.9-3.9h-2.8v3.9h-2.4V69.9h6.9l0.2,0l0.2,0l0.2,0l0.2,0l0.2,0l0.1,0l0.1,0
		l0.1,0.1l0.1,0.1l0.1,0.1l0.1,0.1l0.1,0.1l0.1,0.1l0.1,0.1l0.1,0.1l0.1,0.1l0.1,0.1l0.1,0.1l0.1,0.1l0.1,0.1l0.1,0.1l0.1,0.1
		l0.1,0.1l0.1,0.1l0.1,0.1l0,0.2l0,0.1l0,0.2l0,0.2l0,0.2l0,0.2l0,0.2v0.1l0,0.1l0,0.1l0,0.1l0,0.1l0,0.1l0,0.1l0,0.1l0,0.1l0,0.1
		l0,0.1l0,0.1L55,74.5l-0.1,0.1l-0.1,0.1l-0.1,0.1l-0.1,0.1L54.7,75l-0.1,0.1l-0.1,0.1l-0.1,0.1l-0.1,0.1l-0.1,0.1l-0.1,0.1
		l-0.1,0.1L54,75.7l-0.1,0.1l-0.1,0.1l-0.1,0.1l-0.1,0.1l-0.1,0.1l-0.1,0l3.1,4.1H53.5z"/>
	<g class="st1">
		<defs>
			<rect id="SVGID_35_" x="10.6" y="10.6" width="78.8" height="78.8"/>
		</defs>
		<clipPath id="SVGID_36_">
			<use xlink:href="#SVGID_35_"  style="overflow:visible;"/>
		</clipPath>
		<g class="st24">
			<g>
				<defs>
					<rect id="SVGID_37_" x="45.4" y="69.9" width="11.1" height="10.3"/>
				</defs>
				<clipPath id="SVGID_38_">
					<use xlink:href="#SVGID_37_"  style="overflow:visible;"/>
				</clipPath>
				<path class="st25" d="M45.4,80.1V69.9h6.9l0.2,0l0.2,0l0.2,0l0.2,0l0.2,0l0.1,0l0.1,0l0.1,0.1l0.1,0.1l0.1,0.1l0.1,0.1l0.1,0.1
					l0.1,0.1l0.1,0.1l0.1,0.1l0.1,0.1l0.1,0.1l0.1,0.1l0.1,0.1l0.1,0.1l0.1,0.1l0.1,0.1l0.1,0.1l0.1,0.1l0.1,0.1l0,0.2l0,0.1l0,0.2
					l0,0.2l0,0.2l0,0.2l0,0.2v0.1l0,0.1l0,0.1l0,0.1l0,0.1l0,0.1l0,0.1l0,0.1l0,0.1l0,0.1l0,0.1l0,0.1L55,74.5l-0.1,0.1l-0.1,0.1
					l-0.1,0.1l-0.1,0.1L54.7,75l-0.1,0.1l-0.1,0.1l-0.1,0.1l-0.1,0.1l-0.1,0.1l-0.1,0.1l-0.1,0.1L54,75.7l-0.1,0.1l-0.1,0.1
					l-0.1,0.1l-0.1,0.1l-0.1,0.1l-0.1,0l3.1,4.1h-2.9l-2.9-3.9h-2.8v3.9H45.4z M52.9,73L52.9,73L52.9,73l0-0.1l0,0l0-0.1l0-0.1
					l0-0.1l0-0.1l-0.1-0.1l-0.1-0.1l-0.1-0.1l-0.1-0.1l-0.1,0l-0.1,0l-0.1,0l-0.1,0l-0.1,0l0,0l0,0l-0.1,0h-4.2v2H52H52l0,0l0,0
					l0.1,0l0.1,0l0.1,0l0.1,0l0.1-0.1l0.1-0.1l0.1-0.1l0.1-0.1l0.1-0.1l0-0.1l0-0.1l0-0.1l0-0.1l0-0.1L52.9,73L52.9,73L52.9,73z"/>
			</g>
		</g>
	</g>
	<polygon class="st26" points="48.9,82.5 47.7,82.4 46.6,82.3 45.5,82.2 44.4,82.1 43.3,81.9 42.2,81.7 41.1,81.4 40.1,81.1 
		39,80.8 38,80.5 36.9,80.1 35.9,79.7 34.9,79.3 34,78.9 33,78.4 32.1,77.9 31.1,77.3 30.2,76.8 29.3,76.2 28.4,75.6 27.6,75 
		26.7,74.3 25.9,73.6 25.1,72.9 24.3,72.2 23.6,71.5 22.9,70.7 22.1,69.9 21.4,69.1 20.8,68.3 20.1,67.4 19.8,66.9 19.5,66.5 
		19.1,66 18.8,65.5 18.5,65 18.2,64.5 17.9,64 17.6,63.5 17.3,63 17,62.5 16.8,61.9 16.5,61.4 16.3,60.9 16,60.3 15.8,59.8 
		15.6,59.3 15.4,58.7 15.1,58.2 15,57.6 14.8,57 14.6,56.5 14.4,55.9 14.2,55.3 14.1,54.8 13.9,54.2 13.8,53.6 13.7,53 13.6,52.4 
		13.5,51.8 13.4,51.2 13.3,50.6 13.2,50 13.1,49.7 13.1,49.4 13.1,49.2 13.1,48.9 13,48.6 13,48.3 13,48 13,47.7 13.1,45.9 
		13.4,44.1 13.7,42.4 14.1,40.6 14.6,38.9 15.1,37.3 15.8,35.7 16.5,34.1 17.3,32.5 18.1,31 19,29.6 20,28.2 21.1,26.8 22.2,25.5 
		23.3,24.2 24.5,23 25.8,21.9 27.1,20.8 28.5,19.8 29.9,18.8 31.4,17.9 32.9,17.1 34.5,16.3 36.1,15.6 37.7,15 39.4,14.5 41.1,14 
		42.8,13.6 44.6,13.3 46.3,13.1 48.2,13 50,12.9 51.8,13 53.7,13.1 55.4,13.3 57.2,13.6 58.9,14 60.6,14.5 62.3,15 63.9,15.6 
		65.5,16.3 67.1,17.1 68.6,17.9 70.1,18.8 71.5,19.8 72.9,20.8 74.2,21.9 75.5,23 76.7,24.2 77.8,25.5 78.9,26.8 80,28.2 81,29.6 
		81.9,31 82.7,32.5 83.5,34.1 84.2,35.7 84.9,37.3 85.4,38.9 85.9,40.6 86.3,42.4 86.6,44.1 86.9,45.9 87,47.7 87,48 87.1,48.3 
		87.1,48.6 87.1,48.8 87.1,49.1 87.1,49.4 87.1,49.7 87.1,50 87.1,50.3 87.1,50.6 87.1,50.9 87.1,51.2 87.1,51.4 87.1,51.7 87,52 
		87,52.3 87,52 87,51.7 87,51.4 86.9,51.2 86.9,50.9 86.9,50.6 86.9,50.3 86.8,50 86.7,49.4 86.6,48.8 86.5,48.2 86.4,47.6 86.3,47 
		86.2,46.4 86.1,45.9 85.9,45.3 85.8,44.7 85.6,44.1 85.4,43.5 85.2,43 85.1,42.4 84.9,41.9 84.6,41.3 84.4,40.8 84.2,40.2 84,39.7 
		83.7,39.1 83.5,38.6 83.2,38.1 83,37.6 82.7,37 82.4,36.5 82.1,36 81.8,35.5 81.5,35 81.2,34.5 80.9,34 80.6,33.5 80.2,33.1 
		79.9,32.6 79.2,31.7 78.6,30.9 77.9,30.1 77.2,29.3 76.4,28.6 75.7,27.8 74.9,27.1 74.1,26.4 73.3,25.7 72.4,25 71.6,24.4 
		70.7,23.8 69.8,23.2 68.9,22.7 67.9,22.1 67,21.6 66,21.1 65.1,20.7 64.1,20.3 63.1,19.9 62,19.5 61,19.2 59.9,18.9 58.9,18.6 
		57.8,18.3 56.7,18.1 55.6,17.9 54.5,17.8 53.4,17.7 52.3,17.6 51.1,17.5 50,17.5 48.4,17.5 46.8,17.7 45.3,17.8 43.7,18.1 
		42.2,18.4 40.7,18.8 39.3,19.3 37.9,19.9 36.5,20.5 35.1,21.1 33.8,21.8 32.5,22.6 31.3,23.5 30.1,24.3 28.9,25.3 27.8,26.3 
		26.7,27.3 25.7,28.4 24.7,29.6 23.8,30.7 23,32 22.2,33.2 21.4,34.5 20.7,35.9 20.1,37.3 19.5,38.7 19,40.1 18.6,41.6 18.2,43.1 
		17.9,44.6 17.7,46.1 17.6,47.7 17.6,48 17.5,48.3 17.5,48.6 17.5,48.8 17.5,49.1 17.5,49.4 17.5,49.7 17.5,50 17.5,50.3 17.5,50.6 
		17.5,50.9 17.5,51.2 17.5,51.4 17.5,51.7 17.6,52 17.6,52.3 17.7,53.9 17.9,55.4 18.2,56.9 18.6,58.4 19,59.9 19.5,61.3 20.1,62.8 
		20.7,64.1 21.4,65.5 22.2,66.8 23,68 23.8,69.3 24.7,70.4 25.7,71.6 26.7,72.7 27.8,73.7 28.9,74.7 30.1,75.7 31.3,76.5 32.5,77.4 
		33.8,78.2 35.1,78.9 36.5,79.5 37.9,80.1 39.3,80.7 40.7,81.2 42.2,81.6 43.7,81.9 45.3,82.2 46.8,82.3 48.4,82.5 50,82.5 	"/>
	<g class="st1">
		<defs>
			<rect id="SVGID_39_" x="10.6" y="10.6" width="78.8" height="78.8"/>
		</defs>
		<clipPath id="SVGID_40_">
			<use xlink:href="#SVGID_39_"  style="overflow:visible;"/>
		</clipPath>
		<g class="st27">
			<g>
				<defs>
					<rect id="SVGID_41_" x="13" y="12.9" width="74.1" height="69.6"/>
				</defs>
				<clipPath id="SVGID_42_">
					<use xlink:href="#SVGID_41_"  style="overflow:visible;"/>
				</clipPath>
				<polygon class="st28" points="87,47.7 86.9,45.9 86.6,44.1 86.3,42.4 85.9,40.6 85.4,38.9 84.9,37.3 84.2,35.7 83.5,34.1 
					82.7,32.5 81.9,31 81,29.6 80,28.2 78.9,26.8 77.8,25.5 76.7,24.2 75.5,23 74.2,21.9 72.9,20.8 71.5,19.8 70.1,18.8 68.6,17.9 
					67.1,17.1 65.5,16.3 63.9,15.6 62.3,15 60.6,14.5 58.9,14 57.2,13.6 55.4,13.3 53.7,13.1 51.8,13 50,12.9 48.2,13 46.3,13.1 
					44.6,13.3 42.8,13.6 41.1,14 39.4,14.5 37.7,15 36.1,15.6 34.5,16.3 32.9,17.1 31.4,17.9 29.9,18.8 28.5,19.8 27.1,20.8 
					25.8,21.9 24.5,23 23.3,24.2 22.2,25.5 21.1,26.8 20,28.2 19,29.6 18.1,31 17.3,32.5 16.5,34.1 15.8,35.7 15.1,37.3 14.6,38.9 
					14.1,40.6 13.7,42.4 13.4,44.1 13.1,45.9 13,47.7 13,48 13,48.3 13,48.6 13.1,48.9 13.1,49.2 13.1,49.4 13.1,49.7 13.2,50 
					13.3,50.6 13.4,51.2 13.5,51.8 13.6,52.4 13.7,53 13.8,53.6 13.9,54.2 14.1,54.8 14.2,55.3 14.4,55.9 14.6,56.5 14.8,57 
					15,57.6 15.1,58.2 15.4,58.7 15.6,59.3 15.8,59.8 16,60.3 16.3,60.9 16.5,61.4 16.8,61.9 17,62.5 17.3,63 17.6,63.5 17.9,64 
					18.2,64.5 18.5,65 18.8,65.5 19.1,66 19.5,66.5 19.8,66.9 20.1,67.4 20.8,68.3 21.4,69.1 22.1,69.9 22.9,70.7 23.6,71.5 
					24.3,72.2 25.1,72.9 25.9,73.6 26.7,74.3 27.6,75 28.4,75.6 29.3,76.2 30.2,76.8 31.1,77.3 32.1,77.9 33,78.4 34,78.9 
					34.9,79.3 35.9,79.7 36.9,80.1 38,80.5 39,80.8 40.1,81.1 41.1,81.4 42.2,81.7 43.3,81.9 44.4,82.1 45.5,82.2 46.6,82.3 
					47.7,82.4 48.9,82.5 50,82.5 48.4,82.5 46.8,82.3 45.3,82.2 43.7,81.9 42.2,81.6 40.7,81.2 39.3,80.7 37.9,80.1 36.5,79.5 
					35.1,78.9 33.8,78.2 32.5,77.4 31.3,76.5 30.1,75.7 28.9,74.7 27.8,73.7 26.7,72.7 25.7,71.6 24.7,70.4 23.8,69.3 23,68 
					22.2,66.8 21.4,65.5 20.7,64.1 20.1,62.7 19.5,61.3 19,59.9 18.6,58.4 18.2,56.9 17.9,55.4 17.7,53.9 17.6,52.3 17.6,52 
					17.5,51.7 17.5,51.4 17.5,51.2 17.5,50.9 17.5,50.6 17.5,50.3 17.5,50 17.5,49.7 17.5,49.4 17.5,49.1 17.5,48.8 17.5,48.6 
					17.5,48.3 17.6,48 17.6,47.7 17.7,46.1 17.9,44.6 18.2,43.1 18.6,41.6 19,40.1 19.5,38.7 20.1,37.3 20.7,35.9 21.4,34.5 
					22.2,33.2 23,32 23.8,30.7 24.7,29.6 25.7,28.4 26.7,27.3 27.8,26.3 28.9,25.3 30.1,24.3 31.3,23.5 32.5,22.6 33.8,21.8 
					35.1,21.1 36.5,20.5 37.9,19.9 39.3,19.3 40.7,18.8 42.2,18.4 43.7,18.1 45.3,17.8 46.8,17.7 48.4,17.5 50,17.5 51.1,17.5 
					52.3,17.6 53.4,17.7 54.5,17.8 55.6,17.9 56.7,18.1 57.8,18.3 58.9,18.6 59.9,18.9 61,19.2 62,19.5 63.1,19.9 64.1,20.3 
					65.1,20.7 66,21.1 67,21.6 67.9,22.1 68.9,22.7 69.8,23.2 70.7,23.8 71.6,24.4 72.4,25 73.3,25.7 74.1,26.4 74.9,27.1 
					75.7,27.8 76.4,28.6 77.2,29.3 77.9,30.1 78.6,30.9 79.2,31.8 79.9,32.6 80.2,33.1 80.6,33.5 80.9,34 81.2,34.5 81.5,35 
					81.8,35.5 82.1,36 82.4,36.5 82.7,37 83,37.6 83.2,38.1 83.5,38.6 83.7,39.1 84,39.7 84.2,40.2 84.4,40.8 84.6,41.3 84.9,41.9 
					85.1,42.4 85.2,43 85.4,43.5 85.6,44.1 85.8,44.7 85.9,45.3 86.1,45.9 86.2,46.4 86.3,47 86.4,47.6 86.5,48.2 86.6,48.8 
					86.7,49.4 86.8,50 86.9,50.3 86.9,50.6 86.9,50.9 86.9,51.2 87,51.4 87,51.7 87,52 87,52.3 87,52 87.1,51.7 87.1,51.4 
					87.1,51.2 87.1,50.9 87.1,50.6 87.1,50.3 87.1,50 87.1,49.7 87.1,49.4 87.1,49.1 87.1,48.8 87.1,48.6 87.1,48.3 87,48 				"/>
			</g>
		</g>
	</g>
	<polygon class="st29" points="48.2,87 46.3,86.9 44.6,86.7 42.8,86.4 41.1,86 39.4,85.5 37.7,85 36.1,84.4 34.5,83.7 32.9,82.9 
		31.4,82.1 29.9,81.2 28.5,80.2 27.1,79.2 25.8,78.1 24.5,77 23.3,75.8 22.2,74.5 21.1,73.2 20,71.8 19,70.4 18.1,69 17.3,67.5 
		16.5,65.9 15.8,64.3 15.1,62.7 14.6,61.1 14.1,59.4 13.7,57.6 13.4,55.9 13.1,54.1 13,52.3 13,52 12.9,51.7 12.9,51.4 12.9,51.2 
		12.9,50.9 12.9,50.6 12.9,50.3 12.9,50 12.9,49.7 12.9,49.4 12.9,49.1 12.9,48.8 12.9,48.6 12.9,48.3 13,48 13,47.7 13,48 13,48.3 
		13,48.6 13.1,48.8 13.1,49.1 13.1,49.4 13.1,49.7 13.2,50 13.3,50.6 13.4,51.2 13.5,51.8 13.6,52.4 13.7,53 13.8,53.6 13.9,54.1 
		14.1,54.7 14.2,55.3 14.4,55.9 14.6,56.5 14.8,57 14.9,57.6 15.1,58.1 15.4,58.7 15.6,59.2 15.8,59.8 16,60.3 16.3,60.9 16.5,61.4 
		16.8,61.9 17,62.4 17.3,63 17.6,63.5 17.9,64 18.2,64.5 18.5,65 18.8,65.5 19.1,66 19.4,66.5 19.8,66.9 20.1,67.4 20.8,68.3 
		21.4,69.1 22.1,69.9 22.8,70.7 23.6,71.4 24.3,72.2 25.1,72.9 25.9,73.6 26.7,74.3 27.6,75 28.4,75.6 29.3,76.2 30.2,76.8 
		31.1,77.3 32.1,77.9 33,78.4 34,78.9 34.9,79.3 35.9,79.7 36.9,80.1 38,80.5 39,80.8 40.1,81.1 41.1,81.4 42.2,81.7 43.3,81.9 
		44.4,82.1 45.5,82.2 46.6,82.3 47.7,82.4 48.9,82.5 50,82.5 51.6,82.5 53.2,82.3 54.7,82.2 56.3,81.9 57.8,81.6 59.3,81.2 
		60.7,80.7 62.1,80.1 63.5,79.5 64.9,78.9 66.2,78.2 67.5,77.4 68.7,76.5 69.9,75.7 71.1,74.7 72.2,73.7 73.3,72.7 74.3,71.6 
		75.3,70.4 76.2,69.3 77,68 77.8,66.8 78.6,65.5 79.3,64.1 79.9,62.8 80.5,61.3 81,59.9 81.4,58.4 81.8,56.9 82.1,55.4 82.3,53.9 
		82.4,52.3 82.4,52 82.5,51.7 82.5,51.4 82.5,51.2 82.5,50.9 82.5,50.6 82.5,50.3 82.5,50 82.5,49.7 82.5,49.4 82.5,49.1 82.5,48.8 
		82.5,48.6 82.5,48.3 82.4,48 82.4,47.7 82.3,46.1 82.1,44.6 81.8,43.1 81.4,41.6 81,40.1 80.5,38.7 79.9,37.3 79.3,35.9 78.6,34.5 
		77.8,33.2 77,32 76.2,30.7 75.3,29.6 74.3,28.4 73.3,27.3 72.2,26.3 71.1,25.3 69.9,24.3 68.7,23.5 67.5,22.6 66.2,21.8 64.9,21.1 
		63.5,20.5 62.1,19.9 60.7,19.3 59.3,18.8 57.8,18.4 56.3,18.1 54.7,17.8 53.2,17.7 51.6,17.5 50,17.5 51.1,17.5 52.3,17.6 
		53.4,17.7 54.5,17.8 55.6,17.9 56.7,18.1 57.8,18.3 58.9,18.6 59.9,18.9 61,19.2 62,19.5 63.1,19.9 64.1,20.3 65.1,20.7 66,21.1 
		67,21.6 67.9,22.1 68.9,22.7 69.8,23.2 70.7,23.8 71.6,24.4 72.4,25 73.3,25.7 74.1,26.4 74.9,27.1 75.7,27.8 76.4,28.5 77.1,29.3 
		77.9,30.1 78.6,30.9 79.2,31.7 79.9,32.6 80.2,33.1 80.5,33.5 80.9,34 81.2,34.5 81.5,35 81.8,35.5 82.1,36 82.4,36.5 82.7,37 
		83,37.5 83.2,38.1 83.5,38.6 83.7,39.1 84,39.7 84.2,40.2 84.4,40.7 84.6,41.3 84.9,41.8 85,42.4 85.2,43 85.4,43.5 85.6,44.1 
		85.8,44.7 85.9,45.2 86.1,45.8 86.2,46.4 86.3,47 86.4,47.6 86.5,48.2 86.6,48.8 86.7,49.4 86.8,50 86.9,50.3 86.9,50.6 86.9,50.8 
		86.9,51.1 87,51.4 87,51.7 87,52 87,52.3 86.9,54.1 86.6,55.9 86.3,57.6 85.9,59.4 85.4,61.1 84.9,62.7 84.2,64.3 83.5,65.9 
		82.7,67.5 81.9,69 81,70.4 80,71.8 78.9,73.2 77.8,74.5 76.7,75.8 75.5,77 74.2,78.1 72.9,79.2 71.5,80.2 70.1,81.2 68.6,82.1 
		67.1,82.9 65.5,83.7 63.9,84.4 62.3,85 60.6,85.5 58.9,86 57.2,86.4 55.4,86.7 53.7,86.9 51.8,87 50,87.1 	"/>
	<g class="st1">
		<defs>
			<rect id="SVGID_43_" x="10.6" y="10.6" width="78.8" height="78.8"/>
		</defs>
		<clipPath id="SVGID_44_">
			<use xlink:href="#SVGID_43_"  style="overflow:visible;"/>
		</clipPath>
		<g class="st30">
			<g>
				<defs>
					<rect id="SVGID_45_" x="12.9" y="17.5" width="74.1" height="69.6"/>
				</defs>
				<clipPath id="SVGID_46_">
					<use xlink:href="#SVGID_45_"  style="overflow:visible;"/>
				</clipPath>
				<polygon class="st31" points="13,52.3 13.1,54.1 13.4,55.9 13.7,57.6 14.1,59.4 14.6,61.1 15.1,62.7 15.8,64.3 16.5,65.9 
					17.3,67.5 18.1,69 19,70.4 20,71.8 21.1,73.2 22.2,74.5 23.3,75.8 24.5,77 25.8,78.1 27.1,79.2 28.5,80.2 29.9,81.2 31.4,82.1 
					32.9,82.9 34.5,83.7 36.1,84.4 37.7,85 39.4,85.5 41.1,86 42.8,86.4 44.6,86.7 46.3,86.9 48.2,87 50,87.1 51.8,87 53.7,86.9 
					55.4,86.7 57.2,86.4 58.9,86 60.6,85.5 62.3,85 63.9,84.4 65.5,83.7 67.1,82.9 68.6,82.1 70.1,81.2 71.5,80.2 72.9,79.2 
					74.2,78.1 75.5,77 76.7,75.8 77.8,74.5 78.9,73.2 80,71.8 81,70.4 81.9,69 82.7,67.5 83.5,65.9 84.2,64.3 84.9,62.7 85.4,61.1 
					85.9,59.4 86.3,57.6 86.6,55.9 86.9,54.1 87,52.3 87,52 87,51.7 87,51.4 86.9,51.1 86.9,50.8 86.9,50.6 86.9,50.3 86.8,50 
					86.7,49.4 86.6,48.8 86.5,48.2 86.4,47.6 86.3,47 86.2,46.4 86.1,45.8 85.9,45.2 85.8,44.7 85.6,44.1 85.4,43.5 85.2,43 
					85,42.4 84.9,41.8 84.6,41.3 84.4,40.7 84.2,40.2 84,39.7 83.7,39.1 83.5,38.6 83.2,38.1 83,37.5 82.7,37 82.4,36.5 82.1,36 
					81.8,35.5 81.5,35 81.2,34.5 80.9,34 80.5,33.5 80.2,33.1 79.9,32.6 79.2,31.7 78.6,30.9 77.9,30.1 77.1,29.3 76.4,28.5 
					75.7,27.8 74.9,27.1 74.1,26.4 73.3,25.7 72.4,25 71.6,24.4 70.7,23.8 69.8,23.2 68.9,22.7 67.9,22.1 67,21.6 66,21.1 
					65.1,20.7 64.1,20.3 63.1,19.9 62,19.5 61,19.2 59.9,18.9 58.9,18.6 57.8,18.3 56.7,18.1 55.6,17.9 54.5,17.8 53.4,17.7 
					52.3,17.6 51.1,17.5 50,17.5 51.6,17.5 53.2,17.7 54.7,17.8 56.3,18.1 57.8,18.4 59.3,18.8 60.7,19.3 62.1,19.9 63.5,20.5 
					64.9,21.1 66.2,21.8 67.5,22.6 68.7,23.5 69.9,24.3 71.1,25.3 72.2,26.3 73.3,27.3 74.3,28.4 75.3,29.6 76.2,30.7 77,32 
					77.8,33.2 78.6,34.5 79.3,35.9 79.9,37.3 80.5,38.7 81,40.1 81.4,41.6 81.8,43.1 82.1,44.6 82.3,46.1 82.4,47.7 82.4,48 
					82.5,48.3 82.5,48.6 82.5,48.8 82.5,49.1 82.5,49.4 82.5,49.7 82.5,50 82.5,50.3 82.5,50.6 82.5,50.9 82.5,51.2 82.5,51.4 
					82.5,51.7 82.4,52 82.4,52.3 82.3,53.9 82.1,55.4 81.8,56.9 81.4,58.4 81,59.9 80.5,61.3 79.9,62.7 79.3,64.1 78.6,65.5 
					77.8,66.8 77,68 76.2,69.3 75.3,70.4 74.3,71.6 73.3,72.7 72.2,73.7 71.1,74.7 69.9,75.7 68.7,76.5 67.5,77.4 66.2,78.2 
					64.9,78.9 63.5,79.5 62.1,80.1 60.7,80.7 59.3,81.2 57.8,81.6 56.3,81.9 54.7,82.2 53.2,82.3 51.6,82.5 50,82.5 48.9,82.5 
					47.7,82.4 46.6,82.3 45.5,82.2 44.4,82.1 43.3,81.9 42.2,81.7 41.1,81.4 40.1,81.1 39,80.8 38,80.5 36.9,80.1 35.9,79.7 
					34.9,79.3 34,78.9 33,78.4 32.1,77.9 31.1,77.3 30.2,76.8 29.3,76.2 28.4,75.6 27.6,75 26.7,74.3 25.9,73.6 25.1,72.9 
					24.3,72.2 23.6,71.4 22.8,70.7 22.1,69.9 21.4,69.1 20.8,68.2 20.1,67.4 19.8,66.9 19.4,66.5 19.1,66 18.8,65.5 18.5,65 
					18.2,64.5 17.9,64 17.6,63.5 17.3,63 17,62.4 16.8,61.9 16.5,61.4 16.3,60.9 16,60.3 15.8,59.8 15.6,59.2 15.4,58.7 15.1,58.1 
					14.9,57.6 14.8,57 14.6,56.5 14.4,55.9 14.2,55.3 14.1,54.7 13.9,54.1 13.8,53.6 13.7,53 13.6,52.4 13.5,51.8 13.4,51.2 
					13.3,50.6 13.2,50 13.1,49.7 13.1,49.4 13.1,49.1 13.1,48.8 13,48.6 13,48.3 13,48 13,47.7 13,48 12.9,48.3 12.9,48.6 
					12.9,48.8 12.9,49.1 12.9,49.4 12.9,49.7 12.9,50 12.9,50.3 12.9,50.6 12.9,50.9 12.9,51.2 12.9,51.4 12.9,51.7 13,52 				"/>
			</g>
		</g>
	</g>
</g>
</svg>
